<?xml version="1.0" encoding="UTF-8" standalone="no"?>
<svg width="32px" height="32px" viewBox="0 0 32 32" version="1.1" xmlns="http://www.w3.org/2000/svg" xmlns:xlink="http://www.w3.org/1999/xlink">
    <!-- Generator: sketchtool 50.2 (55047) - http://www.bohemiancoding.com/sketch -->
    <title>7669A2B5-6531-4D2D-B911-7E86670C4D9A</title>
    <desc>Created with sketchtool.</desc>
    <defs></defs>
    <g id="main" stroke="none" stroke-width="1" fill="none" fill-rule="evenodd">
        <g id="desk-main" transform="translate(-790.000000, -2588.000000)" fill-rule="nonzero">
            <g id="fb-copy" transform="translate(790.000000, 2588.000000)">
                <path d="M30.2358974,32 C31.2205128,32 32,31.2205128 32,30.2358974 L32,1.76410256 C32,0.779487179 31.2205128,0 30.2358974,0 L1.76410256,0 C0.779487179,0 0,0.779487179 0,1.76410256 L0,30.2358974 C0,31.2205128 0.779487179,32 1.76410256,32 L30.2358974,32 Z" id="Blue_1_" fill="#000000"></path>
                <path d="M17.5510204,23 L17.5510204,16.6229261 L19.6326531,16.6229261 L19.9387755,14.1312217 L17.5510204,14.1312217 L17.5510204,12.5475113 C17.5510204,11.8295626 17.7346939,11.3438914 18.7346939,11.3438914 L20,11.3438914 L20,9.10558069 C19.7755102,9.08446456 19.0204082,9 18.1428571,9 C16.3061224,9 15.0612245,10.1613876 15.0612245,12.2941176 L15.0612245,14.1312217 L13,14.1312217 L13,16.6229261 L15.0816327,16.6229261 L15.0816327,23 L17.5510204,23 Z" id="f" fill="#FFFFFF"></path>
            </g>
        </g>
    </g>
</svg>