<?xml version="1.0" encoding="UTF-8" standalone="no"?>
<svg width="32px" height="32px" viewBox="0 0 32 32" version="1.1" xmlns="http://www.w3.org/2000/svg" xmlns:xlink="http://www.w3.org/1999/xlink">
    <!-- Generator: sketchtool 50.2 (55047) - http://www.bohemiancoding.com/sketch -->
    <title>69AECC83-A216-47EB-8B1D-C885BF642F06</title>
    <desc>Created with sketchtool.</desc>
    <defs></defs>
    <g id="main" stroke="none" stroke-width="1" fill="none" fill-rule="evenodd">
        <g id="desk-main" transform="translate(-958.000000, -2588.000000)" fill-rule="nonzero">
            <g id="gp-copy" transform="translate(958.000000, 2588.000000)">
                <path d="M30.2358974,32 C31.2205128,32 32,31.2205128 32,30.2358974 L32,1.76410256 C32,0.779487179 31.2205128,0 30.2358974,0 L1.76410256,0 C0.779487179,0 0,0.779487179 0,1.76410256 L0,30.2358974 C0,31.2205128 0.779487179,32 1.76410256,32 L30.2358974,32 Z" id="Blue_3_" fill="#000000"></path>
                <g id="_x35__stroke" transform="translate(6.000000, 9.000000)" fill="#FFFFFF">
                    <g id="Google_Plus">
                        <path d="M6.54705882,5.2 L6.54705882,7.759375 C6.54705882,7.759375 9.05882353,7.759375 10.0882353,7.759375 C9.55294118,9.425 8.68823529,10.31875 6.54705882,10.31875 C4.40588235,10.31875 2.71764706,8.6125 2.71764706,6.459375 C2.71764706,4.30625 4.40588235,2.6 6.54705882,2.6 C7.7,2.6 8.4,3.00625 9.1,3.534375 C9.63529412,3.00625 9.59411765,2.925 10.9529412,1.665625 C9.8,0.609375 8.23529412,0 6.54705882,0 C2.92352941,0 0,2.884375 0,6.459375 C0,10.034375 2.92352941,12.91875 6.54705882,12.91875 C11.9411765,12.91875 13.2588235,8.2875 12.8470588,5.159375 C12.8058824,5.2 6.54705882,5.2 6.54705882,5.2 Z M18.3235294,5.3625 L18.3235294,3.128125 L16.7176471,3.128125 L16.7176471,5.3625 L14.3705882,5.3625 L14.3705882,6.946875 L16.7176471,6.946875 L16.7176471,9.2625 L18.3235294,9.2625 L18.3235294,6.946875 L20.5882353,6.946875 L20.5882353,5.3625 L18.3235294,5.3625 Z" id="Google_Plus_1_"></path>
                    </g>
                </g>
            </g>
        </g>
    </g>
</svg>