<?xml version="1.0" encoding="UTF-8"?>
<svg width="380px" height="113px" viewBox="0 0 380 113" version="1.1" xmlns="http://www.w3.org/2000/svg" xmlns:xlink="http://www.w3.org/1999/xlink">
    <!-- Generator: Sketch 50.2 (55047) - http://www.bohemiancoding.com/sketch -->
    <title>Group 2</title>
    <desc>Created with Sketch.</desc>
    <defs></defs>
    <g id="Page-1" stroke="none" stroke-width="1" fill="none" fill-rule="evenodd">
        <g id="Group-2" fill-rule="nonzero">
            <g id="Group" fill="#FFFFFF">
                <g id="mask-top2">
                    <polygon id="Polygon" points="380 0.336569127 380 73.8397456 1.13686838e-13 113 1.13686838e-13 0.336569127"></polygon>
                </g>
            </g>
            <g id="group-5" transform="translate(112.000000, 0.000000)">
                <path d="M40.28,40.118 C38.623,35.482 39.506,32.677 40.78,29.998 C42.175,27.063 42.535,24.242 42.535,24.242 C42.535,24.242 43.632,26.125 43.193,29.245 C45.131,26.104 45.497,21.321 45.204,19.525 C49.585,23.401 51.457,32.415 48.934,39.413 C62.354,27.82 52.272,12.932 50.517,11.305 C51.102,13.027 51.213,16.014 50.031,17.564 C48.031,7.236 43.084,5.489 43.084,5.489 C43.669,10.852 40.963,16.989 38.354,21.621 C38.262,19.471 38.164,17.991 37.344,15.993 C37.16,19.927 34.994,23.298 34.407,27.273 C33.613,32.655 35.003,36.435 40.281,40.118 L40.28,40.118 Z M69.08,37.771 C67.423,33.136 68.306,30.331 69.58,27.651 C70.975,24.717 71.335,21.896 71.335,21.896 C71.335,21.896 72.432,23.778 71.993,26.898 C73.931,23.758 74.297,18.974 74.004,17.178 C78.385,21.054 80.257,30.068 77.734,37.066 C91.154,25.474 81.072,10.586 79.317,8.959 C79.902,10.681 80.013,13.667 78.831,15.217 C76.831,4.89 71.884,3.143 71.884,3.143 C72.469,8.505 69.763,14.642 67.154,19.275 C67.062,17.125 66.964,15.645 66.144,13.647 C65.96,17.581 63.794,20.952 63.207,24.926 C62.413,30.308 63.803,34.088 69.081,37.771 L69.08,37.771 Z M98.68,35.36 C97.023,30.724 97.906,27.918 99.18,25.24 C100.575,22.305 100.935,19.484 100.935,19.484 C100.935,19.484 102.032,21.366 101.593,24.486 C103.531,21.346 103.897,16.563 103.604,14.766 C107.985,18.642 109.857,27.656 107.334,34.654 C120.754,23.062 110.672,8.174 108.917,6.547 C109.502,8.269 109.613,11.255 108.431,12.805 C106.431,2.478 101.484,0.731 101.484,0.731 C102.069,6.093 99.363,12.23 96.754,16.863 C96.662,14.713 96.564,13.233 95.744,11.235 C95.56,15.169 93.394,18.54 92.807,22.514 C92.013,27.896 93.403,31.676 98.681,35.359 L98.68,35.36 Z" id="Shape" fill="#F25017"></path>
                <path d="M4.876,56.525 L4.876,64.987 L14.126,64.234 L14.126,55.77 L18.39,55.423 L18.39,77.301 L14.126,77.648 L14.126,67.906 L4.876,68.66 L4.876,78.402 L0.612,78.749 L0.612,56.873 L4.876,56.525 Z M32.636,53.771 C39.524,53.21 44.313,57.609 44.313,64.267 C44.313,70.925 39.524,76.072 32.636,76.633 C25.748,77.194 20.959,72.828 20.959,66.17 C20.959,59.511 25.748,54.332 32.636,53.771 Z M32.636,72.762 C36.9,72.415 39.918,69.053 39.918,64.625 C39.918,60.197 36.9,57.295 32.636,57.642 C28.372,57.989 25.354,61.384 25.354,65.812 C25.354,70.24 28.372,73.11 32.636,72.762 Z M58.69,55.814 L53.77,56.214 L53.77,74.42 L49.506,74.767 L49.506,56.562 L44.586,56.963 L44.586,53.29 L58.69,52.14 L58.69,55.814 Z M70.553,73.05 L66.289,73.398 L66.289,51.028 L69.241,50.788 L82.558,64.922 L82.558,50.196 L86.822,49.848 L86.822,72.152 L83.87,72.392 L70.553,58.258 L70.553,73.051 L70.553,73.05 Z M101.068,48.194 C107.956,47.633 112.745,52.032 112.745,58.69 C112.745,65.348 107.955,70.495 101.068,71.056 C94.18,71.617 89.391,67.251 89.391,60.593 C89.391,53.935 94.18,48.756 101.068,48.194 Z M101.068,67.185 C105.332,66.838 108.349,63.476 108.349,59.048 C108.349,54.62 105.332,51.718 101.068,52.065 C96.804,52.412 93.786,55.807 93.786,60.235 C93.786,64.663 96.804,67.533 101.068,67.185 Z M127.778,54.513 L122.694,69.293 L119.676,69.54 L111.936,47.8 L116.462,47.432 L121.349,61.925 L126.695,46.401 L129.057,46.209 L134.108,60.885 L139.356,45.566 L143.883,45.198 L135.65,68.238 L132.632,68.484 L127.778,54.514 L127.778,54.513 Z M148.748,60.02 L144.681,60.352 L144.681,45.132 L148.748,44.802 L148.748,60.02 Z M144.156,64.921 C144.159583,63.4738841 145.271617,62.2709924 146.714,62.154 C148.158,62.037 149.273,63.061 149.273,64.504 C149.269374,65.9514701 148.156779,67.1544992 146.714,67.271 C145.271,67.389 144.156,66.364 144.156,64.921 Z" id="Shape" fill="#000000"></path>
            </g>
        </g>
    </g>
</svg>