<svg xmlns="http://www.w3.org/2000/svg" width="51" height="51" viewBox="0 0 51 51">
    <g fill="none" fill-rule="evenodd">
        <rect width="51" height="51" fill="#FFF" rx="5"/>
        <path fill="#000" fill-rule="nonzero" d="M45.9 0H5.1C2.295 0 0 2.295 0 5.1v40.8C0 48.705 2.295 51 5.1 51h40.8c2.805 0 5.1-2.295 5.1-5.1V5.1C51 2.295 48.705 0 45.9 0zM25.5 15.3c5.61 0 10.2 4.59 10.2 10.2 0 5.61-4.59 10.2-10.2 10.2-5.61 0-10.2-4.59-10.2-10.2 0-5.61 4.59-10.2 10.2-10.2zM6.375 45.9c-.765 0-1.275-.51-1.275-1.275V22.95h5.355c-.255.765-.255 1.785-.255 2.55 0 8.415 6.885 15.3 15.3 15.3 8.415 0 15.3-6.885 15.3-15.3 0-.765 0-1.785-.255-2.55H45.9v21.675c0 .765-.51 1.275-1.275 1.275H6.375zM45.9 11.475c0 .765-.51 1.275-1.275 1.275h-5.1c-.765 0-1.275-.51-1.275-1.275v-5.1c0-.765.51-1.275 1.275-1.275h5.1c.765 0 1.275.51 1.275 1.275v5.1z"/>
    </g>
</svg>
