<svg xmlns="http://www.w3.org/2000/svg" viewBox="0 0 263.8 100.9"><defs><style>.cls-1{fill:#fff;}</style></defs><title>Ресурс 1snc</title><g id="Слой_2" data-name="Слой 2"><g id="Слой_1-2" data-name="Слой 1"><path class="cls-1" d="M45.1,100.3C68.5,100.3,84,88.6,84,68.9c0-18.3-13.8-25.5-35.9-30.3-13.3-3-16.6-5-16.6-9.4,0-3.7,3.2-6.5,9.6-6.5,8.5,0,18.2,3.3,27,9.5L81.4,13.4C71,5.1,58.2.7,41.8.7,18.7.7,4.5,13.6,4.5,31.5,4.5,51.6,20.3,57.4,40.8,62,53.9,65,57,67.2,57,71.2c0,4.4-3.9,6.9-11,6.9-11.1,0-21.7-4-31.2-11.6L0,84.3c11.8,10.6,28.1,16,45.1,16Z"/><polygon class="cls-1" points="174 1.5 162.8 46.7 144 0.3 95.5 0.3 95 2 109.6 2 86.2 95.9 72.4 95.9 72.1 97.1 96.5 97.1 97 95.9 87.8 95.9 110.1 6.3 150.7 100.9 175.5 1.5 188.6 1.5 189 0 161.3 0 160.9 1.5 174 1.5"/><path class="cls-1" d="M221.2,100.5c21.3,0,33.6-9.2,42.6-21.7L243.7,64.5c-5.8,7-11.7,11.7-21.7,11.7-13.5,0-23-11.3-23-25.7s9.5-25.7,23-25.7c9.2,0,15.7,4.3,21.2,11.1l19.5-15.1C254.3,8.9,242,.4,222.3.4c-29.2,0-50.8,22-50.8,50.1.1,29,22.2,50,49.7,50Z"/></g></g></svg>