<?xml version="1.0" encoding="utf-8"?>
<!-- Generator: Adobe Illustrator 18.1.1, SVG Export Plug-In . SVG Version: 6.00 Build 0)  -->
<svg version="1.1" id="Слой_1" xmlns="http://www.w3.org/2000/svg" xmlns:xlink="http://www.w3.org/1999/xlink" x="0px" y="0px"
	 viewBox="0 0 264.5 101.7" enable-background="new 0 0 264.5 101.7" xml:space="preserve">
<g>
	<path fill="#010202" d="M45.1,101.5c23.4,0,38.9-11.7,38.9-31.4c0-18.3-13.8-25.5-35.9-30.3c-13.3-3-16.6-5-16.6-9.4
		c0-3.7,3.2-6.5,9.6-6.5c8.5,0,18.2,3.3,27,9.5l13.3-18.8C71,6.3,58.2,1.9,41.8,1.9C18.7,1.9,4.5,14.8,4.5,32.7
		c0,20.1,15.8,25.9,36.3,30.5c13.1,3,16.2,5.2,16.2,9.2c0,4.4-3.9,6.9-11,6.9c-11.1,0-21.7-4-31.2-11.6L0,85.5
		C11.8,96.1,28.1,101.5,45.1,101.5L45.1,101.5L45.1,101.5z"/>
	<polygon fill="#010202" points="174,2.7 162.8,47.9 144,1.5 95.5,1.5 95,3.2 109.6,3.2 86.2,97.1 72.4,97.1 72.1,98.3 96.5,98.3 
		97,97.1 87.8,97.1 110.1,7.5 150.7,102.1 175.5,2.7 188.6,2.7 189,1.2 161.3,1.2 160.9,2.7 	"/>
	<path fill="#010202" d="M221.2,101.7c21.3,0,33.6-9.2,42.6-21.7l-20.1-14.3c-5.8,7-11.7,11.7-21.7,11.7c-13.5,0-23-11.3-23-25.7
		c0-14.3,9.5-25.7,23-25.7c9.2,0,15.7,4.3,21.2,11.1l19.5-15.1C254.3,10.1,242,1.6,222.3,1.6c-29.2,0-50.8,22-50.8,50.1
		C171.6,80.7,193.7,101.7,221.2,101.7L221.2,101.7L221.2,101.7z"/>
</g>
</svg>
