<?xml version="1.0" encoding="UTF-8" standalone="no"?>
<svg width="24px" height="26px" viewBox="0 0 24 26" version="1.1" xmlns="http://www.w3.org/2000/svg" xmlns:xlink="http://www.w3.org/1999/xlink">
    <!-- Generator: sketchtool 50.2 (55047) - http://www.bohemiancoding.com/sketch -->
    <title>8DC11EC9-D085-428B-A89A-AB1A704909D2</title>
    <desc>Created with sketchtool.</desc>
    <defs></defs>
    <g id="main" stroke="none" stroke-width="1" fill="none" fill-rule="evenodd">
        <g id="iPad---main" transform="translate(-638.000000, -38.000000)" fill="#000000" fill-rule="nonzero">
            <g id="Group-78">
                <g id="Group-73">
                    <g id="header__search_ico" transform="translate(638.000000, 38.000000)">
                        <path d="M9.5,19 C4.25329488,19 0,14.7467051 0,9.5 C0,4.25329488 4.25329488,0 9.5,0 C14.7467051,0 19,4.25329488 19,9.5 C19,14.7467051 14.7467051,19 9.5,19 Z M9.5,16.2857143 C13.2476465,16.2857143 16.2857143,13.2476465 16.2857143,9.5 C16.2857143,5.75235348 13.2476465,2.71428571 9.5,2.71428571 C5.75235348,2.71428571 2.71428571,5.75235348 2.71428571,9.5 C2.71428571,13.2476465 5.75235348,16.2857143 9.5,16.2857143 Z" id="Oval"></path>
                        <polygon id="Rectangle-path" points="12.5834005 16.4165995 14.5 14.5 23.499597 23.5829975 21.5829975 25.499597"></polygon>
                    </g>
                </g>
            </g>
        </g>
    </g>
</svg>