<?xml version="1.0" encoding="UTF-8"?>
<svg width="345px" height="107px" viewBox="0 0 345 107" version="1.1" xmlns="http://www.w3.org/2000/svg" xmlns:xlink="http://www.w3.org/1999/xlink">
    <!-- Generator: Sketch 50.2 (55047) - http://www.bohemiancoding.com/sketch -->
    <title>Group</title>
    <desc>Created with Sketch.</desc>
    <defs></defs>
    <g id="Page-1" stroke="none" stroke-width="1" fill="none" fill-rule="evenodd">
        <g id="Group" fill-rule="nonzero">
            <g id="mask-top2" fill="#FFFFFF">
                <polygon id="Polygon" points="345 0.3186982 345 69.9190511 1.13686838e-13 107 1.13686838e-13 0.3186982"></polygon>
            </g>
            <g id="trash-logo-mob" transform="translate(31.000000, 14.000000)">
                <polygon id="Shape" fill="#F2EB17" points="0.933 27.429 253.156 0 253.156 62.259 0.933 89.687"></polygon>
                <path d="M40.65,47.635 L35.49,48.152 L35.49,67.316 L31.017,67.764 L31.017,48.6 L25.856,49.117 L25.856,45.25 L40.65,43.768 L40.65,47.635 Z M43.472,43.485 L50.112,42.82 C53.278,42.503 54.895,43.17 55.962,43.961 C57.716,45.271 58.232,47.187 58.232,48.913 C58.232,51.157 57.338,53.215 55.548,54.603 C54.963,55.076 54.138,55.538 53.037,55.856 L60.193,64.842 L54.619,65.4 L48.495,56.76 L47.945,56.815 L47.945,66.068 L43.472,66.516 L43.472,43.486 L43.472,43.485 Z M47.945,46.698 L47.945,53.638 L49.218,53.51 C50.078,53.424 53.622,52.966 53.622,49.582 C53.622,46.164 50.112,46.481 49.286,46.563 L47.945,46.698 Z M78.84,62.974 L76.81,58.344 L67.555,59.27 L65.525,64.308 L60.674,64.793 L70.617,40.283 L73.989,39.946 L83.657,62.492 L78.84,62.974 Z M68.966,55.469 L75.503,54.814 L72.269,46.851 L68.966,55.469 Z M99.966,40.003 L97.626,43.31 C96.284,41.649 94.702,41.635 93.876,41.717 C91.467,41.959 90.711,43.554 90.711,44.727 C90.711,45.28 90.883,45.781 91.433,46.209 C91.983,46.672 92.74,46.872 94.186,47.246 C95.975,47.688 97.661,48.141 98.83,49.094 C99.863,49.923 100.792,51.384 100.792,53.732 C100.792,58.22 97.557,61.617 92.809,62.092 C88.577,62.517 86.1,60.175 84.896,58.535 L87.82,55.445 C88.921,57.579 91.02,58.198 92.637,58.035 C94.667,57.832 96.181,56.438 96.181,54.505 C96.181,53.675 95.906,53.047 95.287,52.522 C94.427,51.814 93.05,51.502 91.743,51.185 C90.538,50.891 89.093,50.483 87.923,49.565 C87.167,48.985 86.1,47.814 86.1,45.465 C86.1,42.082 88.37,38.471 93.463,37.961 C94.908,37.816 97.626,37.82 99.966,40.003 Z M109.186,36.903 L109.186,45.813 L118.889,44.84 L118.889,35.932 L123.362,35.484 L123.362,58.514 L118.889,58.963 L118.889,48.708 L109.187,49.68 L109.187,59.935 L104.714,60.383 L104.714,37.352 L109.187,36.904 L109.186,36.903 Z M142.216,35.771 L139.877,39.078 C138.535,37.418 136.952,37.403 136.127,37.486 C133.718,37.727 132.961,39.322 132.961,40.496 C132.961,41.049 133.133,41.549 133.684,41.978 C134.234,42.44 134.991,42.641 136.436,43.014 C138.226,43.456 139.911,43.909 141.081,44.862 C142.113,45.692 143.042,47.152 143.042,49.5 C143.042,53.989 139.808,57.386 135.06,57.861 C130.828,58.285 128.35,55.944 127.147,54.303 L130.071,51.213 C131.172,53.347 133.271,53.966 134.888,53.804 C136.918,53.601 138.432,52.206 138.432,50.272 C138.432,49.444 138.157,48.815 137.537,48.29 C136.677,47.582 135.301,47.271 133.994,46.953 C132.789,46.66 131.344,46.252 130.174,45.333 C129.418,44.753 128.351,43.583 128.351,41.234 C128.351,37.85 130.621,34.239 135.714,33.729 C137.159,33.584 139.877,33.589 142.217,35.771 L142.216,35.771 Z M159.695,31.845 L159.695,35.712 L151.437,36.539 L151.437,41.684 L159.351,40.892 L159.351,44.759 L151.437,45.551 L151.437,51.836 L159.695,51.009 L159.695,54.876 L146.965,56.151 L146.965,33.121 L159.695,31.845 Z M176.416,34.038 L171.256,34.554 L171.256,53.718 L166.783,54.166 L166.783,35.002 L161.622,35.519 L161.622,31.652 L176.416,30.17 L176.416,34.038 Z M191.624,32.514 L186.463,33.031 L186.463,52.195 L181.99,52.643 L181.99,33.479 L176.83,33.996 L176.83,30.13 L191.624,28.648 L191.624,32.515 L191.624,32.514 Z M207.176,27.09 L207.176,30.957 L198.918,31.784 L198.918,36.929 L206.831,36.136 L206.831,40.003 L198.918,40.796 L198.918,47.08 L207.176,46.253 L207.176,50.121 L194.446,51.396 L194.446,28.365 L207.176,27.09 Z M211.511,26.655 L218.151,25.99 C221.316,25.673 222.934,26.34 224.001,27.131 C225.755,28.44 226.271,30.357 226.271,32.083 C226.271,34.327 225.376,36.385 223.587,37.773 C223.002,38.246 222.177,38.708 221.076,39.026 L228.232,48.012 L222.658,48.57 L216.534,39.93 L215.984,39.985 L215.984,49.238 L211.511,49.686 L211.511,26.656 L211.511,26.655 Z M215.984,29.868 L215.984,36.808 L217.257,36.68 C218.117,36.594 221.661,36.136 221.661,32.752 C221.661,29.334 218.151,29.65 217.325,29.733 L215.984,29.868 Z" id="Shape" fill="#000000"></path>
            </g>
        </g>
    </g>
</svg>