<svg xmlns="http://www.w3.org/2000/svg" width="47" height="46" viewBox="0 0 47 46">
    <g fill="none" fill-rule="evenodd">
        <ellipse cx="22.5" cy="24" fill="#FFF" rx="14.5" ry="16"/>
        <path fill="#010002" fill-rule="nonzero" d="M23.003.143C9.093-1.539-1.017 12.477.143 23.053c1.16 10.577 10.477 22.15 22.86 22.911 12.383.762 21.1-9.302 22.86-22.91 1.76-13.609-8.95-21.229-22.86-22.91zm7.163 23.995l-9.885 9.907a1.528 1.528 0 0 1-2.155 0 1.53 1.53 0 0 1 0-2.16l8.812-8.831-8.812-8.831a1.53 1.53 0 0 1 0-2.16 1.523 1.523 0 0 1 2.155 0l9.885 9.906c.304.3.448.694.444 1.085 0 .394-.146.785-.444 1.084z"/>
    </g>
</svg>
