<svg xmlns="http://www.w3.org/2000/svg" width="32" height="33" viewBox="0 0 32 33">
    <path fill="#000" fill-rule="nonzero" stroke="#000" d="M30.69 23.107l.04-.54c.196-2.549-1.114-4.636-3.195-5.274.31-.658.499-1.356.553-2.058l.031-.416c.205-2.679-1.637-4.614-4.114-4.336.136-2.183-1.34-3.895-3.82-4.495.54-2.01.719-3.358.533-4.011-.195-.687-.673-.705-.87-.681-.639.078-1.154.818-1.804 1.755-.241.347-.49.706-.725.995-.28.347-1.682 1.44-4.709 3.379l-.084.054c-2.001 1.33-3.195 3.097-3.332 4.887-2.135.72-3.843 2.888-4.025 5.27l-.032.417c-.054.702.03 1.366.246 1.96-2.22 1.166-3.876 3.616-4.071 6.165l-.041.542c-.259 3.38 2.083 5.819 5.22 5.434l18.043-2.216c3.135-.385 5.897-3.449 6.156-6.83zM18.263 4.882c.278-.343.548-.731.808-1.106.102-.146.224-.322.344-.489-.067.656-.287 1.742-.713 3.22l-.204.713.627.1c2.236.354 3.653 1.719 3.524 3.395a3.027 3.027 0 0 1-.09.525l-.23.893 1.52-.186c1.754-.216 3.063 1.147 2.919 3.038l-.032.417a4.26 4.26 0 0 1-.76 2.088l-.683.984 1.003.108c1.954.21 3.251 1.955 3.083 4.15l-.04.542c-.198 2.577-2.303 4.914-4.694 5.207L6.601 30.697c-2.39.293-4.176-1.565-3.979-4.143l.041-.541c.168-2.196 1.76-4.296 3.784-4.994l1.037-.358-.543-.834c-.352-.54-.508-1.21-.453-1.939l.032-.416c.142-1.858 1.605-3.528 3.33-3.804l.8-.127-.094-.824a2.733 2.733 0 0 1-.01-.516c.095-1.24 1.002-2.514 2.488-3.494 2.97-1.901 4.7-3.17 5.23-3.825zm-8.108 18.48l-.176-1.047 2.09-.821-1.983-1.483.695-.962 2.776 2.074c.147.11.205.316.15.53a.707.707 0 0 1-.41.475l-3.142 1.235zm12.185-1.496l-3.011-.479c-.188-.03-.321-.178-.345-.382a.692.692 0 0 1 .236-.577l3.148-2.802.56.808-2.25 2.002 2.003.32-.341 1.11zm-4.341 4.915c-.028-.49-.25-2.07-1.965-1.861-1.714.212-2.185 1.878-2.289 2.383l-1.011-.03c.295-1.442 1.357-3.213 3.378-3.467 2.036-.244 2.844 1.297 2.922 2.693L18 26.78z"/>
</svg>
