<?xml version="1.0" encoding="UTF-8" standalone="no"?>
<svg width="469px" height="106px" viewBox="0 0 469 106" version="1.1" xmlns="http://www.w3.org/2000/svg" xmlns:xlink="http://www.w3.org/1999/xlink">
    <!-- Generator: Sketch 50.2 (55047) - http://www.bohemiancoding.com/sketch -->
    <title>Group 9</title>
    <desc>Created with Sketch.</desc>
    <defs></defs>
    <g id="main" stroke="none" stroke-width="1" fill="none" fill-rule="evenodd">
        <g id="desk-main" transform="translate(-184.000000, -7581.000000)">
            <g id="Group-9" transform="translate(184.000000, 7581.000000)">
                <polygon id="Rectangle-41-Copy-2" fill="#F2EB17" points="2.84217094e-14 34.5 291 3 291 74.5 0 106"></polygon>
                <path d="M46.033322,57.9158118 L40.0914655,58.5086062 L40.0914655,80.4862448 L34.9418565,81 L34.9418565,59.0223614 L29,59.6151558 L29,55.1800287 L46.033322,53.4806847 L46.033322,57.9158118 Z M49.2815369,53.1566237 L56.9267256,52.3938949 C60.5710643,52.0303143 62.432846,52.7949565 63.6608296,53.7020287 C65.6810609,55.2032506 66.2752465,57.401134 66.2752465,59.3811015 C66.2752465,61.9550592 65.2453247,64.3149731 63.1854811,65.9064524 C62.5120707,66.4488279 61.5613737,66.9792679 60.2937776,67.3433268 L68.533152,77.6487355 L62.115947,78.2889535 L55.0649439,68.3797774 L54.4311459,68.4430088 L54.4311459,79.0556343 L49.2815369,79.5693895 L49.2815369,53.1566237 Z M54.4311459,56.8403996 L54.4311459,64.7998687 L55.8968038,64.6536461 C56.8871132,64.554847 60.967188,64.0289968 60.967188,60.1482606 C60.967188,56.227925 56.9267256,56.5914259 55.9760286,56.686273 L54.4311459,56.8403996 Z M90.0030602,75.5067717 L87.66593,70.1960286 L77.0102006,71.2591066 L74.6730704,77.0361813 L69.0877253,77.5934081 L80.5357021,49.4841342 L84.4177151,49.0968418 L95.5487929,74.9534969 L90.0030602,75.5067717 Z M78.6343081,66.8995452 L86.1606596,66.1486723 L82.4370962,57.016313 L78.6343081,66.8995452 Z M114.32506,49.1622598 L111.631418,52.9553353 C110.086535,51.0502957 108.264366,51.0340893 107.313669,51.1289364 C104.540802,51.4055738 103.66933,53.2348883 103.66933,54.5812662 C103.66933,55.2148557 103.867392,55.7890862 104.50119,56.2802456 C105.134988,56.8110045 106.00646,57.0408561 107.67018,57.4688639 C109.730024,57.9761501 111.67103,58.4952922 113.017851,59.5885053 C114.206222,60.5391288 115.275757,62.2143965 115.275757,64.9071522 C115.275757,70.0550676 111.552193,73.9508942 106.085685,74.496265 C101.213363,74.9823564 98.3612717,72.2969466 96.9748385,70.4156985 L100.341891,66.8722344 C101.609487,69.3197293 104.025842,70.0290439 105.887623,69.8433017 C108.224753,69.6101359 109.967698,68.0106729 109.967698,65.7931094 C109.967698,64.842725 109.650799,64.1219531 108.937776,63.5198995 C107.947467,62.7079135 106.362972,62.3512005 104.857701,61.9865836 C103.471268,61.6497101 101.807548,61.1821029 100.460728,60.1284892 C99.5892554,59.4630448 98.3612717,58.1203797 98.3612717,55.427624 C98.3612717,51.5468878 100.975689,47.405322 106.83832,46.8204315 C108.50204,46.6544491 111.631418,46.6590388 114.32506,49.1622598 Z M124.941176,45.6083748 L124.941176,55.8250068 L136.111867,54.7105533 L136.111867,44.4939213 L141.261476,43.9801661 L141.261476,70.3929318 L136.111867,70.906687 L136.111867,59.1456803 L124.941176,60.2601339 L124.941176,72.0211405 L119.791567,72.5348957 L119.791567,46.1221299 L124.941176,45.6083748 Z M162.969058,44.3092494 L160.275417,48.102325 C158.730534,46.1972854 156.908365,46.1810789 155.957667,46.275926 C153.184801,46.5525634 152.313329,48.381878 152.313329,49.7282558 C152.313329,50.3618454 152.511391,50.9360758 153.145189,51.4272353 C153.778987,51.9579941 154.650459,52.1878457 156.314179,52.6158535 C158.374022,53.1231398 160.315029,53.6422819 161.66185,54.7354949 C162.850221,55.6861185 163.919755,57.3613862 163.919755,60.0541419 C163.919755,65.2020573 160.196192,69.0978838 154.729684,69.6432547 C149.857361,70.1293461 147.00527,67.4439363 145.618837,65.5626882 L148.985889,62.0192241 C150.253485,64.4667189 152.66984,65.1760336 154.531622,64.9902913 C156.868752,64.7571255 158.611697,63.1576626 158.611697,60.9400991 C158.611697,59.9897147 158.294798,59.2689428 157.581775,58.6668892 C156.591465,57.8549032 155.00697,57.4981902 153.5017,57.1335732 C152.115267,56.7966997 150.451547,56.3290926 149.104726,55.2754789 C148.233254,54.6100344 147.00527,53.2673694 147.00527,50.5746136 C147.00527,46.6938774 149.619687,42.5523117 155.482319,41.9674212 C157.146039,41.8014388 160.275417,41.8060285 162.969058,44.3092494 Z M183.092146,39.8068934 L183.092146,44.2420204 L173.585175,45.1904915 L173.585175,51.0907945 L182.696022,50.1818431 L182.696022,54.6169701 L173.585175,55.5259216 L173.585175,62.7330031 L183.092146,61.784532 L183.092146,66.2196591 L168.435566,67.6818853 L168.435566,41.2691196 L183.092146,39.8068934 Z M202.343761,42.3213665 L196.401904,42.9141609 L196.401904,64.8917996 L191.252295,65.4055547 L191.252295,43.4279161 L185.310439,44.0207105 L185.310439,39.5855834 L202.343761,37.8862394 L202.343761,42.3213665 Z M219.852431,40.5745989 L213.910575,41.1673934 L213.910575,63.145032 L208.760966,63.6587872 L208.760966,41.6811485 L202.819109,42.273943 L202.819109,37.8388159 L219.852431,36.1394719 L219.852431,40.5745989 Z M237.757225,34.3531847 L237.757225,38.7883118 L228.250255,39.7367828 L228.250255,45.6370858 L237.361102,44.7281344 L237.361102,49.1632614 L228.250255,50.0722129 L228.250255,57.2792944 L237.757225,56.3308233 L237.757225,60.7659504 L223.100646,62.2281766 L223.100646,35.8154109 L237.757225,34.3531847 Z M242.748385,33.8552374 L250.393574,33.0925085 C254.037912,32.728928 255.899694,33.4935701 257.127678,34.4006423 C259.147909,35.9018642 259.742095,38.0997476 259.742095,40.0797151 C259.742095,42.6536728 258.712173,45.0135867 256.652329,46.605066 C255.978919,47.1474415 255.028222,47.6778815 253.760626,48.0419404 L262,58.3473492 L255.582795,58.9875671 L248.531792,49.078391 L247.897994,49.1416224 L247.897994,59.7542479 L242.748385,60.2680031 L242.748385,33.8552374 Z M247.897994,37.5390132 L247.897994,45.4984823 L249.363652,45.3522597 C250.353961,45.2534606 254.434036,44.7276104 254.434036,40.8468742 C254.434036,36.9265387 250.393574,37.2900395 249.442877,37.3848866 L247.897994,37.5390132 Z" id="Trashsetter-Copy-2" fill="#000000"></path>
                <path d="M384,41 L392.776936,24.9006211 L389.145927,24.9006211 L394.588712,9 L408.396101,9 L402.311299,18.4409938 L409,18.4409938 L384,41 Z M391.778762,22.7476508 L395.935312,22.7476508 L390.606343,32.475267 L404.144811,20.2661161 L398.889403,20.2661161 L404.974205,10.8362841 L395.848906,10.8362841 L391.778762,22.7476508 Z" id="Shape" fill="#000000" fill-rule="nonzero" transform="translate(396.500000, 25.000000) rotate(-5.000000) translate(-396.500000, -25.000000) "></path>
                <path d="M330.130689,46 C329.035384,41.2849196 330.384496,38.5831291 332.132684,36.0376538 C334.047139,33.249992 334.840371,30.4905716 334.840371,30.4905716 C334.840371,30.4905716 335.737054,32.4396015 334.815962,35.4879372 C337.33911,32.5394978 338.423678,27.8418849 338.372389,26.042795 C342.481855,30.2267101 343.169921,39.2860371 339.462618,46 C355.459011,35.6230235 346.868058,20.0958726 345.232222,18.3468265 C345.606221,20.0958088 345.2909,23.0566794 343.805222,24.4936053 C343.170925,14.1249801 338.148398,12 338.148398,12 C337.993776,17.3471621 334.216742,23.194252 330.76103,27.5632972 C330.975431,25.4311134 331.086551,23.9598262 330.501585,21.9194424 C329.733945,25.7927674 326.934377,28.9501156 325.73172,32.830963 C324.102849,38.0865163 325.036035,41.9345962 330.130689,46 Z" id="Shape" fill="#000000" fill-rule="nonzero"></path>
                <path d="M466.767456,24.9701478 L466.874337,24.4386661 C467.378302,21.9326201 466.332574,19.7012186 464.344612,18.8149591 C464.73335,18.1992348 465.005392,17.5294034 465.144089,16.83971 L465.226453,16.4301403 C465.756037,13.796703 464.163912,11.650914 461.671651,11.6248878 C462.0721,9.47498937 460.815497,7.59631099 458.426971,6.6984082 C459.207456,4.76904728 459.550149,3.45335601 459.445597,2.78215483 C459.335564,2.07670871 458.862817,2 458.664944,2 C458.021206,2 457.420185,2.67120117 456.65992,3.52253082 C456.37865,3.83689953 456.087227,4.16291153 455.819717,4.42180341 C455.498917,4.73206273 453.974845,5.6464031 450.733801,7.20112418 L450.643762,7.24427283 C448.495242,8.3216192 447.09526,9.92976241 446.741424,11.6892683 C444.534551,12.1440414 442.574487,14.0871003 442.103303,16.4301403 L442.020939,16.83971 C441.882241,17.5294034 441.885016,18.1985499 442.026623,18.8149591 C439.681557,19.7012186 437.738499,21.9319352 437.234534,24.4379812 L437.127515,24.9701478 C436.458959,28.2946483 438.485961,31 441.646071,31 L459.825,31 C462.983808,31 466.098762,28.2953332 466.767456,24.9701478 Z M456.654947,5.36627934 C456.972455,5.05944452 457.287336,4.70740636 457.591414,4.36701148 C457.710562,4.23414104 457.852656,4.07455954 457.992308,3.92388173 C457.84554,4.56631713 457.494828,5.61763733 456.892633,7.03263899 L456.603003,7.71548344 L457.213434,7.89081763 C459.389535,8.51476076 460.628924,10.0420859 460.297538,11.6899532 C460.26462,11.8536441 460.212988,12.0262387 460.144019,12.200888 L459.807414,13.0590666 L461.337675,13.0590666 C463.104863,13.0590666 464.238582,14.571324 463.864637,16.4308252 L463.782273,16.8403949 C463.638204,17.5567994 463.289067,18.2410137 462.773544,18.8204383 L461.976101,19.7142317 L462.957866,19.942988 C464.872316,20.3888574 465.946793,22.279864 465.512658,24.4386661 L465.40564,24.9708327 C464.896028,27.5049596 462.52146,29.567191 460.113137,29.567191 L441.933557,29.567191 C439.524584,29.567191 437.979444,27.5049596 438.489056,24.9708327 L438.596074,24.4386661 C439.030209,22.279864 440.865247,20.3888574 442.959676,19.942988 L444.032796,19.7142317 L443.595487,18.8204383 C443.312357,18.2410137 443.238411,17.5567994 443.382479,16.8403949 L443.464844,16.4308252 C443.83204,14.604884 445.487967,13.1255019 447.234118,13.0618062 L448.043111,13.0330405 L448.050435,12.2036276 C448.051986,12.0276085 448.069771,11.8550139 448.102965,11.6899532 C448.34813,10.4708327 449.403596,9.31677767 450.997907,8.52571914 C454.177702,7.00044873 456.050176,5.95255302 456.654947,5.36627934 Z M446.354586,22.720939 L446.307575,21.6600302 L448.482423,21.0990978 L446.695202,19.386165 L447.502283,18.5156582 L450.003934,20.9128053 C450.136484,21.0401965 450.169566,21.2511454 450.089192,21.4566152 C450.008819,21.6620849 449.828147,21.8257758 449.624224,21.8785131 L446.354586,22.720939 Z M458.631172,22.720939 L455.701008,21.8785131 C455.518297,21.8257758 455.403974,21.6627698 455.405727,21.4566152 C455.40748,21.2504605 455.526057,21.0395116 455.709705,20.9128053 L459.175487,18.5156582 L459.63245,19.386165 L457.156289,21.0990978 L459.105531,21.6600302 L458.631172,22.720939 Z M453.723604,27.0700487 C453.755554,26.5810307 453.72759,24.9852156 452.00052,24.9831609 C450.272624,24.9852156 449.602825,26.5810307 449.438092,27.0700487 L448.438059,26.9159463 C448.906731,25.5208068 450.175972,23.8928015 452.213733,23.8873223 C454.263611,23.8928015 454.878069,25.5208068 454.785616,26.9159463 L453.723604,27.0700487 Z" id="Shape" stroke="#000000" fill="#000000" fill-rule="nonzero" transform="translate(452.000000, 16.500000) rotate(-7.000000) translate(-452.000000, -16.500000) "></path>
            </g>
        </g>
    </g>
</svg>