<svg xmlns="http://www.w3.org/2000/svg" width="240" height="85" viewBox="0 0 240 85">
    <g fill="none" fill-rule="evenodd">
        <path fill="#F2EB17" d="M0 25.995L240 0v59.005L0 85z"/>
        <path fill="#000" d="M38.036 43.244l-4.896.482v17.857L28.896 62V44.143L24 44.625V41.02l14.036-1.38v3.603zm2.677-3.867l6.3-.62c3.003-.295 4.537.326 5.549 1.063 1.664 1.22 2.154 3.006 2.154 4.615 0 2.091-.849 4.008-2.546 5.301-.555.441-1.338.872-2.383 1.168l6.79 8.373-5.288.52-5.81-8.05-.523.05v8.623l-4.243.418v-21.46zm4.243 2.993v6.467l1.208-.118c.816-.08 4.178-.508 4.178-3.661 0-3.185-3.33-2.89-4.113-2.813l-1.273.125zM74.27 57.537l-1.926-4.315-8.78.864-1.927 4.693-4.602.453 9.433-22.839 3.2-.314 9.171 21.008-4.57.45zM64.9 50.543l6.202-.61-3.068-7.42-3.134 8.03zm29.41-14.411l-2.219 3.082c-1.273-1.548-2.774-1.561-3.558-1.484-2.285.225-3.003 1.71-3.003 2.805 0 .515.163.981.686 1.38.522.431 1.24.618 2.61.966 1.698.412 3.298.834 4.408 1.722.979.773 1.86 2.134 1.86 4.322 0 4.182-3.068 7.348-7.573 7.79-4.015.396-6.365-1.786-7.507-3.315l2.774-2.879c1.045 1.989 3.036 2.565 4.57 2.414 1.926-.19 3.362-1.489 3.362-3.29 0-.773-.261-1.358-.849-1.848-.816-.66-2.121-.95-3.362-1.245-1.142-.274-2.513-.654-3.623-1.51-.718-.54-1.73-1.632-1.73-3.82 0-3.153 2.154-6.518 6.985-6.993 1.371-.135 3.95-.131 6.17 1.903zm8.749-2.888v8.301l9.205-.905v-8.301l4.243-.418v21.46l-4.243.418v-9.556l-9.205.906v9.556l-4.244.417v-21.46l4.244-.418zm31.336-1.055l-2.22 3.082c-1.273-1.548-2.774-1.561-3.558-1.484-2.284.224-3.003 1.71-3.003 2.805 0 .514.164.981.686 1.38.522.431 1.24.618 2.611.966 1.698.412 3.297.834 4.407 1.722.98.772 1.86 2.134 1.86 4.321 0 4.183-3.068 7.349-7.572 7.792-4.015.395-6.366-1.787-7.508-3.316l2.774-2.879c1.045 1.989 3.036 2.565 4.57 2.414 1.926-.19 3.362-1.489 3.362-3.29 0-.773-.26-1.358-.848-1.848-.816-.66-2.122-.95-3.362-1.245-1.143-.274-2.514-.654-3.624-1.51-.718-.54-1.73-1.632-1.73-3.82 0-3.153 2.155-6.518 6.986-6.993 1.37-.135 3.95-.131 6.17 1.903zm16.582-3.658v3.603l-7.834.77V37.7l7.508-.739v3.604l-7.508.738v5.856l7.834-.77v3.603L138.9 51.179v-21.46l12.077-1.188zm15.864 2.043l-4.896.481v17.857l-4.244.418V31.473l-4.896.481v-3.603l14.036-1.38v3.603zm14.428-1.42l-4.896.482v17.857l-4.244.417V30.053l-4.896.482v-3.603l14.036-1.381v3.603zm14.754-5.055v3.604l-7.834.77v4.795l7.508-.739v3.604l-7.508.738v5.856l7.834-.77v3.603l-12.077 1.188v-21.46l12.077-1.189zm4.113-.404l6.3-.62c3.003-.295 4.537.326 5.549 1.063 1.665 1.22 2.154 3.006 2.154 4.614 0 2.092-.848 4.009-2.546 5.302-.555.44-1.338.872-2.383 1.168l6.79 8.373-5.288.52-5.81-8.051-.523.051v8.623l-4.243.417v-21.46zm4.243 2.993v6.467l1.208-.119c.816-.08 4.178-.507 4.178-3.66 0-3.186-3.33-2.89-4.113-2.813l-1.273.125z"/>
    </g>
</svg>
