<svg xmlns="http://www.w3.org/2000/svg" width="24" height="34" viewBox="0 0 24 34">
    <path fill="#000" fill-rule="nonzero" d="M5.13 34c-1.095-4.715.254-7.417 2.003-9.962C9.047 21.25 9.84 18.49 9.84 18.49s.897 1.949-.024 4.997c2.523-2.949 3.608-7.646 3.556-9.445 4.11 4.184 4.798 13.243 1.09 19.957 15.997-10.377 7.406-25.904 5.77-27.653.374 1.749.059 4.71-1.427 6.147C18.171 2.125 13.148 0 13.148 0c-.154 5.347-3.931 11.194-7.387 15.563.214-2.132.326-3.603-.26-5.644-.767 3.874-3.567 7.031-4.77 10.912C-.896 26.087.037 29.935 5.132 34z"/>
</svg>
