<?xml version="1.0" encoding="UTF-8" standalone="no"?>
<svg width="72px" height="14px" viewBox="0 0 72 14" version="1.1" xmlns="http://www.w3.org/2000/svg" xmlns:xlink="http://www.w3.org/1999/xlink">
    <!-- Generator: sketchtool 50.2 (55047) - http://www.bohemiancoding.com/sketch -->
    <title>FE663457-9ED5-4562-9786-2F615B250AB7</title>
    <desc>Created with sketchtool.</desc>
    <defs></defs>
    <g id="main" stroke="none" stroke-width="1" fill="none" fill-rule="evenodd">
        <g id="desk-main" transform="translate(-672.000000, -2597.000000)">
            <g id="Group-29" transform="translate(671.000000, 2598.000000)">
                <g id="Group-28" transform="translate(36.681159, 6.173913) rotate(-270.000000) translate(-36.681159, -6.173913) translate(30.681159, -29.826087)">
                    <g id="Group-57">
                        <path d="M-27.884058,36 L39.5362319,36 C40.0885166,36 40.5362319,36.4477153 40.5362319,37 L40.5362319,37 C40.5362319,37.5522847 40.0885166,38 39.5362319,38 L-27.884058,38 C-28.4363427,38 -28.884058,37.5522847 -28.884058,37 L-28.884058,37 C-28.884058,36.4477153 -28.4363427,36 -27.884058,36 Z" id="Rectangle-18" fill="#000000" transform="translate(5.826087, 37.000000) rotate(-270.000000) translate(-5.826087, -37.000000) "></path>
                        <polyline id="Rectangle-19" stroke="#000000" stroke-width="2" stroke-linecap="round" stroke-linejoin="round" transform="translate(5.826087, 6.511601) rotate(-315.000000) translate(-5.826087, -6.511601) " points="1.79535174 10.6626568 1.79535174 4.48186585 1.79535174 2.36054551 9.85682217 2.36054551"></polyline>
                    </g>
                </g>
            </g>
        </g>
    </g>
</svg>