<?xml version="1.0" encoding="UTF-8" standalone="no"?>
<svg width="32px" height="32px" viewBox="0 0 32 32" version="1.1" xmlns="http://www.w3.org/2000/svg" xmlns:xlink="http://www.w3.org/1999/xlink">
    <!-- Generator: sketchtool 50.2 (55047) - http://www.bohemiancoding.com/sketch -->
    <title>66756854-DEF0-43C3-99AA-7462BE0A1E7C</title>
    <desc>Created with sketchtool.</desc>
    <defs></defs>
    <g id="main" stroke="none" stroke-width="1" fill="none" fill-rule="evenodd">
        <g id="desk-main" transform="translate(-832.000000, -2588.000000)" fill-rule="nonzero">
            <g id="tw-copy" transform="translate(832.000000, 2588.000000)">
                <path d="M30.2358974,32 C31.2205128,32 32,31.2205128 32,30.2358974 L32,1.76410256 C32,0.779487179 31.2205128,0 30.2358974,0 L1.76410256,0 C0.779487179,0 0,0.779487179 0,1.76410256 L0,30.2358974 C0,31.2205128 0.779487179,32 1.76410256,32 L30.2358974,32 Z" id="Blue_2_" fill="#000000"></path>
                <path d="M24,11.5294118 C23.4131274,11.7741176 22.7644788,11.9576471 22.1158301,12.0494118 C22.7953668,11.6517647 23.3204633,11.0094118 23.5675676,10.2447059 C22.9189189,10.6117647 22.2393822,10.8870588 21.4671815,11.04 C20.8803089,10.3976471 20.015444,10 19.0579151,10 C17.2355212,10 15.7528958,11.4682353 15.7528958,13.2729412 C15.7528958,13.5176471 15.7837838,13.7929412 15.8455598,14.0070588 C13.0965251,13.8847059 10.6872587,12.5694118 9.05019305,10.6117647 C8.77220077,11.1011765 8.61776062,11.6517647 8.61776062,12.2635294 C8.61776062,13.3952941 9.2046332,14.4047059 10.0694981,14.9858824 C9.54440154,14.9552941 9.01930502,14.8329412 8.58687259,14.5882353 C8.58687259,14.5882353 8.58687259,14.6188235 8.58687259,14.6188235 C8.58687259,16.2094118 9.72972973,17.5247059 11.2432432,17.8305882 C10.965251,17.8917647 10.6872587,17.9529412 10.3783784,17.9529412 C10.1621622,17.9529412 9.94594595,17.9223529 9.76061776,17.8917647 C10.1930502,19.1764706 11.3976834,20.1247059 12.8494208,20.1552941 C11.7065637,21.0423529 10.2857143,21.5623529 8.77220077,21.5623529 C8.49420849,21.5623529 8.24710425,21.5317647 8,21.5317647 C9.45173745,22.4494118 11.1814672,23 13.0656371,23 C19.1196911,23 22.4555985,18.0141176 22.4555985,13.7011765 C22.4555985,13.5482353 22.4555985,13.4258824 22.4555985,13.2729412 C23.011583,12.7529412 23.5675676,12.1717647 24,11.5294118 Z" id="Shape" fill="#FFFFFF"></path>
            </g>
        </g>
    </g>
</svg>