<?xml version="1.0" encoding="UTF-8" standalone="no"?>
<svg width="32px" height="32px" viewBox="0 0 32 32" version="1.1" xmlns="http://www.w3.org/2000/svg" xmlns:xlink="http://www.w3.org/1999/xlink">
    <!-- Generator: sketchtool 50.2 (55047) - http://www.bohemiancoding.com/sketch -->
    <title>2CE83BE3-F944-4DD7-B846-0365F24BB8C6</title>
    <desc>Created with sketchtool.</desc>
    <defs></defs>
    <g id="main" stroke="none" stroke-width="1" fill="none" fill-rule="evenodd">
        <g id="desk-main" transform="translate(-874.000000, -2588.000000)" fill-rule="nonzero">
            <g id="vk-copy" transform="translate(874.000000, 2588.000000)">
                <path d="M30.2358974,32 C31.2205128,32 32,31.2205128 32,30.2358974 L32,1.76410256 C32,0.779487179 31.2205128,0 30.2358974,0 L1.76410256,0 C0.779487179,0 0,0.779487179 0,1.76410256 L0,30.2358974 C0,31.2205128 0.779487179,32 1.76410256,32 L30.2358974,32 Z" id="Blue_3_" fill="#000000"></path>
                <path d="M24.8823697,19.8866643 C24.8502649,19.8525723 24.8502649,19.7843885 24.8181601,19.7502965 C24.4971122,19.1707334 23.9192259,18.4207106 23.0202917,17.568412 L23.0202917,17.53432 C22.6350342,17.1252167 22.3781958,16.8524811 22.2497767,16.7161133 C22.0571479,16.4433778 22.0250431,16.1706422 22.1213575,15.8979066 C22.1855671,15.693355 22.4745102,15.2501597 22.9560821,14.6024127 C23.2129205,14.2614932 23.4055492,13.9546657 23.5660732,13.750114 C24.6576361,12.2159765 25.1071033,11.261402 24.9786841,10.8182067 L24.9144745,10.7159309 C24.8823697,10.647747 24.7860553,10.613655 24.6255314,10.5454711 C24.4650074,10.5113792 24.2723786,10.4772872 24.0155403,10.5113792 L21.3187377,10.5454711 C21.2866329,10.5454711 21.2224233,10.5454711 21.1261089,10.5454711 C21.0297945,10.5795631 20.9976897,10.5795631 20.9976897,10.5795631 L20.965585,10.613655 L20.9334802,10.647747 C20.9013754,10.6818389 20.8692706,10.7159309 20.8371658,10.7500228 C20.805061,10.7841148 20.7729562,10.8522986 20.7408514,10.9204825 C20.4519083,11.7045973 20.1308603,12.4546201 19.7456028,13.136459 C19.5208693,13.5455624 19.2961357,13.8864818 19.103507,14.1933093 C18.9108782,14.5001369 18.7503542,14.7046885 18.6219351,14.8410563 C18.4935159,14.9774241 18.3650967,15.1137919 18.2687823,15.1819758 C18.172468,15.2842516 18.0761536,15.3183436 18.011944,15.2842516 C17.9477344,15.2842516 17.9156296,15.2501597 17.85142,15.2501597 C17.7551057,15.1819758 17.6908961,15.1137919 17.6266865,15.011516 C17.5624769,14.9092402 17.5303721,14.7728724 17.5303721,14.6365046 C17.4982673,14.4660449 17.4982673,14.3637691 17.4982673,14.2274013 C17.4982673,14.1251254 17.4982673,13.9546657 17.4982673,13.750114 C17.4982673,13.5455624 17.4982673,13.4091946 17.4982673,13.3410107 C17.4982673,13.1023671 17.4982673,12.8296315 17.4982673,12.522804 C17.4982673,12.2159765 17.5303721,12.0114248 17.5303721,11.8068731 C17.5303721,11.6364134 17.5303721,11.4659537 17.5303721,11.261402 C17.5303721,11.0568503 17.5303721,10.9204825 17.4982673,10.8182067 C17.4661625,10.7159309 17.4340577,10.613655 17.4019529,10.5113792 C17.3698481,10.4091034 17.3056386,10.3409195 17.2093242,10.2727356 C17.1130098,10.2045517 17.0166954,10.1704597 16.8882762,10.1363678 C16.5672283,10.0681839 16.149866,10 15.6361893,10 C14.4804168,10 13.7420065,10.0681839 13.3888538,10.2386436 C13.2604346,10.3068275 13.1320155,10.4091034 13.0357011,10.5454711 C12.9393867,10.6818389 12.9072819,10.7841148 13.0035963,10.7841148 C13.3888538,10.8522986 13.6456922,10.9886664 13.8062161,11.2273101 L13.8704257,11.3295859 C13.9025305,11.4318617 13.9667401,11.5682295 13.9988449,11.7727812 C14.0309497,11.9773329 14.0630545,12.2159765 14.0951593,12.488712 C14.127264,12.9659993 14.127264,13.3751026 14.0951593,13.7160221 C14.0630545,14.0569416 14.0309497,14.3296771 13.9988449,14.5342288 C13.9667401,14.7387805 13.9346353,14.8751483 13.8704257,15.011516 C13.8062161,15.1137919 13.7741113,15.2160677 13.7741113,15.2160677 C13.7420065,15.2501597 13.7420065,15.2501597 13.7420065,15.2501597 C13.6456922,15.2842516 13.5814826,15.2842516 13.4851682,15.2842516 C13.3888538,15.2842516 13.2925394,15.2501597 13.1641203,15.1478838 C13.0357011,15.045608 12.9072819,14.9433321 12.7788627,14.7728724 C12.6504436,14.6024127 12.4899196,14.397861 12.3293956,14.0910335 C12.1688717,13.784206 11.9762429,13.4432865 11.8157189,13.0682751 L11.655195,12.7955396 C11.5588806,12.6250798 11.4304614,12.3523443 11.2699375,11.9773329 C11.1094135,11.6364134 10.9488895,11.2954939 10.8525752,10.9545745 C10.7883656,10.8182067 10.724156,10.7159309 10.6278416,10.647747 L10.563632,10.6818389 C10.5315272,10.647747 10.4673176,10.613655 10.4031081,10.613655 C10.3388985,10.5795631 10.2746889,10.5454711 10.1783745,10.5454711 L7.60999107,10.5795631 C7.35315272,10.5795631 7.16052396,10.647747 7.06420959,10.7841148 L7.03210479,10.8522986 C7,10.8863906 7,10.9545745 7,11.0227584 C7,11.0909423 7.03210479,11.1932181 7.06420959,11.2954939 C7.4494671,12.2159765 7.83472462,13.136459 8.28419172,13.9887577 C8.73365882,14.8410563 9.11891634,15.5569872 9.43996427,16.0683664 C9.7610122,16.6138375 10.0820601,17.0911247 10.4352129,17.568412 C10.7562608,18.0456992 10.9809943,18.3525267 11.1094135,18.4548026 C11.2057279,18.5911704 11.3020423,18.6934462 11.3662518,18.7616301 L11.5909854,19.0002737 C11.7515094,19.1707334 11.9441381,19.3411932 12.2651861,19.5798368 C12.5541292,19.7843885 12.8751771,20.0230321 13.2283298,20.2275838 C13.5814826,20.4321354 13.9988449,20.6025952 14.448312,20.7389629 C14.9298839,20.8753307 15.379351,20.9435146 15.7967133,20.9094227 L16.8561714,20.9094227 C17.080905,20.8753307 17.241429,20.8071468 17.3377433,20.704871 L17.3698481,20.670779 C17.4019529,20.6366871 17.4340577,20.5685032 17.4340577,20.5003193 C17.4661625,20.4321354 17.4661625,20.3298596 17.4661625,20.2275838 C17.4661625,19.9548482 17.4661625,19.6821126 17.5303721,19.443469 C17.5624769,19.2048254 17.6266865,19.0343656 17.6908961,18.9320898 C17.7551057,18.829814 17.8193152,18.7275381 17.8835248,18.6252623 C17.9477344,18.5570784 18.011944,18.4888945 18.0440488,18.4888945 C18.0761536,18.4888945 18.1082584,18.4548026 18.1082584,18.4548026 C18.2687823,18.3866187 18.4293063,18.4548026 18.6219351,18.6252623 C18.8145638,18.795722 19.0071926,18.9661818 19.1998213,19.2048254 C19.3924501,19.443469 19.5850789,19.6821126 19.8419172,19.9889401 C20.0987555,20.2616757 20.3234891,20.5003193 20.4840131,20.6366871 L20.6766418,20.7389629 C20.805061,20.8071468 20.965585,20.8753307 21.1582137,20.9435146 C21.3508425,21.0116985 21.5434712,21.0116985 21.6718904,20.9776066 L24.0476451,20.9435146 C24.2723786,20.9435146 24.4650074,20.9094227 24.5934266,20.8071468 C24.7218457,20.7389629 24.7860553,20.6366871 24.8181601,20.5344113 C24.8502649,20.4321354 24.8502649,20.3298596 24.8181601,20.1934918 C24.9465793,20.0230321 24.9144745,19.9207562 24.8823697,19.8866643 Z" id="Shape" fill="#FFFFFF"></path>
            </g>
        </g>
    </g>
</svg>