<svg xmlns="http://www.w3.org/2000/svg" viewBox="0 0 34 34"><title>Ресурс 2</title><g id="Слой_2" data-name="Слой 2"><g id="Слой_1-2" data-name="Слой 1"><path d="M17,34A17,17,0,1,0,0,17,17,17,0,0,0,17,34ZM5.92,25.39a23.42,23.42,0,0,1,4.95-1.24,28.3,28.3,0,0,0,1,4.26,17.19,17.19,0,0,0,.7,1.77A14,14,0,0,1,5.92,25.39ZM3.09,17a13.83,13.83,0,0,1,1.23-5.71,25.69,25.69,0,0,0,6.16,1.63Q10.3,15,10.3,17c0,1.4.06,2.76.18,4.08a25.64,25.64,0,0,0-6.16,1.63A13.83,13.83,0,0,1,3.09,17ZM17,3.09c.33,0,1.3.85,2.18,3.47a25,25,0,0,1,.88,3.62,44,44,0,0,1-6.12,0,25,25,0,0,1,.88-3.62C15.7,3.94,16.67,3.09,17,3.09Zm0,10.29q1.73,0,3.45-.13c.1,1.21.16,2.46.16,3.74s-.05,2.54-.16,3.74a46.92,46.92,0,0,0-6.9,0q-.16-1.87-.16-3.74c0-1.28.05-2.54.16-3.74C14.67,13.34,15.82,13.38,17,13.38ZM30.91,17a13.83,13.83,0,0,1-1.23,5.71,25.69,25.69,0,0,0-6.16-1.63c.12-1.32.18-2.69.18-4.08s-.06-2.77-.18-4.09a25.64,25.64,0,0,0,6.16-1.63A13.83,13.83,0,0,1,30.91,17ZM17,30.91c-.33,0-1.3-.85-2.18-3.47a24.88,24.88,0,0,1-.88-3.62,43.9,43.9,0,0,1,6.12,0,25,25,0,0,1-.88,3.62C18.3,30.06,17.33,30.91,17,30.91Zm4.41-.72a17.19,17.19,0,0,0,.7-1.77,28.39,28.39,0,0,0,1-4.26,23.48,23.48,0,0,1,4.95,1.24A14,14,0,0,1,21.41,30.19ZM28.08,8.61a23.42,23.42,0,0,1-5,1.24,28.3,28.3,0,0,0-1-4.26,17.12,17.12,0,0,0-.7-1.78A14,14,0,0,1,28.08,8.61Zm-15.5-4.8a17.19,17.19,0,0,0-.7,1.77,28.45,28.45,0,0,0-1,4.26A23.49,23.49,0,0,1,5.92,8.61a14,14,0,0,1,6.67-4.8Z"/></g></g></svg>