<svg xmlns="http://www.w3.org/2000/svg" viewBox="0 0 187.09 52.52"><defs><style>.cls-1{fill:#201600;fill-rule:evenodd;}</style></defs><title>Ресурс 4</title><g id="Слой_2" data-name="Слой 2"><g id="Слой_1-2" data-name="Слой 1"><polygon class="cls-1" points="0.77 0 0.77 1.14 187.09 1.14 187.09 0 0.77 0 0.77 0"/><polygon class="cls-1" points="0.77 51.38 0.77 52.52 187.09 52.52 187.09 51.38 0.77 51.38 0.77 51.38"/><path class="cls-1" d="M123.58,41.24c8.21-3.36,11.13-7.71,11.13-16.27,0-10.49-4.35-15.63-15.63-15.63-9.56,0-15.12,5.42-15.12,15.2,0,8.77,3.13,14.34,9.41,16.48,2.29.79,4.93,0,9.71,2.78,7.28,4.21,7.28,4.29,9.13,4.29,1.07,0,1.64-.43,1.64-1,0-1.07-2.06,0-4.63-3.14-.93-1.14-2.5-2-5.21-2.64l-.43-.07Zm-4.27-29.69c6.85,0,10.49,5,10.49,13.91s-3.21,14.13-10.42,14.13c-6.5,0-10.63-4.85-10.63-14.06,0-8.92,4.06-14,10.56-14Z"/><path class="cls-1" d="M25.19,10a79.38,79.38,0,0,0-10.92-.93C5,9.06,0,14.56,0,25,0,36,6,41.74,16.63,41.74c3.14,0,5.85-.43,7.2-1.21,1.57-.86,2.43-3.92,2.43-4.21,0-.5-.07-.64-.21-.64-.43,0-3.86,3.71-9.21,3.71-7.06,0-11.27-5.28-11.27-14.34,0-8.85,4-13.56,11.41-13.56,6.28,0,7.64,2.49,8.35,2.49.22,0,.29-.07.29-.21,0-.43-.36-2.28-.43-3.42V10Z"/><path class="cls-1" d="M62.29,10c1.21,5.35,1.35,6.42,1.35,16.41,0,6.13-.14,11.42-.28,15.41v.43h4.71c-1.79-2.28-1.86-2.57-1.86-5.07l.57-20.33,18.63,25.4h2.78L87.83,10H83.62c1.64,2.06,1.72,2.21,1.79,5l-.93,17.41L68.07,10Z"/><path class="cls-1" d="M138.36,10c.86,10.56.86,10.56.86,13.92,0,2.85-.14,4.92-.14,7,0,8.56,2.92,12.06,11.84,12.06,10.14,0,12-3.5,12-12.92V10h-4.42A9.89,9.89,0,0,1,160,14.9l-.29,11.27c0,13.35-2.14,14.42-8.06,14.42C144.07,40.59,144,36,144,26c0-3,.29-11.13.79-15.77V10Z"/><path class="cls-1" d="M167.12,10a112.5,112.5,0,0,1,1,16.56c0,3.85,0,3.85-.93,15.12V42c4-.36,6.43-.5,8.42-.5,3.57,0,5.71.5,7.64.5,2.64,0,3.71-.71,3.71-4.5v-.28a5.9,5.9,0,0,1-4.85,2.42A48.64,48.64,0,0,1,173,38.45l-.35-.07.43-11.92h12.63a4.64,4.64,0,0,1-.15-1.28,5.49,5.49,0,0,1,.08-1.07l.07-.29H173.12V13.19c4.35-.28,9.49-.78,10.91-.78.86,0,.93.07,2.64,1.49l.15.15-.5-4.07Z"/><path class="cls-1" d="M29.32,10a144.51,144.51,0,0,1,1,19.69c0,3.78-.14,6.92-.43,12.27v.29c3.28-.21,5.07-.36,7.28-.36,3.5,0,3.71.29,6.42.29A5.6,5.6,0,0,0,47,41.37a7.6,7.6,0,0,0,1.35-3.56c0-.5-.21-.58-.35-.58-.5,0-1.36,2.5-4.36,2.5-2.49,0-4-.71-7.78-.71h-.42c0-14.13,0-21.41.35-28.76V10Z"/><path class="cls-1" d="M51,10c.64,8.42.78,11.27.78,17.91,0,5.63-.07,7.2-.42,14v.29h5.56c-.28-6.14-.36-10.13-.36-17,0-2.07,0-2.07.43-14.92V10Z"/><path class="cls-1" d="M94.39,10c.65,7.84.79,11.41.79,17.69,0,5.64-.14,10.78-.43,14.27v.29h5.57C100.1,36,100,31.6,100,25.32c0-1.93,0-2,.43-15.06V10Z"/></g></g></svg>