<?xml version="1.0" encoding="utf-8"?>
<!-- Generator: Adobe Illustrator 22.1.0, SVG Export Plug-In . SVG Version: 6.00 Build 0)  -->
<svg version="1.1" id="Слой_1" xmlns="http://www.w3.org/2000/svg" xmlns:xlink="http://www.w3.org/1999/xlink" x="0px" y="0px"
	 viewBox="0 0 40 40" style="enable-background:new 0 0 40 40;" xml:space="preserve">
<style type="text/css">
	.st0{opacity:0.7;enable-background:new    ;}
	.st1{fill:#EDD0E4;}
</style>
<g>
	<path class="st0" d="M0,40"/>
	<path class="st1" d="M20,13.3c3.7,0,6.7,3,6.7,6.7c0,3.7-3,6.7-6.7,6.7c-3.7,0-6.7-3-6.7-6.7C13.3,16.3,16.3,13.3,20,13.3z M20,12
		c-4.4,0-8,3.6-8,8s3.6,8,8,8s8-3.6,8-8S24.4,12,20,12z M20,22.5c-1.4,0-2.5-1.1-2.5-2.5c0-1.4,1.1-2.5,2.5-2.5
		c0.8,0,1.5,0.3,2.1,1.1l1.2-0.8C22.5,16.6,21.2,16,20,16c-2.2,0-4,1.8-4,4s1.8,4,4,4c1.3,0,2.5-0.6,3.3-1.8l-1.2-0.8
		C21.5,22.2,20.8,22.5,20,22.5L20,22.5z"/>
</g>
</svg>
