<svg xmlns="http://www.w3.org/2000/svg" width="40" height="40" viewBox="0 0 40 40">
    <g fill="none" fill-rule="evenodd">
        <path fill="#000" fill-rule="nonzero" d="M26.154 12H13.846c-1.02 0-1.846.827-1.846 1.846v12.307c0 1.02.827 1.847 1.846 1.847h12.309C27.174 28 28 27.173 28 26.153V13.846c0-1.02-.826-1.846-1.846-1.846zM20 16.923a3.077 3.077 0 1 1 .001 6.154A3.077 3.077 0 0 1 20 16.923zm6 8.462c0 .34-.275.615-.616.615H14.616a.615.615 0 0 1-.616-.615v-6.718h1.265a5.04 5.04 0 0 0-.134.647 4.66 4.66 0 0 0-.054.686 4.923 4.923 0 1 0 9.846 0c0-.233-.021-.461-.054-.685a5.04 5.04 0 0 0-.134-.648H26v6.718zm0-9.32c0 .34-.275.616-.616.616h-1.45a.615.615 0 0 1-.615-.616v-1.45c0-.34.275-.615.616-.615h1.449c.34 0 .616.275.616.615v1.45z"/>
    </g>
</svg>
