<svg xmlns="http://www.w3.org/2000/svg" viewBox="0 0 16 16"><defs><style>.cls-1{fill:#fff;}</style></defs><title>Ресурс 1inst-white</title><g id="Слой_2" data-name="Слой 2"><g id="Слой_1-2" data-name="Слой 1"><path class="cls-1" d="M14.15,0H1.85A1.85,1.85,0,0,0,0,1.85v12.3A1.85,1.85,0,0,0,1.85,16h12.3A1.85,1.85,0,0,0,16,14.15V1.85A1.85,1.85,0,0,0,14.15,0ZM8,4.92a3.08,3.08,0,0,1,0,6.16H8A3.08,3.08,0,0,1,8,4.92Zm6,8.47a.61.61,0,0,1-.62.61H2.62A.61.61,0,0,1,2,13.39H2V6.67H3.27a4.89,4.89,0,0,0-.14.64,5.34,5.34,0,0,0,0,.69,4.92,4.92,0,0,0,9.84,0,5.06,5.06,0,0,0-.05-.68,4.69,4.69,0,0,0-.14-.65H14Zm0-9.32a.61.61,0,0,1-.62.61H11.93a.61.61,0,0,1-.61-.61h0V2.62A.61.61,0,0,1,11.93,2h1.45a.62.62,0,0,1,.62.62Z"/></g></g></svg>