<svg xmlns="http://www.w3.org/2000/svg" viewBox="0 0 16 13"><title>Ресурс 1tw-black</title><g id="Слой_2" data-name="Слой 2"><g id="Слой_1-2" data-name="Слой 1"><path d="M16,1.54a6.8,6.8,0,0,1-1.89.52A3.32,3.32,0,0,0,15.56.24a6.81,6.81,0,0,1-2.09.8A3.28,3.28,0,0,0,7.88,4,9.33,9.33,0,0,1,1.11.6,3.29,3.29,0,0,0,2.13,5,3.15,3.15,0,0,1,.64,4.57,3.3,3.3,0,0,0,3.28,7.83a3.41,3.41,0,0,1-1.49.06,3.31,3.31,0,0,0,3.07,2.28A6.63,6.63,0,0,1,0,11.53,9.34,9.34,0,0,0,5,13a9.28,9.28,0,0,0,9.33-9.76A6.79,6.79,0,0,0,16,1.54Z"/></g></g></svg>