<svg xmlns="http://www.w3.org/2000/svg" width="40" height="40" viewBox="0 0 40 40">
    <g fill="none" fill-rule="evenodd">
        <path fill="#000" fill-rule="nonzero" d="M28 14.539a6.555 6.555 0 0 1-1.885.517 3.287 3.287 0 0 0 1.443-1.816 6.577 6.577 0 0 1-2.085.796 3.285 3.285 0 0 0-5.594 2.993 9.32 9.32 0 0 1-6.765-3.428 3.286 3.286 0 0 0 1.015 4.381 3.27 3.27 0 0 1-1.486-.41c-.036 1.52 1.054 2.942 2.633 3.26a3.29 3.29 0 0 1-1.483.055 3.285 3.285 0 0 0 3.067 2.279 6.601 6.601 0 0 1-4.86 1.36A9.294 9.294 0 0 0 17.032 26c6.095 0 9.538-5.146 9.33-9.762A6.682 6.682 0 0 0 28 14.539z"/>
    </g>
</svg>
