<svg xmlns="http://www.w3.org/2000/svg" width="40" height="40" viewBox="0 0 40 40">
    <g fill="none" fill-rule="evenodd">
        <path fill="#000" fill-rule="nonzero" d="M20.774 23.996c.406 0 .572-.261.568-.588-.021-1.233.476-1.896 1.372-1.031.992.956 1.198 1.619 2.402 1.619h2.133c.539 0 .751-.167.751-.43 0-.554-.947-1.533-1.75-2.252-1.124-1.006-1.177-1.03-.209-2.24 1.201-1.505 2.772-3.431 1.382-3.431H24.77c-.514 0-.552.28-.735.696-.663 1.509-1.924 3.463-2.402 3.164-.501-.312-.272-1.547-.234-3.382.01-.485.008-.817-.76-.99A5.57 5.57 0 0 0 19.432 15c-1.516 0-2.56.613-1.967.72 1.047.188.947 2.373.703 3.316-.426 1.644-2.024-1.3-2.69-2.767-.16-.352-.21-.626-.783-.626h-2.17c-.328 0-.525.103-.525.332 0 .387 1.973 4.32 3.857 6.28 1.837 1.913 3.653 1.741 4.917 1.741z"/>
    </g>
</svg>
