<?xml version="1.0" encoding="UTF-8"?>
<!-- Generator: Adobe Illustrator 13.0.0, SVG Export Plug-In . SVG Version: 6.00 Build 14948)  -->
<!DOCTYPE svg PUBLIC "-//W3C//DTD SVG 1.1//EN" "http://www.w3.org/Graphics/SVG/1.1/DTD/svg11.dtd">
<svg version="1.1" id="Capa_1" xmlns="http://www.w3.org/2000/svg" xmlns:xlink="http://www.w3.org/1999/xlink" x="0px" y="0px" width="411.25px" height="186.25px" viewBox="0 0 411.25 186.25" enable-background="new 0 0 411.25 186.25" xml:space="preserve">
<g>
	<rect x="0.351" y="0.345" fill="#ED1B24" width="410.979" height="185.991"/>
	<polygon fill="#FFFFFF" points="355.25,26.75 378.25,26.75 378.25,135.75 397.75,135.75 397.75,163.25 355.25,163.25"/>
	<g>
		<circle fill="none" stroke="#FFFFFF" stroke-width="1.6667" cx="391" cy="34" r="8.75"/>
		<path fill="#FFFFFF" d="M387.583,38.502v-9.18h4.071c0.818,0,1.439,0.083,1.866,0.248c0.424,0.165,0.764,0.456,1.019,0.874    c0.255,0.417,0.383,0.879,0.383,1.385c0,0.651-0.212,1.201-0.633,1.647c-0.421,0.447-1.072,0.731-1.953,0.852    c0.322,0.155,0.566,0.306,0.733,0.457c0.354,0.325,0.69,0.731,1.006,1.22l1.588,2.497h-1.519l-1.213-1.908    c-0.355-0.551-0.647-0.972-0.877-1.264c-0.229-0.292-0.435-0.496-0.615-0.614c-0.182-0.118-0.367-0.199-0.555-0.245    c-0.139-0.03-0.363-0.044-0.676-0.044h-1.408v4.075H387.583z M388.801,33.372h2.609c0.555,0,0.988-0.057,1.302-0.172    c0.313-0.114,0.552-0.297,0.715-0.55s0.244-0.527,0.244-0.822c0-0.434-0.157-0.79-0.473-1.07    c-0.315-0.279-0.813-0.419-1.493-0.419h-2.904V33.372z"/>
	</g>
	<path fill="#FFFFFF" d="M17.25,162.75v-136h31l11,57l12.5-57h30v122.5l19.5-122.5h30.5l19,122.5v-122h40.5c0,0,14,2.5,21,22   l-3-22.5h24.5l11.5,70.5l12-70h69v25.5h-20.5v28h19.5v28.5h-19v26h20v27.5h-44.5v-131l-23,131h-27.5l-14.5-87c0,0-2.5,24-16,35   l17.5,52h-24l-17-45.5v45.5h-48.5l-2.5-13h-18.5l-4,13h-46v-50l-12,50h-12.5l-11-49.5v49L17.25,162.75z M143.75,123.25l-7-41.5   l-6,41.5H143.75z M196.75,91.75c16.5-1,15-21.5,15-21.5c-2.5-20-15-19-15-19V91.75z"/>
</g>
</svg>