<svg xmlns="http://www.w3.org/2000/svg" width="46" height="28" viewBox="0 0 46 28">
    <g fill="#FFF" fill-rule="nonzero">
        <path d="M13.157 11.9v4.667h7.422c-.338 1.983-2.25 5.833-7.422 5.833-4.498 0-8.097-3.85-8.097-8.633 0-4.784 3.599-8.634 8.097-8.634 2.586 0 4.273 1.167 5.285 2.1l3.598-3.616C19.791 1.4 16.755 0 13.27 0 5.846.233 0 6.417 0 13.883c0 7.467 5.847 13.65 13.157 13.65 7.534 0 12.594-5.483 12.594-13.3 0-.933-.112-1.633-.225-2.216 0-.117-12.37-.117-12.37-.117zM35.984 5.6h3.711v15.517h-3.711z"/>
        <path d="M30.307 14.98v-3.71h15.517v3.71z"/>
    </g>
</svg>
