<svg xmlns="http://www.w3.org/2000/svg" width="22" height="34" viewBox="0 0 22 34">
    <g fill="#FFF" fill-rule="nonzero">
        <path d="M11.5 5.237c1.92 0 3.506 1.678 3.506 3.712 0 2.034-1.585 3.712-3.506 3.712-1.92 0-3.506-1.678-3.506-3.712 0-2.034 1.585-3.712 3.506-3.712zM11.5 18c4.706 0 8.5-4.017 8.5-9s-3.794-9-8.5-9C6.794 0 3 4.068 3 9c0 4.983 3.794 9 8.5 9z"/>
        <path d="M14.983 24.831c1.984-.392 3.913-1.078 5.677-2.108 1.322-.736 1.763-2.305.881-3.53-.826-1.177-2.59-1.57-3.968-.785-4.023 2.256-9.148 2.256-13.17 0-1.323-.735-3.087-.392-3.969.785-.826 1.176-.44 2.745.882 3.53 1.764.98 3.692 1.667 5.676 2.108l-5.4 4.854c-1.103.98-1.103 2.599 0 3.58.55.49 1.267.735 2.039.735.716 0 1.488-.245 2.039-.735l5.345-4.756 5.346 4.756c1.102.98 2.92.98 4.023 0 1.102-.981 1.102-2.6 0-3.58l-5.4-4.854"/>
    </g>
</svg>
