<?xml version="1.0" encoding="UTF-8"?>
<svg width="48px" height="36px" viewBox="0 0 48 36" version="1.1" xmlns="http://www.w3.org/2000/svg" xmlns:xlink="http://www.w3.org/1999/xlink">
    <!-- Generator: sketchtool 51.2 (57519) - http://www.bohemiancoding.com/sketch -->
    <title>C9DB5266-01A0-420B-9A67-15EA22F155F2</title>
    <desc>Created with sketchtool.</desc>
    <defs></defs>
    <g id="Page-1" stroke="none" stroke-width="1" fill="none" fill-rule="evenodd">
        <g id="desktop_awards" transform="translate(-960.000000, -2818.000000)" fill="#FF372A">
            <g id="iconmonstr-quote-left-thin" transform="translate(960.000000, 2818.000000)">
                <path d="M18,0 C7.496,2.078 0,9.81 0,21.218 L0,36 L19.966,36 L19.966,16 L12,16 C12,11.578 15.126,6.136 19.992,4.302 L18,0 Z M46,0 C35.496,2.078 28.034,9.81 28.034,21.218 L28.034,36 L48,36 L48,16 L40,16 C40,11.578 43.126,6.136 47.99,4.302 L46,0 Z M44.866,2.312 L45.348,3.352 C40.56,6.134 38,11.67 38,16 L38,18 L46,18 L46,34 L30.034,34 L30.034,21.218 C30.034,11.844 35.674,4.722 44.866,2.312 Z M16.866,2.31 L17.348,3.352 C12.56,6.134 10,11.67 10,16 L10,18 L17.966,18 L17.966,34 L2,34 L2,21.218 C2,11.846 7.654,4.724 16.866,2.31 Z" id="Shape"></path>
            </g>
        </g>
    </g>
</svg>