<svg xmlns="http://www.w3.org/2000/svg" width="34" height="27" viewBox="0 0 34 27">
    <path fill="#FFF" fill-rule="nonzero" d="M33.554.246c-.34-.243-.765-.324-1.105-.162C26.503 2.106 8.24 8.66.765 11.247c-.51.162-.765.647-.765 1.133 0 .485.34.89.85 1.051l7.73 2.265s2.038 5.905 3.143 8.898c.17.404.424.647.849.809.425.08.85 0 1.19-.243 1.698-1.537 4.416-3.963 4.416-3.963s5.097 3.559 7.9 5.5c.425.324 1.02.405 1.53.162.51-.162.934-.647 1.019-1.133 1.189-5.5 4.247-19.413 5.351-24.428.085-.486-.085-.81-.424-1.052zM27.5 4.89c-5.129 4.765-14.063 13.02-14.063 13.02l-.497 4.935-2.316-7.829S21.131 8.124 27.005 4.21c.165-.085.413-.085.496.085.165.255.165.425 0 .596z"/>
</svg>
