<svg xmlns="http://www.w3.org/2000/svg" width="34" height="28" viewBox="0 0 34 28">
    <path fill="#FFF" fill-rule="nonzero" d="M34 3.31c-1.275.593-2.635.932-3.995 1.102 1.445-.848 2.55-2.29 3.06-3.903-1.36.849-2.805 1.358-4.42 1.697A6.929 6.929 0 0 0 23.545 0c-4.505 0-7.82 4.242-6.8 8.655A19.34 19.34 0 0 1 2.38 1.273C.51 4.413 1.445 8.57 4.505 10.69c-1.105 0-2.21-.34-3.145-.849-.085 3.31 2.21 6.364 5.61 7.043-1.02.254-2.04.34-3.145.085.85 2.8 3.485 4.836 6.545 4.92C7.395 24.183 3.74 25.286 0 24.86 3.06 26.898 6.715 28 10.71 28c12.92 0 20.23-11.115 19.805-21.042 1.36-1.019 2.55-2.206 3.485-3.649z"/>
</svg>
