<svg xmlns="http://www.w3.org/2000/svg" width="34" height="20" viewBox="0 0 34 20">
    <path fill="#FFF" fill-rule="nonzero" d="M18.654 19.993c.851 0 1.192-.598 1.192-1.281-.085-2.734 1.022-4.187 2.896-2.307 2.13 2.136 2.555 3.588 5.11 3.588h4.515c1.107 0 1.618-.341 1.618-.94 0-1.196-2.044-3.417-3.747-4.955-2.385-2.222-2.47-2.307-.426-4.956 2.64-3.417 5.962-7.69 3.066-7.69h-5.622c-1.107 0-1.192.599-1.533 1.538-1.448 3.333-4.088 7.69-5.11 7.007-1.108-.684-.597-3.418-.511-7.52 0-1.11 0-1.793-1.619-2.22A13.628 13.628 0 0 0 15.928 0c-3.237 0-5.451 1.367-4.174 1.623 2.215.428 2.045 5.298 1.533 7.348-.936 3.674-4.344-2.905-5.706-6.151-.511-.77-.597-1.367-1.874-1.367h-4.6C.426 1.453 0 1.709 0 2.22c0 .855 4.174 9.57 8.177 13.927 3.918 4.187 7.836 3.845 10.477 3.845z"/>
</svg>
