<svg xmlns="http://www.w3.org/2000/svg" width="34" height="34" viewBox="0 0 34 34">
    <path fill="#FFF" fill-rule="nonzero" d="M0 34l2.38-8.755C.935 22.695.085 19.805.085 16.83.17 7.565 7.735 0 17.085 0 21.59 0 25.84 1.785 29.07 4.93 32.3 8.075 34 12.325 34 16.83c0 9.265-7.565 16.83-16.915 16.83-2.805 0-5.61-.68-8.075-2.04L0 34zm9.35-5.355c2.38 1.445 4.675 2.295 7.65 2.295 7.735 0 14.11-6.29 14.11-14.025S24.82 2.89 17.085 2.89C9.35 2.805 2.975 9.095 2.975 16.83c0 3.145.935 5.525 2.465 7.99l-1.445 5.185c.085 0 5.355-1.36 5.355-1.36zm16.235-7.82c-.085-.17-.425-.255-.85-.51-.425-.17-2.465-1.19-2.89-1.36-.425-.17-.68-.17-.935.17-.255.425-1.105 1.36-1.36 1.615-.255.255-.51.34-.935.085-.425-.17-1.785-.68-3.4-2.125-1.275-1.105-2.125-2.465-2.38-2.89-.255-.425 0-.68.17-.85.17-.17.425-.51.595-.765.255-.255.255-.425.425-.68.17-.255.085-.51 0-.765-.085-.17-.935-2.295-1.275-3.145-.34-.85-.68-.68-.935-.765h-.85c-.255 0-.765.085-1.105.51-.255.68-1.36 1.7-1.36 3.74s1.53 4.08 1.7 4.335c.17.255 2.975 4.505 7.225 6.375 1.02.425 1.785.68 2.38.85 1.02.34 1.955.255 2.635.17.85-.085 2.465-1.02 2.89-2.04.34-.935.34-1.7.255-1.955z"/>
</svg>
