<?xml version="1.0" encoding="utf-8"?>
<!-- Generator: Adobe Illustrator 22.0.1, SVG Export Plug-In . SVG Version: 6.00 Build 0)  -->
<svg version="1.1" id="Слой_1" xmlns="http://www.w3.org/2000/svg" xmlns:xlink="http://www.w3.org/1999/xlink" x="0px" y="0px"
	 viewBox="0 0 300 300" style="enable-background:new 0 0 300 300;" xml:space="preserve">
<style type="text/css">
	.st0{display:none;}
	.st1{display:inline;}
	.st2{fill:#12100B;}
	.st3{display:inline;fill:#12100B;}
	.st4{fill:#03548A;}
</style>
<g class="st0">
	<g class="st1">
		<path class="st2" d="M114.1,169.3c1.2,0,3-0.1,3-1.3c0-1.1-1.1-1.3-3-1.3V169.3L114.1,169.3z M114.1,170.3v2.7
			c2.1,0,3.6-0.2,3.6-1.3C117.7,170.4,116.1,170.3,114.1,170.3L114.1,170.3z M114.7,176.2v-1.6h-0.5v1.6h-1.1v-1.6h-2.6l0.3-1.6h0.6
			c0.5,0,0.7-0.5,0.7-0.9v-4.7c0-0.4-0.3-0.7-0.7-0.7h-0.9V165h2.7v-1.6h1.1v1.6h0.5v-1.6h1.1v1.6c2.3,0.1,3.2,0.9,3.5,1.9
			c0.3,1.2-0.5,2.1-1.1,2.4c0.8,0.2,1.9,0.8,1.9,2.2c0,1.9-1.4,3.1-4.3,3.1v1.6H114.7L114.7,176.2z M114.7,157
			c-7.1,0-12.8,5.7-12.8,12.8c0,7.1,5.7,12.8,12.8,12.8c7.1,0,12.8-5.7,12.8-12.8C127.5,162.7,121.7,157,114.7,157L114.7,157z
			 M114.7,159.1c5.9,0,10.7,4.8,10.7,10.7c0,5.9-4.8,10.7-10.7,10.7c-5.9,0-10.7-4.8-10.7-10.7C104,163.9,108.8,159.1,114.7,159.1
			L114.7,159.1z"/>
	</g>
</g>
<g class="st0">
	<path class="st3" d="M58.1,249.9c1.2,0,3-0.1,3-1.3c0-1.1-1.1-1.3-3-1.3V249.9L58.1,249.9z M58.1,251v2.7c2.1,0,3.6-0.2,3.6-1.3
		C61.7,251.1,60.1,251,58.1,251L58.1,251z M58.7,256.9v-1.6h-0.5v1.6h-1.1v-1.6h-2.6l0.3-1.6h0.6c0.5,0,0.7-0.5,0.7-0.9V248
		c0-0.4-0.3-0.7-0.7-0.7h-0.9v-1.6h2.7v-1.6h1.1v1.6h0.5v-1.6h1.1v1.6c2.3,0.1,3.2,0.9,3.5,1.9c0.3,1.2-0.5,2.1-1.1,2.4
		c0.8,0.2,1.9,0.8,1.9,2.2c0,1.9-1.4,3.1-4.3,3.1v1.6H58.7L58.7,256.9z M58.7,237.7c-7.1,0-12.8,5.7-12.8,12.8
		c0,7.1,5.7,12.8,12.8,12.8c7.1,0,12.8-5.7,12.8-12.8C71.5,243.4,65.7,237.7,58.7,237.7L58.7,237.7z M58.7,239.8
		c5.9,0,10.7,4.8,10.7,10.7c0,5.9-4.8,10.7-10.7,10.7c-5.9,0-10.7-4.8-10.7-10.7C48,244.6,52.8,239.8,58.7,239.8L58.7,239.8z"/>
</g>
<g>
	<g>
		<defs>
			<path id="SVGID_1_" d="M56.9,130.6c-0.4,0-0.8,0-1-0.1c-0.2-0.1-0.4-0.2-0.5-0.4c-0.1-0.2-0.2-0.6-0.2-1v-0.7
				c-0.6,0.5-1.3,1.1-2.2,1.6c-0.9,0.5-1.9,0.7-3,0.7c-1,0-1.9-0.2-2.7-0.5c-0.8-0.4-1.5-0.9-1.9-1.7c-0.5-0.8-0.7-1.7-0.7-2.8
				c0-1.4,0.5-2.5,1.4-3.4c1-0.9,2.2-1.5,3.8-2c1.5-0.4,3.3-0.6,5.2-0.6v-0.7c0-0.8-0.1-1.5-0.3-2c-0.2-0.5-0.5-0.8-1-1
				c-0.5-0.2-1.2-0.3-2.1-0.3c-1.7,0-3.6,0.4-5.5,1.3h0l-0.8-1.4c0.3-0.2,0.8-0.6,1.6-1c0.8-0.4,1.7-0.7,2.7-1c1-0.3,2-0.4,2.9-0.4
				c1.5,0,2.7,0.2,3.5,0.6c0.9,0.4,1.5,1,1.9,1.9c0.4,0.9,0.6,2,0.6,3.5v9.6h1.9v1.5C58.8,130.4,57.6,130.6,56.9,130.6L56.9,130.6z
				 M55,121.3c-1.5,0-2.8,0.2-3.7,0.5c-1,0.3-1.7,0.8-2.1,1.4c-0.4,0.6-0.7,1.2-0.7,1.9c0,1.1,0.3,1.9,0.8,2.4
				c0.5,0.5,1.3,0.8,2.2,0.8c0.5,0,1.1-0.1,1.8-0.4c0.7-0.3,1.3-0.6,1.8-1V121.3L55,121.3z M73.8,130.6v-1.6l2-0.3v-8.5
				c0-1.2-0.1-2.1-0.2-2.8c-0.2-0.7-0.5-1.2-0.9-1.5c-0.4-0.3-1.1-0.5-2-0.5c-0.7,0-1.5,0.2-2.3,0.5c-0.8,0.3-1.5,0.7-2.1,1.2v11.6
				l2.1,0.3v1.6h-7.7v-1.6l2-0.3v-12.5l-2.2-0.6v-2L67,113h0.1l0.7,0.6v1.3l0,0.7c0.5-0.4,1.1-0.9,1.8-1.3c0.7-0.4,1.5-0.7,2.3-1
				c0.8-0.3,1.6-0.4,2.3-0.4c1.3,0,2.4,0.2,3.1,0.7c0.7,0.5,1.2,1.2,1.5,2.3c0.3,1,0.4,2.4,0.4,4.1v8.6l2.2,0.3v1.6H73.8L73.8,130.6
				z M98.9,115c-1.5,4.6-2.7,8.2-3.6,11c-0.9,2.7-1.5,4.4-1.8,5c-0.7,1.8-1.4,3.1-2,4.2c-0.6,1-1.3,1.8-2.2,2.3
				c-0.8,0.5-1.8,0.8-3,0.8c-0.3,0-0.7,0-1-0.1c-0.4,0-0.6-0.1-0.8-0.2v-2.9c0.1,0.1,0.4,0.1,0.8,0.2c0.4,0.1,0.7,0.1,1.1,0.1
				c0.6,0,1.2-0.1,1.7-0.4c0.5-0.2,1-0.7,1.6-1.4c0.5-0.7,1.1-1.7,1.6-3h-1.7L83.7,115l-1.5-0.4V113h7.9v1.6l-2.4,0.4l3,9.3l1.4,4.5
				l1.2-4.5l2.8-9.3l-2.1-0.4V113h6.5v1.6L98.9,115L98.9,115z M113.1,118.5l-0.7-2.7c-0.1-0.3-0.4-0.6-0.9-0.7
				c-0.4-0.2-0.9-0.2-1.5-0.2c-0.9,0-1.7,0.2-2.4,0.7c-0.7,0.5-1.2,1.2-1.6,2.1c-0.4,0.9-0.6,2.1-0.6,3.5c0,1.6,0.2,2.9,0.7,4
				c0.4,1.1,1,1.8,1.8,2.3c0.8,0.5,1.6,0.8,2.6,0.8c0.9,0,1.7-0.1,2.5-0.4c0.8-0.2,1.4-0.5,1.9-0.9l0.7,1.3
				c-0.4,0.4-0.9,0.7-1.5,1.1c-0.6,0.4-1.3,0.6-2.1,0.9c-0.8,0.2-1.5,0.3-2.3,0.3c-1.7,0-3.2-0.4-4.4-1.1c-1.2-0.7-2.1-1.8-2.7-3
				c-0.6-1.3-0.9-2.7-0.9-4.4c0-1.7,0.3-3.2,1-4.6c0.7-1.4,1.7-2.5,3-3.3c1.3-0.8,3-1.2,4.9-1.2c1.5,0,3.1,0.3,4.8,1l-0.2,4.5H113.1
				L113.1,118.5z M136.3,130.6v-1.7l2.5-0.3v-12.9l-2.2-0.6v-1.8l4.9-0.6h0.1l0.8,0.6v15.4l2.5,0.3v1.7H136.3L136.3,130.6z
				 M140.2,109.7L140.2,109.7c-0.6,0-1.1-0.2-1.5-0.6c-0.4-0.4-0.6-0.9-0.6-1.5c0-0.7,0.2-1.3,0.6-1.8c0.4-0.5,1-0.7,1.7-0.7h0
				c0.4,0,0.8,0.1,1.1,0.3c0.3,0.2,0.6,0.5,0.7,0.8c0.2,0.3,0.3,0.7,0.3,1.1c0,0.7-0.2,1.3-0.6,1.8
				C141.6,109.5,141,109.7,140.2,109.7L140.2,109.7z M158.4,130.6v-1.6l2-0.3v-8.5c0-1.2-0.1-2.1-0.2-2.8c-0.2-0.7-0.5-1.2-0.9-1.5
				c-0.4-0.3-1.1-0.5-2-0.5c-0.7,0-1.5,0.2-2.3,0.5c-0.8,0.3-1.5,0.7-2.1,1.2v11.6l2.1,0.3v1.6h-7.7v-1.6l2-0.3v-12.5l-2.2-0.6v-2
				l4.6-0.6h0.1l0.7,0.6v1.3l0,0.7c0.5-0.4,1.1-0.9,1.8-1.3c0.7-0.4,1.5-0.7,2.3-1c0.8-0.3,1.6-0.4,2.3-0.4c1.3,0,2.4,0.2,3.1,0.7
				c0.7,0.5,1.2,1.2,1.5,2.3c0.3,1,0.4,2.4,0.4,4.1v8.6l2.2,0.3v1.6H158.4L158.4,130.6z M173.6,129.4c-0.2,0.4-0.5,0.7-0.9,0.9
				c-0.4,0.2-0.8,0.3-1.3,0.3c-0.4,0-0.7-0.1-1.1-0.3c-0.3-0.2-0.6-0.4-0.8-0.7c-0.2-0.3-0.3-0.7-0.3-1.1c0-0.5,0.1-0.9,0.4-1.2
				c0.2-0.4,0.6-0.7,0.9-0.9c0.4-0.2,0.8-0.3,1.2-0.3c0.7,0,1.3,0.2,1.6,0.6c0.4,0.4,0.6,0.9,0.6,1.5
				C173.9,128.6,173.8,129,173.6,129.4L173.6,129.4z M188.9,130.6v-1.6l2-0.3v-8.5c0-1.2-0.1-2.1-0.2-2.8c-0.2-0.7-0.5-1.2-0.9-1.5
				c-0.4-0.3-1.1-0.5-2-0.5c-0.7,0-1.5,0.2-2.3,0.5c-0.8,0.3-1.5,0.7-2.1,1.2v11.6l2.1,0.3v1.6h-7.7v-1.6l2-0.3v-12.5l-2.2-0.6v-2
				l4.6-0.6h0.1l0.7,0.6v1.3l0,0.7c0.5-0.4,1.1-0.9,1.8-1.3c0.7-0.4,1.5-0.7,2.3-1c0.8-0.3,1.6-0.4,2.3-0.4c1.3,0,2.4,0.2,3.1,0.7
				c0.7,0.5,1.2,1.2,1.5,2.3c0.3,1,0.4,2.4,0.4,4.1v8.6l2.2,0.3v1.6H188.9L188.9,130.6z M213.1,121.5h-10.7c0,1.5,0.3,2.8,0.8,3.8
				c0.5,1,1.1,1.7,1.9,2.2c0.8,0.5,1.6,0.7,2.6,0.7c0.8,0,1.7-0.1,2.6-0.4c0.9-0.3,1.6-0.6,2.1-1l0.6,1.5c-0.4,0.4-0.9,0.8-1.6,1.1
				c-0.7,0.4-1.4,0.7-2.3,0.9c-0.8,0.2-1.7,0.3-2.5,0.3c-1.7,0-3.2-0.4-4.4-1.1c-1.2-0.7-2.1-1.8-2.7-3.1c-0.6-1.3-0.9-2.8-0.9-4.6
				c0-1.7,0.4-3.3,1.1-4.6c0.7-1.3,1.7-2.4,3-3.1c1.3-0.7,2.7-1.1,4.3-1.1c2,0,3.5,0.5,4.6,1.5c1.1,1,1.7,2.4,1.7,4.3v0.5
				C213.3,120.2,213.3,121,213.1,121.5L213.1,121.5z M208.9,115.9c-0.5-0.7-1.4-1-2.5-1c-1.2,0-2.1,0.4-2.7,1.1
				c-0.7,0.7-1.1,2-1.2,3.8h7.2c0-0.3,0.1-0.7,0.1-1.1C209.7,117.5,209.4,116.6,208.9,115.9L208.9,115.9z M240.3,115l-4.8,15.5h-3.2
				l-3.3-11l-0.8-3.7l-0.6,3.7l-3.2,11h-3.2l-5.1-15.5l-1.7-0.4V113h7.7v1.6l-2.4,0.4l2.5,9l0.9,3.9l0.8-3.9l3.1-11h3.3l3.2,11
				l0.9,3.9l0.9-3.8l2.5-9l-2.4-0.4V113h6.7v1.6L240.3,115L240.3,115z M248.5,119.1c0.5,0.2,1.1,0.5,1.9,0.8l0.6,0.3
				c1.2,0.5,2.1,0.9,2.9,1.4c0.7,0.4,1.3,1,1.8,1.6c0.5,0.7,0.7,1.5,0.7,2.4c0,1-0.3,1.9-0.8,2.6c-0.5,0.7-1.3,1.3-2.3,1.7
				c-1,0.4-2.2,0.6-3.6,0.6c-1.1,0-2.2-0.1-3.3-0.4c-1.2-0.3-2.1-0.6-2.8-0.9v-3.9h2.2l0.6,2.2c0.1,0.2,0.4,0.4,0.7,0.6
				c0.4,0.2,0.8,0.3,1.3,0.5c0.5,0.1,1,0.2,1.5,0.2c1.2,0,2-0.2,2.5-0.6c0.5-0.4,0.7-1,0.7-1.7c0-0.5-0.2-1-0.5-1.4
				c-0.3-0.4-0.8-0.8-1.5-1.1c-0.7-0.3-1.6-0.7-2.7-1.2c-1.6-0.6-2.8-1.3-3.6-2.2c-0.8-0.8-1.1-1.9-1.1-3.2c0-0.9,0.3-1.7,0.8-2.3
				c0.6-0.7,1.3-1.2,2.3-1.6c1-0.4,2.1-0.6,3.3-0.6c0.9,0,1.8,0.1,2.5,0.2c0.7,0.1,1.4,0.3,2.2,0.6l0.6,0.2v3.8h-2l-0.7-2.1
				c-0.1-0.3-0.5-0.5-1-0.7c-0.5-0.2-1.1-0.3-1.8-0.3c-0.9,0-1.7,0.2-2.2,0.6c-0.5,0.4-0.8,0.9-0.8,1.5c0,0.6,0.2,1,0.5,1.4
				C247.7,118.6,248.1,118.9,248.5,119.1L248.5,119.1z"/>
		</defs>
		<use xlink:href="#SVGID_1_"  style="overflow:visible;fill:#03548A;"/>
		<clipPath id="SVGID_2_">
			<use xlink:href="#SVGID_1_"  style="overflow:visible;"/>
		</clipPath>
		<g style="display:none;clip-path:url(#SVGID_2_);">
			
				<image style="display:inline;overflow:visible;" width="320" height="60" xlink:href="9888EF93662C44DE.jpg"  transform="matrix(1 0 0 1 -10 87.75)">
			</image>
		</g>
	</g>
	<path id="bitcoin-4" class="st4" d="M126.1,114.4c4,0,7.2,3.2,7.2,7.2c0,4-3.2,7.2-7.2,7.2c-4,0-7.2-3.2-7.2-7.2
		C118.9,117.6,122.2,114.4,126.1,114.4z M126.1,112.9c-4.8,0-8.7,3.9-8.7,8.7c0,4.8,3.9,8.7,8.7,8.7c4.8,0,8.7-3.9,8.7-8.7
		C134.8,116.8,130.9,112.9,126.1,112.9z M126.1,125.9v-1.1h-0.4v1.1H125v-1.1h-1.8l0.2-1.1h0.4c0.3,0,0.5-0.3,0.5-0.6v-3.2
		c0-0.3-0.2-0.5-0.5-0.5h-0.6v-1.1h1.8v-1.1h0.7v1.1h0.4v-1.1h0.7v1.1c1.6,0.1,2.2,0.6,2.4,1.3c0.2,0.8-0.3,1.4-0.8,1.6
		c0.5,0.1,1.3,0.5,1.3,1.5c0,1.3-1,2.1-2.9,2.1v1.1H126.1z M125.8,121.9v1.8c1.4,0,2.4-0.1,2.4-0.9
		C128.2,122,127.1,121.9,125.8,121.9z M125.8,121.2c0.8,0,2-0.1,2-0.9c0-0.7-0.7-0.9-2-0.9V121.2z"/>
</g>
</svg>
