<?xml version="1.0" encoding="utf-8"?>
<!-- Generator: Adobe Illustrator 22.0.1, SVG Export Plug-In . SVG Version: 6.00 Build 0)  -->
<svg version="1.1" id="Layer_1" xmlns="http://www.w3.org/2000/svg" xmlns:xlink="http://www.w3.org/1999/xlink" x="0px" y="0px"
	 viewBox="0 0 413.1 174.1" style="enable-background:new 0 0 413.1 174.1;" xml:space="preserve">
<style type="text/css">
	.st0{fill:url(#SVGID_1_);}
	.st1{fill:url(#SVGID_2_);}
</style>
<g>
	<linearGradient id="SVGID_1_" gradientUnits="userSpaceOnUse" x1="191.7985" y1="52.3485" x2="191.7985" y2="95.905">
		<stop  offset="0" style="stop-color:#299DD8"/>
		<stop  offset="1" style="stop-color:#1E3A6E"/>
	</linearGradient>
	<path class="st0" d="M180.9,59c-0.2-0.8,0.8-1.9,1.2-2.3c0.4-0.4,2.8,0.1,3.8-0.1c1-0.3,3.8-1.2,5-1.8c3.2-1.5,8.1-2.3,8.7-2.4
		c0.6-0.1,2.8,0.6,2.8,0.6s0.8,0.6,0,1.1c-0.8,0.4-6.8,4.4-7.3,5c-0.5,0.6-0.9,3.1-0.9,4.1c0,2.1,1.9,2.8,1,8
		c-1.1,5.6-0.2,13-0.2,13.6c0,1.2,0.1,4,0.9,4.1c0.9,0.1,1.7-0.6,3-0.9c1.3-0.3,3.7-0.7,3.9-0.3c0.1,0.3-1.1,1.1-1.3,1.6
		c-0.3,0.5-5.9,5.8-7.6,5.9c-1.7,0.1-2.3-0.9-2.8-0.6c-0.5,0.2-3.4,1.3-4.4,1.4c-1,0.1-2.3-1.1-3.1-1.9s0.6-2.8,1.2-3
		c0.6-0.2,3.2-0.4,4.7-0.5c1.5-0.1,2-1.5,1.8-2.3c-0.3-1.6-1.1-3.6-1-5.8c0.1-1.5,0.8-4,0.7-5c-0.2-3.3-0.8-4.2-1-5.4
		c-0.1-1.2,0-3.3-0.1-4.4c-0.1-1.1-1.7-3-1.7-4.7c0-0.8-0.3-1.9-0.6-1.9c-0.3,0-2.6,0.7-2.8,0.7c-0.2,0-2.1-0.6-2.6-1.2
		C181.9,59.9,180.9,59,180.9,59z"/>
	<linearGradient id="SVGID_2_" gradientUnits="userSpaceOnUse" x1="218.1448" y1="121.001" x2="218.1448" y2="73.9626">
		<stop  offset="0" style="stop-color:#299DD8"/>
		<stop  offset="1" style="stop-color:#1E3A6E"/>
	</linearGradient>
	<path class="st1" d="M206.7,82.5c-0.6-0.5-2.3-2-2.3-2v-2c0,0,3.4-0.8,5-0.8c1.6,0,4.8-1.4,6.3-1.5c1.5-0.1,4.2-0.8,6.4-0.8
		c2.2,0,4.7-1.1,6.1-1.2c1.4-0.1,3.8-0.3,4,0c0.2,0.3-0.9,1.9-2.1,2.3c-1.2,0.3-3.2,2.1-3.9,2.6c-2.4,1.6-5.8,1.5-7.5,1.7
		c-1,0.1-4.5,0.8-5,2.7c-0.2,0.8-0.2,2.3-0.6,3c-0.4,0.7-0.4,3.4-0.1,4.3c0.2,0.8-0.1,1.7,1.3,1.5c1.8-0.3,1.9-0.3,3.3-0.7
		c2.2-0.6,3.6-0.4,4-0.4s0.7,0.4-0.4,1.6c-1.1,1.1-4.2,3.5-5.1,3.7c-0.9,0.2-1.8,0.7-2.1,1.2c-0.3,0.5-0.8,6.2-0.6,8.4
		c0.2,2.2,0.6,7.4,0.7,8.1c0.1,0.7,0.2,6.6-0.6,6.9c-0.8,0.3-1.8-3.3-2.3-4.9c-0.6-1.6-2.5-3.9-2.6-4.9c-0.1-1.1-0.4-1.9-0.4-3.5
		c0-1.6,0.9-9.3,0.3-9.5c-0.6-0.2-3.7,0.7-4.3,0.2c-0.6-0.6-0.6-1.4,0.7-2.3c1.3-0.9,1.7-2,2-2c0.4,0,1.2,0.2,1.3-1.1s0.2-2-0.1-2.7
		c-0.4-0.7-0.9-1.1-0.1-6.3C208.3,83,206.7,82.5,206.7,82.5z"/>
</g>
</svg>
