<?xml version="1.0" encoding="utf-8"?>
<!-- Generator: Adobe Illustrator 21.0.0, SVG Export Plug-In . SVG Version: 6.00 Build 0)  -->
<svg version="1.1" id="Layer_1" xmlns="http://www.w3.org/2000/svg" xmlns:xlink="http://www.w3.org/1999/xlink" x="0px" y="0px"
	 width="18px" height="18px" viewBox="0 0 18 18" style="enable-background:new 0 0 18 18;" xml:space="preserve">
<style type="text/css">
	.st0{fill:#000000;}
</style>
<path class="st0" d="M10.1,9L17,2.1c0.2-0.2,0.2-0.5,0-0.7L16.6,1c-0.2-0.2-0.5-0.2-0.7,0L9,7.9L2.1,1C1.9,0.9,1.6,0.9,1.4,1L1,1.4
	C0.9,1.6,0.9,1.9,1,2.1L7.9,9L1,15.9c-0.2,0.2-0.2,0.5,0,0.7L1.4,17c0.2,0.2,0.5,0.2,0.7,0L9,10.1l6.9,6.9c0.2,0.2,0.5,0.2,0.7,0
	l0.4-0.4c0.2-0.2,0.2-0.5,0-0.7L10.1,9z"/>
</svg>
