<?xml version="1.0" encoding="utf-8"?>
<!-- Generator: Adobe Illustrator 22.0.1, SVG Export Plug-In . SVG Version: 6.00 Build 0)  -->
<svg version="1.1" id="Capa_1" xmlns="http://www.w3.org/2000/svg" xmlns:xlink="http://www.w3.org/1999/xlink" x="0px" y="0px"
	 viewBox="0 0 112.2 112.2" style="enable-background:new 0 0 112.2 112.2;" xml:space="preserve">
<style type="text/css">
	.st0{fill:#F4731C;}
	.st1{fill:#FFFFFF;}
</style>
<circle class="st0" cx="56.1" cy="56.1" r="56.1"/>
<g>
	<path class="st1" d="M56.1,32.1c4,0,7.3,3.3,7.3,7.3c0,4-3.3,7.3-7.3,7.3c-4,0-7.3-3.3-7.3-7.3C48.8,35.4,52.1,32.1,56.1,32.1z
		 M56.1,57.2c9.8,0,17.7-7.9,17.7-17.7c0-9.8-7.9-17.7-17.7-17.7c-9.8,0-17.7,8-17.7,17.7C38.4,49.3,46.3,57.2,56.1,57.2"/>
	<path class="st1" d="M63.3,71.7c3.6-0.8,7.1-2.2,10.3-4.3c2.4-1.5,3.2-4.7,1.6-7.2c-1.5-2.4-4.7-3.2-7.2-1.6
		c-7.3,4.6-16.6,4.6-23.9,0c-2.4-1.5-5.6-0.8-7.2,1.6c-1.5,2.4-0.8,5.6,1.6,7.2c3.2,2,6.7,3.4,10.3,4.3L39,81.6c-2,2-2,5.3,0,7.3
		c1,1,2.3,1.5,3.7,1.5c1.3,0,2.7-0.5,3.7-1.5l9.7-9.7l9.7,9.7c2,2,5.3,2,7.3,0c2-2,2-5.3,0-7.3L63.3,71.7"/>
</g>
</svg>
