<?xml version="1.0" encoding="utf-8"?>
<!-- Generator: Adobe Illustrator 22.0.1, SVG Export Plug-In . SVG Version: 6.00 Build 0)  -->
<svg version="1.1" id="Layer_1" xmlns="http://www.w3.org/2000/svg" xmlns:xlink="http://www.w3.org/1999/xlink" x="0px" y="0px"
	 viewBox="0 0 595.3 841.9" style="enable-background:new 0 0 595.3 841.9;" xml:space="preserve">
<style type="text/css">
	.st0{fill:#1B8ACB;}
	.st1{fill:#3EA635;}
	.st2{fill:#FFFFFF;}
</style>
<path class="st0" d="M257.4,205.6l-0.1-0.6c0,0-9.5-57.3-9.8-59.1c-0.4-2-1.4-2.6-2.7-2.6h-0.1c-1.2,0-2,0.4-2.8,2.5
	c-0.5,1.3-17.2,47.8-17.2,47.8s-0.2,0.7-1,0.7c-0.8,0-1-0.8-1-0.8s-16.7-46.5-17.2-47.7c-0.8-2.2-1.6-2.5-2.8-2.5h-0.1
	c-1.3,0-2.3,0.6-2.7,2.6c-0.4,1.8-9.8,59.1-9.8,59.1l-0.1,0.6c0,0.1,0,0.3,0,0.4c0,1.9,1.6,3.5,3.5,3.6h0.2c1.7,0,3.1-1.3,3.4-3
	l-0.1,0l0.1-0.1l5.9-41.6c0,0,0.1-1.2,1.1-1.2c1,0,1.4,1.3,1.4,1.3l15.4,42.4l0.1,0.2c0.4,1.1,1.3,1.8,2.8,1.8
	c1.6,0,2.4-0.8,2.8-1.8l0.1-0.2l15.3-42.4c0,0,0.4-1.3,1.4-1.3c0.9,0,1.1,1.2,1.1,1.2l5.9,41.6l0.1,0.1l-0.1,0
	c0.3,1.7,1.7,2.9,3.4,3h0.2c1.9,0,3.5-1.6,3.5-3.6C257.4,205.9,257.4,205.8,257.4,205.6"/>
<path class="st0" d="M177.4,197c0.6,0.6,0.9,1.5,1,2.4c0,1.8-1.4,2.8-1.4,2.8c-6,5.1-13.2,7.4-20.7,7.4c-18.4,0-33.2-14.6-33.2-33.1
	c0-18.4,14.8-33.2,33.2-33.2c8.4,0,14.8,2.7,20.5,7.1l0.4,0.3c0.9,0.8,1.2,1.6,1.2,2.6c0,0,0,1.2-0.9,2.4c0,0-0.1,0.1-0.1,0.1
	c-1,0.9-2.4,1-2.4,1c-0.7,0-1.4-0.2-1.9-0.6c-0.1-0.1-0.4-0.3-0.4-0.3c-4.6-3.6-10.6-5.9-16.4-5.9c-14.5,0-25.7,12.2-25.7,26.5
	c0,14.2,11.1,26.4,25.7,26.4c7.4,0,11.8-2.8,16.5-6.1c2.1-1.5,3.8-0.6,4.4-0.1"/>
<path class="st0" d="M277.7,194.6c-0.6-0.3-0.6-1-0.6-1l0-46.7v-0.4c-0.1-1.8-1.6-3.2-3.4-3.3h-0.2c-1.9,0-3.3,1.5-3.4,3.4v0.1v59.2
	c0,1.9,1.5,3.5,3.5,3.5c1,0,1.9-0.4,2.6-1.1l39.2-49.8c0,0,0.6-0.6,1.3-0.4c0.7,0.3,0.7,1.1,0.7,1.1v46.6v0.4
	c0.1,1.8,1.6,3.2,3.4,3.3h0.2c1.9,0,3.3-1.5,3.4-3.4V206v-59.2v0c0-1.9-1.5-3.5-3.5-3.5c-1,0-2,0.4-2.6,1.1
	c-9.7,12.5-39.2,49.8-39.2,49.8S278.6,195,277.7,194.6"/>
<path class="st1" d="M470.7,176.4c0,33.7-27.3,61-61,61c-33.7,0-61-27.3-61-61c0-33.7,27.3-61,61-61
	C443.4,115.4,470.7,142.7,470.7,176.4"/>
<path class="st2" d="M426.8,203.3h-0.3h-24.2c0,0-0.6,0.1-1-0.6c-0.4-0.7,0.1-1.2,0.1-1.2s11.2-12,16.8-17.9
	c6.6-7.1,12-13.4,12-21.8c0-9.8-7-18.5-20.8-18.5c-8.9,0-15,5.7-17.3,8.3l-0.2,0.2c-0.4,0.6-0.7,1.3-0.7,2c0,0.9,0.4,1.7,0.9,2.3
	c0,0,0.1,0.1,0.1,0.1c0.6,0.5,1.3,0.8,2.1,0.8c0.9,0,1.7-0.4,2.3-1l0,0c3-3,7.3-6.2,12.6-6.2c9.9,0,13.5,6.7,13.5,12.2
	c0,4.5-3.2,10.3-9.7,17.4c-7.6,8.2-15.1,16.4-22.8,24.6l-0.2,0.2c-0.2,0.3-0.4,0.6-0.5,0.9c-0.1,0.4-0.2,0.7-0.2,1.1
	c0,0.4,0.1,0.8,0.2,1.1c0.5,1.2,1.5,2.1,2.9,2.1l0.2,0h33.8h0.3c1.6-0.1,2.9-1.4,3-3v-0.3C429.6,204.7,428.4,203.4,426.8,203.3"/>
</svg>
