<?xml version="1.0" encoding="utf-8"?>
<!-- Generator: Adobe Illustrator 21.0.0, SVG Export Plug-In . SVG Version: 6.00 Build 0)  -->
<svg version="1.1" id="Layer_1" xmlns="http://www.w3.org/2000/svg" xmlns:xlink="http://www.w3.org/1999/xlink" x="0px" y="0px"
	 width="28px" height="28px" viewBox="0 0 28 28" style="enable-background:new 0 0 28 28;" xml:space="preserve">
<style type="text/css">
	.st0{fill:#000;}
  #Blue_1_ {fill:#BBBABD;}
</style>
<g>
	<path id="Blue_1_" d="M25,28c1.7,0,3-1.3,3-3V3c0-1.7-1.3-3-3-3H3C1.3,0,0,1.3,0,3v22c0,1.7,1.3,3,3,3H25z"/>
</g>
<path id="path3043" class="st0" d="M17.8,17.4c0.5-1.5,2.5-7,2.8-8.5c0.4-1.6-0.4-1.8-2.1-1.3c-1.7,0.6-6,2.2-6.7,2.4
	c-0.7,0.3-4.3,1.5-5,1.8c-1.5,0.8-0.8,2,0.9,2.7c5,2.4,3.6,1.2,5.8,5.6c0.5,1.1,1.5,3.1,2.6,1.6C16.6,21,17.4,18.5,17.8,17.4z"/>
</svg>
