<?xml version="1.0" encoding="utf-8"?>
<!-- Generator: Adobe Illustrator 21.0.0, SVG Export Plug-In . SVG Version: 6.00 Build 0)  -->
<svg version="1.0" id="Layer_1" xmlns="http://www.w3.org/2000/svg" xmlns:xlink="http://www.w3.org/1999/xlink" x="0px" y="0px"
	 width="164px" height="28px" viewBox="0 0 164 28" style="enable-background:new 0 0 164 28;" xml:space="preserve">
<style type="text/css">
	.st0{fill:#000;}
  #Blue_3_, #Blue_1_, #Blue_2_, #Blue_4_, #Blue_5_,#Blue_6_ {fill:#BBBABD;}
</style>
<g>
	<g>
		<path id="Blue_3_" d="M70,28c1.7,0,3-1.3,3-3V3c0-1.7-1.3-3-3-3H48c-1.7,0-3,1.3-3,3v22c0,1.7,1.3,3,3,3H70z"/>
	</g>
	<g>
		<path class="st0" d="M69,18.7c0-0.1,0-0.1-0.1-0.1c-0.4-0.6-1-1.4-2-2.3l0,0l0,0l0,0l0,0c-0.4-0.4-0.7-0.7-0.9-0.9
			c-0.2-0.3-0.3-0.6-0.1-0.9c0.1-0.2,0.4-0.7,0.9-1.4c0.3-0.4,0.5-0.7,0.7-0.9c1.2-1.6,1.7-2.6,1.6-3.1V9c0-0.1-0.2-0.1-0.3-0.2
			c-0.2-0.1-0.4-0.1-0.7,0h-3c0,0-0.1,0-0.2,0s-0.1,0-0.1,0h-0.1l0,0l-0.1,0.1c0,0.1-0.1,0.1-0.1,0.2c-0.3,0.9-0.7,1.6-1.1,2.4
			c-0.3,0.4-0.5,0.8-0.7,1.1s-0.4,0.6-0.5,0.7c-0.1,0.2-0.3,0.3-0.4,0.4c-0.1,0.1-0.2,0.1-0.3,0.1s-0.1,0-0.2,0
			c-0.1-0.1-0.2-0.1-0.2-0.3C61,13.4,61,13.3,61,13.1s0-0.3,0-0.4c0-0.1,0-0.3,0-0.5s0-0.4,0-0.4c0-0.3,0-0.6,0-0.9
			c0-0.3,0-0.6,0-0.7c0-0.2,0-0.4,0-0.6c0-0.2,0-0.4,0-0.5s-0.1-0.2-0.1-0.3s-0.1-0.2-0.2-0.3c-0.1-0.1-0.2-0.1-0.4-0.1
			c-0.4-0.1-0.8-0.1-1.4-0.1c-1.3,0-2.1,0.1-2.5,0.3c-0.1,0.1-0.3,0.2-0.4,0.3c-0.1,0.2-0.1,0.2-0.1,0.3c0.4,0.1,0.7,0.2,0.9,0.5
			l0.1,0.1c0,0.1,0.1,0.3,0.1,0.5s0.1,0.5,0.1,0.8c0,0.5,0,1,0,1.3c0,0.4-0.1,0.6-0.1,0.9s-0.1,0.4-0.1,0.5
			c-0.1,0.1-0.1,0.2-0.1,0.2s0,0-0.1,0.1c-0.1,0-0.2,0.1-0.3,0.1s-0.2,0-0.4-0.1c-0.1-0.1-0.3-0.2-0.4-0.4c-0.2-0.2-0.3-0.4-0.5-0.7
			s-0.4-0.7-0.6-1.1l-0.2-0.3c-0.1-0.2-0.2-0.5-0.4-0.9s-0.3-0.7-0.5-1.1C53.1,9.1,53.1,9,52.9,9h-0.1c0,0-0.1-0.1-0.2-0.1
			c-0.1,0-0.2-0.1-0.2-0.1h-2.9c-0.3,0-0.5,0.1-0.6,0.2v0.1c0,0,0,0.1,0,0.2c0,0.1,0,0.2,0.1,0.3c0.4,1,0.9,1.9,1.4,2.9
			c0.5,0.9,0.9,1.7,1.3,2.2c0.4,0.6,0.7,1.1,1.1,1.6c0.4,0.5,0.6,0.8,0.8,1c0.1,0.1,0.2,0.2,0.3,0.3l0.3,0.3
			c0.2,0.2,0.4,0.4,0.7,0.6s0.7,0.5,1.1,0.7c0.4,0.2,0.9,0.4,1.4,0.6c0.5,0.1,1,0.2,1.5,0.2H60c0.2,0,0.4-0.1,0.6-0.2v-0.1
			c0,0,0.1-0.1,0.1-0.2s0-0.2,0-0.3c0-0.3,0-0.6,0.1-0.8c0.1-0.2,0.1-0.4,0.2-0.5c0.1-0.1,0.1-0.2,0.2-0.3c0.1-0.1,0.1-0.1,0.2-0.2
			h0.1c0.2-0.1,0.4,0,0.6,0.2c0.2,0.2,0.4,0.4,0.6,0.6c0.2,0.2,0.4,0.5,0.7,0.8s0.5,0.5,0.7,0.7l0.2,0.1c0.1,0.1,0.3,0.2,0.5,0.2
			c0.2,0.1,0.4,0.1,0.6,0.1h2.7c0.3,0,0.5,0,0.6-0.1s0.2-0.2,0.3-0.3c0-0.1,0-0.2,0-0.4C69.1,18.8,69.1,18.7,69,18.7z"/>
	</g>
</g>
<g>
	<path id="Blue_4_" d="M154.8,8.2C149.6,2.9,142.6,0,135.1,0v5.5c6,0,11.6,2.3,15.9,6.5c4.2,4.2,6.6,9.8,6.6,15.8h5.5
		C163,20.4,160.1,13.4,154.8,8.2z"/>
	<path id="Blue_5_" d="M135,9.3v5.5c7.2,0,13.1,5.9,13.1,13.1h5.5C153.7,17.6,145.3,9.3,135,9.3z"/>
	<ellipse id="Blue_6_" cx="138.9" cy="24.1" rx="3.9" ry="3.9"/>
</g>
<g>
	<path id="Blue_1_" d="M25,28c1.7,0,3-1.3,3-3V3c0-1.7-1.3-3-3-3H3C1.3,0,0,1.3,0,3v22c0,1.7,1.3,3,3,3H25z"/>
	<path id="f" class="st0" d="M19.3,28V17.2H23l0.5-4.2h-4.2v-2.7c0-1.2,0.3-2,2.1-2h2.2V4.5c-0.4,0-1.7-0.2-3.3-0.2
		c-3.2,0-5.4,2-5.4,5.6V13h-3.6v4.2H15V28H19.3z"/>
</g>
<g>
	<path id="Blue_2_" d="M115,28c1.7,0,3-1.3,3-3V3c0-1.7-1.3-3-3-3H93c-1.7,0-3,1.3-3,3v22c0,1.7,1.3,3,3,3H115z"/>
	<path class="st0" d="M113.7,8.7c-0.7,0.3-1.4,0.5-2.2,0.6c0.8-0.5,1.4-1.2,1.7-2.1c-0.8,0.4-1.5,0.8-2.4,0.9
		c-0.7-0.8-1.7-1.2-2.8-1.2c-2.1,0-3.8,1.7-3.8,3.8c0,0.3,0,0.6,0.1,0.9c-3.2-0.1-6-1.7-7.9-4c-0.3,0.6-0.5,1.2-0.5,1.9
		c0,1.3,0.7,2.5,1.7,3.2c-0.6,0-1.2-0.2-1.7-0.5l0,0c0,1.9,1.3,3.4,3.1,3.8c-0.3,0.1-0.6,0.1-1,0.1c-0.3,0-0.5,0-0.7-0.1
		c0.5,1.5,1.9,2.6,3.6,2.7c-1.3,1-3,1.7-4.7,1.7c-0.3,0-0.6,0-0.9,0c1.7,1.1,3.7,1.7,5.9,1.7c7,0,10.9-5.9,10.9-10.9
		c0-0.2,0-0.3,0-0.5C112.5,10.2,113.2,9.5,113.7,8.7z"/>
</g>
</svg>
