<svg xmlns="http://www.w3.org/2000/svg" xmlns:xlink="http://www.w3.org/1999/xlink" width="260px" height="59px"><defs><path id="a" d="M0 0h31v57H0z"/></defs><g fill="none" fill-rule="evenodd"><path fill="#000" d="M12.778 1.632v54.737c0 .21.105.315.316.315h5.522c3.89 0 6.967-2.08 9.23-6.239 1.892-3.527 2.838-7.608 2.838-12.243 0-.105.052-.159.159-.159.104 0 .157.054.157.159v18.482c0 .211-.106.316-.315.316H.157C.051 57 0 56.949 0 56.842c0-.104.051-.158.157-.158H4.97c.21 0 .317-.106.317-.315V1.632c0-.21-.107-.316-.317-.316H.157C.051 1.316 0 1.264 0 1.158 0 1.054.051 1 .157 1h17.749c.105 0 .158.054.158.158 0 .106-.053.158-.158.158h-4.812c-.21 0-.316.106-.316.316M34 5.176c0 2.113-.896 4.558-2.684 7.34-1.948 2.987-4.027 4.815-6.237 5.484a.588.588 0 0 1-.079-.232c1.052-.36 1.841-.798 2.369-1.313 1.894-1.441 2.842-3.013 2.842-4.712 0-1.597-.869-3.013-2.605-4.25-1.212-.874-1.817-2.008-1.817-3.399 0-1.132.395-2.098 1.184-2.897C27.763.4 28.71 0 29.816 0 32.605 0 34 1.727 34 5.176m5.305 45.168C35.767 44.576 34 37.64 34 29.54c0-8.046 1.715-14.98 5.149-20.805C42.58 2.912 46.864 0 51.999 0c4.979 0 9.224 2.886 12.734 8.655C68.243 14.427 70 21.39 70 29.54c0 8.1-1.769 15.036-5.306 20.804C61.156 56.116 56.925 59 52 59c-4.926 0-9.158-2.884-12.695-8.656m18.408-47.82C56.338.842 54.433 0 52 0c-2.329 0-4.154.737-5.477 2.21C43.507 5.524 42 14.467 42 29.04c0 7.68.318 13.493.953 17.438.528 3.631 1.48 6.46 2.857 8.484C47.186 56.986 49.248 58 52 58c2.646 0 4.669-1.014 6.07-3.038 1.402-2.025 2.395-4.853 2.977-8.484.635-3.945.953-9.757.953-17.439 0-14.098-1.43-22.936-4.287-26.515"/><path fill="#000" d="M95.07 6.608c-2.056-3.527-4.723-5.292-7.994-5.292h-5.62c-.211 0-.316.107-.316.316v26.46h.95c2.163 0 3.997-1.079 5.501-3.238 1.504-2.159 2.256-4.633 2.256-7.425 0-.105.026-.157.08-.157.051.052.078.105.078.157v21.563c0 .106-.027.158-.078.158-.054-.052-.08-.105-.08-.158 0-2.79-.752-5.253-2.256-7.385-1.503-2.133-3.338-3.199-5.501-3.199h-.95v27.96c0 .21.105.316.316.316h5.145c.105 0 .16.053.16.158 0 .107-.054.158-.16.158H68.16c-.107 0-.159-.051-.159-.158 0-.105.052-.158.159-.158h5.145c.21 0 .316-.106.316-.316V1.632c0-.21-.106-.316-.316-.316h-4.829c-.106 0-.158-.052-.158-.158 0-.105.052-.158.158-.158h29.209c.21 0 .316.106.316.316v16.112c0 .107-.026.158-.078.158-.054-.051-.08-.105-.08-.158 0-4.054-.925-7.66-2.771-10.82m29.999 0c-2.057-3.527-4.723-5.292-7.995-5.292h-5.62c-.21 0-.317.107-.317.316v26.46h.951c2.162 0 3.997-1.079 5.501-3.238 1.504-2.159 2.256-4.633 2.256-7.425 0-.105.025-.157.08-.157.05.052.078.105.078.157v21.563c0 .106-.028.158-.078.158-.054-.052-.08-.105-.08-.158 0-2.79-.752-5.253-2.256-7.385-1.503-2.133-3.339-3.199-5.501-3.199h-.95v27.96c0 .21.105.316.316.316h5.145c.105 0 .16.053.16.158 0 .107-.054.158-.16.158H98.158c-.106 0-.158-.051-.158-.158 0-.105.052-.158.158-.158h5.146c.21 0 .316-.106.316-.316V1.632c0-.21-.106-.316-.316-.316h-4.829c-.106 0-.158-.052-.158-.158 0-.105.052-.158.158-.158h29.209c.21 0 .316.106.316.316v16.112c0 .107-.027.158-.078.158-.054-.051-.08-.105-.08-.158 0-4.054-.925-7.66-2.77-10.82M146.84 57h-18.68c-.109 0-.16-.051-.16-.158 0-.104.051-.158.16-.158h5.268c.213 0 .32-.106.32-.315V1.632c0-.21-.108-.316-.32-.316h-4.87c-.107 0-.161-.051-.161-.158 0-.104.054-.158.161-.158h17.962c.106 0 .16.054.16.158 0 .106-.054.158-.16.158h-4.87c-.214 0-.318.106-.318.316v54.737c0 .21.104.315.318.315h5.19c.104 0 .16.054.16.158 0 .107-.056.158-.16.158"/><path fill="#000" d="M154.245 29.62c0 14.331 1.375 23.223 4.123 26.673 1.373 1.698 3.408 2.548 6.104 2.548 3.382 0 6.289-2.123 8.72-6.37 2.431-4.246 3.649-9.05 3.649-14.412 0-.052.026-.105.078-.159.052 0 .081.054.081.159V58.84c0 .052-.03.105-.081.159-.052 0-.078-.054-.078-.16-.106-1.485-.952-2.228-2.538-2.228-.791 0-2.352.397-4.678 1.194-2.324.796-4.044 1.194-5.153 1.194-5.181 0-9.553-2.912-13.12-8.735C147.784 44.443 146 37.535 146 29.54c0-8.047 1.731-14.982 5.193-20.805C154.654 2.912 159.002 0 164.235 0c1.428 0 3 .358 4.718 1.074 1.716.717 2.973 1.075 3.766 1.075 1.691 0 2.643-.66 2.853-1.978 0-.057.026-.115.08-.171.052 0 .08.053.08.16v17.753c0 .053-.028.107-.08.161-.054 0-.08-.052-.08-.16 0-4.829-.899-8.863-2.694-12.102-2.061-3.663-4.944-5.494-8.643-5.494-2.485 0-4.414.85-5.787 2.548-2.804 3.557-4.203 12.475-4.203 26.754M195.84 57h-18.68c-.109 0-.16-.051-.16-.158 0-.104.051-.158.16-.158h5.268c.213 0 .319-.106.319-.315V1.632c0-.21-.107-.316-.32-.316h-4.87c-.106 0-.16-.051-.16-.158 0-.104.054-.158.16-.158h17.964c.105 0 .158.054.158.158 0 .106-.053.158-.158.158h-4.87c-.214 0-.32.106-.32.316v54.737c0 .21.106.315.32.315h5.189c.105 0 .16.054.16.158 0 .107-.054.158-.16.158m33-18.088c0-.05.026-.104.08-.158.052 0 .08.054.08.158v17.773c0 .21-.108.315-.321.315h-32.517c-.11 0-.162-.051-.162-.158 0-.104.052-.157.162-.157h4.817c.266 0 .402-.107.402-.316V1.631c0-.209-.108-.316-.321-.316h-4.898c-.11 0-.162-.051-.162-.158 0-.105.052-.157.162-.157h29.707c.106 0 .16.052.16.157V17.43c0 .052-.026.106-.08.157-.054 0-.08-.05-.08-.157 0-4.055-.935-7.662-2.809-10.821-2.089-3.528-4.792-5.293-8.11-5.293h-5.62c-.215 0-.32.107-.32.316v26.46h1.444c2.194 0 4.055-1.078 5.58-3.238 1.525-2.158 2.288-4.633 2.288-7.424 0-.052.027-.105.08-.158.053 0 .08.053.08.158v21.563c0 .053-.027.107-.08.158-.053 0-.08-.05-.08-.158 0-2.79-.763-5.253-2.288-7.385-1.525-2.132-3.386-3.199-5.58-3.199h-1.444V56.37c0 .21.13.315.4.315h5.701c4.336 0 7.788-1.948 10.357-5.844 2.248-3.37 3.372-7.346 3.372-11.929"/><g transform="translate(229 1)"><mask id="b" fill="#fff"><use xlink:href="#a"/></mask><path fill="#000" d="M12.777.643v55.715c0 .213.107.32.315.32h5.523c3.89 0 6.968-2.117 9.229-6.35 1.893-3.59 2.84-7.744 2.84-12.462 0-.106.052-.161.157-.161.106 0 .159.055.159.161V56.68c0 .215-.106.321-.315.321H.157C.051 57 0 56.948 0 56.84c0-.107.051-.161.157-.161H4.97c.21 0 .315-.108.315-.321V.643c0-.213-.106-.321-.315-.321H.157C.051.322 0 .269 0 .16 0 .054.051 0 .157 0h17.747c.107 0 .16.054.16.16 0 .109-.053.162-.16.162h-4.81c-.21 0-.317.108-.317.321" mask="url(#b)"/></g></g></svg>
