<?xml version="1.0" encoding="utf-8"?>
<!-- Generator: Adobe Illustrator 22.1.0, SVG Export Plug-In . SVG Version: 6.00 Build 0)  -->
<svg version="1.1" id="Слой_1" xmlns="http://www.w3.org/2000/svg" xmlns:xlink="http://www.w3.org/1999/xlink" x="0px" y="0px"
	 viewBox="0 0 42 36" style="enable-background:new 0 0 42 36;" xml:space="preserve">
<g>
	<path d="M2,24.8c0-3.8,1.6-8.1,4.8-13.1c3.5-5.3,7.2-8.6,11.1-9.8C18,2.2,18,2.3,18,2.4c-1.9,0.6-3.3,1.4-4.2,2.3
		c-3.4,2.6-5.1,5.4-5.1,8.4c0,2.8,1.5,5.4,4.6,7.6c2.2,1.6,3.2,3.6,3.2,6c0,2-0.7,3.7-2.1,5.2c-1.4,1.4-3.1,2.1-5.1,2.1
		C4.5,34,2,30.9,2,24.8 M23.4,24.8c0-3.8,1.5-8.1,4.6-13.1c3.3-5.3,6.9-8.6,10.7-9.8c0.1,0.2,0.1,0.3,0.1,0.4
		C37,3,35.6,3.8,34.7,4.7c-3.2,2.6-4.9,5.4-4.9,8.4c0,2.8,1.5,5.4,4.5,7.6c2.1,1.6,3.1,3.6,3.1,6c0,2-0.7,3.7-2,5.2
		c-1.4,1.4-3,2.1-4.9,2.1C25.7,34,23.4,30.9,23.4,24.8"/>
</g>
</svg>
