<?xml version="1.0" encoding="UTF-8"?>
<svg width="15px" height="16px" viewBox="0 0 15 16" version="1.1" xmlns="http://www.w3.org/2000/svg" xmlns:xlink="http://www.w3.org/1999/xlink">
    <!-- Generator: sketchtool 50 (54983) - http://www.bohemiancoding.com/sketch -->
    <title>40789EC9-FE13-4210-8737-C51F3B1DDED1</title>
    <desc>Created with sketchtool.</desc>
    <defs></defs>
    <g id="Page-1" stroke="none" stroke-width="1" fill="none" fill-rule="evenodd" opacity="0.400000006">
        <g id="desk_full" transform="translate(-910.000000, -9086.000000)" fill="#000000" fill-rule="nonzero">
            <g id="iconmonstr-paperclip-2-copy-10" transform="translate(910.000000, 9086.000000)">
                <path d="M14.0359091,6.974 L7.18363636,13.6906667 C5.85409091,14.99 3.69136364,14.99 2.3625,13.6906667 C1.03363636,12.3913333 1.03295455,10.276 2.3625,8.976 L9.60886364,1.91933333 C10.4065909,1.13933333 11.7040909,1.13933333 12.5018182,1.91933333 C13.2988636,2.69933333 13.2995455,3.96733333 12.5018182,4.74733333 L6.70159091,10.39 C6.43568182,10.65 6.00340909,10.65 5.7375,10.39 C5.47159091,10.13 5.47159091,9.70733333 5.7375,9.44733333 L10.5736364,4.74733333 L9.60886364,3.80466667 L4.77272727,8.504 C3.97363636,9.28533333 3.97431818,10.5526667 4.77272727,11.3333333 C5.57113636,12.114 6.86659091,12.114 7.665,11.3333333 L13.4652273,5.69066667 C14.1313636,5.03933333 14.4634091,4.18666667 14.4634091,3.33333333 C14.4634091,1.48733333 12.9320455,0.000666666667 11.0543182,0.000666666667 C10.1815909,0.000666666667 9.30954545,0.326 8.64340909,0.977333333 L1.39772727,8.03266667 C0.466363636,8.94466667 8.8817842e-16,10.1386667 8.8817842e-16,11.3333333 C8.8817842e-16,13.9086667 2.13409091,16 4.77272727,16 C5.99454545,16 7.21568182,15.544 8.14772727,14.6333333 L15,7.91666667 L14.0359091,6.974 Z" id="Shape"></path>
            </g>
        </g>
    </g>
</svg>