<svg xmlns="http://www.w3.org/2000/svg" width="18" height="18" viewBox="0 0 18 18">
    <path fill="#FFE200" fill-rule="nonzero" d="M15 15h-3v-3h3v3zm-4.5-7.5h-3v3h3v-3zm4.5 0h-3v3h3v-3zM6 12H3v3h3v-3zm4.5 0h-3v3h3v-3zM6 7.5H3v3h3v-3zm12-6V18H0V1.5h2.25v.75c0 .827.673 1.5 1.5 1.5s1.5-.673 1.5-1.5V1.5h7.5v.75c0 .827.673 1.5 1.5 1.5s1.5-.673 1.5-1.5V1.5H18zM16.5 6h-15v10.5h15V6zM15 .75a.75.75 0 1 0-1.5 0v1.5a.75.75 0 1 0 1.5 0V.75zM4.5 2.25a.75.75 0 1 1-1.5 0V.75a.75.75 0 1 1 1.5 0v1.5z"/>
</svg>
