<svg xmlns="http://www.w3.org/2000/svg" viewBox="0 0 18 18"><defs><style>.cls-1{fill:#fff;}</style></defs><title>Ресурс 1inst</title><g id="Слой_2" data-name="Слой 2"><g id="Слой_1-2" data-name="Слой 1"><path class="cls-1" d="M9,1.62c2.4,0,2.69,0,3.64.06,2.44.1,3.58,1.26,3.69,3.68,0,.95.05,1.24.05,3.64s0,2.69-.05,3.64c-.11,2.42-1.25,3.58-3.69,3.69-1,0-1.23.05-3.64.05s-2.69,0-3.64-.05c-2.44-.11-3.58-1.28-3.69-3.69,0-1,0-1.24,0-3.64s0-2.69,0-3.64c.12-2.42,1.25-3.58,3.69-3.69C6.31,1.63,6.6,1.62,9,1.62ZM9,0C6.56,0,6.25,0,5.29.05,2,.2.21,2,.06,5.29,0,6.25,0,6.56,0,9s0,2.75.05,3.71C.2,16,2,17.8,5.29,18c1,0,1.27.05,3.71.05s2.75,0,3.71-.05c3.27-.15,5.09-2,5.23-5.24,0-1,.06-1.27.06-3.71S18,6.25,18,5.29C17.8,2,16,.21,12.71.06,11.75,0,11.44,0,9,0ZM9,4.38a4.62,4.62,0,0,0,0,9.24H9A4.62,4.62,0,0,0,9,4.38ZM9,12a3,3,0,1,1,3-3A3,3,0,0,1,9,12Zm4.81-8.88A1.08,1.08,0,1,0,14.88,4.2a1.08,1.08,0,0,0-1.07-1.08Z"/></g></g></svg>