<svg xmlns="http://www.w3.org/2000/svg" viewBox="0 0 18 14.63"><defs><style>.cls-1{fill:#fff;}</style></defs><title>Ресурс 1tw</title><g id="Слой_2" data-name="Слой 2"><g id="Слой_1-2" data-name="Слой 1"><path class="cls-1" d="M18,1.73a7.1,7.1,0,0,1-2.12.58,3.65,3.65,0,0,0,1.62-2,7.48,7.48,0,0,1-2.34.9,3.7,3.7,0,0,0-6.3,3.36A10.47,10.47,0,0,1,1.25.68,3.7,3.7,0,0,0,2.39,5.61,3.68,3.68,0,0,1,.72,5.14a3.69,3.69,0,0,0,3,3.67A3.72,3.72,0,0,1,2,8.88a3.7,3.7,0,0,0,3.45,2.56A7.48,7.48,0,0,1,0,13a10.51,10.51,0,0,0,5.66,1.66,10.45,10.45,0,0,0,10.5-11A7.6,7.6,0,0,0,18,1.73Z"/></g></g></svg>