<svg xmlns="http://www.w3.org/2000/svg" viewBox="0 0 17.28 10.08"><defs><style>.cls-1{fill:#fff;}</style></defs><title>Ресурс 1vk</title><g id="Слой_2" data-name="Слой 2"><g id="Слой_1-2" data-name="Слой 1"><path class="cls-1" d="M9.48,10.08a.59.59,0,0,0,.61-.66c0-1.38.51-2.13,1.48-1.16s1.29,1.82,2.6,1.82h2.3c.58,0,.81-.19.81-.49,0-.62-1-1.71-1.89-2.52-1.21-1.13-1.27-1.15-.23-2.51,1.3-1.68,3-3.84,1.5-3.84H13.79c-.55,0-.6.31-.79.78C12.28,3.19,10.92,5.38,10.4,5s-.29-1.73-.25-3.78c0-.55,0-.92-.82-1.11A5.7,5.7,0,0,0,8,0C6.39,0,5.26.69,5.9.81c1.13.21,1,2.65.76,3.71-.46,1.84-2.18-1.46-2.9-3.1C3.58,1,3.53.72,2.91.72H.57C.21.72,0,.83,0,1.09a24.89,24.89,0,0,0,4.17,7,6.11,6.11,0,0,0,5.31,1.95Z"/></g></g></svg>