<?xml version="1.0" standalone="no"?>
<!DOCTYPE svg PUBLIC "-//W3C//DTD SVG 1.1//EN" "http://www.w3.org/Graphics/SVG/1.1/DTD/svg11.dtd" >
<svg>
<metadata>
Created by FontForge 20090914 at Wed Jan 30 15:31:32 2019
 By www-data
Copyright &#194;&#169; 2012 S-Core. All rights reserved.
</metadata>
<defs>
<font id="CoreSansN-Bold" horiz-adv-x="1000" >
  <font-face 
    font-family="Core Sans N"
    font-weight="700"
    font-stretch="normal"
    units-per-em="1000"
    panose-1="2 11 7 3 3 3 2 2 2 4"
    ascent="800"
    descent="-200"
    x-height="518"
    cap-height="700"
    bbox="-442 -310 1037 999"
    underline-thickness="24"
    underline-position="-183"
    unicode-range="U+000D-U+FB04"
  />
<missing-glyph horiz-adv-x="300" 
 />
    <glyph glyph-name="f_f" unicode="ff" horiz-adv-x="744" 
d="M10 518l95 -0.000976562v24c0 61.333 16.5 108 49.5 140s83.833 48 152.5 48c19.333 0 38.833 -1.16699 58.5 -3.5s37.167 -5.5 52.5 -9.5l-12 -103c-8.66699 4 -19.334 7 -32.001 9s-25.667 3 -39 3c-27.333 0 -47.666 -6.33301 -60.999 -19s-20 -35 -20 -67v-22h203v24
c0 61.333 16 108 48 140s80.667 48 146 48c19.333 0 38 -1.16699 56 -3.5s33.667 -5.16602 47 -8.49902l-12 -103c-8.66699 3.33301 -18.5 6 -29.5 8s-22.167 3 -33.5 3c-24 0 -42.167 -6.33301 -54.5 -19s-18.5 -35 -18.5 -67v-22h133v-105h-133v-413h-149v413h-203v-413
h-149v413h-95v105z" />
    <glyph glyph-name="f_f_i" unicode="ffi" horiz-adv-x="1034" 
d="M254 0l-149 -0.000976562v413h-95v105h95v24c0 61.333 16.5 108 49.5 140s83.833 48 152.5 48c19.333 0 38.833 -1.16699 58.5 -3.5s37.167 -5.5 52.5 -9.5l-12 -103c-8.66699 4 -19.334 7 -32.001 9s-25.667 3 -39 3c-27.333 0 -47.666 -6.33301 -60.999 -19
s-20 -35 -20 -67v-22h203v24c0 61.333 16 108 48 140s80.667 48 146 48c19.333 0 38 -1.16699 56 -3.5s33.667 -5.16602 47 -8.49902l-12 -103c-8.66699 3.33301 -18.5 6 -29.5 8s-22.167 3 -33.5 3c-24 0 -42.167 -6.33301 -54.5 -19s-18.5 -35 -18.5 -67v-22h133v-105
h-133v-413h-149v413h-203v-413zM814 517.999h150v-518h-150v518zM804 654.999c0 24.667 6.5 43.334 19.5 56.001s34.833 19 65.5 19s52.5 -6.33301 65.5 -19s19.5 -31.334 19.5 -56.001c0 -25.333 -6.5 -44.166 -19.5 -56.499s-34.833 -18.5 -65.5 -18.5
s-52.5 6.16699 -65.5 18.5s-19.5 31.166 -19.5 56.499z" />
    <glyph glyph-name="f_f_l" unicode="ffl" horiz-adv-x="1033" 
d="M254 0l-149 -0.000976562v413h-95v105h95v24c0 61.333 16.5 108 49.5 140s83.833 48 152.5 48c19.333 0 38.833 -1.16699 58.5 -3.5s37.167 -5.5 52.5 -9.5l-12 -103c-8.66699 4 -19.334 7 -32.001 9s-25.667 3 -39 3c-27.333 0 -47.666 -6.33301 -60.999 -19
s-20 -35 -20 -67v-22h203v24c0 61.333 16 108 48 140s80.667 48 146 48c19.333 0 38 -1.16699 56 -3.5s33.667 -5.16602 47 -8.49902l-12 -103c-8.66699 3.33301 -18.5 6 -29.5 8s-22.167 3 -33.5 3c-24 0 -42.167 -6.33301 -54.5 -19s-18.5 -35 -18.5 -67v-22h133v-105
h-133v-413h-149v413h-203v-413zM814 729.999h149v-730h-149v730z" />
    <glyph glyph-name="f_i" unicode="fi" horiz-adv-x="682" 
d="M10 518l95 -0.000976562v24c0 61.333 16 108 48 140s80.667 48 146 48c19.333 0 38 -1.16699 56 -3.5s33.667 -5.16602 47 -8.49902l-12 -103c-8.66699 3.33301 -18.5 6 -29.5 8s-22.167 3 -33.5 3c-24 0 -42.167 -6.33301 -54.5 -19s-18.5 -35 -18.5 -67v-22h133v-105
h-133v-413h-149v413h-95v105zM462 517.999h150v-518h-150v518zM452 654.999c0 24.667 6.5 43.334 19.5 56.001s34.833 19 65.5 19s52.5 -6.33301 65.5 -19s19.5 -31.334 19.5 -56.001c0 -25.333 -6.5 -44.166 -19.5 -56.499s-34.833 -18.5 -65.5 -18.5
s-52.5 6.16699 -65.5 18.5s-19.5 31.166 -19.5 56.499z" />
    <glyph glyph-name="f_l" unicode="fl" horiz-adv-x="681" 
d="M10 518l95 -0.000976562v24c0 61.333 16 108 48 140s80.667 48 146 48c19.333 0 38 -1.16699 56 -3.5s33.667 -5.16602 47 -8.49902l-12 -103c-8.66699 3.33301 -18.5 6 -29.5 8s-22.167 3 -33.5 3c-24 0 -42.167 -6.33301 -54.5 -19s-18.5 -35 -18.5 -67v-22h133v-105
h-133v-413h-149v413h-95v105zM462 729.999h149v-730h-149v730z" />
    <glyph glyph-name=".notdef" horiz-adv-x="300" 
 />
    <glyph glyph-name="NULL" horiz-adv-x="0" 
 />
    <glyph glyph-name="NULL" horiz-adv-x="0" 
 />
    <glyph glyph-name="nonmarkingreturn" unicode="&#xd;" horiz-adv-x="237" 
 />
    <glyph glyph-name="space" unicode=" " horiz-adv-x="300" 
 />
    <glyph glyph-name="exclam" unicode="!" horiz-adv-x="332" 
d="M245 700v-182l-23 -323h-112l-23 323v182h158zM166 -12c53.333 0 80 27 80 81s-26.667 81 -80 81s-80 -27 -80 -81s26.667 -81 80 -81z" />
    <glyph glyph-name="quotedbl" unicode="&#x22;" horiz-adv-x="545" 
d="M297 700h153v-41l-29 -255h-109zM95 700h153v-41l-29 -255h-109z" />
    <glyph glyph-name="numbersign" unicode="#" horiz-adv-x="713" 
d="M327 538h123l28 162h136l-28 -162h96v-113h-115l-26 -153h101v-113h-121l-27 -159h-136l27 159h-122l-27 -159h-136l27 159h-96v113h115l26 153h-101v113h120l28 162h136zM282 272h123l26 153h-123z" />
    <glyph glyph-name="dollar" unicode="$" horiz-adv-x="584" 
d="M258 -12c-37.333 0.666992 -74.166 4.83008 -110.499 12.4971s-69.5 19.167 -99.5 34.5l12 137c28 -19.333 58.833 -34.166 92.5 -44.499s68.834 -15.5 105.501 -15.5v181c-70.667 22 -123.834 50.833 -159.501 86.5s-53.5 80.834 -53.5 135.501
c0 55.333 18.167 100 54.5 134s89.166 54.333 158.499 61v95h71v-94c61.333 -2 118.333 -13.333 171 -34l-11 -126c-54.667 22.667 -108 35 -160 37v-173c72.667 -24.667 125.5 -54.167 158.5 -88.5s49.5 -78.166 49.5 -131.499c0 -58 -17.167 -104.5 -51.5 -139.5
s-86.5 -56.167 -156.5 -63.5v-97h-71v93zM203 520.996c0 -15.333 4 -29.1689 12 -41.502s22.333 -24.166 43 -35.499v137c-19.333 -5.33301 -33.333 -13.166 -42 -23.499s-13 -22.5 -13 -36.5zM379 187.993c0 16 -3.5 29.832 -10.5 41.499s-20.167 23.167 -39.5 34.5v-142
c15.333 6 27.5 14.333 36.5 25s13.5 24.334 13.5 41.001z" />
    <glyph glyph-name="percent" unicode="%" horiz-adv-x="933" 
d="M643 700h120l-475 -700h-120zM685 375c28 0 53 -4.83301 75 -14.5s40.5 -23 55.5 -40s26.5 -37.167 34.5 -60.5s12 -48.666 12 -75.999s-4 -52.666 -12 -75.999s-19.5 -43.5 -34.5 -60.5s-33.5 -30.333 -55.5 -40s-47 -14.5 -75 -14.5s-53 4.83301 -75 14.5
s-40.5 23 -55.5 40s-26.5 37.167 -34.5 60.5s-12 48.666 -12 75.999s4 52.666 12 75.999s19.5 43.5 34.5 60.5s33.5 30.333 55.5 40s47 14.5 75 14.5zM685 98c33.333 0 50 28.667 50 86s-16.667 86 -50 86c-33.333 -1.33301 -50 -30 -50 -86s16.667 -84.667 50 -86zM246 707
c28 0 53 -4.83301 75 -14.5s40.5 -23 55.5 -40s26.5 -37.167 34.5 -60.5s12 -48.666 12 -75.999s-4 -52.666 -12 -75.999s-19.5 -43.5 -34.5 -60.5s-33.5 -30.333 -55.5 -40s-47 -14.5 -75 -14.5s-53 4.83301 -75 14.5s-40.5 23 -55.5 40s-26.5 37.167 -34.5 60.5
s-12 48.666 -12 75.999s4 52.666 12 75.999s19.5 43.5 34.5 60.5s33.5 30.333 55.5 40s47 14.5 75 14.5zM246 430c33.333 0 50 28.667 50 86s-16.667 86 -50 86c-33.333 -1.33301 -50 -30 -50 -86s16.667 -84.667 50 -86z" />
    <glyph glyph-name="ampersand" unicode="&#x26;" horiz-adv-x="724" 
d="M512 533c0 -42.667 -12 -78.333 -36 -107s-56 -53 -96 -73l105 -101c7.33301 20.667 12.833 42.834 16.5 66.501s5.5 48.167 5.5 73.5h138c0 -46 -4.66699 -88.833 -14 -128.5s-23.666 -76.5 -42.999 -110.5l161 -153h-182l-61 58c-28 -22 -60 -39 -96 -51
s-77 -18 -123 -18c-35.333 0 -68 4.16699 -98 12.5s-56 20.666 -78 36.999s-39.333 37 -52 62s-19 54.5 -19 88.5c0 44.667 11.833 82.167 35.5 112.5s55.5 56.166 95.5 77.499c-24.667 25.333 -43.834 50.333 -57.501 75s-20.5 52.334 -20.5 83.001
c0 25.333 4.83301 48.666 14.5 69.999s23.5 39.833 41.5 55.5s39.833 27.834 65.5 36.501s54.5 13 86.5 13c66.667 0 118.5 -16.333 155.5 -49s55.5 -76 55.5 -130zM294 97.001c23.333 0 45.332 3.83301 65.999 11.5s39.334 19.5 56.001 35.5l-157 151
c-50 -29.333 -75 -66 -75 -110c0 -26 9.33301 -47.167 28 -63.5s46 -24.5 82 -24.5zM233.999 539.001c0 -18.667 4.99902 -35.834 14.999 -51.501s25 -33.167 45 -52.5c26.667 14.667 46.334 29.834 59.001 45.501s19 33.167 19 52.5c0 21.333 -6.33301 38.833 -19 52.5
s-30 20.5 -52 20.5s-38.667 -7 -50 -21s-17 -29.333 -17 -46z" />
    <glyph glyph-name="quotesingle" unicode="'" horiz-adv-x="333" 
d="M90 700h153v-41l-29 -255h-109z" />
    <glyph glyph-name="parenleft" unicode="(" horiz-adv-x="404" 
d="M95 310c0 82 13.333 158.667 40 230s64.667 141.333 114 210h128c-46.667 -70.667 -82.834 -143 -108.501 -217s-38.5 -148.333 -38.5 -223s12.833 -149 38.5 -223s61.834 -146.333 108.501 -217h-128c-49.333 68.667 -87.333 138.667 -114 210s-40 148 -40 230z" />
    <glyph glyph-name="parenright" unicode=")" horiz-adv-x="404" 
d="M309 310c0 -82 -13.333 -158.667 -40 -230s-64.667 -141.333 -114 -210h-128c46.667 70.667 82.834 143 108.501 217s38.5 148.333 38.5 223s-12.833 149 -38.5 223s-61.834 146.333 -108.501 217h128c49.333 -68.667 87.333 -138.667 114 -210s40 -148 40 -230z" />
    <glyph glyph-name="asterisk" unicode="*" horiz-adv-x="556" 
d="M215 109l13 135l-109 -79l-64 111l123 56l-123 55l64 112l109 -80l-13 135h126l-13 -135l109 80l64 -112l-123 -55l123 -56l-64 -111l-109 79l13 -135h-126z" />
    <glyph glyph-name="plus" unicode="+" horiz-adv-x="614" 
d="M241 276h-186v111h186v194h132v-194h186v-111h-186v-195h-132v195z" />
    <glyph glyph-name="comma" unicode="," horiz-adv-x="306" 
d="M233 69c0 -52 -11 -96.499 -33 -133.499s-53.333 -66.167 -94 -87.5l-35 53c15.333 12 28 25.667 38 41s16.667 31.666 20 48.999c-37.333 6.66699 -56 32.667 -56 78c0 54 26.667 81 80 81s80 -27 80 -81z" />
    <glyph glyph-name="hyphen" unicode="-" horiz-adv-x="401" 
d="M55 271v121h291v-121h-291z" />
    <glyph glyph-name="period" unicode="." horiz-adv-x="300" 
d="M150 -12c-53.333 0 -80 27 -80 81s26.667 81 80 81s80 -27 80 -81s-26.667 -81 -80 -81z" />
    <glyph glyph-name="slash" unicode="/" horiz-adv-x="543" 
d="M129 -110h-142l427 858h142z" />
    <glyph glyph-name="zero" unicode="0" horiz-adv-x="612" 
d="M306 712c45.333 0 85.333 -8.83301 120 -26.5s63.834 -42.334 87.501 -74.001s41.5 -69.667 53.5 -114s18 -93.5 18 -147.5s-6 -103.167 -18 -147.5s-29.833 -82.333 -53.5 -114s-52.834 -56.334 -87.501 -74.001s-74.667 -26.5 -120 -26.5
c-46 0 -86.333 8.83301 -121 26.5s-63.667 42.334 -87 74.001s-41 69.667 -53 114s-18 93.5 -18 147.5s6 103.167 18 147.5s29.667 82.333 53 114s52.333 56.334 87 74.001s75 26.5 121 26.5zM306 112c39.333 0 69.333 19 90 57s31 98.333 31 181s-10.333 143 -31 181
s-50.667 57 -90 57s-69.333 -19 -90 -57s-31 -98.333 -31 -181s10.333 -143 31 -181s50.667 -57 90 -57z" />
    <glyph glyph-name="one" unicode="1" horiz-adv-x="612" 
d="M162 456l-71 97l199 147h135v-700h-153v537z" />
    <glyph glyph-name="two" unicode="2" horiz-adv-x="612" 
d="M62 0l-0.000976562 111.999l107 90c36.667 32 70.167 64.667 100.5 98s55.166 66.666 74.499 99.999s29 66 29 98c0 30.667 -10.167 53.334 -30.5 68.001s-48.5 22 -84.5 22c-28.667 0 -57.5 -4.66699 -86.5 -14s-55.167 -22.666 -78.5 -39.999l-9 131
c24.667 14 54.5 25.333 89.5 34s70.5 13 106.5 13c76.667 0 137.667 -18.167 183 -54.5s68 -88.5 68 -156.5c0 -36 -7.33301 -71.333 -22 -106s-34.167 -68 -58.5 -100s-52.166 -62.5 -83.499 -91.5s-63.666 -56.167 -96.999 -81.5h263v-122h-471z" />
    <glyph glyph-name="three" unicode="3" horiz-adv-x="612" 
d="M153 422c78.667 0 134.833 7.49902 168.5 22.499s50.5 38.833 50.5 71.5c0 22.667 -9.16699 40.334 -27.5 53.001s-46.5 19 -84.5 19c-29.333 0 -58.666 -3.5 -87.999 -10.5s-56.333 -18.167 -81 -33.5l-11 127c26 12.667 56.5 22.667 91.5 30s70.5 11 106.5 11
c40.667 0 76.667 -4.5 108 -13.5s57.666 -21.667 78.999 -38s37.5 -35.833 48.5 -58.5s16.5 -47.667 16.5 -75c0 -42.667 -10.167 -77 -30.5 -103s-48.5 -45.667 -84.5 -59c38 -14 68.333 -36.167 91 -66.5s34 -65.5 34 -105.5c0 -30.667 -6 -58.667 -18 -84
s-29.5 -47 -52.5 -65s-51.333 -31.833 -85 -41.5s-72.167 -14.5 -115.5 -14.5c-36 0 -71.333 2.66699 -106 8s-67 14 -97 26l11 139c25.333 -16 53.333 -28.167 84 -36.5s61.667 -12.5 93 -12.5c41.333 0 73 7.16699 95 21.5s33 34.833 33 61.5
c0 38.667 -18.167 67.167 -54.5 85.5s-94.5 27.5 -174.5 27.5v114z" />
    <glyph glyph-name="four" unicode="4" horiz-adv-x="612" 
d="M27 136v122l304 442h173v-442h75v-122h-75v-136h-156v136h-321zM175 258h173v253z" />
    <glyph glyph-name="five" unicode="5" horiz-adv-x="612" 
d="M251 112c48.667 0 84.502 9 107.502 27s34.5 46 34.5 84c0 36.667 -12.833 63 -38.5 79s-59.5 24 -101.5 24c-24.667 0 -50.834 -2.83301 -78.501 -8.5s-51.834 -12.5 -72.501 -20.5v403h428v-122h-272v-141c12.667 3.33301 24.667 6 36 8s23 3 35 3
c32 0 61.5 -5 88.5 -15s50.5 -24.667 70.5 -44s35.5 -43 46.5 -71s16.5 -60 16.5 -96c0 -35.333 -5.66699 -67.333 -17 -96s-28.5 -53.167 -51.5 -73.5s-52.167 -36.166 -87.5 -47.499s-76.666 -17 -123.999 -17c-30.667 0 -63.667 2.66699 -99 8s-67.333 13.666 -96 24.999
l12 134c25.333 -15.333 52.666 -26.333 81.999 -33s56.333 -10 81 -10z" />
    <glyph glyph-name="six" unicode="6" horiz-adv-x="612" 
d="M359 590c-46 0 -81.5 -12.832 -106.5 -38.499s-41.167 -69.167 -48.5 -130.5c17.333 15.333 38.666 27 63.999 35s52 12 80 12c31.333 0 60.666 -5.33301 87.999 -16s51.166 -26.167 71.499 -46.5s36.333 -45.333 48 -75s17.5 -63.5 17.5 -101.5
c0 -36 -6 -68.833 -18 -98.5s-29 -55 -51 -76s-48.667 -37.333 -80 -49s-66.333 -17.5 -105 -17.5c-41.333 0 -78.833 6.66699 -112.5 20s-62.667 34 -87 62s-43.166 64 -56.499 108s-20 96.667 -20 158c0 122 25.833 215.167 77.5 279.5s129.5 96.5 233.5 96.5
c30.667 0 61.334 -2.83301 92.001 -8.5s57.667 -13.5 81 -23.5l-11 -129c-23.333 13.333 -48.166 23.166 -74.499 29.499s-53.833 9.5 -82.5 9.5zM317 110.001c27.333 0 50.499 9.33301 69.499 28s28.5 48.667 28.5 90c0 42 -9 72.167 -27 90.5s-41.667 27.5 -71 27.5
c-21.333 0 -42.166 -4.33301 -62.499 -13s-37.833 -20.667 -52.5 -36c2 -35.333 6.16699 -65 12.5 -89s14.333 -43.333 24 -58s21.167 -25 34.5 -31s28 -9 44 -9z" />
    <glyph glyph-name="seven" unicode="7" horiz-adv-x="612" 
d="M289 0h-165l248 578h-313v122h478v-120z" />
    <glyph glyph-name="eight" unicode="8" horiz-adv-x="612" 
d="M307 -12c-41.333 0 -78.6641 4.83594 -111.997 14.5029s-61.666 23.334 -84.999 41.001s-41.333 39 -54 64s-19 52.833 -19 83.5c0 39.333 10.667 74.666 32 105.999s52.666 56.666 93.999 75.999c-35.333 18.667 -60.5 40.5 -75.5 65.5s-22.5 53.167 -22.5 84.5
c0 26 5.16699 50.5 15.5 73.5s25.666 43 45.999 60s45.666 30.5 75.999 40.5s65.166 15 104.499 15c38 0 71.833 -4.83301 101.5 -14.5s54.667 -22.834 75 -39.501s36 -36.5 47 -59.5s16.5 -47.5 16.5 -73.5c0 -33.333 -8.16699 -62.5 -24.5 -87.5
s-42.5 -47.167 -78.5 -66.5c44.667 -22.667 77.667 -48.667 99 -78s32 -63.333 32 -102c0 -30.667 -6.33301 -58.5 -19 -83.5s-30.667 -46.333 -54 -64s-51.5 -31.334 -84.5 -41.001s-69.833 -14.5 -110.5 -14.5zM419.002 188.003c0 22.667 -8.83301 44 -26.5 64
s-49.167 39.667 -94.5 59c-36 -15.333 -62.5 -33.833 -79.5 -55.5s-25.5 -44.167 -25.5 -67.5c0 -26 10.5 -46.5 31.5 -61.5s48.5 -22.5 82.5 -22.5c32.667 0 59.5 7.5 80.5 22.5s31.5 35.5 31.5 61.5zM216.002 526.003c0 -23.333 7.16895 -43.667 21.502 -61
s38.166 -31.666 71.499 -42.999c25.333 9.33301 46.166 22.666 62.499 39.999s24.5 39 24.5 65c0 20 -7.83301 36.667 -23.5 50s-37.5 20 -65.5 20c-28.667 0 -51 -6.83301 -67 -20.5s-24 -30.5 -24 -50.5z" />
    <glyph glyph-name="nine" unicode="9" horiz-adv-x="612" 
d="M252 110c46 0 81.501 12.667 106.501 38s40.833 68.666 47.5 129.999c-17.333 -14.667 -38.5 -26 -63.5 -34s-51.5 -12 -79.5 -12c-31.333 0 -60.666 5.33301 -87.999 16s-51.166 26.167 -71.499 46.5s-36.333 45.333 -48 75s-17.5 63.5 -17.5 101.5
c0 36 6 68.833 18 98.5s29 55 51 76s48.667 37.333 80 49s66.333 17.5 105 17.5c40.667 0 78 -6.66699 112 -20s63.167 -34 87.5 -62s43.166 -64 56.499 -108s20 -96.667 20 -158c0 -122 -25.833 -215.167 -77.5 -279.5s-129.5 -96.5 -233.5 -96.5
c-30.667 0 -61.334 2.83301 -92.001 8.5s-57.667 13.5 -81 23.5l11 129c23.333 -13.333 48.166 -23.166 74.499 -29.499s53.833 -9.5 82.5 -9.5zM294.001 590c-27.333 0 -50.5 -9.33203 -69.5 -27.999s-28.5 -48.667 -28.5 -90c0 -42 9 -72.167 27 -90.5
s41.667 -27.5 71 -27.5c21.333 0 42 4.33301 62 13s37.333 20.667 52 36c-2 35.333 -6 65 -12 89s-13.833 43.167 -23.5 57.5s-21.167 24.666 -34.5 30.999s-28 9.5 -44 9.5z" />
    <glyph glyph-name="colon" unicode=":" horiz-adv-x="300" 
d="M150 -12c-53.333 0 -80 27 -80 81s26.667 81 80 81s80 -27 80 -81s-26.667 -81 -80 -81zM150 368c-53.333 0 -80 27 -80 81s26.667 81 80 81s80 -27 80 -81s-26.667 -81 -80 -81z" />
    <glyph glyph-name="semicolon" unicode=";" horiz-adv-x="306" 
d="M233 69c0 -52 -11 -96.499 -33 -133.499s-53.333 -66.167 -94 -87.5l-35 53c15.333 12 28 25.667 38 41s16.667 31.666 20 48.999c-37.333 6.66699 -56 32.667 -56 78c0 54 26.667 81 80 81s80 -27 80 -81zM153 368.001c-53.333 0 -80 27 -80 81s26.667 81 80 81
s80 -27 80 -81s-26.667 -81 -80 -81z" />
    <glyph glyph-name="less" unicode="&#x3c;" horiz-adv-x="614" 
d="M55 268v126l504 197v-122l-357 -138l357 -138v-122z" />
    <glyph glyph-name="equal" unicode="=" horiz-adv-x="614" 
d="M55 389v111h504v-111h-504zM55 163v111h504v-111h-504z" />
    <glyph glyph-name="greater" unicode="&#x3e;" horiz-adv-x="614" 
d="M55 71v122l357 138l-357 138v122l504 -197v-126z" />
    <glyph glyph-name="question" unicode="?" horiz-adv-x="557" 
d="M263 421c28 19.333 47 37.166 57 53.499s15 33.5 15 51.5c0 18.667 -9.16699 33.834 -27.5 45.501s-45.833 17.5 -82.5 17.5c-28.667 0 -58.334 -4.66699 -89.001 -14s-57.667 -22.333 -81 -39l-10 127c24.667 14.667 54.334 26.5 89.001 35.5s69.667 13.5 105 13.5
c80 0 142.167 -16.5 186.5 -49.5s66.5 -77.5 66.5 -133.5c0 -36.667 -10 -70 -30 -100s-50.333 -60 -91 -90c-20.667 -15.333 -35.167 -31.666 -43.5 -48.999s-12.5 -39.333 -12.5 -66v-31h-150v33c0 44 7.16699 81.167 21.5 111.5s39.833 58.166 76.5 83.499zM240 -13
c-53.333 0 -80 27 -80 81s26.667 81 80 81s80 -27 80 -81s-26.667 -81 -80 -81z" />
    <glyph glyph-name="at" unicode="@" horiz-adv-x="967" 
d="M675 202c0 -23.333 5.49805 -41.502 16.498 -54.502s25.5 -19.5 43.5 -19.5c12.667 0 24.5 4.16699 35.5 12.5s20.333 20 28 35s13.667 32.5 18 52.5s6.5 42 6.5 66c0 46.667 -8.33301 90.167 -25 130.5s-40 75 -70 104s-66.167 51.833 -108.5 68.5s-89.5 25 -141.5 25
c-47.333 0 -91.333 -9 -132 -27s-76 -42.5 -106 -73.5s-53.5 -67.667 -70.5 -110s-25.5 -87.833 -25.5 -136.5c0 -50 8.83301 -96.167 26.5 -138.5s42 -79 73 -110s67.667 -55.167 110 -72.5s88.5 -26 138.5 -26c46 0 88.5 6.33301 127.5 19s75.167 31 108.5 55l40 -84
c-42 -25.333 -85.667 -45 -131 -59s-94.333 -21 -147 -21c-62.667 0 -121.167 10.833 -175.5 32.5s-101.666 51.834 -141.999 90.501s-72 84.667 -95 138s-34.5 112 -34.5 176c0 63.333 11.333 121.666 34 174.999s53.667 99.5 93 138.5s85.5 69.333 138.5 91
s109.5 32.5 169.5 32.5c63.333 0 122.166 -10.167 176.499 -30.5s101.333 -49 141 -86s70.834 -81 93.501 -132s34 -107.5 34 -169.5c0 -36 -4.33301 -69.167 -13 -99.5s-21.5 -56.5 -38.5 -78.5s-37.833 -39 -62.5 -51s-53 -18 -85 -18c-30 0 -56 6 -78 18
s-39 29.667 -51 53c-22.667 -23.333 -48.5 -40.166 -77.5 -50.499s-60.833 -15.5 -95.5 -15.5c-27.333 0 -52.166 4.33301 -74.499 13s-41.5 20.667 -57.5 36s-28.5 33.833 -37.5 55.5s-13.5 45.5 -13.5 71.5c0 40 7.83301 76.833 23.5 110.5s36.334 62.834 62.001 87.501
s55.167 44 88.5 58s67.666 21 102.999 21c88 0 153.667 -35.333 197 -106zM435.998 156.998c20.667 0 41.333 4 62 12s38.667 21.667 54 41l32 163c-14 18 -37.667 27 -71 27c-18.667 0 -36.667 -4.5 -54 -13.5s-32.833 -21 -46.5 -36s-24.5 -32.667 -32.5 -53
s-12 -41.833 -12 -64.5c0 -25.333 6.5 -44.333 19.5 -57s29.167 -19 48.5 -19z" />
    <glyph glyph-name="A" unicode="A" horiz-adv-x="690" 
d="M471 156h-252l-49 -156h-166l244 700h194l244 -700h-166zM257 278h176l-88 283z" />
    <glyph glyph-name="B" unicode="B" horiz-adv-x="661" 
d="M75 700l262.999 0.000976562c82 0 145.167 -17.5 189.5 -52.5s66.5 -81.167 66.5 -138.5c0 -30 -6.66699 -56.833 -20 -80.5s-33 -42.5 -59 -56.5c36.667 -15.333 64.334 -37.333 83.001 -66s28 -61.334 28 -98.001c0 -68 -23.833 -119.667 -71.5 -155
s-115.5 -53 -203.5 -53h-276v700zM462.999 213.001c0 28 -10.333 49.833 -31 65.5s-55 23.5 -103 23.5h-98v-184h98c48 0 82.333 7.33301 103 22s31 39 31 73zM435.999 498.001c0 28 -9.33301 49.001 -28 63.001s-48.334 21 -89.001 21h-88v-162h88
c40.667 0 70.334 6.16699 89.001 18.5s28 32.166 28 59.499z" />
    <glyph glyph-name="C" unicode="C" horiz-adv-x="636" 
d="M40 350c0 53.333 8.66895 102.163 26.002 146.496s42 82.5 74 114.5s70.833 56.833 116.5 74.5s96.834 26.5 153.501 26.5c32.667 0 65.5 -3 98.5 -9s62.167 -15 87.5 -27l-11 -130c-21.333 14.667 -45.666 25.334 -72.999 32.001s-55.333 10 -84 10
c-36.667 0 -69.334 -5.66699 -98.001 -17s-52.667 -27.5 -72 -48.5s-34.166 -46.167 -44.499 -75.5s-15.5 -61.666 -15.5 -96.999c0 -75.333 20.667 -134 62 -176s98.333 -63 171 -63c29.333 0 57.166 3.66699 83.499 11s51.166 19 74.499 35l12 -133
c-28.667 -13.333 -59.334 -22.833 -92.001 -28.5s-64.334 -8.5 -95.001 -8.5c-57.333 0 -109 8.66699 -155 26s-85.333 41.833 -118 73.5s-57.667 69.834 -75 114.501s-26 94.334 -26 149.001z" />
    <glyph glyph-name="D" unicode="D" horiz-adv-x="709" 
d="M511 349c0 41.333 -5.16699 76.501 -15.5 105.501s-25.333 52.667 -45 71s-44 31.666 -73 39.999s-62.167 12.5 -99.5 12.5h-47v-456h47c37.333 0 70.5 4.16699 99.5 12.5s53.333 21.5 73 39.5s34.667 41.333 45 70s15.5 63.667 15.5 105zM669 350.001
c0 -58 -9.5 -109 -28.5 -153s-45.333 -80.5 -79 -109.5s-73.667 -50.833 -120 -65.5s-97.166 -22 -152.499 -22h-214v700h214c55.333 0 106.166 -7.33301 152.499 -22s86.333 -36.667 120 -66s60 -65.833 79 -109.5s28.5 -94.5 28.5 -152.5z" />
    <glyph glyph-name="E" unicode="E" horiz-adv-x="599" 
d="M75 700h475v-122h-319v-158h296v-122h-296v-176h328v-122h-484v700z" />
    <glyph glyph-name="F" unicode="F" horiz-adv-x="572" 
d="M75 700h475v-122h-319v-158h296v-122h-296v-298h-156v700z" />
    <glyph glyph-name="G" unicode="G" horiz-adv-x="733" 
d="M40 350c0 52 8.66602 99.999 25.999 143.999s42.5 82.167 75.5 114.5s73.333 57.666 121 75.999s101.834 27.5 162.501 27.5c84.667 0 161.334 -14.667 230.001 -44l-12 -133c-30 17.333 -62.333 30.5 -97 39.5s-69.334 13.5 -104.001 13.5
c-37.333 0 -71 -5.5 -101 -16.5s-55.5 -26.833 -76.5 -47.5s-37.333 -45.667 -49 -75s-17.5 -62.333 -17.5 -99c0 -37.333 5.66699 -70.833 17 -100.5s27.5 -54.667 48.5 -75s46.333 -35.833 76 -46.5s63.167 -16 100.5 -16c14.667 0 28 0.833008 40 2.5
s22.667 4.16699 32 7.5v158h-150v122h306v-372c-36 -15.333 -73.167 -26.166 -111.5 -32.499s-78.5 -9.5 -120.5 -9.5c-61.333 0 -116.5 8.83301 -165.5 26.5s-90.5 42.334 -124.5 74.001s-60.167 69.667 -78.5 114s-27.5 93.5 -27.5 147.5z" />
    <glyph glyph-name="H" unicode="H" horiz-adv-x="738" 
d="M75 700h156v-267h276v267h156v-700h-156v311h-276v-311h-156v700z" />
    <glyph glyph-name="I" unicode="I" horiz-adv-x="316" 
d="M236 700v-700h-156v700h156z" />
    <glyph glyph-name="J" unicode="J" horiz-adv-x="494" 
d="M263 700h156.001v-464c0 -84 -20.833 -146.333 -62.5 -187s-101.834 -61 -180.501 -61c-31.333 0 -61.333 3 -90 9s-54.667 14.667 -78 26l11 132c22.667 -15.333 45.667 -26.333 69 -33s48 -10 74 -10c33.333 0 58.5 9.33301 75.5 28s25.5 51 25.5 97v463z" />
    <glyph glyph-name="K" unicode="K" horiz-adv-x="678" 
d="M648 700l-257 -328l299 -372h-192l-267 348v-348h-156v700h156v-304l237 304h180z" />
    <glyph glyph-name="L" unicode="L" horiz-adv-x="592" 
d="M75 700h156v-578h346v-122h-502v700z" />
    <glyph glyph-name="M" unicode="M" horiz-adv-x="889" 
d="M226 472v-472h-151v700h170l199 -328l200 328h170v-700h-151v472l-152 -254h-133z" />
    <glyph glyph-name="N" unicode="N" horiz-adv-x="747" 
d="M75 700h176l270 -480v480h151v-700h-176l-270 480v-480h-151v700z" />
    <glyph glyph-name="O" unicode="O" horiz-adv-x="744" 
d="M704 350c0 -51.333 -7.33301 -99 -22 -143s-36 -82.333 -64 -115s-62.667 -58.167 -104 -76.5s-88.666 -27.5 -141.999 -27.5s-100.666 9.16699 -141.999 27.5s-76 43.833 -104 76.5s-49.333 71 -64 115s-22 91.667 -22 143s7.33301 99 22 143s36 82.333 64 115
s62.667 58.167 104 76.5s88.666 27.5 141.999 27.5s100.666 -9.16699 141.999 -27.5s76 -43.833 104 -76.5s49.333 -71 64 -115s22 -91.667 22 -143zM546 350c0 76 -15.667 134.667 -47 176s-73.666 62 -126.999 62s-95.666 -20.667 -126.999 -62s-47 -100 -47 -176
c0 -76.667 15.667 -135.5 47 -176.5s73.666 -61.5 126.999 -61.5s95.666 20.5 126.999 61.5s47 99.833 47 176.5z" />
    <glyph glyph-name="P" unicode="P" horiz-adv-x="628" 
d="M598 471c0 -38 -6.5 -71.334 -19.5 -100.001s-31.667 -52.667 -56 -72s-53.833 -33.833 -88.5 -43.5s-73.667 -14.5 -117 -14.5h-86v-241h-156v700h242c43.333 0 82.333 -4.83301 117 -14.5s64.167 -24.167 88.5 -43.5s43 -43.166 56 -71.499s19.5 -61.5 19.5 -99.5z
M440 470.999c0 40 -11 68.5 -33 85.5s-56.667 25.5 -104 25.5h-72v-223h72c47.333 0 82 8.66699 104 26s33 46 33 86z" />
    <glyph glyph-name="Q" unicode="Q" horiz-adv-x="744" 
d="M704 350c0 -43.333 -5.33203 -84.334 -15.999 -123.001s-26.167 -73.334 -46.5 -104.001s-45.666 -56.834 -75.999 -78.501s-64.833 -37.167 -103.5 -46.5c6 -19.333 16.833 -33.5 32.5 -42.5s37.834 -13.5 66.501 -13.5c15.333 0 31.666 1.16699 48.999 3.5
s32.666 5.83301 45.999 10.5l13 -108c-16 -5.33301 -35 -9 -57 -11s-43.333 -3 -64 -3c-60 0 -110.667 13.167 -152 39.5s-68.333 65.833 -81 118.5c-44 6 -83.167 19.333 -117.5 40s-63.166 46.834 -86.499 78.501s-41 67.834 -53 108.501s-18 84.334 -18 131.001
c0 51.333 7.33301 99 22 143s36 82.333 64 115s62.667 58.167 104 76.5s88.666 27.5 141.999 27.5s100.666 -9.16699 141.999 -27.5s76 -43.833 104 -76.5s49.333 -71 64 -115s22 -91.667 22 -143zM546.001 349.999c0 76 -15.667 134.667 -47 176s-73.666 62 -126.999 62
s-95.666 -20.667 -126.999 -62s-47 -100 -47 -176c0 -76.667 15.667 -135.5 47 -176.5s73.666 -61.5 126.999 -61.5s95.666 20.5 126.999 61.5s47 99.833 47 176.5z" />
    <glyph glyph-name="R" unicode="R" horiz-adv-x="663" 
d="M604 485c0 -47.333 -12.501 -87.668 -37.501 -121.001s-59.5 -58.666 -103.5 -75.999l193 -288h-170l-170 264h-85v-264h-156v700h253c39.333 0 75.833 -4.5 109.5 -13.5s62.834 -22.333 87.501 -40s44 -40 58 -67s21 -58.5 21 -94.5zM445.999 484.998
c0 34 -11.167 58.667 -33.5 74s-53.833 23 -94.5 23h-87v-200h87c40.667 0 72.167 8.66699 94.5 26s33.5 43 33.5 77z" />
    <glyph glyph-name="S" unicode="S" horiz-adv-x="577" 
d="M45 515c0 61.333 22.335 109.5 67.002 144.5s109 52.5 193 52.5c34.667 0 68.667 -3 102 -9s64.333 -14.667 93 -26l-11 -126c-58.667 24.667 -116.334 37 -173.001 37c-40.667 0 -69.667 -6.33301 -87 -19s-26 -28.667 -26 -48c0 -21.333 8.66699 -40.166 26 -56.499
s50 -32.5 98 -48.5c73.333 -24.667 126.666 -54.334 159.999 -89.001s50 -78.667 50 -132c0 -66 -22.333 -117 -67 -153s-112.667 -54 -204 -54c-38 0 -76.167 4 -114.5 12s-72.833 19.667 -103.5 35l12 137c28 -19.333 59.167 -34.166 93.5 -44.499
s70.166 -15.5 107.499 -15.5c36 0 64.667 6.16699 86 18.5s32 31.5 32 57.5c0 12 -2 23 -6 33s-11.167 19.167 -21.5 27.5s-24.166 16.5 -41.499 24.5s-39 16.333 -65 25c-68.667 21.333 -119.167 49.666 -151.5 84.999s-48.5 79.333 -48.5 132z" />
    <glyph glyph-name="T" unicode="T" horiz-adv-x="578" 
d="M211 578h-201v122h558v-122h-201v-578h-156v578z" />
    <glyph glyph-name="U" unicode="U" horiz-adv-x="748" 
d="M374 -12c-44.667 0 -85.334 6 -122.001 18s-68.167 30.167 -94.5 54.5s-46.666 54.833 -60.999 91.5s-21.5 79.667 -21.5 129v419h156v-415c0 -56.667 11.167 -99.667 33.5 -129s58.833 -44 109.5 -44s87.167 14.667 109.5 44s33.5 72.333 33.5 129v415h156v-419
c0 -49.333 -7.16699 -92.333 -21.5 -129s-34.666 -67.167 -60.999 -91.5s-57.833 -42.5 -94.5 -54.5s-77.334 -18 -122.001 -18z" />
    <glyph glyph-name="V" unicode="V" horiz-adv-x="716" 
d="M533 700h166l-244 -700h-194l-244 700h166l175 -542z" />
    <glyph glyph-name="W" unicode="W" horiz-adv-x="1024" 
d="M403 0h-182l-204 700h160l135 -510l112 510h176l112 -510l135 510h160l-204 -700h-182l-109 490z" />
    <glyph glyph-name="X" unicode="X" horiz-adv-x="706" 
d="M353 469l158 231h174l-238 -344l247 -356h-174l-167 243l-167 -243h-174l247 356l-238 344h174z" />
    <glyph glyph-name="Y" unicode="Y" horiz-adv-x="714" 
d="M357 419l171 281h169l-262 -426v-274h-156v274l-262 426h169z" />
    <glyph glyph-name="Z" unicode="Z" horiz-adv-x="590" 
d="M367 578h-324v122h509v-120l-339 -458h349v-122h-534v121z" />
    <glyph glyph-name="bracketleft" unicode="[" horiz-adv-x="431" 
d="M115 750h296v-108h-159v-664h159v-108h-296v880z" />
    <glyph glyph-name="backslash" unicode="\" horiz-adv-x="543" 
d="M-13 748h141l427 -858h-141z" />
    <glyph glyph-name="bracketright" unicode="]" horiz-adv-x="431" 
d="M316 -130h-296v108h159v664h-159v108h296v-880z" />
    <glyph glyph-name="asciicircum" unicode="^" horiz-adv-x="614" 
d="M380 700l204 -331h-145l-132 230l-132 -230h-145l204 331h146z" />
    <glyph glyph-name="underscore" unicode="_" horiz-adv-x="500" 
d="M0 -102h500v-68h-500v68z" />
    <glyph glyph-name="grave" unicode="`" horiz-adv-x="440" 
d="M340 560h-120l-142 145v25h140z" />
    <glyph glyph-name="a" unicode="a" horiz-adv-x="574" 
d="M222 -12c-26.667 0 -51.668 3.66504 -75.001 10.998s-43.666 18 -60.999 32s-31 31.333 -41 52s-15 44.334 -15 71.001c0 54 20.333 97.167 61 129.5s100 48.5 178 48.5h96v24c0 25.333 -7.5 43 -22.5 53s-40.5 15 -76.5 15c-32 0 -63.333 -4.16699 -94 -12.5
s-58.667 -19.5 -84 -33.5l-14 106c26 13.333 57.5 24.333 94.5 33s74.5 13 112.5 13c80.667 0 139.667 -15.167 177 -45.5s56 -81.166 56 -152.499v-332h-149v34c-22 -16.667 -43.5 -28.5 -64.5 -35.5s-47.167 -10.5 -78.5 -10.5zM257.999 90.998
c20.667 0 40.667 3.50098 60 10.501s35 17.833 47 32.5v96h-91c-34 0 -58 -6.5 -72 -19.5s-21 -30.833 -21 -53.5s6.83301 -39.334 20.5 -50.001s32.5 -16 56.5 -16z" />
    <glyph glyph-name="b" unicode="b" horiz-adv-x="610" 
d="M214 0l-149 -0.000976562v730h149v-246c15.333 14 34.166 25.167 56.499 33.5s46.833 12.5 73.5 12.5c32.667 0 63.167 -6.33301 91.5 -19s52.833 -30.667 73.5 -54s36.834 -51.666 48.501 -84.999s17.5 -71 17.5 -113c0 -41.333 -5.83301 -78.833 -17.5 -112.5
s-27.834 -62.167 -48.501 -85.5s-45.167 -41.333 -73.5 -54s-58.833 -19 -91.5 -19c-26.667 0 -51.167 4.33301 -73.5 13s-41.166 19.667 -56.499 33v-34zM214 133.999c10.667 -12 24.167 -21.5 40.5 -28.5s33.833 -10.5 52.5 -10.5c34.667 0 62.834 13.167 84.501 39.5
s32.5 67.833 32.5 124.5s-10.833 98.167 -32.5 124.5s-49.834 39.5 -84.501 39.5c-18.667 0 -36.167 -3.5 -52.5 -10.5s-29.833 -16.167 -40.5 -27.5v-251z" />
    <glyph glyph-name="c" unicode="c" horiz-adv-x="517" 
d="M186 259c0 -52 14.168 -92.332 42.501 -120.999s67.5 -43 117.5 -43c26 0 50 2.83301 72 8.5s41.667 14.5 59 26.5l10 -110c-21.333 -11.333 -45.333 -19.5 -72 -24.5s-54 -7.5 -82 -7.5c-46.667 0 -88.334 6.16699 -125.001 18.5s-67.834 30.333 -93.501 54
s-45.334 52.167 -59.001 85.5s-20.5 71 -20.5 113s6.83301 79.667 20.5 113s33.167 61.666 58.5 84.999s55.833 41.333 91.5 54s75.834 19 120.501 19c28 0 55.5 -2.5 82.5 -7.5s51.833 -12.833 74.5 -23.5l-11 -110c-17.333 11.333 -37.5 19.833 -60.5 25.5
s-47.167 8.5 -72.5 8.5c-45.333 0 -82.166 -14.333 -110.499 -43s-42.5 -69 -42.5 -121z" />
    <glyph glyph-name="d" unicode="d" horiz-adv-x="610" 
d="M396 34c-15.333 -13.333 -34.166 -24.332 -56.499 -32.999s-46.833 -13 -73.5 -13c-33.333 0 -64 6.33301 -92 19s-52.333 30.667 -73 54s-36.834 51.833 -48.501 85.5s-17.5 71.167 -17.5 112.5c0 42 5.83301 79.667 17.5 113s27.834 61.666 48.501 84.999
s45 41.333 73 54s58.667 19 92 19c26.667 0 51.167 -4.16699 73.5 -12.5s41.166 -19.5 56.499 -33.5v246h149v-730h-149v34zM396 385.001c-10.667 11.333 -24.167 20.5 -40.5 27.5s-33.833 10.5 -52.5 10.5c-34.667 0 -62.834 -13.167 -84.501 -39.5
s-32.5 -67.833 -32.5 -124.5s10.833 -98.167 32.5 -124.5s49.834 -39.5 84.501 -39.5c18.667 0 36.167 3.5 52.5 10.5s29.833 16.5 40.5 28.5v251z" />
    <glyph glyph-name="e" unicode="e" horiz-adv-x="569" 
d="M319 -12c-48.667 0 -90.834 6.83398 -126.501 20.501s-65.167 32.667 -88.5 57s-40.666 53 -51.999 86s-17 69.167 -17 108.5c0 40.667 5.83301 77.667 17.5 111s28.5 61.833 50.5 85.5s48.5 41.834 79.5 54.501s65.5 19 103.5 19c40.667 0 76.667 -6.83301 108 -20.5
s57.833 -32.667 79.5 -57s38 -53.333 49 -87s16.5 -70.834 16.5 -111.501c0 -5.33301 -0.166992 -12 -0.5 -20s-1.16602 -16.667 -2.49902 -26h-354c6.66699 -76.667 56.667 -115 150 -115c28 0 55 3.5 81 10.5s49.667 17.833 71 32.5l11 -112
c-23.333 -12.667 -50.333 -21.834 -81 -27.501s-62.334 -8.5 -95.001 -8.5zM286 425.001c-30.667 0 -55 -9.83301 -73 -29.5s-28.333 -48.167 -31 -85.5h210c-3.33301 37.333 -14 65.833 -32 85.5s-42.667 29.5 -74 29.5z" />
    <glyph glyph-name="f" unicode="f" horiz-adv-x="392" 
d="M10 518l95 -0.000976562v24c0 61.333 16 108 48 140s80.667 48 146 48c19.333 0 38 -1.16699 56 -3.5s33.667 -5.16602 47 -8.49902l-12 -103c-8.66699 3.33301 -18.5 6 -29.5 8s-22.167 3 -33.5 3c-24 0 -42.167 -6.33301 -54.5 -19s-18.5 -35 -18.5 -67v-22h133v-105
h-133v-413h-149v413h-95v105z" />
    <glyph glyph-name="g" unicode="g" horiz-adv-x="607" 
d="M35 265c0 40.667 6.00195 77.333 18.002 110s28.5 60.5 49.5 83.5s45.333 40.667 73 53s57.5 18.5 89.5 18.5c26.667 0 51.167 -4.16699 73.5 -12.5s40.5 -19.5 54.5 -33.5v34h149v-469c0 -44 -5 -81.667 -15 -113s-25.833 -57 -47.5 -77s-49.667 -34.833 -84 -44.5
s-75.833 -14.5 -124.5 -14.5c-34 0 -66.333 3 -97 9s-59 15.667 -85 29l8 117c23.333 -16.667 49.166 -29.334 77.499 -38.001s57.166 -13 86.499 -13c40 0 72 9.16699 96 27.5s36 48.833 36 91.5v23c-14 -14 -32.167 -25.167 -54.5 -33.5s-46.833 -12.5 -73.5 -12.5
c-32 0 -61.833 6.16699 -89.5 18.5s-52 30 -73 53s-37.5 50.833 -49.5 83.5s-18 69.334 -18 110.001zM186.002 264.999c0 -53.333 10.833 -93.001 32.5 -119.001s48.167 -39 79.5 -39c18.667 0 36.334 3.33301 53.001 10s30.667 16.334 42 29.001v238
c-11.333 12 -25.333 21.5 -42 28.5s-34.334 10.5 -53.001 10.5c-31.333 0 -57.833 -13 -79.5 -39s-32.5 -65.667 -32.5 -119z" />
    <glyph glyph-name="h" unicode="h" horiz-adv-x="619" 
d="M308 423c-19.333 0 -37.167 -3.66797 -53.5 -11.001s-29.833 -16.666 -40.5 -27.999v-384h-149v730h149v-246c16 13.333 35.333 24.333 58 33s48 13 76 13c66.667 0 118.5 -20.5 155.5 -61.5s55.5 -101.833 55.5 -182.5v-286h-149v284c0 49.333 -8.5 84.833 -25.5 106.5
s-42.5 32.5 -76.5 32.5z" />
    <glyph glyph-name="i" unicode="i" horiz-adv-x="290" 
d="M70 518h150v-518h-150v518zM60 655c0 24.667 6.5 43.334 19.5 56.001s34.833 19 65.5 19s52.5 -6.33301 65.5 -19s19.5 -31.334 19.5 -56.001c0 -25.333 -6.5 -44.166 -19.5 -56.499s-34.833 -18.5 -65.5 -18.5s-52.5 6.16699 -65.5 18.5s-19.5 31.166 -19.5 56.499z" />
    <glyph glyph-name="j" unicode="j" horiz-adv-x="296" 
d="M82 518l150.001 -0.00292969v-515c0 -31.333 -3.5 -59.666 -10.5 -84.999s-18.5 -46.666 -34.5 -63.999s-37 -30.666 -63 -39.999s-57.667 -14 -95 -14c-14.667 0 -29.667 1 -45 3s-30 5 -44 9l10 108c16 -8.66699 36 -13 60 -13c25.333 0 43.666 7.33301 54.999 22
s17 37.667 17 69v520zM72.001 654.997c0 24.667 6.5 43.334 19.5 56.001s34.833 19 65.5 19s52.5 -6.33301 65.5 -19s19.5 -31.334 19.5 -56.001c0 -25.333 -6.5 -44.166 -19.5 -56.499s-34.833 -18.5 -65.5 -18.5s-52.5 6.16699 -65.5 18.5s-19.5 31.166 -19.5 56.499z" />
    <glyph glyph-name="k" unicode="k" horiz-adv-x="576" 
d="M214 730v-419l169 207h175l-196 -231l212 -287h-177l-183 262v-262h-149v730h149z" />
    <glyph glyph-name="l" unicode="l" horiz-adv-x="289" 
d="M70 730h149v-730h-149v730z" />
    <glyph glyph-name="m" unicode="m" horiz-adv-x="920" 
d="M348 530c66 0 117.001 -19.667 153.001 -59c21.333 18 45.5 32.333 72.5 43s55.5 16 85.5 16c60 0 108.5 -19.5 145.5 -58.5s55.5 -97.5 55.5 -175.5v-296h-149v304c0 42 -7.33301 72.333 -22 91s-35 28 -61 28c-13.333 0 -27.333 -2.66699 -42 -8
s-28.334 -13 -41.001 -23c9.33301 -32 14 -67.333 14 -106v-286h-171v304c0 42 -7.16699 72.333 -21.5 91s-34.833 28 -61.5 28c-17.333 0 -34 -3.5 -50 -10.5s-29.667 -16.833 -41 -29.5v-383h-149v518h149v-34c14.667 13.333 33.167 24.333 55.5 33s48.5 13 78.5 13z" />
    <glyph glyph-name="n" unicode="n" horiz-adv-x="619" 
d="M308 423c-19.333 0 -37.167 -3.66797 -53.5 -11.001s-29.833 -16.666 -40.5 -27.999v-384h-149v518h149v-34c16 13.333 35.333 24.333 58 33s48 13 76 13c66.667 0 118.5 -20.5 155.5 -61.5s55.5 -101.833 55.5 -182.5v-286h-149v284c0 49.333 -8.5 84.833 -25.5 106.5
s-42.5 32.5 -76.5 32.5z" />
    <glyph glyph-name="o" unicode="o" horiz-adv-x="608" 
d="M304 -12c-41.333 0 -78.5 6.66699 -111.5 20s-61.167 32 -84.5 56s-41.333 52.667 -54 86s-19 69.666 -19 108.999s6.33301 75.5 19 108.5s30.667 61.5 54 85.5s51.5 42.833 84.5 56.5s70.167 20.5 111.5 20.5s78.5 -6.83301 111.5 -20.5s61.167 -32.5 84.5 -56.5
s41.333 -52.5 54 -85.5s19 -69.167 19 -108.5s-6.33301 -75.666 -19 -108.999s-30.667 -62 -54 -86s-51.5 -42.667 -84.5 -56s-70.167 -20 -111.5 -20zM304 95c36.667 0 65.5 14.167 86.5 42.5s31.5 68.833 31.5 121.5s-10.5 93.167 -31.5 121.5s-49.833 42.5 -86.5 42.5
s-65.5 -14.167 -86.5 -42.5s-31.5 -68.833 -31.5 -121.5s10.5 -93.167 31.5 -121.5s49.833 -42.5 86.5 -42.5z" />
    <glyph glyph-name="p" unicode="p" horiz-adv-x="610" 
d="M214 484c15.333 13.333 34.166 24.332 56.499 32.999s46.833 13 73.5 13c32.667 0 63.167 -6.33301 91.5 -19s52.833 -30.834 73.5 -54.501s36.834 -52.167 48.501 -85.5s17.5 -70.666 17.5 -111.999c0 -42 -5.83301 -79.667 -17.5 -113s-27.834 -61.666 -48.501 -84.999
s-45.167 -41.333 -73.5 -54s-58.833 -19 -91.5 -19c-26.667 0 -51.167 4.16699 -73.5 12.5s-41.166 19.5 -56.499 33.5v-227h-149v711h149v-34zM214 132.999c10.667 -11.333 24.167 -20.5 40.5 -27.5s33.833 -10.5 52.5 -10.5c34.667 0 62.834 13.167 84.501 39.5
s32.5 67.833 32.5 124.5s-10.833 98.167 -32.5 124.5s-49.834 39.5 -84.501 39.5c-18.667 0 -36.167 -3.5 -52.5 -10.5s-29.833 -16.5 -40.5 -28.5v-251z" />
    <glyph glyph-name="q" unicode="q" horiz-adv-x="610" 
d="M396 518l149 0.000976562v-711h-149v227c-15.333 -14 -34.166 -25.167 -56.499 -33.5s-46.833 -12.5 -73.5 -12.5c-33.333 0 -64 6.33301 -92 19s-52.333 30.667 -73 54s-36.834 51.666 -48.501 84.999s-17.5 71 -17.5 113c0 41.333 5.83301 78.666 17.5 111.999
s27.834 61.833 48.501 85.5s45 41.834 73 54.501s58.667 19 92 19c26.667 0 51.167 -4.33301 73.5 -13s41.166 -19.667 56.499 -33v34zM396 384.001c-10.667 12 -24.167 21.5 -40.5 28.5s-33.833 10.5 -52.5 10.5c-34.667 0 -62.834 -13.167 -84.501 -39.5
s-32.5 -67.833 -32.5 -124.5s10.833 -98.167 32.5 -124.5s49.834 -39.5 84.501 -39.5c18.667 0 36.167 3.5 52.5 10.5s29.833 16.167 40.5 27.5v251z" />
    <glyph glyph-name="r" unicode="r" horiz-adv-x="418" 
d="M400 399c-10 6 -21.332 10.332 -33.999 12.999s-26 4 -40 4c-27.333 0 -50.5 -6.83301 -69.5 -20.5s-33.167 -33.167 -42.5 -58.5v-337h-149v518h149v-45c13.333 16.667 30.666 30.334 51.999 41.001s46 16 74 16c13.333 0 26.5 -1.16699 39.5 -3.5s24.5 -5.5 34.5 -9.5z
" />
    <glyph glyph-name="s" unicode="s" horiz-adv-x="491" 
d="M233 -12c-35.333 0 -69.333 3.3291 -102 9.99609s-63 17 -91 31l7 120c25.333 -17.333 52.5 -30.666 81.5 -39.999s59.167 -14 90.5 -14c54 0 81 17.333 81 52c0 7.33301 -1.5 14 -4.5 20s-8.5 11.833 -16.5 17.5s-18.667 11.167 -32 16.5s-30 11 -50 17
c-54 15.333 -93.333 36.5 -118 63.5s-37 58.833 -37 95.5c0 50 18.167 88 54.5 114s88.833 39 157.5 39c31.333 0 61.5 -3 90.5 -9s56.167 -14.333 81.5 -25l-11 -110c-21.333 11.333 -44.666 20.333 -69.999 27s-51 10 -77 10c-27.333 0 -46.666 -3.66699 -57.999 -11
s-17 -17 -17 -29c0 -14.667 6.66699 -27.334 20 -38.001s39.333 -21.667 78 -33c30.667 -9.33301 56.167 -19.666 76.5 -30.999s36.666 -23.666 48.999 -36.999s21.166 -27.666 26.499 -42.999s8 -31.333 8 -48c0 -53.333 -18.167 -94.166 -54.5 -122.499
s-90.833 -42.5 -163.5 -42.5z" />
    <glyph glyph-name="t" unicode="t" horiz-adv-x="425" 
d="M15 518l82.999 -0.00292969v155h149v-155h150v-105h-150v-206c0 -23.333 1.5 -42.166 4.5 -56.499s7.66699 -25.666 14 -33.999s14.333 -14 24 -17s21.167 -4.5 34.5 -4.5c21.333 0 42.666 3 63.999 9l12 -106c-15.333 -3.33301 -31.166 -5.83301 -47.499 -7.5
s-32.166 -2.5 -47.499 -2.5c-44.667 0 -80.5 5.66699 -107.5 17s-47.833 28.333 -62.5 51s-24.5 51.334 -29.5 86.001s-7.5 75 -7.5 121v150h-83v105z" />
    <glyph glyph-name="u" unicode="u" horiz-adv-x="619" 
d="M311 95c19.333 0 37.167 3.66797 53.5 11.001s29.833 16.666 40.5 27.999v384h149v-518h-149v34c-16 -13.333 -35.333 -24.333 -58 -33s-48 -13 -76 -13c-66.667 0 -118.5 20.5 -155.5 61.5s-55.5 101.833 -55.5 182.5v286h149v-284c0 -49.333 8.5 -84.833 25.5 -106.5
s42.5 -32.5 76.5 -32.5z" />
    <glyph glyph-name="v" unicode="v" horiz-adv-x="570" 
d="M401 518h157l-194 -518h-158l-194 518h157l116 -357z" />
    <glyph glyph-name="w" unicode="w" horiz-adv-x="842" 
d="M488 518l94 -344l96 344h152l-169 -518h-152l-88 333l-88 -333h-152l-169 518h152l96 -344l94 344h134z" />
    <glyph glyph-name="x" unicode="x" horiz-adv-x="552" 
d="M276 163l-108 -163h-161l184 267l-172 251h161l96 -146l96 146h161l-173 -251l185 -267h-161z" />
    <glyph glyph-name="y" unicode="y" horiz-adv-x="581" 
d="M220 1l-208 517h156l123 -344l122 344h156l-265 -711h-156z" />
    <glyph glyph-name="z" unicode="z" horiz-adv-x="496" 
d="M23 104l262 309h-249v105h427v-104l-262 -309h272v-105h-450v104z" />
    <glyph glyph-name="braceleft" unicode="{" horiz-adv-x="430" 
d="M75 363c10 0 20.167 2.33301 30.5 7s19.5 11.167 27.5 19.5s14.667 18.666 20 30.999s8 26.5 8 42.5v161c0 42.667 13.333 74.334 40 95.001s61 31 103 31h106v-108h-75c-24.667 0 -37 -13 -37 -39v-168c0 -34.667 -7.66699 -62 -23 -82s-40 -34.333 -74 -43
c34 -8.66699 58.667 -23 74 -43s23 -47.333 23 -82v-168c0 -26 12.333 -39 37 -39h75v-108h-106c-42 0 -76.333 10.333 -103 31s-40 52.334 -40 95.001v161c0 16 -2.66699 30.167 -8 42.5s-12 22.666 -20 30.999s-17.167 14.833 -27.5 19.5s-20.5 7 -30.5 7v106z" />
    <glyph glyph-name="bar" unicode="|" horiz-adv-x="317" 
d="M102 769h113v-969h-113v969z" />
    <glyph glyph-name="braceright" unicode="}" horiz-adv-x="430" 
d="M355 257c-10 0 -20.167 -2.33301 -30.5 -7s-19.5 -11.167 -27.5 -19.5s-14.667 -18.666 -20 -30.999s-8 -26.5 -8 -42.5v-161c0 -42.667 -13.333 -74.334 -40 -95.001s-61 -31 -103 -31h-106v108h75c24.667 0 37 13 37 39v168c0 34.667 7.66699 62 23 82s40 34.333 74 43
c-34 8.66699 -58.667 23 -74 43s-23 47.333 -23 82v168c0 26 -12.333 39 -37 39h-75v108h106c42 0 76.333 -10.333 103 -31s40 -52.334 40 -95.001v-161c0 -16 2.66699 -30.167 8 -42.5s12 -22.666 20 -30.999s17.167 -14.833 27.5 -19.5s20.5 -7 30.5 -7v-106z" />
    <glyph glyph-name="asciitilde" unicode="~" horiz-adv-x="614" 
d="M198 428c35.333 0 71.333 -10.667 108 -32c20.667 -12 37 -20.667 49 -26s24.667 -8 38 -8c11.333 0 19.833 4.66699 25.5 14s8.5 26 8.5 50h132c0 -65.333 -12.667 -113.333 -38 -144s-60.333 -46 -105 -46c-35.333 0 -71.333 10.667 -108 32
c-20.667 12 -37 20.667 -49 26s-24.667 8 -38 8c-11.333 0 -19.833 -4.66699 -25.5 -14s-8.5 -26 -8.5 -50h-132c0 65.333 12.833 113.333 38.5 144s60.5 46 104.5 46z" />
    <glyph glyph-name="uni00A0" unicode="&#xa0;" horiz-adv-x="300" 
 />
    <glyph glyph-name="exclamdown" unicode="&#xa1;" horiz-adv-x="332" 
d="M110 324h113l23 -323v-182h-159v182zM166 530c53.333 0 80 -26.667 80 -80c0 -54 -26.667 -81 -80 -81s-80 27 -80 81c0 53.333 26.667 80 80 80z" />
    <glyph glyph-name="cent" unicode="&#xa2;" horiz-adv-x="517" 
d="M298 -11c-82.667 6 -147.168 32.8301 -193.501 80.4971s-69.5 110.834 -69.5 189.501c0 39.333 6.16699 75 18.5 107s29.833 59.667 52.5 83s50.167 41.833 82.5 55.5s68.833 21.834 109.5 24.501v91h71v-92c41.333 -4 79.333 -13.667 114 -29l-11 -110
c-28.667 18 -63 28.667 -103 32v-326c21.333 1.33301 41 4.83301 59 10.5s34.333 13.834 49 24.501l10 -110c-16.667 -9.33301 -35.167 -16.333 -55.5 -21s-41.166 -7.66699 -62.499 -9v-92h-71v91zM185.999 258.997c0 -42.667 9.66699 -77.668 29 -105.001
s47 -45.333 83 -54v318c-34 -8 -61.167 -25.667 -81.5 -53s-30.5 -62.666 -30.5 -105.999z" />
    <glyph glyph-name="sterling" unicode="&#xa3;" horiz-adv-x="602" 
d="M30 323l-0.00292969 68.001h77v110c0 70.667 20.5 123.5 61.5 158.5s99.5 52.5 175.5 52.5c34.667 0 68.334 -3.5 101.001 -10.5s62.667 -17.5 90 -31.5l-10 -124c-22.667 15.333 -47.167 26.666 -73.5 33.999s-53.166 11 -80.499 11
c-39.333 0 -67.166 -7.33301 -83.499 -22s-24.5 -37.667 -24.5 -69v-109h189v-68h-189v-67c0 -28 -4.33301 -53.167 -13 -75.5s-21 -41.833 -37 -58.5h364v-122h-543v109c23.333 16.667 41.333 35.667 54 57s19 46.333 19 75v82h-77z" />
    <glyph glyph-name="currency" unicode="&#xa4;" horiz-adv-x="730" 
d="M594 331c0 -38.667 -8.33301 -74 -25 -106l89 -90l-88 -90l-91 92c-16.667 -8.66699 -34.5 -15.334 -53.5 -20.001s-39.167 -7 -60.5 -7s-41.5 2.33301 -60.5 7s-36.833 11.334 -53.5 20.001l-91 -92l-88 90l89 90c-16.667 32 -25 67.333 -25 106s8.33301 74 25 106
l-89 90l88 90l91 -92c16.667 8.66699 34.5 15.334 53.5 20.001s39.167 7 60.5 7s41.5 -2.33301 60.5 -7s36.833 -11.334 53.5 -20.001l91 92l88 -90l-89 -90c16.667 -32 25 -67.333 25 -106zM466 331c0 32.667 -8.66699 59.334 -26 80.001s-42.333 31 -75 31
s-57.667 -10.333 -75 -31s-26 -47.334 -26 -80.001s8.66699 -59.334 26 -80.001s42.333 -31 75 -31s57.667 10.333 75 31s26 47.334 26 80.001z" />
    <glyph glyph-name="yen" unicode="&#xa5;" horiz-adv-x="646" 
d="M399 274v-61h187v-68h-187v-145h-152v145h-187v68h187v61h-187v68h150l-195 358h166l142 -293l142 293h166l-195 -358h150v-68h-187z" />
    <glyph glyph-name="brokenbar" unicode="&#xa6;" horiz-adv-x="317" 
d="M215 228v-331h-113v331h113zM215 691v-332h-113v332h113z" />
    <glyph glyph-name="section" unicode="&#xa7;" horiz-adv-x="558" 
d="M212 310c0 -16 5.83301 -29.834 17.5 -41.501s28.167 -20.167 49.5 -25.5c20 4 36.667 12.5 50 25.5s20 29.167 20 48.5c0 16.667 -6 30.834 -18 42.501s-28.667 20.167 -50 25.5c-20 -4.66699 -36.5 -13.5 -49.5 -26.5s-19.5 -29.167 -19.5 -48.5zM158 433.999
c-31.333 13.333 -54.333 30.6689 -69 52.002s-22 46.333 -22 75c0 45.333 17.5 81.833 52.5 109.5s90.167 41.5 165.5 41.5c34 0 66.5 -3.33301 97.5 -10s59.167 -16.334 84.5 -29.001l-12 -114c-23.333 15.333 -48.5 26.833 -75.5 34.5s-54.167 11.5 -81.5 11.5
c-52 0 -78 -17 -78 -51c0 -14.667 8.16699 -27.334 24.5 -38.001s43.166 -21.667 80.499 -33c57.333 -17.333 99.166 -39.333 125.499 -66s39.5 -60 39.5 -100c0 -29.333 -7.66699 -54.833 -23 -76.5s-36 -39.167 -62 -52.5c27.333 -10.667 48.5 -27.5 63.5 -50.5
s22.5 -48.5 22.5 -76.5c0 -23.333 -4.33301 -44.833 -13 -64.5s-22 -36.667 -40 -51s-41.167 -25.5 -69.5 -33.5s-62.166 -12 -101.499 -12c-34 0 -68 3.66699 -102 11s-65.333 18.666 -94 33.999l9 123c24.667 -20.667 51.834 -36.167 81.501 -46.5
s60.167 -15.5 91.5 -15.5c30 0 51.833 5.16699 65.5 15.5s20.5 24.5 20.5 42.5c0 16 -7 30 -21 42s-39.667 22.667 -77 32c-54 14.667 -96.167 35.334 -126.5 62.001s-45.5 60.667 -45.5 102c0 31.333 8.5 58.333 25.5 81s38.167 39.667 63.5 51z" />
    <glyph glyph-name="dieresis" unicode="&#xa8;" horiz-adv-x="440" 
d="M47 645c0 45.333 22.667 68 68 68s68 -22.667 68 -68s-22.667 -68 -68 -68s-68 22.667 -68 68zM257 645c0 45.333 22.667 68 68 68s68 -22.667 68 -68s-22.667 -68 -68 -68s-68 22.667 -68 68z" />
    <glyph glyph-name="copyright" unicode="&#xa9;" horiz-adv-x="830" 
d="M207 348c0 33.333 5.49902 63.334 16.499 90.001s26.5 49.5 46.5 68.5s43.833 33.5 71.5 43.5s57.834 15 90.501 15c48.667 0 92.667 -9 132 -27l-9 -93c-15.333 11.333 -32 19.5 -50 24.5s-36.667 7.5 -56 7.5c-37.333 0 -66.666 -11.333 -87.999 -34
s-32 -54.334 -32 -95.001c0 -41.333 10.833 -73.333 32.5 -96s51.5 -34 89.5 -34c19.333 0 37.666 2.33301 54.999 7s33.666 12.667 48.999 24l9 -93c-20 -9.33301 -40.667 -15.833 -62 -19.5s-43.666 -5.5 -66.999 -5.5c-33.333 0 -64 5 -92 15s-52 24.333 -72 43
s-35.667 41.5 -47 68.5s-17 57.167 -17 90.5zM52.999 350.001c0 50 9.5 97 28.5 141s44.833 82.333 77.5 115s71 58.5 115 77.5s91 28.5 141 28.5s97 -9.5 141 -28.5s82.333 -44.833 115 -77.5s58.5 -71 77.5 -115s28.5 -91 28.5 -141s-9.5 -97 -28.5 -141
s-44.833 -82.333 -77.5 -115s-71 -58.5 -115 -77.5s-91 -28.5 -141 -28.5s-97 9.5 -141 28.5s-82.333 44.833 -115 77.5s-58.5 71 -77.5 115s-28.5 91 -28.5 141zM108.999 350.001c0 -43.333 8 -83.833 24 -121.5s37.833 -70.5 65.5 -98.5s60.167 -50 97.5 -66
s77 -24 119 -24s81.667 8 119 24s69.833 38 97.5 66s49.5 60.833 65.5 98.5s24 78.167 24 121.5c0 42.667 -8 82.834 -24 120.501s-37.833 70.5 -65.5 98.5s-60.167 50.167 -97.5 66.5s-77 24.5 -119 24.5s-81.667 -8.16699 -119 -24.5s-69.833 -38.5 -97.5 -66.5
s-49.5 -60.833 -65.5 -98.5s-24 -77.834 -24 -120.501z" />
    <glyph glyph-name="ordfeminine" unicode="&#xaa;" horiz-adv-x="470" 
d="M185 312c-17.333 0 -34.3311 2.50098 -50.998 7.50098s-31.334 12.5 -44.001 22.5s-22.834 22.667 -30.501 38s-11.5 33.333 -11.5 54c0 45.333 15.833 78.666 47.5 99.999s74.5 32 128.5 32h59c0 22.667 -4.83301 38 -14.5 46s-27.167 12 -52.5 12
c-21.333 0 -43.333 -2.83301 -66 -8.5s-43 -13.167 -61 -22.5l-11 83c19.333 9.33301 42.333 17 69 23s54 9 82 9c62.667 0 107.5 -12 134.5 -36s40.5 -63.667 40.5 -119v-234h-121v26c-22 -22 -54.667 -33 -98 -33zM214.002 392.001c12.667 0 25.167 2.16602 37.5 6.49902
s22.833 10.833 31.5 19.5v66h-55c-23.333 0 -40.333 -4.5 -51 -13.5s-16 -20.167 -16 -33.5s4.5 -24.166 13.5 -32.499s22.167 -12.5 39.5 -12.5z" />
    <glyph glyph-name="guillemotleft" unicode="&#xab;" horiz-adv-x="545" 
d="M65 347l222 205v-131l-120 -109l120 -109v-132l-222 205v71zM268 347l222 205v-131l-120 -109l120 -109v-132l-222 205v71z" />
    <glyph glyph-name="logicalnot" unicode="&#xac;" horiz-adv-x="614" 
d="M50 452h504v-296h-132v185h-372v111z" />
    <glyph glyph-name="uni00AD" unicode="&#xad;" horiz-adv-x="401" 
d="M55 271v121h291v-121h-291z" />
    <glyph glyph-name="registered" unicode="&#xae;" horiz-adv-x="830" 
d="M584 429c0 -26.667 -6.83301 -50 -20.5 -70s-34.167 -35.667 -61.5 -47l111 -172h-113l-96 156h-42v-156h-102v419h154c51.333 0 92.5 -10.833 123.5 -32.5s46.5 -54.167 46.5 -97.5zM480 429c0 17.333 -5.5 30.501 -16.5 39.501s-28.5 13.5 -52.5 13.5h-49v-104h49
c24 0 41.5 4.16699 52.5 12.5s16.5 21.166 16.5 38.499zM53 350.001c0 50 9.5 97 28.5 141s44.833 82.333 77.5 115s71 58.5 115 77.5s91 28.5 141 28.5s97 -9.5 141 -28.5s82.333 -44.833 115 -77.5s58.5 -71 77.5 -115s28.5 -91 28.5 -141s-9.5 -97 -28.5 -141
s-44.833 -82.333 -77.5 -115s-71 -58.5 -115 -77.5s-91 -28.5 -141 -28.5s-97 9.5 -141 28.5s-82.333 44.833 -115 77.5s-58.5 71 -77.5 115s-28.5 91 -28.5 141zM109 350.001c0 -43.333 8 -83.833 24 -121.5s37.833 -70.5 65.5 -98.5s60.167 -50 97.5 -66s77 -24 119 -24
s81.667 8 119 24s69.833 38 97.5 66s49.5 60.833 65.5 98.5s24 78.167 24 121.5c0 42.667 -8 82.834 -24 120.501s-37.833 70.5 -65.5 98.5s-60.167 50.167 -97.5 66.5s-77 24.5 -119 24.5s-81.667 -8.16699 -119 -24.5s-69.833 -38.5 -97.5 -66.5
s-49.5 -60.833 -65.5 -98.5s-24 -77.834 -24 -120.501z" />
    <glyph glyph-name="macron" unicode="&#xaf;" horiz-adv-x="440" 
d="M64 694h312v-99h-312v99z" />
    <glyph glyph-name="degree" unicode="&#xb0;" horiz-adv-x="440" 
d="M365 573c0 -19.333 -3.83301 -37.5 -11.5 -54.5s-18 -31.833 -31 -44.5s-28.333 -22.5 -46 -29.5s-36.5 -10.5 -56.5 -10.5s-38.833 3.5 -56.5 10.5s-33 16.833 -46 29.5s-23.333 27.5 -31 44.5s-11.5 35.167 -11.5 54.5s3.83301 37.5 11.5 54.5s18 31.667 31 44
s28.333 22.166 46 29.499s36.5 11 56.5 11s38.833 -3.66699 56.5 -11s33 -17.166 46 -29.499s23.333 -27 31 -44s11.5 -35.167 11.5 -54.5zM272 573c0 16.667 -4.83301 29.667 -14.5 39s-22.167 14 -37.5 14s-27.833 -4.66699 -37.5 -14s-14.5 -22.333 -14.5 -39
s4.83301 -29.667 14.5 -39s22.167 -14 37.5 -14s27.833 4.66699 37.5 14s14.5 22.333 14.5 39z" />
    <glyph glyph-name="plusminus" unicode="&#xb1;" horiz-adv-x="614" 
d="M241 342h-186v111h186v182h132v-182h186v-111h-186v-186h-132v186zM55 20v111h504v-111h-504z" />
    <glyph glyph-name="twosuperior" unicode="&#xb2;" horiz-adv-x="415" 
d="M37 235l-0.00195312 81.001c21.333 16.667 43.833 35.667 67.5 57s45.334 43 65.001 65s35.834 44 48.501 66s19 42 19 60c0 16.667 -5.66699 29 -17 37s-27.333 12 -48 12c-19.333 0 -39 -3.66699 -59 -11s-38.667 -17 -56 -29l-6 101c18.667 10 39.834 18 63.501 24
s48.167 9 73.5 9c21.333 0 42.166 -2.5 62.499 -7.5s38.5 -13.167 54.5 -24.5s28.833 -25.833 38.5 -43.5s14.5 -39.5 14.5 -65.5c0 -43.333 -15.167 -84.333 -45.5 -123s-69.5 -77.334 -117.5 -116.001h165v-92h-323z" />
    <glyph glyph-name="threesuperior" unicode="&#xb3;" horiz-adv-x="415" 
d="M95 521c50 0 86.5 4.83203 109.5 14.499s34.5 23.167 34.5 40.5c0 12.667 -5 22.334 -15 29.001s-26.667 10 -50 10c-17.333 0 -36.333 -2.66699 -57 -8s-40.667 -13.666 -60 -24.999l-9 96c19.333 9.33301 41.5 16.666 66.5 21.999s49.833 8 74.5 8
c53.333 0 95 -11.333 125 -34s45 -53.334 45 -92.001c0 -22 -5.83301 -42.333 -17.5 -61s-29.834 -33 -54.501 -43c23.333 -9.33301 42.166 -23.666 56.499 -42.999s21.5 -41.333 21.5 -66c0 -46 -16.667 -81.167 -50 -105.5s-78.333 -36.5 -135 -36.5
c-23.333 0 -47.166 2.16699 -71.499 6.5s-47.166 10.833 -68.499 19.5l9 105c18 -13.333 37.5 -23 58.5 -29s41.833 -9 62.5 -9c50 0 75 16.333 75 49c0 42 -50 63 -150 63v89z" />
    <glyph glyph-name="acute" unicode="&#xb4;" horiz-adv-x="440" 
d="M222 730h140v-25l-142 -145h-120z" />
    <glyph glyph-name="mu" unicode="&#xb5;" horiz-adv-x="633" 
d="M313 -12c-42 0 -74.998 12 -98.998 36v-217h-149v711h149v-380c12 -14.667 27.167 -25.5 45.5 -32.5s37.166 -10.5 56.499 -10.5c20.667 0 40.167 3.83301 58.5 11.5s33.166 19.167 44.499 34.5v377h149v-518h-149v33c-24.667 -30 -60 -45 -106 -45z" />
    <glyph glyph-name="paragraph" unicode="&#xb6;" horiz-adv-x="605" 
d="M257 266c-32.667 0 -62.834 4.83008 -90.501 14.4971s-51.667 23.667 -72 42s-36.166 41 -47.499 68s-17 57.833 -17 92.5s5.66699 65.334 17 92.001s27.166 49.334 47.499 68.001s44.333 32.834 72 42.501s57.834 14.5 90.501 14.5h273v-831h-114v728h-38v-728h-116v397
h-5z" />
    <glyph glyph-name="periodcentered" unicode="&#xb7;" horiz-adv-x="300" 
d="M150 251c-53.333 0 -80 27 -80 81s26.667 81 80 81s80 -27 80 -81s-26.667 -81 -80 -81z" />
    <glyph glyph-name="cedilla" unicode="&#xb8;" horiz-adv-x="440" 
d="M113 -155c8.66699 -3.33301 18 -5.83203 28 -7.49902s20.667 -2.5 32 -2.5c15.333 0 26.666 2.16699 33.999 6.5s11 12.166 11 23.499c0 14 -7.33301 24.5 -22 31.5s-39.667 10.5 -75 10.5l49 93h115l-33 -58c22.667 -4.66699 40.834 -14 54.501 -28
s20.5 -31.333 20.5 -52c0 -32 -11.667 -56.667 -35 -74s-60 -26 -110 -26c-12 0 -24 0.5 -36 1.5s-23 2.83301 -33 5.5v76z" />
    <glyph glyph-name="onesuperior" unicode="&#xb9;" horiz-adv-x="415" 
d="M95 513l-54 82l143 106h100v-466h-118v329z" />
    <glyph glyph-name="ordmasculine" unicode="&#xba;" horiz-adv-x="470" 
d="M432 510c0 -30 -4.83301 -57.167 -14.5 -81.5s-23.167 -45.166 -40.5 -62.499s-38.166 -30.666 -62.499 -39.999s-50.833 -14 -79.5 -14c-29.333 0 -56 4.66699 -80 14s-44.667 22.666 -62 39.999s-30.833 38.166 -40.5 62.499s-14.5 51.5 -14.5 81.5
s4.83301 57.167 14.5 81.5s23.167 45.166 40.5 62.499s38 30.666 62 39.999s50.667 14 80 14c28.667 0 55.167 -4.66699 79.5 -14s45.166 -22.666 62.499 -39.999s30.833 -38.166 40.5 -62.499s14.5 -51.5 14.5 -81.5zM310 510c0 36.667 -7 64.667 -21 84s-32 29 -54 29
s-40 -9.66699 -54 -29s-21 -47.333 -21 -84s7 -64.667 21 -84s32 -29 54 -29s40 9.66699 54 29s21 47.333 21 84z" />
    <glyph glyph-name="guillemotright" unicode="&#xbb;" horiz-adv-x="545" 
d="M480 276l-222 -205v132l120 109l-120 109v131l222 -205v-71zM277 276l-222 -205v132l120 109l-120 109v131l222 -205v-71z" />
    <glyph glyph-name="onequarter" unicode="&#xbc;" horiz-adv-x="987" 
d="M324 -15h-100l394 730h100zM95 513l-54 82l143 106h100v-466h-118v329zM560 91v89l201 287h121v-281h51v-95h-51v-89h-114v89h-208zM677 186h91v136z" />
    <glyph glyph-name="onehalf" unicode="&#xbd;" horiz-adv-x="987" 
d="M304 -15h-100l394 730h100zM95 513l-54 82l143 106h100v-466h-118v329zM600 1l-0.00195312 81.001c21.333 16.667 43.833 35.667 67.5 57s45.334 43 65.001 65s35.834 44 48.501 66s19 42 19 60c0 16.667 -5.66699 29 -17 37s-27.333 12 -48 12
c-19.333 0 -39 -3.66699 -59 -11s-38.667 -17 -56 -29l-6 101c18.667 10 39.834 18 63.501 24s48.167 9 73.5 9c21.333 0 42.166 -2.5 62.499 -7.5s38.5 -13.167 54.5 -24.5s28.833 -25.833 38.5 -43.5s14.5 -39.5 14.5 -65.5c0 -43.333 -15.167 -84.333 -45.5 -123
s-69.5 -77.334 -117.5 -116.001h165v-92h-323z" />
    <glyph glyph-name="threequarters" unicode="&#xbe;" horiz-adv-x="987" 
d="M343 -15h-100l394 730h100zM560 91v89l201 287h121v-281h51v-95h-51v-89h-114v89h-208zM677 186h91v136zM95 521c50 0 86.5 4.83203 109.5 14.499s34.5 23.167 34.5 40.5c0 12.667 -5 22.334 -15 29.001s-26.667 10 -50 10c-17.333 0 -36.333 -2.66699 -57 -8
s-40.667 -13.666 -60 -24.999l-9 96c19.333 9.33301 41.5 16.666 66.5 21.999s49.833 8 74.5 8c53.333 0 95 -11.333 125 -34s45 -53.334 45 -92.001c0 -22 -5.83301 -42.333 -17.5 -61s-29.834 -33 -54.501 -43c23.333 -9.33301 42.166 -23.666 56.499 -42.999
s21.5 -41.333 21.5 -66c0 -46 -16.667 -81.167 -50 -105.5s-78.333 -36.5 -135 -36.5c-23.333 0 -47.166 2.16699 -71.499 6.5s-47.166 10.833 -68.499 19.5l9 105c18 -13.333 37.5 -23 58.5 -29s41.833 -9 62.5 -9c50 0 75 16.333 75 49c0 42 -50 63 -150 63v89z" />
    <glyph glyph-name="questiondown" unicode="&#xbf;" horiz-adv-x="557" 
d="M294 97c-28 -19.333 -47 -37.166 -57 -53.499s-15 -33.5 -15 -51.5c0 -18.667 9.16699 -33.834 27.5 -45.501s45.833 -17.5 82.5 -17.5c28.667 0 58.334 4.66699 89.001 14s57.667 22.333 81 39l10 -127c-24.667 -14.667 -54.334 -26.5 -89.001 -35.5
s-69.667 -13.5 -105 -13.5c-80 0 -142.167 16.5 -186.5 49.5s-66.5 77.5 -66.5 133.5c0 36.667 10 70 30 100s50.333 60 91 90c20.667 15.333 35.167 31.666 43.5 48.999s12.5 39.333 12.5 66v31h150v-33c0 -44 -7.16699 -81.167 -21.5 -111.5
s-39.833 -58.166 -76.5 -83.499zM317 529c53.333 0 80 -26.667 80 -80c0 -54 -26.667 -81 -80 -81s-80 27 -80 81c0 53.333 26.667 80 80 80z" />
    <glyph glyph-name="Agrave" unicode="&#xc0;" horiz-adv-x="690" 
d="M471 156h-252l-49 -156h-166l244 700h194l244 -700h-166zM257 278h176l-88 283zM421 754h-120l-142 145v25h140z" />
    <glyph glyph-name="Aacute" unicode="&#xc1;" horiz-adv-x="690" 
d="M471 156h-252l-49 -156h-166l244 700h194l244 -700h-166zM257 278h176l-88 283zM369 924h140v-25l-142 -145h-120z" />
    <glyph glyph-name="Acircumflex" unicode="&#xc2;" horiz-adv-x="690" 
d="M471 156h-252l-49 -156h-166l244 700h194l244 -700h-166zM257 278h176l-88 283zM410 924l125 -170h-120l-70 81l-70 -81h-120l125 170h130z" />
    <glyph glyph-name="Atilde" unicode="&#xc3;" horiz-adv-x="690" 
d="M471 156h-252l-49 -156h-166l244 700h194l244 -700h-166zM257 278h176l-88 283zM517 911c0 -52 -9.83301 -89.332 -29.5 -111.999s-44.5 -34 -74.5 -34c-13.333 0 -26 2.5 -38 7.5s-23 10.333 -33 16s-18.833 11 -26.5 16s-13.834 7.5 -18.501 7.5
c-6.66699 0 -11.5 -2.83301 -14.5 -8.5s-4.5 -17.834 -4.5 -36.501h-104c0 52 9.66699 89.167 29 111.5s44 33.5 74 33.5c13.333 0 26 -2.5 38 -7.5s23 -10.333 33 -16s18.833 -11 26.5 -16s13.834 -7.5 18.501 -7.5c6.66699 0 11.667 2.83301 15 8.5s5 18.167 5 37.5h104z
" />
    <glyph glyph-name="Adieresis" unicode="&#xc4;" horiz-adv-x="690" 
d="M471 156h-252l-49 -156h-166l244 700h194l244 -700h-166zM257 278h176l-88 283zM172 839c0 45.333 22.667 68 68 68s68 -22.667 68 -68s-22.667 -68 -68 -68s-68 22.667 -68 68zM382 839c0 45.333 22.667 68 68 68s68 -22.667 68 -68s-22.667 -68 -68 -68
s-68 22.667 -68 68z" />
    <glyph glyph-name="Aring" unicode="&#xc5;" horiz-adv-x="690" 
d="M471 156h-252l-49 -156h-166l244 700h194l244 -700h-166zM257 278h176l-88 283zM345 950c16.667 0 32 -2.83301 46 -8.5s26.167 -13.5 36.5 -23.5s18.5 -21.833 24.5 -35.5s9 -28.167 9 -43.5s-3 -29.833 -9 -43.5s-14.167 -25.5 -24.5 -35.5s-22.5 -17.833 -36.5 -23.5
s-29.333 -8.5 -46 -8.5s-32 2.83301 -46 8.5s-26.167 13.5 -36.5 23.5s-18.5 21.833 -24.5 35.5s-9 28.167 -9 43.5s3 29.833 9 43.5s14.167 25.5 24.5 35.5s22.5 17.833 36.5 23.5s29.333 8.5 46 8.5zM345 804c9.33301 0 17.333 3 24 9s10 14.667 10 26s-3.33301 20 -10 26
s-14.667 9 -24 9s-17.333 -3 -24 -9s-10 -14.667 -10 -26s3.33301 -20 10 -26s14.667 -9 24 -9z" />
    <glyph glyph-name="AE" unicode="&#xc6;" horiz-adv-x="903" 
d="M240 157l-69 -157h-167l316 700h535v-122h-273v-159h249v-122h-249v-175h281v-122h-434v157h-189zM293 279h136v308z" />
    <glyph glyph-name="Ccedilla" unicode="&#xc7;" horiz-adv-x="636" 
d="M286 -155c8.66699 -3.33301 18 -5.83594 28 -7.50293s20.667 -2.5 32 -2.5c15.333 0 26.666 2.16699 33.999 6.5s11 12.166 11 23.499c0 14 -7.33301 24.5 -22 31.5s-39.667 10.5 -75 10.5l45 86c-46 6.66699 -87.5 20 -124.5 40s-68.5 45.333 -94.5 76
s-45.833 66.334 -59.5 107.001s-20.5 85.334 -20.5 134.001c0 53.333 8.66699 102.166 26 146.499s42 82.5 74 114.5s70.833 56.833 116.5 74.5s96.834 26.5 153.501 26.5c32.667 0 65.5 -3 98.5 -9s62.167 -15 87.5 -27l-11 -130
c-21.333 14.667 -45.666 25.334 -72.999 32.001s-55.333 10 -84 10c-36.667 0 -69.334 -5.66699 -98.001 -17s-52.667 -27.5 -72 -48.5s-34.166 -46.167 -44.499 -75.5s-15.5 -61.666 -15.5 -96.999c0 -75.333 20.667 -134 62 -176s98.333 -63 171 -63
c29.333 0 57.166 3.66699 83.499 11s51.166 19 74.499 35l12 -133c-23.333 -11.333 -47.833 -19.666 -73.5 -24.999s-51.167 -9 -76.5 -11l-26 -46c22.667 -4.66699 40.834 -14 54.501 -28s20.5 -31.333 20.5 -52c0 -32 -11.667 -56.667 -35 -74s-60 -26 -110 -26
c-12 0 -24 0.5 -36 1.5s-23 2.83301 -33 5.5v76z" />
    <glyph glyph-name="Egrave" unicode="&#xc8;" horiz-adv-x="599" 
d="M75 700h475v-122h-319v-158h296v-122h-296v-176h328v-122h-484v700zM407 754h-120l-142 145v25h140z" />
    <glyph glyph-name="Eacute" unicode="&#xc9;" horiz-adv-x="599" 
d="M75 700h475v-122h-319v-158h296v-122h-296v-176h328v-122h-484v700zM335 924h140v-25l-142 -145h-120z" />
    <glyph glyph-name="Ecircumflex" unicode="&#xca;" horiz-adv-x="599" 
d="M75 700h475v-122h-319v-158h296v-122h-296v-176h328v-122h-484v700zM372 924l125 -170h-120l-70 81l-70 -81h-120l125 170h130z" />
    <glyph glyph-name="Edieresis" unicode="&#xcb;" horiz-adv-x="599" 
d="M75 700h475v-122h-319v-158h296v-122h-296v-176h328v-122h-484v700zM134 839c0 45.333 22.667 68 68 68s68 -22.667 68 -68s-22.667 -68 -68 -68s-68 22.667 -68 68zM344 839c0 45.333 22.667 68 68 68s68 -22.667 68 -68s-22.667 -68 -68 -68s-68 22.667 -68 68z" />
    <glyph glyph-name="Igrave" unicode="&#xcc;" horiz-adv-x="316" 
d="M236 700v-700h-156v700h156zM239 754h-120l-142 145v25h140z" />
    <glyph glyph-name="Iacute" unicode="&#xcd;" horiz-adv-x="316" 
d="M236 700v-700h-156v700h156zM201 924h140v-25l-142 -145h-120z" />
    <glyph glyph-name="Icircumflex" unicode="&#xce;" horiz-adv-x="316" 
d="M236 700v-700h-156v700h156zM224 924l125 -170h-120l-70 81l-70 -81h-120l125 170h130z" />
    <glyph glyph-name="Idieresis" unicode="&#xcf;" horiz-adv-x="316" 
d="M236 700v-700h-156v700h156zM-14 839c0 45.333 22.667 68 68 68s68 -22.667 68 -68s-22.667 -68 -68 -68s-68 22.667 -68 68zM196 839c0 45.333 22.667 68 68 68s68 -22.667 68 -68s-22.667 -68 -68 -68s-68 22.667 -68 68z" />
    <glyph glyph-name="Eth" unicode="&#xd0;" horiz-adv-x="716" 
d="M13 391h69v309h214c55.333 0 106.166 -7.33301 152.499 -22s86.333 -36.667 120 -66s60 -65.833 79 -109.5s28.5 -94.5 28.5 -152.5s-9.5 -109 -28.5 -153s-45.333 -80.5 -79 -109.5s-73.667 -50.833 -120 -65.5s-97.166 -22 -152.499 -22h-214v310h-69v81zM518 349
c0 41.333 -5.16699 76.501 -15.5 105.501s-25.333 52.667 -45 71s-44 31.666 -73 39.999s-62.167 12.5 -99.5 12.5h-47v-187h132v-81h-132v-188h47c37.333 0 70.5 4.16699 99.5 12.5s53.333 21.5 73 39.5s34.667 41.333 45 70s15.5 63.667 15.5 105z" />
    <glyph glyph-name="Ntilde" unicode="&#xd1;" horiz-adv-x="747" 
d="M75 700h176l270 -480v480h151v-700h-176l-270 480v-480h-151v700zM545 911c0 -52 -9.83301 -89.332 -29.5 -111.999s-44.5 -34 -74.5 -34c-13.333 0 -26 2.5 -38 7.5s-23 10.333 -33 16s-18.833 11 -26.5 16s-13.834 7.5 -18.501 7.5
c-6.66699 0 -11.5 -2.83301 -14.5 -8.5s-4.5 -17.834 -4.5 -36.501h-104c0 52 9.66699 89.167 29 111.5s44 33.5 74 33.5c13.333 0 26 -2.5 38 -7.5s23 -10.333 33 -16s18.833 -11 26.5 -16s13.834 -7.5 18.501 -7.5c6.66699 0 11.667 2.83301 15 8.5s5 18.167 5 37.5h104z
" />
    <glyph glyph-name="Ograve" unicode="&#xd2;" horiz-adv-x="744" 
d="M704 350c0 -51.333 -7.33301 -99 -22 -143s-36 -82.333 -64 -115s-62.667 -58.167 -104 -76.5s-88.666 -27.5 -141.999 -27.5s-100.666 9.16699 -141.999 27.5s-76 43.833 -104 76.5s-49.333 71 -64 115s-22 91.667 -22 143s7.33301 99 22 143s36 82.333 64 115
s62.667 58.167 104 76.5s88.666 27.5 141.999 27.5s100.666 -9.16699 141.999 -27.5s76 -43.833 104 -76.5s49.333 -71 64 -115s22 -91.667 22 -143zM546 350c0 76 -15.667 134.667 -47 176s-73.666 62 -126.999 62s-95.666 -20.667 -126.999 -62s-47 -100 -47 -176
c0 -76.667 15.667 -135.5 47 -176.5s73.666 -61.5 126.999 -61.5s95.666 20.5 126.999 61.5s47 99.833 47 176.5zM476 754h-120l-142 145v25h140z" />
    <glyph glyph-name="Oacute" unicode="&#xd3;" horiz-adv-x="744" 
d="M704 350c0 -51.333 -7.33301 -99 -22 -143s-36 -82.333 -64 -115s-62.667 -58.167 -104 -76.5s-88.666 -27.5 -141.999 -27.5s-100.666 9.16699 -141.999 27.5s-76 43.833 -104 76.5s-49.333 71 -64 115s-22 91.667 -22 143s7.33301 99 22 143s36 82.333 64 115
s62.667 58.167 104 76.5s88.666 27.5 141.999 27.5s100.666 -9.16699 141.999 -27.5s76 -43.833 104 -76.5s49.333 -71 64 -115s22 -91.667 22 -143zM546 350c0 76 -15.667 134.667 -47 176s-73.666 62 -126.999 62s-95.666 -20.667 -126.999 -62s-47 -100 -47 -176
c0 -76.667 15.667 -135.5 47 -176.5s73.666 -61.5 126.999 -61.5s95.666 20.5 126.999 61.5s47 99.833 47 176.5zM388 924h140v-25l-142 -145h-120z" />
    <glyph glyph-name="Ocircumflex" unicode="&#xd4;" horiz-adv-x="744" 
d="M704 350c0 -51.333 -7.33301 -99 -22 -143s-36 -82.333 -64 -115s-62.667 -58.167 -104 -76.5s-88.666 -27.5 -141.999 -27.5s-100.666 9.16699 -141.999 27.5s-76 43.833 -104 76.5s-49.333 71 -64 115s-22 91.667 -22 143s7.33301 99 22 143s36 82.333 64 115
s62.667 58.167 104 76.5s88.666 27.5 141.999 27.5s100.666 -9.16699 141.999 -27.5s76 -43.833 104 -76.5s49.333 -71 64 -115s22 -91.667 22 -143zM546 350c0 76 -15.667 134.667 -47 176s-73.666 62 -126.999 62s-95.666 -20.667 -126.999 -62s-47 -100 -47 -176
c0 -76.667 15.667 -135.5 47 -176.5s73.666 -61.5 126.999 -61.5s95.666 20.5 126.999 61.5s47 99.833 47 176.5zM437 924l125 -170h-120l-70 81l-70 -81h-120l125 170h130z" />
    <glyph glyph-name="Otilde" unicode="&#xd5;" horiz-adv-x="744" 
d="M704 350c0 -51.333 -7.33301 -99 -22 -143s-36 -82.333 -64 -115s-62.667 -58.167 -104 -76.5s-88.666 -27.5 -141.999 -27.5s-100.666 9.16699 -141.999 27.5s-76 43.833 -104 76.5s-49.333 71 -64 115s-22 91.667 -22 143s7.33301 99 22 143s36 82.333 64 115
s62.667 58.167 104 76.5s88.666 27.5 141.999 27.5s100.666 -9.16699 141.999 -27.5s76 -43.833 104 -76.5s49.333 -71 64 -115s22 -91.667 22 -143zM546 350c0 76 -15.667 134.667 -47 176s-73.666 62 -126.999 62s-95.666 -20.667 -126.999 -62s-47 -100 -47 -176
c0 -76.667 15.667 -135.5 47 -176.5s73.666 -61.5 126.999 -61.5s95.666 20.5 126.999 61.5s47 99.833 47 176.5zM544 911c0 -52 -9.83301 -89.332 -29.5 -111.999s-44.5 -34 -74.5 -34c-13.333 0 -26 2.5 -38 7.5s-23 10.333 -33 16s-18.833 11 -26.5 16
s-13.834 7.5 -18.501 7.5c-6.66699 0 -11.5 -2.83301 -14.5 -8.5s-4.5 -17.834 -4.5 -36.501h-104c0 52 9.66699 89.167 29 111.5s44 33.5 74 33.5c13.333 0 26 -2.5 38 -7.5s23 -10.333 33 -16s18.833 -11 26.5 -16s13.834 -7.5 18.501 -7.5
c6.66699 0 11.667 2.83301 15 8.5s5 18.167 5 37.5h104z" />
    <glyph glyph-name="Odieresis" unicode="&#xd6;" horiz-adv-x="744" 
d="M704 350c0 -51.333 -7.33301 -99 -22 -143s-36 -82.333 -64 -115s-62.667 -58.167 -104 -76.5s-88.666 -27.5 -141.999 -27.5s-100.666 9.16699 -141.999 27.5s-76 43.833 -104 76.5s-49.333 71 -64 115s-22 91.667 -22 143s7.33301 99 22 143s36 82.333 64 115
s62.667 58.167 104 76.5s88.666 27.5 141.999 27.5s100.666 -9.16699 141.999 -27.5s76 -43.833 104 -76.5s49.333 -71 64 -115s22 -91.667 22 -143zM546 350c0 76 -15.667 134.667 -47 176s-73.666 62 -126.999 62s-95.666 -20.667 -126.999 -62s-47 -100 -47 -176
c0 -76.667 15.667 -135.5 47 -176.5s73.666 -61.5 126.999 -61.5s95.666 20.5 126.999 61.5s47 99.833 47 176.5zM199 839c0 45.333 22.667 68 68 68s68 -22.667 68 -68s-22.667 -68 -68 -68s-68 22.667 -68 68zM409 839c0 45.333 22.667 68 68 68s68 -22.667 68 -68
s-22.667 -68 -68 -68s-68 22.667 -68 68z" />
    <glyph glyph-name="multiply" unicode="&#xd7;" horiz-adv-x="614" 
d="M307 244l-149 -149l-88 88l149 149l-149 149l88 88l149 -149l149 149l88 -88l-149 -149l149 -149l-88 -88z" />
    <glyph glyph-name="Oslash" unicode="&#xd8;" horiz-adv-x="744" 
d="M75 -100l89.001 155.999c-40.667 32.667 -71.5 74.167 -92.5 124.5s-31.5 106.833 -31.5 169.5c0 51.333 7.33301 99 22 143s36 82.333 64 115s62.667 58.167 104 76.5s88.666 27.5 141.999 27.5c55.333 0 104.666 -10.333 147.999 -31l68 119h94
c-0.666992 -1.33301 -8.66699 -15.166 -24 -41.499l-70 -121.5c38 -33.333 66.833 -74.5 86.5 -123.5s29.5 -103.5 29.5 -163.5c0 -51.333 -7.33301 -99 -22 -143s-36 -82.333 -64 -115s-62.667 -58.167 -104 -76.5s-88.666 -27.5 -141.999 -27.5
c-51.333 0 -97.333 8.66699 -138 26l-32 -56l-33 -58h-94zM198.001 349.999c0 -68.667 12.999 -123.667 38.999 -165l217 381c-24 14.667 -51.333 22 -82 22c-53.333 0 -95.666 -20.667 -126.999 -62s-47 -100 -47 -176zM546 349.999c0 32 -2.83105 60.668 -8.49805 86.001
s-13.834 47.666 -24.501 66.999l-96 -167l-118 -208c20.667 -10.667 45 -16 73 -16c53.333 0 95.666 20.5 126.999 61.5s47 99.833 47 176.5z" />
    <glyph glyph-name="Ugrave" unicode="&#xd9;" horiz-adv-x="748" 
d="M374 -12c-44.667 0 -85.334 6 -122.001 18s-68.167 30.167 -94.5 54.5s-46.666 54.833 -60.999 91.5s-21.5 79.667 -21.5 129v419h156v-415c0 -56.667 11.167 -99.667 33.5 -129s58.833 -44 109.5 -44s87.167 14.667 109.5 44s33.5 72.333 33.5 129v415h156v-419
c0 -49.333 -7.16699 -92.333 -21.5 -129s-34.666 -67.167 -60.999 -91.5s-57.833 -42.5 -94.5 -54.5s-77.334 -18 -122.001 -18zM449 754h-120l-142 145v25h140z" />
    <glyph glyph-name="Uacute" unicode="&#xda;" horiz-adv-x="748" 
d="M374 -12c-44.667 0 -85.334 6 -122.001 18s-68.167 30.167 -94.5 54.5s-46.666 54.833 -60.999 91.5s-21.5 79.667 -21.5 129v419h156v-415c0 -56.667 11.167 -99.667 33.5 -129s58.833 -44 109.5 -44s87.167 14.667 109.5 44s33.5 72.333 33.5 129v415h156v-419
c0 -49.333 -7.16699 -92.333 -21.5 -129s-34.666 -67.167 -60.999 -91.5s-57.833 -42.5 -94.5 -54.5s-77.334 -18 -122.001 -18zM417 924h140v-25l-142 -145h-120z" />
    <glyph glyph-name="Ucircumflex" unicode="&#xdb;" horiz-adv-x="748" 
d="M374 -12c-44.667 0 -85.334 6 -122.001 18s-68.167 30.167 -94.5 54.5s-46.666 54.833 -60.999 91.5s-21.5 79.667 -21.5 129v419h156v-415c0 -56.667 11.167 -99.667 33.5 -129s58.833 -44 109.5 -44s87.167 14.667 109.5 44s33.5 72.333 33.5 129v415h156v-419
c0 -49.333 -7.16699 -92.333 -21.5 -129s-34.666 -67.167 -60.999 -91.5s-57.833 -42.5 -94.5 -54.5s-77.334 -18 -122.001 -18zM439 924l125 -170h-120l-70 81l-70 -81h-120l125 170h130z" />
    <glyph glyph-name="Udieresis" unicode="&#xdc;" horiz-adv-x="748" 
d="M374 -12c-44.667 0 -85.334 6 -122.001 18s-68.167 30.167 -94.5 54.5s-46.666 54.833 -60.999 91.5s-21.5 79.667 -21.5 129v419h156v-415c0 -56.667 11.167 -99.667 33.5 -129s58.833 -44 109.5 -44s87.167 14.667 109.5 44s33.5 72.333 33.5 129v415h156v-419
c0 -49.333 -7.16699 -92.333 -21.5 -129s-34.666 -67.167 -60.999 -91.5s-57.833 -42.5 -94.5 -54.5s-77.334 -18 -122.001 -18zM201 839c0 45.333 22.667 68 68 68s68 -22.667 68 -68s-22.667 -68 -68 -68s-68 22.667 -68 68zM411 839c0 45.333 22.667 68 68 68
s68 -22.667 68 -68s-22.667 -68 -68 -68s-68 22.667 -68 68z" />
    <glyph glyph-name="Yacute" unicode="&#xdd;" horiz-adv-x="714" 
d="M357 419l171 281h169l-262 -426v-274h-156v274l-262 426h169zM389 924h140v-25l-142 -145h-120z" />
    <glyph glyph-name="Thorn" unicode="&#xde;" horiz-adv-x="628" 
d="M75 0v699.999h156v-116h86c43.333 0 82.333 -4.83301 117 -14.5s64.167 -24.167 88.5 -43.5s43 -43.166 56 -71.499s19.5 -61.5 19.5 -99.5s-6.5 -71.333 -19.5 -100s-31.667 -52.667 -56 -72s-53.833 -33.833 -88.5 -43.5s-73.667 -14.5 -117 -14.5h-86v-125h-156z
M440 354.999c0 40 -11 68.5 -33 85.5s-56.667 25.5 -104 25.5h-72v-223h72c47.333 0 82 8.66699 104 26s33 46 33 86z" />
    <glyph glyph-name="germandbls" unicode="&#xdf;" horiz-adv-x="633" 
d="M254 147c12.667 -12.667 27.999 -22.332 45.999 -28.999s36.667 -10 56 -10c56 0 84 28.333 84 85c0 30.667 -12.333 56.334 -37 77.001s-62 31 -112 31v119c42 0 72.833 8.66699 92.5 26s29.5 41 29.5 71c0 23.333 -7.5 41.5 -22.5 54.5s-36.833 19.5 -65.5 19.5
c-32 0 -55.667 -9.83301 -71 -29.5s-23 -51.5 -23 -95.5v-466h-156v446c0 177.333 85 266 255 266c36.667 0 69.834 -4.83301 99.501 -14.5s55 -23 76 -40s37.167 -37 48.5 -60s17 -47.833 17 -74.5c0 -37.333 -8.83301 -69.833 -26.5 -97.5s-44.5 -48.167 -80.5 -61.5
c42 -10.667 74.833 -31.834 98.5 -63.501s35.5 -68.5 35.5 -110.5c0 -64.667 -19.167 -114.5 -57.5 -149.5s-95.5 -52.5 -171.5 -52.5c-22.667 0 -45 2.16699 -67 6.5s-41.667 11.166 -59 20.499z" />
    <glyph glyph-name="agrave" unicode="&#xe0;" horiz-adv-x="574" 
d="M222 -12c-26.667 0 -51.668 3.66504 -75.001 10.998s-43.666 18 -60.999 32s-31 31.333 -41 52s-15 44.334 -15 71.001c0 54 20.333 97.167 61 129.5s100 48.5 178 48.5h96v24c0 25.333 -7.5 43 -22.5 53s-40.5 15 -76.5 15c-32 0 -63.333 -4.16699 -94 -12.5
s-58.667 -19.5 -84 -33.5l-14 106c26 13.333 57.5 24.333 94.5 33s74.5 13 112.5 13c80.667 0 139.667 -15.167 177 -45.5s56 -81.166 56 -152.499v-332h-149v34c-22 -16.667 -43.5 -28.5 -64.5 -35.5s-47.167 -10.5 -78.5 -10.5zM257.999 90.998
c20.667 0 40.667 3.50098 60 10.501s35 17.833 47 32.5v96h-91c-34 0 -58 -6.5 -72 -19.5s-21 -30.833 -21 -53.5s6.83301 -39.334 20.5 -50.001s32.5 -16 56.5 -16zM375.999 579.999h-120l-142 145v25h140z" />
    <glyph glyph-name="aacute" unicode="&#xe1;" horiz-adv-x="574" 
d="M222 -12c-26.667 0 -51.668 3.66504 -75.001 10.998s-43.666 18 -60.999 32s-31 31.333 -41 52s-15 44.334 -15 71.001c0 54 20.333 97.167 61 129.5s100 48.5 178 48.5h96v24c0 25.333 -7.5 43 -22.5 53s-40.5 15 -76.5 15c-32 0 -63.333 -4.16699 -94 -12.5
s-58.667 -19.5 -84 -33.5l-14 106c26 13.333 57.5 24.333 94.5 33s74.5 13 112.5 13c80.667 0 139.667 -15.167 177 -45.5s56 -81.166 56 -152.499v-332h-149v34c-22 -16.667 -43.5 -28.5 -64.5 -35.5s-47.167 -10.5 -78.5 -10.5zM257.999 90.998
c20.667 0 40.667 3.50098 60 10.501s35 17.833 47 32.5v96h-91c-34 0 -58 -6.5 -72 -19.5s-21 -30.833 -21 -53.5s6.83301 -39.334 20.5 -50.001s32.5 -16 56.5 -16zM312.999 749.999h140v-25l-142 -145h-120z" />
    <glyph glyph-name="acircumflex" unicode="&#xe2;" horiz-adv-x="574" 
d="M222 -12c-26.667 0 -51.668 3.66504 -75.001 10.998s-43.666 18 -60.999 32s-31 31.333 -41 52s-15 44.334 -15 71.001c0 54 20.333 97.167 61 129.5s100 48.5 178 48.5h96v24c0 25.333 -7.5 43 -22.5 53s-40.5 15 -76.5 15c-32 0 -63.333 -4.16699 -94 -12.5
s-58.667 -19.5 -84 -33.5l-14 106c26 13.333 57.5 24.333 94.5 33s74.5 13 112.5 13c80.667 0 139.667 -15.167 177 -45.5s56 -81.166 56 -152.499v-332h-149v34c-22 -16.667 -43.5 -28.5 -64.5 -35.5s-47.167 -10.5 -78.5 -10.5zM257.999 90.998
c20.667 0 40.667 3.50098 60 10.501s35 17.833 47 32.5v96h-91c-34 0 -58 -6.5 -72 -19.5s-21 -30.833 -21 -53.5s6.83301 -39.334 20.5 -50.001s32.5 -16 56.5 -16zM353.999 749.999l125 -170h-120l-70 81l-70 -81h-120l125 170h130z" />
    <glyph glyph-name="atilde" unicode="&#xe3;" horiz-adv-x="574" 
d="M222 -12c-26.667 0 -51.668 3.66504 -75.001 10.998s-43.666 18 -60.999 32s-31 31.333 -41 52s-15 44.334 -15 71.001c0 54 20.333 97.167 61 129.5s100 48.5 178 48.5h96v24c0 25.333 -7.5 43 -22.5 53s-40.5 15 -76.5 15c-32 0 -63.333 -4.16699 -94 -12.5
s-58.667 -19.5 -84 -33.5l-14 106c26 13.333 57.5 24.333 94.5 33s74.5 13 112.5 13c80.667 0 139.667 -15.167 177 -45.5s56 -81.166 56 -152.499v-332h-149v34c-22 -16.667 -43.5 -28.5 -64.5 -35.5s-47.167 -10.5 -78.5 -10.5zM257.999 90.998
c20.667 0 40.667 3.50098 60 10.501s35 17.833 47 32.5v96h-91c-34 0 -58 -6.5 -72 -19.5s-21 -30.833 -21 -53.5s6.83301 -39.334 20.5 -50.001s32.5 -16 56.5 -16zM454.999 735.999c0 -52 -9.83301 -89.332 -29.5 -111.999s-44.5 -34 -74.5 -34c-13.333 0 -26 2.5 -38 7.5
s-23 10.333 -33 16s-18.833 11 -26.5 16s-13.834 7.5 -18.501 7.5c-6.66699 0 -11.5 -2.83301 -14.5 -8.5s-4.5 -17.834 -4.5 -36.501h-104c0 52 9.66699 89.167 29 111.5s44 33.5 74 33.5c13.333 0 26 -2.5 38 -7.5s23 -10.333 33 -16s18.833 -11 26.5 -16
s13.834 -7.5 18.501 -7.5c6.66699 0 11.667 2.83301 15 8.5s5 18.167 5 37.5h104z" />
    <glyph glyph-name="adieresis" unicode="&#xe4;" horiz-adv-x="574" 
d="M222 -12c-26.667 0 -51.668 3.66504 -75.001 10.998s-43.666 18 -60.999 32s-31 31.333 -41 52s-15 44.334 -15 71.001c0 54 20.333 97.167 61 129.5s100 48.5 178 48.5h96v24c0 25.333 -7.5 43 -22.5 53s-40.5 15 -76.5 15c-32 0 -63.333 -4.16699 -94 -12.5
s-58.667 -19.5 -84 -33.5l-14 106c26 13.333 57.5 24.333 94.5 33s74.5 13 112.5 13c80.667 0 139.667 -15.167 177 -45.5s56 -81.166 56 -152.499v-332h-149v34c-22 -16.667 -43.5 -28.5 -64.5 -35.5s-47.167 -10.5 -78.5 -10.5zM257.999 90.998
c20.667 0 40.667 3.50098 60 10.501s35 17.833 47 32.5v96h-91c-34 0 -58 -6.5 -72 -19.5s-21 -30.833 -21 -53.5s6.83301 -39.334 20.5 -50.001s32.5 -16 56.5 -16zM112.999 664.999c0 45.333 22.667 68 68 68s68 -22.667 68 -68s-22.667 -68 -68 -68s-68 22.667 -68 68z
M322.999 664.999c0 45.333 22.667 68 68 68s68 -22.667 68 -68s-22.667 -68 -68 -68s-68 22.667 -68 68z" />
    <glyph glyph-name="aring" unicode="&#xe5;" horiz-adv-x="574" 
d="M222 -12c-26.667 0 -51.668 3.66504 -75.001 10.998s-43.666 18 -60.999 32s-31 31.333 -41 52s-15 44.334 -15 71.001c0 54 20.333 97.167 61 129.5s100 48.5 178 48.5h96v24c0 25.333 -7.5 43 -22.5 53s-40.5 15 -76.5 15c-32 0 -63.333 -4.16699 -94 -12.5
s-58.667 -19.5 -84 -33.5l-14 106c26 13.333 57.5 24.333 94.5 33s74.5 13 112.5 13c80.667 0 139.667 -15.167 177 -45.5s56 -81.166 56 -152.499v-332h-149v34c-22 -16.667 -43.5 -28.5 -64.5 -35.5s-47.167 -10.5 -78.5 -10.5zM257.999 90.998
c20.667 0 40.667 3.50098 60 10.501s35 17.833 47 32.5v96h-91c-34 0 -58 -6.5 -72 -19.5s-21 -30.833 -21 -53.5s6.83301 -39.334 20.5 -50.001s32.5 -16 56.5 -16zM285.999 775.999c16.667 0 32 -2.83301 46 -8.5s26.167 -13.5 36.5 -23.5s18.5 -21.833 24.5 -35.5
s9 -28.167 9 -43.5s-3 -29.833 -9 -43.5s-14.167 -25.5 -24.5 -35.5s-22.5 -17.833 -36.5 -23.5s-29.333 -8.5 -46 -8.5s-32 2.83301 -46 8.5s-26.167 13.5 -36.5 23.5s-18.5 21.833 -24.5 35.5s-9 28.167 -9 43.5s3 29.833 9 43.5s14.167 25.5 24.5 35.5
s22.5 17.833 36.5 23.5s29.333 8.5 46 8.5zM285.999 629.999c9.33301 0 17.333 3 24 9s10 14.667 10 26s-3.33301 20 -10 26s-14.667 9 -24 9s-17.333 -3 -24 -9s-10 -14.667 -10 -26s3.33301 -20 10 -26s14.667 -9 24 -9z" />
    <glyph glyph-name="ae" unicode="&#xe6;" horiz-adv-x="893" 
d="M506 208c4 -41.333 19.332 -70.833 45.999 -88.5s63 -26.5 109 -26.5c25.333 0 51 3.5 77 10.5s49.333 17.833 70 32.5l11 -112c-21.333 -11.333 -46.833 -20.166 -76.5 -26.499s-59.5 -9.5 -89.5 -9.5c-48 0 -90 7.66699 -126 23s-64.333 37.666 -85 66.999
c-23.333 -30 -52.5 -52.5 -87.5 -67.5s-73.5 -22.5 -115.5 -22.5c-65.333 0 -116.5 14.5 -153.5 43.5s-55.5 70.167 -55.5 123.5c0 54.667 20.667 97.834 62 129.501s101.333 47.5 180 47.5h93v17c0 12.667 -1.16699 23.667 -3.5 33s-7.16602 17.166 -14.499 23.499
s-17.833 11 -31.5 14s-31.834 4.5 -54.501 4.5c-27.333 0 -57 -4.33301 -89 -13s-60 -19.667 -84 -33l-14 106c28.667 14 60.334 25.167 95.001 33.5s69 12.5 103 12.5c44.667 0 80 -5.5 106 -16.5s46.333 -30.833 61 -59.5c20.667 28 45 47.667 73 59s61 17 99 17
c39.333 0 74.666 -6.83301 105.999 -20.5s57.833 -32.667 79.5 -57s38.167 -53.5 49.5 -87.5s17 -71.333 17 -112c0 -6.66699 -0.166992 -14 -0.5 -22s-1.16602 -15.667 -2.49902 -23h-354zM254.999 91c25.333 0 48.168 5.66699 68.501 17s34.166 28 41.499 50v72h-87
c-34.667 0 -59.5 -6 -74.5 -18s-22.5 -29.667 -22.5 -53s6.5 -40.5 19.5 -51.5s31.167 -16.5 54.5 -16.5zM716.001 310c-2.66699 36 -12.999 64.167 -30.999 84.5s-43 30.5 -75 30.5c-31.333 0 -55.833 -10.167 -73.5 -30.5s-27.834 -48.5 -30.501 -84.5h210z" />
    <glyph glyph-name="ccedilla" unicode="&#xe7;" horiz-adv-x="517" 
d="M205 -155c8.66699 -3.33301 17.998 -5.83203 27.998 -7.49902s20.667 -2.5 32 -2.5c15.333 0 26.666 2.16699 33.999 6.5s11 12.166 11 23.499c0 14 -7.33301 24.5 -22 31.5s-39.667 10.5 -75 10.5l45 87c-70.667 12 -125.5 40.833 -164.5 86.5
s-58.5 104.834 -58.5 177.501c0 42 6.83301 79.667 20.5 113s33.167 61.666 58.5 84.999s55.833 41.333 91.5 54s75.834 19 120.501 19c28 0 55.5 -2.5 82.5 -7.5s51.833 -12.833 74.5 -23.5l-11 -110c-17.333 11.333 -37.5 19.833 -60.5 25.5s-47.167 8.5 -72.5 8.5
c-45.333 0 -82.166 -14.333 -110.499 -43s-42.5 -69 -42.5 -121s14.167 -92.333 42.5 -121s67.5 -43 117.5 -43c26 0 50 2.83301 72 8.5s41.667 14.5 59 26.5l10 -110c-16.667 -8.66699 -35 -15.5 -55 -20.5s-40.667 -8.16699 -62 -9.5l-26 -47
c22.667 -4.66699 40.834 -14 54.501 -28s20.5 -31.333 20.5 -52c0 -32 -11.667 -56.667 -35 -74s-60 -26 -110 -26c-12 0 -24 0.5 -36 1.5s-23 2.83301 -33 5.5v76z" />
    <glyph glyph-name="egrave" unicode="&#xe8;" horiz-adv-x="569" 
d="M319 -12c-48.667 0 -90.834 6.83398 -126.501 20.501s-65.167 32.667 -88.5 57s-40.666 53 -51.999 86s-17 69.167 -17 108.5c0 40.667 5.83301 77.667 17.5 111s28.5 61.833 50.5 85.5s48.5 41.834 79.5 54.501s65.5 19 103.5 19c40.667 0 76.667 -6.83301 108 -20.5
s57.833 -32.667 79.5 -57s38 -53.333 49 -87s16.5 -70.834 16.5 -111.501c0 -5.33301 -0.166992 -12 -0.5 -20s-1.16602 -16.667 -2.49902 -26h-354c6.66699 -76.667 56.667 -115 150 -115c28 0 55 3.5 81 10.5s49.667 17.833 71 32.5l11 -112
c-23.333 -12.667 -50.333 -21.834 -81 -27.501s-62.334 -8.5 -95.001 -8.5zM286 425.001c-30.667 0 -55 -9.83301 -73 -29.5s-28.333 -48.167 -31 -85.5h210c-3.33301 37.333 -14 65.833 -32 85.5s-42.667 29.5 -74 29.5zM384 580.001h-120l-142 145v25h140z" />
    <glyph glyph-name="eacute" unicode="&#xe9;" horiz-adv-x="569" 
d="M319 -12c-48.667 0 -90.834 6.83398 -126.501 20.501s-65.167 32.667 -88.5 57s-40.666 53 -51.999 86s-17 69.167 -17 108.5c0 40.667 5.83301 77.667 17.5 111s28.5 61.833 50.5 85.5s48.5 41.834 79.5 54.501s65.5 19 103.5 19c40.667 0 76.667 -6.83301 108 -20.5
s57.833 -32.667 79.5 -57s38 -53.333 49 -87s16.5 -70.834 16.5 -111.501c0 -5.33301 -0.166992 -12 -0.5 -20s-1.16602 -16.667 -2.49902 -26h-354c6.66699 -76.667 56.667 -115 150 -115c28 0 55 3.5 81 10.5s49.667 17.833 71 32.5l11 -112
c-23.333 -12.667 -50.333 -21.834 -81 -27.501s-62.334 -8.5 -95.001 -8.5zM286 425.001c-30.667 0 -55 -9.83301 -73 -29.5s-28.333 -48.167 -31 -85.5h210c-3.33301 37.333 -14 65.833 -32 85.5s-42.667 29.5 -74 29.5zM301 750.001h140v-25l-142 -145h-120z" />
    <glyph glyph-name="ecircumflex" unicode="&#xea;" horiz-adv-x="569" 
d="M319 -12c-48.667 0 -90.834 6.83398 -126.501 20.501s-65.167 32.667 -88.5 57s-40.666 53 -51.999 86s-17 69.167 -17 108.5c0 40.667 5.83301 77.667 17.5 111s28.5 61.833 50.5 85.5s48.5 41.834 79.5 54.501s65.5 19 103.5 19c40.667 0 76.667 -6.83301 108 -20.5
s57.833 -32.667 79.5 -57s38 -53.333 49 -87s16.5 -70.834 16.5 -111.501c0 -5.33301 -0.166992 -12 -0.5 -20s-1.16602 -16.667 -2.49902 -26h-354c6.66699 -76.667 56.667 -115 150 -115c28 0 55 3.5 81 10.5s49.667 17.833 71 32.5l11 -112
c-23.333 -12.667 -50.333 -21.834 -81 -27.501s-62.334 -8.5 -95.001 -8.5zM286 425.001c-30.667 0 -55 -9.83301 -73 -29.5s-28.333 -48.167 -31 -85.5h210c-3.33301 37.333 -14 65.833 -32 85.5s-42.667 29.5 -74 29.5zM350 750.001l125 -170h-120l-70 81l-70 -81h-120
l125 170h130z" />
    <glyph glyph-name="edieresis" unicode="&#xeb;" horiz-adv-x="569" 
d="M319 -12c-48.667 0 -90.834 6.83398 -126.501 20.501s-65.167 32.667 -88.5 57s-40.666 53 -51.999 86s-17 69.167 -17 108.5c0 40.667 5.83301 77.667 17.5 111s28.5 61.833 50.5 85.5s48.5 41.834 79.5 54.501s65.5 19 103.5 19c40.667 0 76.667 -6.83301 108 -20.5
s57.833 -32.667 79.5 -57s38 -53.333 49 -87s16.5 -70.834 16.5 -111.501c0 -5.33301 -0.166992 -12 -0.5 -20s-1.16602 -16.667 -2.49902 -26h-354c6.66699 -76.667 56.667 -115 150 -115c28 0 55 3.5 81 10.5s49.667 17.833 71 32.5l11 -112
c-23.333 -12.667 -50.333 -21.834 -81 -27.501s-62.334 -8.5 -95.001 -8.5zM286 425.001c-30.667 0 -55 -9.83301 -73 -29.5s-28.333 -48.167 -31 -85.5h210c-3.33301 37.333 -14 65.833 -32 85.5s-42.667 29.5 -74 29.5zM109 665.001c0 45.333 22.667 68 68 68
s68 -22.667 68 -68s-22.667 -68 -68 -68s-68 22.667 -68 68zM319 665.001c0 45.333 22.667 68 68 68s68 -22.667 68 -68s-22.667 -68 -68 -68s-68 22.667 -68 68z" />
    <glyph glyph-name="igrave" unicode="&#xec;" horiz-adv-x="290" 
d="M71 518h149v-518h-149v518zM222 580h-120l-142 145v25h140z" />
    <glyph glyph-name="iacute" unicode="&#xed;" horiz-adv-x="290" 
d="M71 518h149v-518h-149v518zM192 750h140v-25l-142 -145h-120z" />
    <glyph glyph-name="icircumflex" unicode="&#xee;" horiz-adv-x="290" 
d="M71 518h149v-518h-149v518zM211 750l125 -170h-120l-70 81l-70 -81h-120l125 170h130z" />
    <glyph glyph-name="idieresis" unicode="&#xef;" horiz-adv-x="290" 
d="M71 518h149v-518h-149v518zM-27 665c0 45.333 22.667 68 68 68s68 -22.667 68 -68s-22.667 -68 -68 -68s-68 22.667 -68 68zM183 665c0 45.333 22.667 68 68 68s68 -22.667 68 -68s-22.667 -68 -68 -68s-68 22.667 -68 68z" />
    <glyph glyph-name="eth" unicode="&#xf0;" horiz-adv-x="582" 
d="M433 601c40 -42 69.001 -87.6631 87.001 -136.996s27 -98 27 -146c0 -50 -5.66699 -95.333 -17 -136s-28 -75.334 -50 -104.001s-49.333 -50.834 -82 -66.501s-70.334 -23.5 -113.001 -23.5c-36.667 0 -70.334 5.83301 -101.001 17.5s-57 28.5 -79 50.5
s-39.167 48.833 -51.5 80.5s-18.5 67.5 -18.5 107.5s5.5 75.667 16.5 107s26.5 57.666 46.5 78.999s43.833 37.5 71.5 48.5s58.167 16.5 91.5 16.5c16 0 34.833 -2.5 56.5 -7.5s40.834 -14.167 57.501 -27.5c-8 20.667 -17.833 39.167 -29.5 55.5
s-25.167 31.166 -40.5 44.499l-177 -57l-22 75l105 34c-11.333 3.33301 -23 6.33301 -35 9s-24 5 -36 7l11 112c42.667 -8 81.167 -18.833 115.5 -32.5s65.5 -29.5 93.5 -47.5l128 41l23 -75zM400.001 333.004c-13.333 17.333 -29.8311 31.166 -49.498 41.499
s-39.167 15.5 -58.5 15.5c-34.667 0 -61.334 -12.5 -80.001 -37.5s-28 -61.833 -28 -110.5c0 -47.333 9 -83.666 27 -108.999s42.333 -38 73 -38c16.667 0 32.167 3.66699 46.5 11s26.666 19.833 36.999 37.5s18.333 40.667 24 69s8.5 63.5 8.5 105.5v15z" />
    <glyph glyph-name="ntilde" unicode="&#xf1;" horiz-adv-x="619" 
d="M308 423c-19.333 0 -37.167 -3.66797 -53.5 -11.001s-29.833 -16.666 -40.5 -27.999v-384h-149v518h149v-34c16 13.333 35.333 24.333 58 33s48 13 76 13c66.667 0 118.5 -20.5 155.5 -61.5s55.5 -101.833 55.5 -182.5v-286h-149v284c0 49.333 -8.5 84.833 -25.5 106.5
s-42.5 32.5 -76.5 32.5zM483.999 735.999c0 -52 -9.83301 -89.332 -29.5 -111.999s-44.5 -34 -74.5 -34c-13.333 0 -26 2.5 -38 7.5s-23 10.333 -33 16s-18.833 11 -26.5 16s-13.834 7.5 -18.501 7.5c-6.66699 0 -11.5 -2.83301 -14.5 -8.5s-4.5 -17.834 -4.5 -36.501h-104
c0 52 9.66699 89.167 29 111.5s44 33.5 74 33.5c13.333 0 26 -2.5 38 -7.5s23 -10.333 33 -16s18.833 -11 26.5 -16s13.834 -7.5 18.501 -7.5c6.66699 0 11.667 2.83301 15 8.5s5 18.167 5 37.5h104z" />
    <glyph glyph-name="ograve" unicode="&#xf2;" horiz-adv-x="608" 
d="M304 -12c-41.333 0 -78.5 6.66699 -111.5 20s-61.167 32 -84.5 56s-41.333 52.667 -54 86s-19 69.666 -19 108.999s6.33301 75.5 19 108.5s30.667 61.5 54 85.5s51.5 42.833 84.5 56.5s70.167 20.5 111.5 20.5s78.5 -6.83301 111.5 -20.5s61.167 -32.5 84.5 -56.5
s41.333 -52.5 54 -85.5s19 -69.167 19 -108.5s-6.33301 -75.666 -19 -108.999s-30.667 -62 -54 -86s-51.5 -42.667 -84.5 -56s-70.167 -20 -111.5 -20zM304 95c36.667 0 65.5 14.167 86.5 42.5s31.5 68.833 31.5 121.5s-10.5 93.167 -31.5 121.5s-49.833 42.5 -86.5 42.5
s-65.5 -14.167 -86.5 -42.5s-31.5 -68.833 -31.5 -121.5s10.5 -93.167 31.5 -121.5s49.833 -42.5 86.5 -42.5zM402 580h-120l-142 145v25h140z" />
    <glyph glyph-name="oacute" unicode="&#xf3;" horiz-adv-x="608" 
d="M304 -12c-41.333 0 -78.5 6.66699 -111.5 20s-61.167 32 -84.5 56s-41.333 52.667 -54 86s-19 69.666 -19 108.999s6.33301 75.5 19 108.5s30.667 61.5 54 85.5s51.5 42.833 84.5 56.5s70.167 20.5 111.5 20.5s78.5 -6.83301 111.5 -20.5s61.167 -32.5 84.5 -56.5
s41.333 -52.5 54 -85.5s19 -69.167 19 -108.5s-6.33301 -75.666 -19 -108.999s-30.667 -62 -54 -86s-51.5 -42.667 -84.5 -56s-70.167 -20 -111.5 -20zM304 95c36.667 0 65.5 14.167 86.5 42.5s31.5 68.833 31.5 121.5s-10.5 93.167 -31.5 121.5s-49.833 42.5 -86.5 42.5
s-65.5 -14.167 -86.5 -42.5s-31.5 -68.833 -31.5 -121.5s10.5 -93.167 31.5 -121.5s49.833 -42.5 86.5 -42.5zM329 750h140v-25l-142 -145h-120z" />
    <glyph glyph-name="ocircumflex" unicode="&#xf4;" horiz-adv-x="608" 
d="M304 -12c-41.333 0 -78.5 6.66699 -111.5 20s-61.167 32 -84.5 56s-41.333 52.667 -54 86s-19 69.666 -19 108.999s6.33301 75.5 19 108.5s30.667 61.5 54 85.5s51.5 42.833 84.5 56.5s70.167 20.5 111.5 20.5s78.5 -6.83301 111.5 -20.5s61.167 -32.5 84.5 -56.5
s41.333 -52.5 54 -85.5s19 -69.167 19 -108.5s-6.33301 -75.666 -19 -108.999s-30.667 -62 -54 -86s-51.5 -42.667 -84.5 -56s-70.167 -20 -111.5 -20zM304 95c36.667 0 65.5 14.167 86.5 42.5s31.5 68.833 31.5 121.5s-10.5 93.167 -31.5 121.5s-49.833 42.5 -86.5 42.5
s-65.5 -14.167 -86.5 -42.5s-31.5 -68.833 -31.5 -121.5s10.5 -93.167 31.5 -121.5s49.833 -42.5 86.5 -42.5zM369 750l125 -170h-120l-70 81l-70 -81h-120l125 170h130z" />
    <glyph glyph-name="otilde" unicode="&#xf5;" horiz-adv-x="608" 
d="M304 -12c-41.333 0 -78.5 6.66699 -111.5 20s-61.167 32 -84.5 56s-41.333 52.667 -54 86s-19 69.666 -19 108.999s6.33301 75.5 19 108.5s30.667 61.5 54 85.5s51.5 42.833 84.5 56.5s70.167 20.5 111.5 20.5s78.5 -6.83301 111.5 -20.5s61.167 -32.5 84.5 -56.5
s41.333 -52.5 54 -85.5s19 -69.167 19 -108.5s-6.33301 -75.666 -19 -108.999s-30.667 -62 -54 -86s-51.5 -42.667 -84.5 -56s-70.167 -20 -111.5 -20zM304 95c36.667 0 65.5 14.167 86.5 42.5s31.5 68.833 31.5 121.5s-10.5 93.167 -31.5 121.5s-49.833 42.5 -86.5 42.5
s-65.5 -14.167 -86.5 -42.5s-31.5 -68.833 -31.5 -121.5s10.5 -93.167 31.5 -121.5s49.833 -42.5 86.5 -42.5zM475 736c0 -52 -9.83301 -89.332 -29.5 -111.999s-44.5 -34 -74.5 -34c-13.333 0 -26 2.5 -38 7.5s-23 10.333 -33 16s-18.833 11 -26.5 16
s-13.834 7.5 -18.501 7.5c-6.66699 0 -11.5 -2.83301 -14.5 -8.5s-4.5 -17.834 -4.5 -36.501h-104c0 52 9.66699 89.167 29 111.5s44 33.5 74 33.5c13.333 0 26 -2.5 38 -7.5s23 -10.333 33 -16s18.833 -11 26.5 -16s13.834 -7.5 18.501 -7.5
c6.66699 0 11.667 2.83301 15 8.5s5 18.167 5 37.5h104z" />
    <glyph glyph-name="odieresis" unicode="&#xf6;" horiz-adv-x="608" 
d="M304 -12c-41.333 0 -78.5 6.66699 -111.5 20s-61.167 32 -84.5 56s-41.333 52.667 -54 86s-19 69.666 -19 108.999s6.33301 75.5 19 108.5s30.667 61.5 54 85.5s51.5 42.833 84.5 56.5s70.167 20.5 111.5 20.5s78.5 -6.83301 111.5 -20.5s61.167 -32.5 84.5 -56.5
s41.333 -52.5 54 -85.5s19 -69.167 19 -108.5s-6.33301 -75.666 -19 -108.999s-30.667 -62 -54 -86s-51.5 -42.667 -84.5 -56s-70.167 -20 -111.5 -20zM304 95c36.667 0 65.5 14.167 86.5 42.5s31.5 68.833 31.5 121.5s-10.5 93.167 -31.5 121.5s-49.833 42.5 -86.5 42.5
s-65.5 -14.167 -86.5 -42.5s-31.5 -68.833 -31.5 -121.5s10.5 -93.167 31.5 -121.5s49.833 -42.5 86.5 -42.5zM131 665c0 45.333 22.667 68 68 68s68 -22.667 68 -68s-22.667 -68 -68 -68s-68 22.667 -68 68zM341 665c0 45.333 22.667 68 68 68s68 -22.667 68 -68
s-22.667 -68 -68 -68s-68 22.667 -68 68z" />
    <glyph glyph-name="divide" unicode="&#xf7;" horiz-adv-x="614" 
d="M55 276v111h504v-111h-504zM307 458c-53.333 0 -80 27 -80 81s26.667 81 80 81s80 -27 80 -81s-26.667 -81 -80 -81zM307 43c-53.333 0 -80 27 -80 81s26.667 81 80 81s80 -27 80 -81s-26.667 -81 -80 -81z" />
    <glyph glyph-name="oslash" unicode="&#xf8;" horiz-adv-x="608" 
d="M135 40c-32 24 -56.668 54.666 -74.001 91.999s-26 79.666 -26 126.999c0 39.333 6.33301 75.5 19 108.5s30.667 61.5 54 85.5s51.5 42.833 84.5 56.5s70.167 20.5 111.5 20.5c19.333 0 37.5 -1.66699 54.5 -5s33.167 -7.66602 48.5 -12.999l67 116h90l-88 -153
c31.333 -24 55.333 -54.5 72 -91.5s25 -78.5 25 -124.5c0 -39.333 -6.33301 -75.666 -19 -108.999s-30.667 -62 -54 -86s-51.5 -42.667 -84.5 -56s-70.167 -20 -111.5 -20c-18.667 0 -36.167 1.33301 -52.5 4s-32.166 6.66699 -47.499 12l-66 -114h-90zM185.999 258.999
c0 -40 5.99902 -73 17.999 -99l146 253c-15.333 6.66699 -30.666 10 -45.999 10c-36.667 0 -65.5 -14.167 -86.5 -42.5s-31.5 -68.833 -31.5 -121.5zM303.998 94.999c36.667 0 65.501 14.167 86.501 42.5s31.5 68.833 31.5 121.5c0 36.667 -5.66699 68 -17 94l-144 -250
c11.333 -5.33301 25.666 -8 42.999 -8z" />
    <glyph glyph-name="ugrave" unicode="&#xf9;" horiz-adv-x="619" 
d="M311 95c19.333 0 37.167 3.66797 53.5 11.001s29.833 16.666 40.5 27.999v384h149v-518h-149v34c-16 -13.333 -35.333 -24.333 -58 -33s-48 -13 -76 -13c-66.667 0 -118.5 20.5 -155.5 61.5s-55.5 101.833 -55.5 182.5v286h149v-284c0 -49.333 8.5 -84.833 25.5 -106.5
s42.5 -32.5 76.5 -32.5zM390.001 580.001h-120l-142 145v25h140z" />
    <glyph glyph-name="uacute" unicode="&#xfa;" horiz-adv-x="619" 
d="M311 95c19.333 0 37.167 3.66797 53.5 11.001s29.833 16.666 40.5 27.999v384h149v-518h-149v34c-16 -13.333 -35.333 -24.333 -58 -33s-48 -13 -76 -13c-66.667 0 -118.5 20.5 -155.5 61.5s-55.5 101.833 -55.5 182.5v286h149v-284c0 -49.333 8.5 -84.833 25.5 -106.5
s42.5 -32.5 76.5 -32.5zM341.001 750.001h140v-25l-142 -145h-120z" />
    <glyph glyph-name="ucircumflex" unicode="&#xfb;" horiz-adv-x="619" 
d="M311 95c19.333 0 37.167 3.66797 53.5 11.001s29.833 16.666 40.5 27.999v384h149v-518h-149v34c-16 -13.333 -35.333 -24.333 -58 -33s-48 -13 -76 -13c-66.667 0 -118.5 20.5 -155.5 61.5s-55.5 101.833 -55.5 182.5v286h149v-284c0 -49.333 8.5 -84.833 25.5 -106.5
s42.5 -32.5 76.5 -32.5zM372.001 750.001l125 -170h-120l-70 81l-70 -81h-120l125 170h130z" />
    <glyph glyph-name="udieresis" unicode="&#xfc;" horiz-adv-x="619" 
d="M311 95c19.333 0 37.167 3.66797 53.5 11.001s29.833 16.666 40.5 27.999v384h149v-518h-149v34c-16 -13.333 -35.333 -24.333 -58 -33s-48 -13 -76 -13c-66.667 0 -118.5 20.5 -155.5 61.5s-55.5 101.833 -55.5 182.5v286h149v-284c0 -49.333 8.5 -84.833 25.5 -106.5
s42.5 -32.5 76.5 -32.5zM134.001 665.001c0 45.333 22.667 68 68 68s68 -22.667 68 -68s-22.667 -68 -68 -68s-68 22.667 -68 68zM344.001 665.001c0 45.333 22.667 68 68 68s68 -22.667 68 -68s-22.667 -68 -68 -68s-68 22.667 -68 68z" />
    <glyph glyph-name="yacute" unicode="&#xfd;" horiz-adv-x="581" 
d="M220 1l-208 517h156l123 -344l122 344h156l-265 -711h-156zM329 750h140v-25l-142 -145h-120z" />
    <glyph glyph-name="thorn" unicode="&#xfe;" horiz-adv-x="610" 
d="M575 259c0 -42 -5.83301 -79.6689 -17.5 -113.002s-27.834 -61.666 -48.501 -84.999s-45.167 -41.333 -73.5 -54s-58.833 -19 -91.5 -19c-23.333 0 -46.5 3.33301 -69.5 10s-43.167 17 -60.5 31v-222h-149v923h149v-241c17.333 14 37.5 24.333 60.5 31s46.167 10 69.5 10
c32.667 0 63.167 -6.33301 91.5 -19s52.833 -30.667 73.5 -54s36.834 -51.666 48.501 -84.999s17.5 -71 17.5 -113zM424 258.998c0 56.667 -10.833 98.165 -32.5 124.498s-49.834 39.5 -84.501 39.5c-18.667 0 -36.167 -3.66699 -52.5 -11s-29.833 -16.666 -40.5 -27.999
v-250c10.667 -11.333 24.167 -20.666 40.5 -27.999s33.833 -11 52.5 -11c34.667 0 62.834 13.167 84.501 39.5s32.5 67.833 32.5 124.5z" />
    <glyph glyph-name="ydieresis" unicode="&#xff;" horiz-adv-x="581" 
d="M220 1l-208 517h156l123 -344l122 344h156l-265 -711h-156zM112 665c0 45.333 22.667 68 68 68s68 -22.667 68 -68s-22.667 -68 -68 -68s-68 22.667 -68 68zM322 665c0 45.333 22.667 68 68 68s68 -22.667 68 -68s-22.667 -68 -68 -68s-68 22.667 -68 68z" />
    <glyph glyph-name="Amacron" unicode="&#x100;" horiz-adv-x="690" 
d="M471 156h-252l-49 -156h-166l244 700h194l244 -700h-166zM257 278h176l-88 283zM189 888h312v-99h-312v99z" />
    <glyph glyph-name="amacron" unicode="&#x101;" horiz-adv-x="574" 
d="M222 -12c-26.667 0 -51.668 3.66504 -75.001 10.998s-43.666 18 -60.999 32s-31 31.333 -41 52s-15 44.334 -15 71.001c0 54 20.333 97.167 61 129.5s100 48.5 178 48.5h96v24c0 25.333 -7.5 43 -22.5 53s-40.5 15 -76.5 15c-32 0 -63.333 -4.16699 -94 -12.5
s-58.667 -19.5 -84 -33.5l-14 106c26 13.333 57.5 24.333 94.5 33s74.5 13 112.5 13c80.667 0 139.667 -15.167 177 -45.5s56 -81.166 56 -152.499v-332h-149v34c-22 -16.667 -43.5 -28.5 -64.5 -35.5s-47.167 -10.5 -78.5 -10.5zM257.999 90.998
c20.667 0 40.667 3.50098 60 10.501s35 17.833 47 32.5v96h-91c-34 0 -58 -6.5 -72 -19.5s-21 -30.833 -21 -53.5s6.83301 -39.334 20.5 -50.001s32.5 -16 56.5 -16zM125.999 713.999h312v-99h-312v99z" />
    <glyph glyph-name="Abreve" unicode="&#x102;" horiz-adv-x="690" 
d="M471 156h-252l-49 -156h-166l244 700h194l244 -700h-166zM257 278h176l-88 283zM345 757c-25.333 0 -48.5 3.33301 -69.5 10s-39.333 16.834 -55 30.501s-28 30.834 -37 51.501s-13.833 44.667 -14.5 72h112c1.33301 -24.667 7.5 -43 18.5 -55s26.167 -18 45.5 -18
s34.5 6 45.5 18s17.167 30.333 18.5 55h112c-0.666992 -27.333 -5.5 -51.333 -14.5 -72s-21.333 -37.834 -37 -51.501s-34.167 -23.834 -55.5 -30.501s-44.333 -10 -69 -10z" />
    <glyph glyph-name="abreve" unicode="&#x103;" horiz-adv-x="574" 
d="M222 -12c-26.667 0 -51.668 3.66504 -75.001 10.998s-43.666 18 -60.999 32s-31 31.333 -41 52s-15 44.334 -15 71.001c0 54 20.333 97.167 61 129.5s100 48.5 178 48.5h96v24c0 25.333 -7.5 43 -22.5 53s-40.5 15 -76.5 15c-32 0 -63.333 -4.16699 -94 -12.5
s-58.667 -19.5 -84 -33.5l-14 106c26 13.333 57.5 24.333 94.5 33s74.5 13 112.5 13c80.667 0 139.667 -15.167 177 -45.5s56 -81.166 56 -152.499v-332h-149v34c-22 -16.667 -43.5 -28.5 -64.5 -35.5s-47.167 -10.5 -78.5 -10.5zM257.999 90.998
c20.667 0 40.667 3.50098 60 10.501s35 17.833 47 32.5v96h-91c-34 0 -58 -6.5 -72 -19.5s-21 -30.833 -21 -53.5s6.83301 -39.334 20.5 -50.001s32.5 -16 56.5 -16zM287.999 582.999c-25.333 0 -48.5 3.33301 -69.5 10s-39.333 16.834 -55 30.501s-28 30.834 -37 51.501
s-13.833 44.667 -14.5 72h112c1.33301 -24.667 7.5 -43 18.5 -55s26.167 -18 45.5 -18s34.5 6 45.5 18s17.167 30.333 18.5 55h112c-0.666992 -27.333 -5.5 -51.333 -14.5 -72s-21.333 -37.834 -37 -51.501s-34.167 -23.834 -55.5 -30.501s-44.333 -10 -69 -10z" />
    <glyph glyph-name="Aogonek" unicode="&#x104;" horiz-adv-x="690" 
d="M471 156l-252.001 0.00292969l-49 -156h-166l244 700h194l244 -700c-23.333 -20.667 -39.833 -38.834 -49.5 -54.501s-14.5 -30.834 -14.5 -45.501c0 -19.333 11.667 -29 35 -29c6.66699 0 13.834 0.666992 21.501 2s14.834 3.66602 21.501 6.99902v-92
c-9.33301 -2.66699 -20.333 -4.5 -33 -5.5s-25.667 -1.5 -39 -1.5c-40.667 0 -71.5 8.83301 -92.5 26.5s-31.5 41.5 -31.5 71.5c0 24 6.16699 46.667 18.5 68s27.166 39 44.499 53h-47zM256.999 278.003h176l-88 283z" />
    <glyph glyph-name="aogonek" unicode="&#x105;" horiz-adv-x="574" 
d="M365 0l-0.00195312 34.001c-22 -16.667 -43.5 -28.5 -64.5 -35.5s-47.167 -10.5 -78.5 -10.5c-26.667 0 -51.667 3.66699 -75 11s-43.666 18 -60.999 32s-31 31.333 -41 52s-15 44.334 -15 71.001c0 54 20.333 97.167 61 129.5s100 48.5 178 48.5h96v24
c0 25.333 -7.5 43 -22.5 53s-40.5 15 -76.5 15c-32 0 -63.333 -4.16699 -94 -12.5s-58.667 -19.5 -84 -33.5l-14 106c26 13.333 57.5 24.333 94.5 33s74.5 13 112.5 13c80.667 0 139.667 -15.167 177 -45.5s56 -81.166 56 -152.499v-332h3
c-23.333 -20.667 -39.833 -38.834 -49.5 -54.501s-14.5 -30.834 -14.5 -45.501c0 -19.333 11.667 -29 35 -29c6.66699 0 13.834 0.666992 21.501 2s14.834 3.66602 21.501 6.99902v-92c-9.33301 -2.66699 -20.333 -4.5 -33 -5.5s-25.667 -1.5 -39 -1.5
c-40.667 0 -71.5 8.83301 -92.5 26.5s-31.5 41.5 -31.5 71.5c0 24 6.16699 46.667 18.5 68s27.166 39 44.499 53h-33zM257.998 91.001c20.667 0 40.667 3.50098 60 10.501s35 17.833 47 32.5v96h-91c-34 0 -58 -6.5 -72 -19.5s-21 -30.833 -21 -53.5
s6.83301 -39.334 20.5 -50.001s32.5 -16 56.5 -16z" />
    <glyph glyph-name="Cacute" unicode="&#x106;" horiz-adv-x="636" 
d="M40 350c0 53.333 8.66895 102.163 26.002 146.496s42 82.5 74 114.5s70.833 56.833 116.5 74.5s96.834 26.5 153.501 26.5c32.667 0 65.5 -3 98.5 -9s62.167 -15 87.5 -27l-11 -130c-21.333 14.667 -45.666 25.334 -72.999 32.001s-55.333 10 -84 10
c-36.667 0 -69.334 -5.66699 -98.001 -17s-52.667 -27.5 -72 -48.5s-34.166 -46.167 -44.499 -75.5s-15.5 -61.666 -15.5 -96.999c0 -75.333 20.667 -134 62 -176s98.333 -63 171 -63c29.333 0 57.166 3.66699 83.499 11s51.166 19 74.499 35l12 -133
c-28.667 -13.333 -59.334 -22.833 -92.001 -28.5s-64.334 -8.5 -95.001 -8.5c-57.333 0 -109 8.66699 -155 26s-85.333 41.833 -118 73.5s-57.667 69.834 -75 114.501s-26 94.334 -26 149.001zM418.002 923.997h140v-25l-142 -145h-120z" />
    <glyph glyph-name="cacute" unicode="&#x107;" horiz-adv-x="517" 
d="M186 259c0 -52 14.168 -92.332 42.501 -120.999s67.5 -43 117.5 -43c26 0 50 2.83301 72 8.5s41.667 14.5 59 26.5l10 -110c-21.333 -11.333 -45.333 -19.5 -72 -24.5s-54 -7.5 -82 -7.5c-46.667 0 -88.334 6.16699 -125.001 18.5s-67.834 30.333 -93.501 54
s-45.334 52.167 -59.001 85.5s-20.5 71 -20.5 113s6.83301 79.667 20.5 113s33.167 61.666 58.5 84.999s55.833 41.333 91.5 54s75.834 19 120.501 19c28 0 55.5 -2.5 82.5 -7.5s51.833 -12.833 74.5 -23.5l-11 -110c-17.333 11.333 -37.5 19.833 -60.5 25.5
s-47.167 8.5 -72.5 8.5c-45.333 0 -82.166 -14.333 -110.499 -43s-42.5 -69 -42.5 -121zM322.001 750.001h140v-25l-142 -145h-120z" />
    <glyph glyph-name="Ccircumflex" unicode="&#x108;" horiz-adv-x="636" 
d="M40 350c0 53.333 8.66895 102.163 26.002 146.496s42 82.5 74 114.5s70.833 56.833 116.5 74.5s96.834 26.5 153.501 26.5c32.667 0 65.5 -3 98.5 -9s62.167 -15 87.5 -27l-11 -130c-21.333 14.667 -45.666 25.334 -72.999 32.001s-55.333 10 -84 10
c-36.667 0 -69.334 -5.66699 -98.001 -17s-52.667 -27.5 -72 -48.5s-34.166 -46.167 -44.499 -75.5s-15.5 -61.666 -15.5 -96.999c0 -75.333 20.667 -134 62 -176s98.333 -63 171 -63c29.333 0 57.166 3.66699 83.499 11s51.166 19 74.499 35l12 -133
c-28.667 -13.333 -59.334 -22.833 -92.001 -28.5s-64.334 -8.5 -95.001 -8.5c-57.333 0 -109 8.66699 -155 26s-85.333 41.833 -118 73.5s-57.667 69.834 -75 114.501s-26 94.334 -26 149.001zM453.002 923.997l125 -170h-120l-70 81l-70 -81h-120l125 170h130z" />
    <glyph glyph-name="ccircumflex" unicode="&#x109;" horiz-adv-x="519" 
d="M186 259c0 -52 14.168 -92.332 42.501 -120.999s67.5 -43 117.5 -43c26 0 50 2.83301 72 8.5s41.667 14.5 59 26.5l10 -110c-21.333 -11.333 -45.333 -19.5 -72 -24.5s-54 -7.5 -82 -7.5c-46.667 0 -88.334 6.16699 -125.001 18.5s-67.834 30.333 -93.501 54
s-45.334 52.167 -59.001 85.5s-20.5 71 -20.5 113s6.83301 79.667 20.5 113s33.167 61.666 58.5 84.999s55.833 41.333 91.5 54s75.834 19 120.501 19c28 0 55.5 -2.5 82.5 -7.5s51.833 -12.833 74.5 -23.5l-11 -110c-17.333 11.333 -37.5 19.833 -60.5 25.5
s-47.167 8.5 -72.5 8.5c-45.333 0 -82.166 -14.333 -110.499 -43s-42.5 -69 -42.5 -121zM364.001 750.001l125 -170h-120l-70 81l-70 -81h-120l125 170h130z" />
    <glyph glyph-name="Cdotaccent" unicode="&#x10a;" horiz-adv-x="636" 
d="M40 350c0 53.333 8.66895 102.163 26.002 146.496s42 82.5 74 114.5s70.833 56.833 116.5 74.5s96.834 26.5 153.501 26.5c32.667 0 65.5 -3 98.5 -9s62.167 -15 87.5 -27l-11 -130c-21.333 14.667 -45.666 25.334 -72.999 32.001s-55.333 10 -84 10
c-36.667 0 -69.334 -5.66699 -98.001 -17s-52.667 -27.5 -72 -48.5s-34.166 -46.167 -44.499 -75.5s-15.5 -61.666 -15.5 -96.999c0 -75.333 20.667 -134 62 -176s98.333 -63 171 -63c29.333 0 57.166 3.66699 83.499 11s51.166 19 74.499 35l12 -133
c-28.667 -13.333 -59.334 -22.833 -92.001 -28.5s-64.334 -8.5 -95.001 -8.5c-57.333 0 -109 8.66699 -155 26s-85.333 41.833 -118 73.5s-57.667 69.834 -75 114.501s-26 94.334 -26 149.001zM454.002 837.997c0 -22.667 -5.66699 -40.167 -17 -52.5s-29 -18.5 -53 -18.5
s-41.667 6.16699 -53 18.5s-17 29.833 -17 52.5s5.66699 40.167 17 52.5s29 18.5 53 18.5s41.667 -6.16699 53 -18.5s17 -29.833 17 -52.5z" />
    <glyph glyph-name="cdotaccent" unicode="&#x10b;" horiz-adv-x="517" 
d="M186 259c0 -52 14.168 -92.332 42.501 -120.999s67.5 -43 117.5 -43c26 0 50 2.83301 72 8.5s41.667 14.5 59 26.5l10 -110c-21.333 -11.333 -45.333 -19.5 -72 -24.5s-54 -7.5 -82 -7.5c-46.667 0 -88.334 6.16699 -125.001 18.5s-67.834 30.333 -93.501 54
s-45.334 52.167 -59.001 85.5s-20.5 71 -20.5 113s6.83301 79.667 20.5 113s33.167 61.666 58.5 84.999s55.833 41.333 91.5 54s75.834 19 120.501 19c28 0 55.5 -2.5 82.5 -7.5s51.833 -12.833 74.5 -23.5l-11 -110c-17.333 11.333 -37.5 19.833 -60.5 25.5
s-47.167 8.5 -72.5 8.5c-45.333 0 -82.166 -14.333 -110.499 -43s-42.5 -69 -42.5 -121zM372.001 664.001c0 -22.667 -5.66699 -40.167 -17 -52.5s-29 -18.5 -53 -18.5s-41.667 6.16699 -53 18.5s-17 29.833 -17 52.5s5.66699 40.167 17 52.5s29 18.5 53 18.5
s41.667 -6.16699 53 -18.5s17 -29.833 17 -52.5z" />
    <glyph glyph-name="Ccaron" unicode="&#x10c;" horiz-adv-x="636" 
d="M40 350c0 53.333 8.66895 102.163 26.002 146.496s42 82.5 74 114.5s70.833 56.833 116.5 74.5s96.834 26.5 153.501 26.5c32.667 0 65.5 -3 98.5 -9s62.167 -15 87.5 -27l-11 -130c-21.333 14.667 -45.666 25.334 -72.999 32.001s-55.333 10 -84 10
c-36.667 0 -69.334 -5.66699 -98.001 -17s-52.667 -27.5 -72 -48.5s-34.166 -46.167 -44.499 -75.5s-15.5 -61.666 -15.5 -96.999c0 -75.333 20.667 -134 62 -176s98.333 -63 171 -63c29.333 0 57.166 3.66699 83.499 11s51.166 19 74.499 35l12 -133
c-28.667 -13.333 -59.334 -22.833 -92.001 -28.5s-64.334 -8.5 -95.001 -8.5c-57.333 0 -109 8.66699 -155 26s-85.333 41.833 -118 73.5s-57.667 69.834 -75 114.501s-26 94.334 -26 149.001zM323.002 753.997l-125 170h120l70 -81l70 81h120l-125 -170h-130z" />
    <glyph glyph-name="ccaron" unicode="&#x10d;" horiz-adv-x="517" 
d="M186 259c0 -52 14.168 -92.332 42.501 -120.999s67.5 -43 117.5 -43c26 0 50 2.83301 72 8.5s41.667 14.5 59 26.5l10 -110c-21.333 -11.333 -45.333 -19.5 -72 -24.5s-54 -7.5 -82 -7.5c-46.667 0 -88.334 6.16699 -125.001 18.5s-67.834 30.333 -93.501 54
s-45.334 52.167 -59.001 85.5s-20.5 71 -20.5 113s6.83301 79.667 20.5 113s33.167 61.666 58.5 84.999s55.833 41.333 91.5 54s75.834 19 120.501 19c28 0 55.5 -2.5 82.5 -7.5s51.833 -12.833 74.5 -23.5l-11 -110c-17.333 11.333 -37.5 19.833 -60.5 25.5
s-47.167 8.5 -72.5 8.5c-45.333 0 -82.166 -14.333 -110.499 -43s-42.5 -69 -42.5 -121zM234.001 580.001l-125 170h120l70 -81l70 81h120l-125 -170h-130z" />
    <glyph glyph-name="Dcaron" unicode="&#x10e;" horiz-adv-x="709" 
d="M511 349c0 41.333 -5.16699 76.501 -15.5 105.501s-25.333 52.667 -45 71s-44 31.666 -73 39.999s-62.167 12.5 -99.5 12.5h-47v-456h47c37.333 0 70.5 4.16699 99.5 12.5s53.333 21.5 73 39.5s34.667 41.333 45 70s15.5 63.667 15.5 105zM669 350.001
c0 -58 -9.5 -109 -28.5 -153s-45.333 -80.5 -79 -109.5s-73.667 -50.833 -120 -65.5s-97.166 -22 -152.499 -22h-214v700h214c55.333 0 106.166 -7.33301 152.499 -22s86.333 -36.667 120 -66s60 -65.833 79 -109.5s28.5 -94.5 28.5 -152.5zM222 754.001l-125 170h120
l70 -81l70 81h120l-125 -170h-130z" />
    <glyph glyph-name="dcaron" unicode="&#x10f;" horiz-adv-x="774" 
d="M396 34c-15.333 -13.333 -34.166 -24.332 -56.499 -32.999s-46.833 -13 -73.5 -13c-33.333 0 -64 6.33301 -92 19s-52.333 30.667 -73 54s-36.834 51.833 -48.501 85.5s-17.5 71.167 -17.5 112.5c0 42 5.83301 79.667 17.5 113s27.834 61.666 48.501 84.999
s45 41.333 73 54s58.667 19 92 19c26.667 0 51.167 -4.16699 73.5 -12.5s41.166 -19.5 56.499 -33.5v246h149v-730h-149v34zM396 385.001c-10.667 11.333 -24.167 20.5 -40.5 27.5s-33.833 10.5 -52.5 10.5c-34.667 0 -62.834 -13.167 -84.501 -39.5
s-32.5 -67.833 -32.5 -124.5s10.833 -98.167 32.5 -124.5s49.834 -39.5 84.501 -39.5c18.667 0 36.167 3.5 52.5 10.5s29.833 16.5 40.5 28.5v251zM754 662.001c0 -52 -11 -96.499 -33 -133.499s-53.333 -66.167 -94 -87.5l-35 53c15.333 12 28 25.667 38 41
s16.667 31.666 20 48.999c-37.333 6.66699 -56 32.667 -56 78c0 54 26.667 81 80 81s80 -27 80 -81z" />
    <glyph glyph-name="Dcroat" unicode="&#x110;" horiz-adv-x="716" 
d="M13 391h69v309h214c55.333 0 106.166 -7.33301 152.499 -22s86.333 -36.667 120 -66s60 -65.833 79 -109.5s28.5 -94.5 28.5 -152.5s-9.5 -109 -28.5 -153s-45.333 -80.5 -79 -109.5s-73.667 -50.833 -120 -65.5s-97.166 -22 -152.499 -22h-214v310h-69v81zM518 349
c0 41.333 -5.16699 76.501 -15.5 105.501s-25.333 52.667 -45 71s-44 31.666 -73 39.999s-62.167 12.5 -99.5 12.5h-47v-187h132v-81h-132v-188h47c37.333 0 70.5 4.16699 99.5 12.5s53.333 21.5 73 39.5s34.667 41.333 45 70s15.5 63.667 15.5 105z" />
    <glyph glyph-name="dcroat" unicode="&#x111;" horiz-adv-x="617" 
d="M224 667l172 0.00195312v63h149v-63h69v-81h-69v-586h-149v29c-17.333 -14 -37.5 -24.333 -60.5 -31s-46.167 -10 -69.5 -10c-33.333 0 -64 6.33301 -92 19s-52.333 30.667 -73 54s-36.834 51.666 -48.501 84.999s-17.5 71 -17.5 113s5.83301 79.667 17.5 113
s27.834 61.666 48.501 84.999s45 41.333 73 54s58.667 19 92 19c23.333 0 46.5 -3.33301 69.5 -10s43.167 -17 60.5 -31v97h-172v81zM186 259.002c0 -56.667 10.833 -98.165 32.5 -124.498s49.834 -39.5 84.501 -39.5c18.667 0 36.167 3.66699 52.5 11
s29.833 16.666 40.5 27.999v250c-10.667 11.333 -24.167 20.666 -40.5 27.999s-33.833 11 -52.5 11c-34.667 0 -62.834 -13.167 -84.501 -39.5s-32.5 -67.833 -32.5 -124.5z" />
    <glyph glyph-name="Emacron" unicode="&#x112;" horiz-adv-x="599" 
d="M75 700h475v-122h-319v-158h296v-122h-296v-176h328v-122h-484v700zM155 888h312v-99h-312v99z" />
    <glyph glyph-name="emacron" unicode="&#x113;" horiz-adv-x="569" 
d="M319 -12c-48.667 0 -90.834 6.83398 -126.501 20.501s-65.167 32.667 -88.5 57s-40.666 53 -51.999 86s-17 69.167 -17 108.5c0 40.667 5.83301 77.667 17.5 111s28.5 61.833 50.5 85.5s48.5 41.834 79.5 54.501s65.5 19 103.5 19c40.667 0 76.667 -6.83301 108 -20.5
s57.833 -32.667 79.5 -57s38 -53.333 49 -87s16.5 -70.834 16.5 -111.501c0 -5.33301 -0.166992 -12 -0.5 -20s-1.16602 -16.667 -2.49902 -26h-354c6.66699 -76.667 56.667 -115 150 -115c28 0 55 3.5 81 10.5s49.667 17.833 71 32.5l11 -112
c-23.333 -12.667 -50.333 -21.834 -81 -27.501s-62.334 -8.5 -95.001 -8.5zM286 425.001c-30.667 0 -55 -9.83301 -73 -29.5s-28.333 -48.167 -31 -85.5h210c-3.33301 37.333 -14 65.833 -32 85.5s-42.667 29.5 -74 29.5zM127 714.001h312v-99h-312v99z" />
    <glyph glyph-name="Ebreve" unicode="&#x114;" horiz-adv-x="599" 
d="M75 700h475v-122h-319v-158h296v-122h-296v-176h328v-122h-484v700zM310 757c-25.333 0 -48.5 3.33301 -69.5 10s-39.333 16.834 -55 30.501s-28 30.834 -37 51.501s-13.833 44.667 -14.5 72h112c1.33301 -24.667 7.5 -43 18.5 -55s26.167 -18 45.5 -18s34.5 6 45.5 18
s17.167 30.333 18.5 55h112c-0.666992 -27.333 -5.5 -51.333 -14.5 -72s-21.333 -37.834 -37 -51.501s-34.167 -23.834 -55.5 -30.501s-44.333 -10 -69 -10z" />
    <glyph glyph-name="ebreve" unicode="&#x115;" horiz-adv-x="569" 
d="M319 -12c-48.667 0 -90.834 6.83398 -126.501 20.501s-65.167 32.667 -88.5 57s-40.666 53 -51.999 86s-17 69.167 -17 108.5c0 40.667 5.83301 77.667 17.5 111s28.5 61.833 50.5 85.5s48.5 41.834 79.5 54.501s65.5 19 103.5 19c40.667 0 76.667 -6.83301 108 -20.5
s57.833 -32.667 79.5 -57s38 -53.333 49 -87s16.5 -70.834 16.5 -111.501c0 -5.33301 -0.166992 -12 -0.5 -20s-1.16602 -16.667 -2.49902 -26h-354c6.66699 -76.667 56.667 -115 150 -115c28 0 55 3.5 81 10.5s49.667 17.833 71 32.5l11 -112
c-23.333 -12.667 -50.333 -21.834 -81 -27.501s-62.334 -8.5 -95.001 -8.5zM286 425.001c-30.667 0 -55 -9.83301 -73 -29.5s-28.333 -48.167 -31 -85.5h210c-3.33301 37.333 -14 65.833 -32 85.5s-42.667 29.5 -74 29.5zM284 583.001c-25.333 0 -48.5 3.33301 -69.5 10
s-39.333 16.834 -55 30.501s-28 30.834 -37 51.501s-13.833 44.667 -14.5 72h112c1.33301 -24.667 7.5 -43 18.5 -55s26.167 -18 45.5 -18s34.5 6 45.5 18s17.167 30.333 18.5 55h112c-0.666992 -27.333 -5.5 -51.333 -14.5 -72s-21.333 -37.834 -37 -51.501
s-34.167 -23.834 -55.5 -30.501s-44.333 -10 -69 -10z" />
    <glyph glyph-name="Edotaccent" unicode="&#x116;" horiz-adv-x="599" 
d="M75 700h475v-122h-319v-158h296v-122h-296v-176h328v-122h-484v700zM381 838c0 -22.667 -5.66699 -40.167 -17 -52.5s-29 -18.5 -53 -18.5s-41.667 6.16699 -53 18.5s-17 29.833 -17 52.5s5.66699 40.167 17 52.5s29 18.5 53 18.5s41.667 -6.16699 53 -18.5
s17 -29.833 17 -52.5z" />
    <glyph glyph-name="edotaccent" unicode="&#x117;" horiz-adv-x="569" 
d="M319 -12c-48.667 0 -90.834 6.83398 -126.501 20.501s-65.167 32.667 -88.5 57s-40.666 53 -51.999 86s-17 69.167 -17 108.5c0 40.667 5.83301 77.667 17.5 111s28.5 61.833 50.5 85.5s48.5 41.834 79.5 54.501s65.5 19 103.5 19c40.667 0 76.667 -6.83301 108 -20.5
s57.833 -32.667 79.5 -57s38 -53.333 49 -87s16.5 -70.834 16.5 -111.501c0 -5.33301 -0.166992 -12 -0.5 -20s-1.16602 -16.667 -2.49902 -26h-354c6.66699 -76.667 56.667 -115 150 -115c28 0 55 3.5 81 10.5s49.667 17.833 71 32.5l11 -112
c-23.333 -12.667 -50.333 -21.834 -81 -27.501s-62.334 -8.5 -95.001 -8.5zM286 425.001c-30.667 0 -55 -9.83301 -73 -29.5s-28.333 -48.167 -31 -85.5h210c-3.33301 37.333 -14 65.833 -32 85.5s-42.667 29.5 -74 29.5zM351 664.001c0 -22.667 -5.66699 -40.167 -17 -52.5
s-29 -18.5 -53 -18.5s-41.667 6.16699 -53 18.5s-17 29.833 -17 52.5s5.66699 40.167 17 52.5s29 18.5 53 18.5s41.667 -6.16699 53 -18.5s17 -29.833 17 -52.5z" />
    <glyph glyph-name="Eogonek" unicode="&#x118;" horiz-adv-x="599" 
d="M75 700l474.999 0.00292969v-122h-319v-158h296v-122h-296v-176h328v-122h-45c-23.333 -20.667 -39.833 -38.834 -49.5 -54.501s-14.5 -30.834 -14.5 -45.501c0 -19.333 11.667 -29 35 -29c6.66699 0 13.834 0.666992 21.501 2s14.834 3.66602 21.501 6.99902v-92
c-9.33301 -2.66699 -20.333 -4.5 -33 -5.5s-25.667 -1.5 -39 -1.5c-40.667 0 -71.5 8.83301 -92.5 26.5s-31.5 41.5 -31.5 71.5c0 24 6.16699 46.667 18.5 68s27.166 39 44.499 53h-320v700z" />
    <glyph glyph-name="eogonek" unicode="&#x119;" horiz-adv-x="569" 
d="M495 24c-11.333 -6 -23.1699 -11 -35.5029 -15s-25.5 -7.66699 -39.5 -11c-22 -20 -37.667 -37.667 -47 -53s-14 -30.333 -14 -45c0 -19.333 11.667 -29 35 -29c6.66699 0 13.834 0.666992 21.501 2s14.834 3.66602 21.501 6.99902v-92
c-9.33301 -2.66699 -20.333 -4.5 -33 -5.5s-25.667 -1.5 -39 -1.5c-40.667 0 -71.5 8.83301 -92.5 26.5s-31.5 41.5 -31.5 71.5c0 21.333 4.83301 41.5 14.5 60.5s21.5 35.5 35.5 49.5c-44 2.66699 -82 11.334 -114 26.001s-58.5 34 -79.5 58s-36.667 51.833 -47 83.5
s-15.5 66.167 -15.5 103.5c0 40.667 5.83301 77.667 17.5 111s28.5 61.833 50.5 85.5s48.5 41.834 79.5 54.501s65.5 19 103.5 19c40.667 0 76.667 -6.83301 108 -20.5s57.833 -32.667 79.5 -57s38 -53.333 49 -87s16.5 -70.834 16.5 -111.501
c0 -5.33301 -0.166992 -12 -0.5 -20s-1.16602 -16.667 -2.49902 -26h-354c6.66699 -76.667 56.667 -115 150 -115c28 0 55 3.5 81 10.5s49.667 17.833 71 32.5zM285.996 425c-30.667 0 -55 -9.83301 -73 -29.5s-28.333 -48.167 -31 -85.5h210
c-3.33301 37.333 -14 65.833 -32 85.5s-42.667 29.5 -74 29.5z" />
    <glyph glyph-name="Ecaron" unicode="&#x11a;" horiz-adv-x="599" 
d="M75 700h475v-122h-319v-158h296v-122h-296v-176h328v-122h-484v700zM246 754l-125 170h120l70 -81l70 81h120l-125 -170h-130z" />
    <glyph glyph-name="ecaron" unicode="&#x11b;" horiz-adv-x="569" 
d="M319 -12c-48.667 0 -90.834 6.83398 -126.501 20.501s-65.167 32.667 -88.5 57s-40.666 53 -51.999 86s-17 69.167 -17 108.5c0 40.667 5.83301 77.667 17.5 111s28.5 61.833 50.5 85.5s48.5 41.834 79.5 54.501s65.5 19 103.5 19c40.667 0 76.667 -6.83301 108 -20.5
s57.833 -32.667 79.5 -57s38 -53.333 49 -87s16.5 -70.834 16.5 -111.501c0 -5.33301 -0.166992 -12 -0.5 -20s-1.16602 -16.667 -2.49902 -26h-354c6.66699 -76.667 56.667 -115 150 -115c28 0 55 3.5 81 10.5s49.667 17.833 71 32.5l11 -112
c-23.333 -12.667 -50.333 -21.834 -81 -27.501s-62.334 -8.5 -95.001 -8.5zM286 425.001c-30.667 0 -55 -9.83301 -73 -29.5s-28.333 -48.167 -31 -85.5h210c-3.33301 37.333 -14 65.833 -32 85.5s-42.667 29.5 -74 29.5zM217 580.001l-125 170h120l70 -81l70 81h120
l-125 -170h-130z" />
    <glyph glyph-name="Gcircumflex" unicode="&#x11c;" horiz-adv-x="733" 
d="M40 350c0 52 8.66602 99.999 25.999 143.999s42.5 82.167 75.5 114.5s73.333 57.666 121 75.999s101.834 27.5 162.501 27.5c84.667 0 161.334 -14.667 230.001 -44l-12 -133c-30 17.333 -62.333 30.5 -97 39.5s-69.334 13.5 -104.001 13.5
c-37.333 0 -71 -5.5 -101 -16.5s-55.5 -26.833 -76.5 -47.5s-37.333 -45.667 -49 -75s-17.5 -62.333 -17.5 -99c0 -37.333 5.66699 -70.833 17 -100.5s27.5 -54.667 48.5 -75s46.333 -35.833 76 -46.5s63.167 -16 100.5 -16c14.667 0 28 0.833008 40 2.5
s22.667 4.16699 32 7.5v158h-150v122h306v-372c-36 -15.333 -73.167 -26.166 -111.5 -32.499s-78.5 -9.5 -120.5 -9.5c-61.333 0 -116.5 8.83301 -165.5 26.5s-90.5 42.334 -124.5 74.001s-60.167 69.667 -78.5 114s-27.5 93.5 -27.5 147.5zM470.999 923.999l125 -170h-120
l-70 81l-70 -81h-120l125 170h130z" />
    <glyph glyph-name="gcircumflex" unicode="&#x11d;" horiz-adv-x="607" 
d="M35 265c0 40.667 6.00195 77.333 18.002 110s28.5 60.5 49.5 83.5s45.333 40.667 73 53s57.5 18.5 89.5 18.5c26.667 0 51.167 -4.16699 73.5 -12.5s40.5 -19.5 54.5 -33.5v34h149v-469c0 -44 -5 -81.667 -15 -113s-25.833 -57 -47.5 -77s-49.667 -34.833 -84 -44.5
s-75.833 -14.5 -124.5 -14.5c-34 0 -66.333 3 -97 9s-59 15.667 -85 29l8 117c23.333 -16.667 49.166 -29.334 77.499 -38.001s57.166 -13 86.499 -13c40 0 72 9.16699 96 27.5s36 48.833 36 91.5v23c-14 -14 -32.167 -25.167 -54.5 -33.5s-46.833 -12.5 -73.5 -12.5
c-32 0 -61.833 6.16699 -89.5 18.5s-52 30 -73 53s-37.5 50.833 -49.5 83.5s-18 69.334 -18 110.001zM186.002 264.999c0 -53.333 10.833 -93.001 32.5 -119.001s48.167 -39 79.5 -39c18.667 0 36.334 3.33301 53.001 10s30.667 16.334 42 29.001v238
c-11.333 12 -25.333 21.5 -42 28.5s-34.334 10.5 -53.001 10.5c-31.333 0 -57.833 -13 -79.5 -39s-32.5 -65.667 -32.5 -119zM379.002 749.998l125 -170h-120l-70 81l-70 -81h-120l125 170h130z" />
    <glyph glyph-name="Gbreve" unicode="&#x11e;" horiz-adv-x="733" 
d="M40 350c0 52 8.66602 99.999 25.999 143.999s42.5 82.167 75.5 114.5s73.333 57.666 121 75.999s101.834 27.5 162.501 27.5c84.667 0 161.334 -14.667 230.001 -44l-12 -133c-30 17.333 -62.333 30.5 -97 39.5s-69.334 13.5 -104.001 13.5
c-37.333 0 -71 -5.5 -101 -16.5s-55.5 -26.833 -76.5 -47.5s-37.333 -45.667 -49 -75s-17.5 -62.333 -17.5 -99c0 -37.333 5.66699 -70.833 17 -100.5s27.5 -54.667 48.5 -75s46.333 -35.833 76 -46.5s63.167 -16 100.5 -16c14.667 0 28 0.833008 40 2.5
s22.667 4.16699 32 7.5v158h-150v122h306v-372c-36 -15.333 -73.167 -26.166 -111.5 -32.499s-78.5 -9.5 -120.5 -9.5c-61.333 0 -116.5 8.83301 -165.5 26.5s-90.5 42.334 -124.5 74.001s-60.167 69.667 -78.5 114s-27.5 93.5 -27.5 147.5zM406.999 756.999
c-25.333 0 -48.5 3.33301 -69.5 10s-39.333 16.834 -55 30.501s-28 30.834 -37 51.501s-13.833 44.667 -14.5 72h112c1.33301 -24.667 7.5 -43 18.5 -55s26.167 -18 45.5 -18s34.5 6 45.5 18s17.167 30.333 18.5 55h112c-0.666992 -27.333 -5.5 -51.333 -14.5 -72
s-21.333 -37.834 -37 -51.501s-34.167 -23.834 -55.5 -30.501s-44.333 -10 -69 -10z" />
    <glyph glyph-name="gbreve" unicode="&#x11f;" horiz-adv-x="607" 
d="M35 265c0 40.667 6.00195 77.333 18.002 110s28.5 60.5 49.5 83.5s45.333 40.667 73 53s57.5 18.5 89.5 18.5c26.667 0 51.167 -4.16699 73.5 -12.5s40.5 -19.5 54.5 -33.5v34h149v-469c0 -44 -5 -81.667 -15 -113s-25.833 -57 -47.5 -77s-49.667 -34.833 -84 -44.5
s-75.833 -14.5 -124.5 -14.5c-34 0 -66.333 3 -97 9s-59 15.667 -85 29l8 117c23.333 -16.667 49.166 -29.334 77.499 -38.001s57.166 -13 86.499 -13c40 0 72 9.16699 96 27.5s36 48.833 36 91.5v23c-14 -14 -32.167 -25.167 -54.5 -33.5s-46.833 -12.5 -73.5 -12.5
c-32 0 -61.833 6.16699 -89.5 18.5s-52 30 -73 53s-37.5 50.833 -49.5 83.5s-18 69.334 -18 110.001zM186.002 264.999c0 -53.333 10.833 -93.001 32.5 -119.001s48.167 -39 79.5 -39c18.667 0 36.334 3.33301 53.001 10s30.667 16.334 42 29.001v238
c-11.333 12 -25.333 21.5 -42 28.5s-34.334 10.5 -53.001 10.5c-31.333 0 -57.833 -13 -79.5 -39s-32.5 -65.667 -32.5 -119zM314.002 582.998c-25.333 0 -48.5 3.33301 -69.5 10s-39.333 16.834 -55 30.501s-28 30.834 -37 51.501s-13.833 44.667 -14.5 72h112
c1.33301 -24.667 7.5 -43 18.5 -55s26.167 -18 45.5 -18s34.5 6 45.5 18s17.167 30.333 18.5 55h112c-0.666992 -27.333 -5.5 -51.333 -14.5 -72s-21.333 -37.834 -37 -51.501s-34.167 -23.834 -55.5 -30.501s-44.333 -10 -69 -10z" />
    <glyph glyph-name="Gdotaccent" unicode="&#x120;" horiz-adv-x="733" 
d="M40 350c0 52 8.66602 99.999 25.999 143.999s42.5 82.167 75.5 114.5s73.333 57.666 121 75.999s101.834 27.5 162.501 27.5c84.667 0 161.334 -14.667 230.001 -44l-12 -133c-30 17.333 -62.333 30.5 -97 39.5s-69.334 13.5 -104.001 13.5
c-37.333 0 -71 -5.5 -101 -16.5s-55.5 -26.833 -76.5 -47.5s-37.333 -45.667 -49 -75s-17.5 -62.333 -17.5 -99c0 -37.333 5.66699 -70.833 17 -100.5s27.5 -54.667 48.5 -75s46.333 -35.833 76 -46.5s63.167 -16 100.5 -16c14.667 0 28 0.833008 40 2.5
s22.667 4.16699 32 7.5v158h-150v122h306v-372c-36 -15.333 -73.167 -26.166 -111.5 -32.499s-78.5 -9.5 -120.5 -9.5c-61.333 0 -116.5 8.83301 -165.5 26.5s-90.5 42.334 -124.5 74.001s-60.167 69.667 -78.5 114s-27.5 93.5 -27.5 147.5zM477.999 837.999
c0 -22.667 -5.66699 -40.167 -17 -52.5s-29 -18.5 -53 -18.5s-41.667 6.16699 -53 18.5s-17 29.833 -17 52.5s5.66699 40.167 17 52.5s29 18.5 53 18.5s41.667 -6.16699 53 -18.5s17 -29.833 17 -52.5z" />
    <glyph glyph-name="gdotaccent" unicode="&#x121;" horiz-adv-x="607" 
d="M35 265c0 40.667 6.00195 77.333 18.002 110s28.5 60.5 49.5 83.5s45.333 40.667 73 53s57.5 18.5 89.5 18.5c26.667 0 51.167 -4.16699 73.5 -12.5s40.5 -19.5 54.5 -33.5v34h149v-469c0 -44 -5 -81.667 -15 -113s-25.833 -57 -47.5 -77s-49.667 -34.833 -84 -44.5
s-75.833 -14.5 -124.5 -14.5c-34 0 -66.333 3 -97 9s-59 15.667 -85 29l8 117c23.333 -16.667 49.166 -29.334 77.499 -38.001s57.166 -13 86.499 -13c40 0 72 9.16699 96 27.5s36 48.833 36 91.5v23c-14 -14 -32.167 -25.167 -54.5 -33.5s-46.833 -12.5 -73.5 -12.5
c-32 0 -61.833 6.16699 -89.5 18.5s-52 30 -73 53s-37.5 50.833 -49.5 83.5s-18 69.334 -18 110.001zM186.002 264.999c0 -53.333 10.833 -93.001 32.5 -119.001s48.167 -39 79.5 -39c18.667 0 36.334 3.33301 53.001 10s30.667 16.334 42 29.001v238
c-11.333 12 -25.333 21.5 -42 28.5s-34.334 10.5 -53.001 10.5c-31.333 0 -57.833 -13 -79.5 -39s-32.5 -65.667 -32.5 -119zM374.002 663.998c0 -22.667 -5.66699 -40.167 -17 -52.5s-29 -18.5 -53 -18.5s-41.667 6.16699 -53 18.5s-17 29.833 -17 52.5
s5.66699 40.167 17 52.5s29 18.5 53 18.5s41.667 -6.16699 53 -18.5s17 -29.833 17 -52.5z" />
    <glyph glyph-name="Gcommaaccent" unicode="&#x122;" horiz-adv-x="733" 
d="M40 350c0 52 8.66602 99.999 25.999 143.999s42.5 82.167 75.5 114.5s73.333 57.666 121 75.999s101.834 27.5 162.501 27.5c84.667 0 161.334 -14.667 230.001 -44l-12 -133c-30 17.333 -62.333 30.5 -97 39.5s-69.334 13.5 -104.001 13.5
c-37.333 0 -71 -5.5 -101 -16.5s-55.5 -26.833 -76.5 -47.5s-37.333 -45.667 -49 -75s-17.5 -62.333 -17.5 -99c0 -37.333 5.66699 -70.833 17 -100.5s27.5 -54.667 48.5 -75s46.333 -35.833 76 -46.5s63.167 -16 100.5 -16c14.667 0 28 0.833008 40 2.5
s22.667 4.16699 32 7.5v158h-150v122h306v-372c-36 -15.333 -73.167 -26.166 -111.5 -32.499s-78.5 -9.5 -120.5 -9.5c-61.333 0 -116.5 8.83301 -165.5 26.5s-90.5 42.334 -124.5 74.001s-60.167 69.667 -78.5 114s-27.5 93.5 -27.5 147.5zM362.999 -103.001
c0 41.333 21.667 62.001 65 62.001c44 0 66 -22.667 66 -68c0 -69.333 -31 -123.666 -93 -162.999l-31 45c11.333 7.33301 20.5 16.666 27.5 27.999s11.167 23 12.5 35c-31.333 5.33301 -47 25.666 -47 60.999z" />
    <glyph glyph-name="gcommaaccent" unicode="&#x123;" horiz-adv-x="607" 
d="M35 265c0 40.667 6.00195 77.333 18.002 110s28.5 60.5 49.5 83.5s45.333 40.667 73 53s57.5 18.5 89.5 18.5c26.667 0 51.167 -4.16699 73.5 -12.5s40.5 -19.5 54.5 -33.5v34h149v-469c0 -44 -5 -81.667 -15 -113s-25.833 -57 -47.5 -77s-49.667 -34.833 -84 -44.5
s-75.833 -14.5 -124.5 -14.5c-34 0 -66.333 3 -97 9s-59 15.667 -85 29l8 117c23.333 -16.667 49.166 -29.334 77.499 -38.001s57.166 -13 86.499 -13c40 0 72 9.16699 96 27.5s36 48.833 36 91.5v23c-14 -14 -32.167 -25.167 -54.5 -33.5s-46.833 -12.5 -73.5 -12.5
c-32 0 -61.833 6.16699 -89.5 18.5s-52 30 -73 53s-37.5 50.833 -49.5 83.5s-18 69.334 -18 110.001zM186.002 264.999c0 -53.333 10.833 -93.001 32.5 -119.001s48.167 -39 79.5 -39c18.667 0 36.334 3.33301 53.001 10s30.667 16.334 42 29.001v238
c-11.333 12 -25.333 21.5 -42 28.5s-34.334 10.5 -53.001 10.5c-31.333 0 -57.833 -13 -79.5 -39s-32.5 -65.667 -32.5 -119zM363.021 639.985c0 -41.3281 -21.665 -61.9932 -64.9932 -61.9932c-43.9941 0 -65.9912 22.6641 -65.9912 67.9912
c0 69.3252 30.9961 123.652 92.9883 162.981l30.9961 -44.9941c-11.332 -7.33301 -20.4971 -16.665 -27.4961 -27.9971s-11.165 -22.9971 -12.498 -34.9951c31.3291 -5.33301 46.9941 -25.6641 46.9941 -60.9932z" />
    <glyph glyph-name="Hcircumflex" unicode="&#x124;" horiz-adv-x="738" 
d="M75 700h156v-267h276v267h156v-700h-156v311h-276v-311h-156v700zM434 924l125 -170h-120l-70 81l-70 -81h-120l125 170h130z" />
    <glyph glyph-name="hcircumflex" unicode="&#x125;" horiz-adv-x="619" 
d="M308 423c-19.333 0 -37.167 -3.66797 -53.5 -11.001s-29.833 -16.666 -40.5 -27.999v-384h-149v730h149v-246c16 13.333 35.333 24.333 58 33s48 13 76 13c66.667 0 118.5 -20.5 155.5 -61.5s55.5 -101.833 55.5 -182.5v-286h-149v284c0 49.333 -8.5 84.833 -25.5 106.5
s-42.5 32.5 -76.5 32.5zM265.999 923.999l125 -170h-120l-70 81l-70 -81h-120l125 170h130z" />
    <glyph glyph-name="Hbar" unicode="&#x126;" horiz-adv-x="748" 
d="M80 530h-63v81h63v89h156v-89h276v89h156v-89h63v-81h-63v-530h-156v311h-276v-311h-156v530zM512 433v97h-276v-97h276z" />
    <glyph glyph-name="hbar" unicode="&#x127;" horiz-adv-x="616" 
d="M3 667l59.001 -0.000976562v63h149v-63h180v-81h-180v-97c17.333 14 37.666 24.333 60.999 31s47.666 10 72.999 10c66.667 0 118.5 -20.5 155.5 -61.5s55.5 -101.833 55.5 -182.5v-286h-149v284c0 49.333 -8.5 84.833 -25.5 106.5s-42.5 32.5 -76.5 32.5
c-19.333 0 -37.166 -3.66699 -53.499 -11s-29.833 -16.666 -40.5 -27.999v-384h-149v586h-59v81z" />
    <glyph glyph-name="Itilde" unicode="&#x128;" horiz-adv-x="316" 
d="M236 700v-700h-156v700h156zM331 911c0 -52 -9.83301 -89.332 -29.5 -111.999s-44.5 -34 -74.5 -34c-13.333 0 -26 2.5 -38 7.5s-23 10.333 -33 16s-18.833 11 -26.5 16s-13.834 7.5 -18.501 7.5c-6.66699 0 -11.5 -2.83301 -14.5 -8.5s-4.5 -17.834 -4.5 -36.501h-104
c0 52 9.66699 89.167 29 111.5s44 33.5 74 33.5c13.333 0 26 -2.5 38 -7.5s23 -10.333 33 -16s18.833 -11 26.5 -16s13.834 -7.5 18.501 -7.5c6.66699 0 11.667 2.83301 15 8.5s5 18.167 5 37.5h104z" />
    <glyph glyph-name="itilde" unicode="&#x129;" horiz-adv-x="290" 
d="M71 518h149v-518h-149v518zM318 736c0 -52 -9.83301 -89.332 -29.5 -111.999s-44.5 -34 -74.5 -34c-13.333 0 -26 2.5 -38 7.5s-23 10.333 -33 16s-18.833 11 -26.5 16s-13.834 7.5 -18.501 7.5c-6.66699 0 -11.5 -2.83301 -14.5 -8.5s-4.5 -17.834 -4.5 -36.501h-104
c0 52 9.66699 89.167 29 111.5s44 33.5 74 33.5c13.333 0 26 -2.5 38 -7.5s23 -10.333 33 -16s18.833 -11 26.5 -16s13.834 -7.5 18.501 -7.5c6.66699 0 11.667 2.83301 15 8.5s5 18.167 5 37.5h104z" />
    <glyph glyph-name="Imacron" unicode="&#x12a;" horiz-adv-x="316" 
d="M236 700v-700h-156v700h156zM3 888h312v-99h-312v99z" />
    <glyph glyph-name="imacron" unicode="&#x12b;" horiz-adv-x="290" 
d="M71 518h149v-518h-149v518zM-10 714h312v-99h-312v99z" />
    <glyph glyph-name="Ibreve" unicode="&#x12c;" horiz-adv-x="316" 
d="M236 700v-700h-156v700h156zM159 757c-25.333 0 -48.5 3.33301 -69.5 10s-39.333 16.834 -55 30.501s-28 30.834 -37 51.501s-13.833 44.667 -14.5 72h112c1.33301 -24.667 7.5 -43 18.5 -55s26.167 -18 45.5 -18s34.5 6 45.5 18s17.167 30.333 18.5 55h112
c-0.666992 -27.333 -5.5 -51.333 -14.5 -72s-21.333 -37.834 -37 -51.501s-34.167 -23.834 -55.5 -30.501s-44.333 -10 -69 -10z" />
    <glyph glyph-name="ibreve" unicode="&#x12d;" horiz-adv-x="290" 
d="M71 518h149v-518h-149v518zM146 583c-25.333 0 -48.5 3.33301 -69.5 10s-39.333 16.834 -55 30.501s-28 30.834 -37 51.501s-13.833 44.667 -14.5 72h112c1.33301 -24.667 7.5 -43 18.5 -55s26.167 -18 45.5 -18s34.5 6 45.5 18s17.167 30.333 18.5 55h112
c-0.666992 -27.333 -5.5 -51.333 -14.5 -72s-21.333 -37.834 -37 -51.501s-34.167 -23.834 -55.5 -30.501s-44.333 -10 -69 -10z" />
    <glyph glyph-name="Iogonek" unicode="&#x12e;" horiz-adv-x="316" 
d="M80 0l-0.000976562 700.003h156v-700h-15c-23.333 -20.667 -39.833 -38.834 -49.5 -54.501s-14.5 -30.834 -14.5 -45.501c0 -19.333 11.667 -29 35 -29c6.66699 0 13.834 0.666992 21.501 2s14.834 3.66602 21.501 6.99902v-92c-9.33301 -2.66699 -20.333 -4.5 -33 -5.5
s-25.667 -1.5 -39 -1.5c-40.667 0 -71.5 8.83301 -92.5 26.5s-31.5 41.5 -31.5 71.5c0 24 6.16699 46.667 18.5 68s27.166 39 44.499 53h-22z" />
    <glyph glyph-name="iogonek" unicode="&#x12f;" horiz-adv-x="290" 
d="M70 518l149.999 0.00292969v-518h-9c-23.333 -20.667 -39.833 -38.834 -49.5 -54.501s-14.5 -30.834 -14.5 -45.501c0 -19.333 11.667 -29 35 -29c6.66699 0 13.834 0.666992 21.501 2s14.834 3.66602 21.501 6.99902v-92c-9.33301 -2.66699 -20.333 -4.5 -33 -5.5
s-25.667 -1.5 -39 -1.5c-40.667 0 -71.5 8.83301 -92.5 26.5s-31.5 41.5 -31.5 71.5c0 24 6.16699 46.667 18.5 68s27.166 39 44.499 53h-22v518zM59.999 655.003c0 24.667 6.5 43.334 19.5 56.001s34.833 19 65.5 19s52.5 -6.33301 65.5 -19s19.5 -31.334 19.5 -56.001
c0 -25.333 -6.5 -44.166 -19.5 -56.499s-34.833 -18.5 -65.5 -18.5s-52.5 6.16699 -65.5 18.5s-19.5 31.166 -19.5 56.499z" />
    <glyph glyph-name="Idotaccent" unicode="&#x130;" horiz-adv-x="316" 
d="M236 700v-700h-156v700h156zM229 838c0 -22.667 -5.66699 -40.167 -17 -52.5s-29 -18.5 -53 -18.5s-41.667 6.16699 -53 18.5s-17 29.833 -17 52.5s5.66699 40.167 17 52.5s29 18.5 53 18.5s41.667 -6.16699 53 -18.5s17 -29.833 17 -52.5z" />
    <glyph glyph-name="dotlessi" unicode="&#x131;" horiz-adv-x="290" 
d="M71 518h149v-518h-149v518z" />
    <glyph glyph-name="IJ" unicode="&#x132;" horiz-adv-x="756" 
d="M232 700v-700h-156v700h156zM525 700h156.001v-464c0 -84 -20.833 -146.333 -62.5 -187s-101.834 -61 -180.501 -61c-31.333 0 -61.333 3 -90 9s-54.667 14.667 -78 26l11 132c22.667 -15.333 45.667 -26.333 69 -33s48 -10 74 -10c33.333 0 58.5 9.33301 75.5 28
s25.5 51 25.5 97v463z" />
    <glyph glyph-name="ij" unicode="&#x133;" horiz-adv-x="556" 
d="M65 518h150v-518h-150v518zM55 655c0 24.667 6.5 43.334 19.5 56.001s34.833 19 65.5 19s52.5 -6.33301 65.5 -19s19.5 -31.334 19.5 -56.001c0 -25.333 -6.5 -44.166 -19.5 -56.499s-34.833 -18.5 -65.5 -18.5s-52.5 6.16699 -65.5 18.5s-19.5 31.166 -19.5 56.499z
M342 518l150.001 -0.00292969v-515c0 -31.333 -3.5 -59.666 -10.5 -84.999s-18.5 -46.666 -34.5 -63.999s-37 -30.666 -63 -39.999s-57.667 -14 -95 -14c-14.667 0 -29.667 1 -45 3s-30 5 -44 9l10 108c16 -8.66699 36 -13 60 -13c25.333 0 43.666 7.33301 54.999 22
s17 37.667 17 69v520zM332.001 654.997c0 24.667 6.5 43.334 19.5 56.001s34.833 19 65.5 19s52.5 -6.33301 65.5 -19s19.5 -31.334 19.5 -56.001c0 -25.333 -6.5 -44.166 -19.5 -56.499s-34.833 -18.5 -65.5 -18.5s-52.5 6.16699 -65.5 18.5s-19.5 31.166 -19.5 56.499z
" />
    <glyph glyph-name="Jcircumflex" unicode="&#x134;" horiz-adv-x="494" 
d="M263 700h156.001v-464c0 -84 -20.833 -146.333 -62.5 -187s-101.834 -61 -180.501 -61c-31.333 0 -61.333 3 -90 9s-54.667 14.667 -78 26l11 132c22.667 -15.333 45.667 -26.333 69 -33s48 -10 74 -10c33.333 0 58.5 9.33301 75.5 28s25.5 51 25.5 97v463zM403.001 924
l125 -170h-120l-70 81l-70 -81h-120l125 170h130z" />
    <glyph glyph-name="jcircumflex" unicode="&#x135;" horiz-adv-x="296" 
d="M83 518l149 -0.00292969v-515c0 -31.333 -3.5 -59.666 -10.5 -84.999s-18.5 -46.666 -34.5 -63.999s-37 -30.666 -63 -39.999s-57.667 -14 -95 -14c-14.667 0 -29.667 1 -45 3s-30 5 -44 9l10 108c16 -8.66699 36 -13 60 -13c48.667 0 73 30.333 73 91v520zM225 749.997
l125 -170h-120l-70 81l-70 -81h-120l125 170h130z" />
    <glyph glyph-name="Kcommaaccent" unicode="&#x136;" horiz-adv-x="678" 
d="M648 700l-257 -328l299 -372h-192l-267 348v-348h-156v700h156v-304l237 304h180zM279 -103c0 41.333 21.667 62.001 65 62.001c44 0 66 -22.667 66 -68c0 -69.333 -31 -123.666 -93 -162.999l-31 45c11.333 7.33301 20.5 16.666 27.5 27.999s11.167 23 12.5 35
c-31.333 5.33301 -47 25.666 -47 60.999z" />
    <glyph glyph-name="kcommaaccent" unicode="&#x137;" horiz-adv-x="576" 
d="M214 730v-419l169 207h175l-196 -231l212 -287h-177l-183 262v-262h-149v730h149zM231 -103c0 41.333 21.667 62.001 65 62.001c44 0 66 -22.667 66 -68c0 -69.333 -31 -123.666 -93 -162.999l-31 45c11.333 7.33301 20.5 16.666 27.5 27.999s11.167 23 12.5 35
c-31.333 5.33301 -47 25.666 -47 60.999z" />
    <glyph glyph-name="kgreenlandic" unicode="&#x138;" horiz-adv-x="578" 
d="M214 518v-223l171 223h175l-195 -248l211 -270h-176l-186 243v-243h-149v518h149z" />
    <glyph glyph-name="Lacute" unicode="&#x139;" horiz-adv-x="592" 
d="M75 700h156v-578h346v-122h-502v700zM193 924h140v-25l-142 -145h-120z" />
    <glyph glyph-name="lacute" unicode="&#x13a;" horiz-adv-x="289" 
d="M70 730h149v-730h-149v730zM187 924h140v-25l-142 -145h-120z" />
    <glyph glyph-name="Lcommaaccent" unicode="&#x13b;" horiz-adv-x="592" 
d="M75 700h156v-578h346v-122h-502v700zM269 -103c0 41.333 21.667 62.001 65 62.001c44 0 66 -22.667 66 -68c0 -69.333 -31 -123.666 -93 -162.999l-31 45c11.333 7.33301 20.5 16.666 27.5 27.999s11.167 23 12.5 35c-31.333 5.33301 -47 25.666 -47 60.999z" />
    <glyph glyph-name="lcommaaccent" unicode="&#x13c;" horiz-adv-x="288" 
d="M70 730h149v-730h-149v730zM78 -103c0 41.333 21.667 62.001 65 62.001c44 0 66 -22.667 66 -68c0 -69.333 -31 -123.666 -93 -162.999l-31 45c11.333 7.33301 20.5 16.666 27.5 27.999s11.167 23 12.5 35c-31.333 5.33301 -47 25.666 -47 60.999z" />
    <glyph glyph-name="Lcaron" unicode="&#x13d;" horiz-adv-x="592" 
d="M75 700h156v-578h346v-122h-502v700zM515 662c0 -52 -11 -96.499 -33 -133.499s-53.333 -66.167 -94 -87.5l-35 53c15.333 12 28 25.667 38 41s16.667 31.666 20 48.999c-37.333 6.66699 -56 32.667 -56 78c0 54 26.667 81 80 81s80 -27 80 -81z" />
    <glyph glyph-name="lcaron" unicode="&#x13e;" horiz-adv-x="448" 
d="M70 730h149v-730h-149v730zM428 662c0 -52 -11 -96.499 -33 -133.499s-53.333 -66.167 -94 -87.5l-35 53c15.333 12 28 25.667 38 41s16.667 31.666 20 48.999c-37.333 6.66699 -56 32.667 -56 78c0 54 26.667 81 80 81s80 -27 80 -81z" />
    <glyph glyph-name="Ldot" unicode="&#x13f;" horiz-adv-x="592" 
d="M75 700h156v-578h346v-122h-502v700zM511 379c0 -22.667 -5.66699 -40.167 -17 -52.5s-29 -18.5 -53 -18.5s-41.667 6.16699 -53 18.5s-17 29.833 -17 52.5s5.66699 40.167 17 52.5s29 18.5 53 18.5s41.667 -6.16699 53 -18.5s17 -29.833 17 -52.5z" />
    <glyph glyph-name="ldot" unicode="&#x140;" horiz-adv-x="458" 
d="M70 730h149v-730h-149v730zM448 379c0 -22.667 -5.66699 -40.167 -17 -52.5s-29 -18.5 -53 -18.5s-41.667 6.16699 -53 18.5s-17 29.833 -17 52.5s5.66699 40.167 17 52.5s29 18.5 53 18.5s41.667 -6.16699 53 -18.5s17 -29.833 17 -52.5z" />
    <glyph glyph-name="Lslash" unicode="&#x141;" horiz-adv-x="611" 
d="M94 236l-54 -36l-48 74l102 69v357h156v-251l206 140l51 -74l-257 -174v-219h346v-122h-502v236z" />
    <glyph glyph-name="lslash" unicode="&#x142;" horiz-adv-x="420" 
d="M132 276l-96 -64l-44 75l140 95v348h149v-247l100 68l47 -75l-147 -99v-377h-149v276z" />
    <glyph glyph-name="Nacute" unicode="&#x143;" horiz-adv-x="747" 
d="M75 700h176l270 -480v480h151v-700h-176l-270 480v-480h-151v700zM425 924h140v-25l-142 -145h-120z" />
    <glyph glyph-name="nacute" unicode="&#x144;" horiz-adv-x="619" 
d="M308 423c-19.333 0 -37.167 -3.66797 -53.5 -11.001s-29.833 -16.666 -40.5 -27.999v-384h-149v518h149v-34c16 13.333 35.333 24.333 58 33s48 13 76 13c66.667 0 118.5 -20.5 155.5 -61.5s55.5 -101.833 55.5 -182.5v-286h-149v284c0 49.333 -8.5 84.833 -25.5 106.5
s-42.5 32.5 -76.5 32.5zM330.999 749.999h140v-25l-142 -145h-120z" />
    <glyph glyph-name="Ncommaaccent" unicode="&#x145;" horiz-adv-x="747" 
d="M75 700h176l270 -480v480h151v-700h-176l-270 480v-480h-151v700zM324 -103c0 41.333 21.667 62.001 65 62.001c44 0 66 -22.667 66 -68c0 -69.333 -31 -123.666 -93 -162.999l-31 45c11.333 7.33301 20.5 16.666 27.5 27.999s11.167 23 12.5 35
c-31.333 5.33301 -47 25.666 -47 60.999z" />
    <glyph glyph-name="ncommaaccent" unicode="&#x146;" horiz-adv-x="619" 
d="M308 423c-19.333 0 -37.167 -3.66797 -53.5 -11.001s-29.833 -16.666 -40.5 -27.999v-384h-149v518h149v-34c16 13.333 35.333 24.333 58 33s48 13 76 13c66.667 0 118.5 -20.5 155.5 -61.5s55.5 -101.833 55.5 -182.5v-286h-149v284c0 49.333 -8.5 84.833 -25.5 106.5
s-42.5 32.5 -76.5 32.5zM246.999 -103.001c0 41.333 21.667 62.001 65 62.001c44 0 66 -22.667 66 -68c0 -69.333 -31 -123.666 -93 -162.999l-31 45c11.333 7.33301 20.5 16.666 27.5 27.999s11.167 23 12.5 35c-31.333 5.33301 -47 25.666 -47 60.999z" />
    <glyph glyph-name="Ncaron" unicode="&#x147;" horiz-adv-x="747" 
d="M75 700h176l270 -480v480h151v-700h-176l-270 480v-480h-151v700zM308 754l-125 170h120l70 -81l70 81h120l-125 -170h-130z" />
    <glyph glyph-name="ncaron" unicode="&#x148;" horiz-adv-x="619" 
d="M308 423c-19.333 0 -37.167 -3.66797 -53.5 -11.001s-29.833 -16.666 -40.5 -27.999v-384h-149v518h149v-34c16 13.333 35.333 24.333 58 33s48 13 76 13c66.667 0 118.5 -20.5 155.5 -61.5s55.5 -101.833 55.5 -182.5v-286h-149v284c0 49.333 -8.5 84.833 -25.5 106.5
s-42.5 32.5 -76.5 32.5zM243.999 579.999l-125 170h120l70 -81l70 81h120l-125 -170h-130z" />
    <glyph glyph-name="napostrophe" unicode="&#x149;" horiz-adv-x="721" 
d="M410 423c-19.333 0 -37.167 -3.66797 -53.5 -11.001s-29.833 -16.666 -40.5 -27.999v-384h-149v518h149v-34c16 13.333 35.333 24.333 58 33s48 13 76 13c66.667 0 118.5 -20.5 155.5 -61.5s55.5 -101.833 55.5 -182.5v-286h-149v284c0 49.333 -8.5 84.833 -25.5 106.5
s-42.5 32.5 -76.5 32.5zM182.999 661.999c0 -52 -11 -96.499 -33 -133.499s-53.333 -66.167 -94 -87.5l-35 53c15.333 12 28 25.667 38 41s16.667 31.666 20 48.999c-37.333 6.66699 -56 32.667 -56 78c0 54 26.667 81 80 81s80 -27 80 -81z" />
    <glyph glyph-name="Eng" unicode="&#x14a;" horiz-adv-x="747" 
d="M672 -12c0 -61.333 -16 -107.999 -48 -139.999s-80.667 -48 -146 -48c-19.333 0 -38 1.16699 -56 3.5s-33.667 5.16602 -47 8.49902l12 115c18 -7.33301 37.333 -11 58 -11c25.333 0 43.5 4.83301 54.5 14.5s16.5 26.167 16.5 49.5l-297 509v-489h-144v700h169l284 -490
v490h144v-712z" />
    <glyph glyph-name="eng" unicode="&#x14b;" horiz-adv-x="619" 
d="M559 -12c0 -61.333 -16.001 -108 -48.001 -140s-80.667 -48 -146 -48c-19.333 0 -38 1.16699 -56 3.5s-33.667 5.16602 -47 8.49902l12 103c8.66699 -3.33301 18.5 -6 29.5 -8s22.167 -3 33.5 -3c24 0 42.167 6.33301 54.5 19s18.5 35 18.5 67v294
c0 49.333 -8.5 84.833 -25.5 106.5s-42.5 32.5 -76.5 32.5c-19.333 0 -37.166 -3.66699 -53.499 -11s-29.833 -16.666 -40.5 -27.999v-384h-149v518h149v-34c16 13.333 35.333 24.333 58 33s48 13 76 13c66.667 0 118.5 -20.5 155.5 -61.5s55.5 -101.833 55.5 -182.5v-298z
" />
    <glyph glyph-name="Omacron" unicode="&#x14c;" horiz-adv-x="744" 
d="M704 350c0 -51.333 -7.33301 -99 -22 -143s-36 -82.333 -64 -115s-62.667 -58.167 -104 -76.5s-88.666 -27.5 -141.999 -27.5s-100.666 9.16699 -141.999 27.5s-76 43.833 -104 76.5s-49.333 71 -64 115s-22 91.667 -22 143s7.33301 99 22 143s36 82.333 64 115
s62.667 58.167 104 76.5s88.666 27.5 141.999 27.5s100.666 -9.16699 141.999 -27.5s76 -43.833 104 -76.5s49.333 -71 64 -115s22 -91.667 22 -143zM546 350c0 76 -15.667 134.667 -47 176s-73.666 62 -126.999 62s-95.666 -20.667 -126.999 -62s-47 -100 -47 -176
c0 -76.667 15.667 -135.5 47 -176.5s73.666 -61.5 126.999 -61.5s95.666 20.5 126.999 61.5s47 99.833 47 176.5zM216 888h312v-99h-312v99z" />
    <glyph glyph-name="omacron" unicode="&#x14d;" horiz-adv-x="608" 
d="M304 -12c-41.333 0 -78.5 6.66699 -111.5 20s-61.167 32 -84.5 56s-41.333 52.667 -54 86s-19 69.666 -19 108.999s6.33301 75.5 19 108.5s30.667 61.5 54 85.5s51.5 42.833 84.5 56.5s70.167 20.5 111.5 20.5s78.5 -6.83301 111.5 -20.5s61.167 -32.5 84.5 -56.5
s41.333 -52.5 54 -85.5s19 -69.167 19 -108.5s-6.33301 -75.666 -19 -108.999s-30.667 -62 -54 -86s-51.5 -42.667 -84.5 -56s-70.167 -20 -111.5 -20zM304 95c36.667 0 65.5 14.167 86.5 42.5s31.5 68.833 31.5 121.5s-10.5 93.167 -31.5 121.5s-49.833 42.5 -86.5 42.5
s-65.5 -14.167 -86.5 -42.5s-31.5 -68.833 -31.5 -121.5s10.5 -93.167 31.5 -121.5s49.833 -42.5 86.5 -42.5zM148 714h312v-99h-312v99z" />
    <glyph glyph-name="Obreve" unicode="&#x14e;" horiz-adv-x="744" 
d="M704 350c0 -51.333 -7.33301 -99 -22 -143s-36 -82.333 -64 -115s-62.667 -58.167 -104 -76.5s-88.666 -27.5 -141.999 -27.5s-100.666 9.16699 -141.999 27.5s-76 43.833 -104 76.5s-49.333 71 -64 115s-22 91.667 -22 143s7.33301 99 22 143s36 82.333 64 115
s62.667 58.167 104 76.5s88.666 27.5 141.999 27.5s100.666 -9.16699 141.999 -27.5s76 -43.833 104 -76.5s49.333 -71 64 -115s22 -91.667 22 -143zM546 350c0 76 -15.667 134.667 -47 176s-73.666 62 -126.999 62s-95.666 -20.667 -126.999 -62s-47 -100 -47 -176
c0 -76.667 15.667 -135.5 47 -176.5s73.666 -61.5 126.999 -61.5s95.666 20.5 126.999 61.5s47 99.833 47 176.5zM372 757c-25.333 0 -48.5 3.33301 -69.5 10s-39.333 16.834 -55 30.501s-28 30.834 -37 51.501s-13.833 44.667 -14.5 72h112
c1.33301 -24.667 7.5 -43 18.5 -55s26.167 -18 45.5 -18s34.5 6 45.5 18s17.167 30.333 18.5 55h112c-0.666992 -27.333 -5.5 -51.333 -14.5 -72s-21.333 -37.834 -37 -51.501s-34.167 -23.834 -55.5 -30.501s-44.333 -10 -69 -10z" />
    <glyph glyph-name="obreve" unicode="&#x14f;" horiz-adv-x="608" 
d="M304 -12c-41.333 0 -78.5 6.66699 -111.5 20s-61.167 32 -84.5 56s-41.333 52.667 -54 86s-19 69.666 -19 108.999s6.33301 75.5 19 108.5s30.667 61.5 54 85.5s51.5 42.833 84.5 56.5s70.167 20.5 111.5 20.5s78.5 -6.83301 111.5 -20.5s61.167 -32.5 84.5 -56.5
s41.333 -52.5 54 -85.5s19 -69.167 19 -108.5s-6.33301 -75.666 -19 -108.999s-30.667 -62 -54 -86s-51.5 -42.667 -84.5 -56s-70.167 -20 -111.5 -20zM304 95c36.667 0 65.5 14.167 86.5 42.5s31.5 68.833 31.5 121.5s-10.5 93.167 -31.5 121.5s-49.833 42.5 -86.5 42.5
s-65.5 -14.167 -86.5 -42.5s-31.5 -68.833 -31.5 -121.5s10.5 -93.167 31.5 -121.5s49.833 -42.5 86.5 -42.5zM304 583c-25.333 0 -48.5 3.33301 -69.5 10s-39.333 16.834 -55 30.501s-28 30.834 -37 51.501s-13.833 44.667 -14.5 72h112c1.33301 -24.667 7.5 -43 18.5 -55
s26.167 -18 45.5 -18s34.5 6 45.5 18s17.167 30.333 18.5 55h112c-0.666992 -27.333 -5.5 -51.333 -14.5 -72s-21.333 -37.834 -37 -51.501s-34.167 -23.834 -55.5 -30.501s-44.333 -10 -69 -10z" />
    <glyph glyph-name="Ohungarumlaut" unicode="&#x150;" horiz-adv-x="744" 
d="M704 350c0 -51.333 -7.33301 -99 -22 -143s-36 -82.333 -64 -115s-62.667 -58.167 -104 -76.5s-88.666 -27.5 -141.999 -27.5s-100.666 9.16699 -141.999 27.5s-76 43.833 -104 76.5s-49.333 71 -64 115s-22 91.667 -22 143s7.33301 99 22 143s36 82.333 64 115
s62.667 58.167 104 76.5s88.666 27.5 141.999 27.5s100.666 -9.16699 141.999 -27.5s76 -43.833 104 -76.5s49.333 -71 64 -115s22 -91.667 22 -143zM546 350c0 76 -15.667 134.667 -47 176s-73.666 62 -126.999 62s-95.666 -20.667 -126.999 -62s-47 -100 -47 -176
c0 -76.667 15.667 -135.5 47 -176.5s73.666 -61.5 126.999 -61.5s95.666 20.5 126.999 61.5s47 99.833 47 176.5zM502 924h140v-25l-142 -145h-120zM301 924h140v-25l-142 -145h-120z" />
    <glyph glyph-name="ohungarumlaut" unicode="&#x151;" horiz-adv-x="608" 
d="M304 -12c-41.333 0 -78.5 6.66699 -111.5 20s-61.167 32 -84.5 56s-41.333 52.667 -54 86s-19 69.666 -19 108.999s6.33301 75.5 19 108.5s30.667 61.5 54 85.5s51.5 42.833 84.5 56.5s70.167 20.5 111.5 20.5s78.5 -6.83301 111.5 -20.5s61.167 -32.5 84.5 -56.5
s41.333 -52.5 54 -85.5s19 -69.167 19 -108.5s-6.33301 -75.666 -19 -108.999s-30.667 -62 -54 -86s-51.5 -42.667 -84.5 -56s-70.167 -20 -111.5 -20zM304 95c36.667 0 65.5 14.167 86.5 42.5s31.5 68.833 31.5 121.5s-10.5 93.167 -31.5 121.5s-49.833 42.5 -86.5 42.5
s-65.5 -14.167 -86.5 -42.5s-31.5 -68.833 -31.5 -121.5s10.5 -93.167 31.5 -121.5s49.833 -42.5 86.5 -42.5zM445 749h140v-25l-142 -145h-120zM244 749h140v-25l-142 -145h-120z" />
    <glyph glyph-name="OE" unicode="&#x152;" horiz-adv-x="892" 
d="M40 353c0 53.333 8.33301 101.666 25 144.999s41.167 80.5 73.5 111.5s72.333 54.833 120 71.5s102.5 25 164.5 25h421v-122h-273v-161h249v-122h-249v-179h281v-122h-424c-63.333 0 -119 8.33301 -167 25s-88.5 40.334 -121.5 71.001s-57.833 67.667 -74.5 111
s-25 92 -25 146zM198 353c0 -71.333 18.333 -127.334 55 -168.001s91.667 -62 165 -64v463c-74 -2 -129.167 -23.167 -165.5 -63.5s-54.5 -96.166 -54.5 -167.499z" />
    <glyph glyph-name="oe" unicode="&#x153;" horiz-adv-x="942" 
d="M304 -12c-41.333 0 -78.5 6.66699 -111.5 20s-61.167 32 -84.5 56s-41.333 52.667 -54 86s-19 69.666 -19 108.999s6.33301 75.5 19 108.5s30.667 61.5 54 85.5s51.5 42.833 84.5 56.5s70.167 20.5 111.5 20.5c82 0 142 -26.667 180 -80c20 26.667 43.833 46.667 71.5 60
s62.5 20 104.5 20c39.333 0 74.666 -6.83301 105.999 -20.5s57.833 -32.667 79.5 -57s38.167 -53.5 49.5 -87.5s17 -71.333 17 -112c0 -6.66699 -0.166992 -14 -0.5 -22s-1.16602 -15.667 -2.49902 -23h-354c4 -41.333 19.333 -70.833 46 -88.5s63 -26.5 109 -26.5
c25.333 0 51 3.5 77 10.5s49.333 17.833 70 32.5l11 -112c-21.333 -11.333 -46.833 -20.166 -76.5 -26.499s-59.5 -9.5 -89.5 -9.5c-50 0 -92.5 7.83301 -127.5 23.5s-63.167 37.167 -84.5 64.5c-37.333 -58.667 -99.333 -88 -186 -88zM304 95
c36.667 0 65.5 14.167 86.5 42.5s31.5 68.833 31.5 121.5s-10.5 93.167 -31.5 121.5s-49.833 42.5 -86.5 42.5s-65.5 -14.167 -86.5 -42.5s-31.5 -68.833 -31.5 -121.5s10.5 -93.167 31.5 -121.5s49.833 -42.5 86.5 -42.5zM765 310c-2.66699 36 -12.999 64.167 -30.999 84.5
s-43 30.5 -75 30.5c-31.333 0 -55.833 -10.167 -73.5 -30.5s-27.834 -48.5 -30.501 -84.5h210z" />
    <glyph glyph-name="Racute" unicode="&#x154;" horiz-adv-x="663" 
d="M604 485c0 -47.333 -12.501 -87.668 -37.501 -121.001s-59.5 -58.666 -103.5 -75.999l193 -288h-170l-170 264h-85v-264h-156v700h253c39.333 0 75.833 -4.5 109.5 -13.5s62.834 -22.333 87.501 -40s44 -40 58 -67s21 -58.5 21 -94.5zM445.999 484.998
c0 34 -11.167 58.667 -33.5 74s-53.833 23 -94.5 23h-87v-200h87c40.667 0 72.167 8.66699 94.5 26s33.5 43 33.5 77zM323.999 923.998h140v-25l-142 -145h-120z" />
    <glyph glyph-name="racute" unicode="&#x155;" horiz-adv-x="418" 
d="M400 399c-10 6 -21.332 10.332 -33.999 12.999s-26 4 -40 4c-27.333 0 -50.5 -6.83301 -69.5 -20.5s-33.167 -33.167 -42.5 -58.5v-337h-149v518h149v-45c13.333 16.667 30.666 30.334 51.999 41.001s46 16 74 16c13.333 0 26.5 -1.16699 39.5 -3.5s24.5 -5.5 34.5 -9.5z
M240.001 749.999h140v-25l-142 -145h-120z" />
    <glyph glyph-name="Rcommaaccent" unicode="&#x156;" horiz-adv-x="663" 
d="M604 485c0 -47.333 -12.501 -87.668 -37.501 -121.001s-59.5 -58.666 -103.5 -75.999l193 -288h-170l-170 264h-85v-264h-156v700h253c39.333 0 75.833 -4.5 109.5 -13.5s62.834 -22.333 87.501 -40s44 -40 58 -67s21 -58.5 21 -94.5zM445.999 484.998
c0 34 -11.167 58.667 -33.5 74s-53.833 23 -94.5 23h-87v-200h87c40.667 0 72.167 8.66699 94.5 26s33.5 43 33.5 77zM277.999 -103.002c0 41.333 21.667 62.001 65 62.001c44 0 66 -22.667 66 -68c0 -69.333 -31 -123.666 -93 -162.999l-31 45
c11.333 7.33301 20.5 16.666 27.5 27.999s11.167 23 12.5 35c-31.333 5.33301 -47 25.666 -47 60.999z" />
    <glyph glyph-name="rcommaaccent" unicode="&#x157;" horiz-adv-x="418" 
d="M400 399c-10 6 -21.332 10.332 -33.999 12.999s-26 4 -40 4c-27.333 0 -50.5 -6.83301 -69.5 -20.5s-33.167 -33.167 -42.5 -58.5v-337h-149v518h149v-45c13.333 16.667 30.666 30.334 51.999 41.001s46 16 74 16c13.333 0 26.5 -1.16699 39.5 -3.5s24.5 -5.5 34.5 -9.5z
M73.001 -103.001c0 41.333 21.667 62.001 65 62.001c44 0 66 -22.667 66 -68c0 -69.333 -31 -123.666 -93 -162.999l-31 45c11.333 7.33301 20.5 16.666 27.5 27.999s11.167 23 12.5 35c-31.333 5.33301 -47 25.666 -47 60.999z" />
    <glyph glyph-name="Rcaron" unicode="&#x158;" horiz-adv-x="663" 
d="M604 485c0 -47.333 -12.501 -87.668 -37.501 -121.001s-59.5 -58.666 -103.5 -75.999l193 -288h-170l-170 264h-85v-264h-156v700h253c39.333 0 75.833 -4.5 109.5 -13.5s62.834 -22.333 87.501 -40s44 -40 58 -67s21 -58.5 21 -94.5zM445.999 484.998
c0 34 -11.167 58.667 -33.5 74s-53.833 23 -94.5 23h-87v-200h87c40.667 0 72.167 8.66699 94.5 26s33.5 43 33.5 77zM224.999 753.998l-125 170h120l70 -81l70 81h120l-125 -170h-130z" />
    <glyph glyph-name="rcaron" unicode="&#x159;" horiz-adv-x="418" 
d="M397 399c-10 6 -21.332 10.332 -33.999 12.999s-26 4 -40 4c-27.333 0 -50.5 -6.83301 -69.5 -20.5s-33.167 -33.167 -42.5 -58.5v-337h-149v518h149v-45c13.333 16.667 30.666 30.334 51.999 41.001s46 16 74 16c13.333 0 26.5 -1.16699 39.5 -3.5s24.5 -5.5 34.5 -9.5z
M159.001 579.999l-125 170h120l70 -81l70 81h120l-125 -170h-130z" />
    <glyph glyph-name="Sacute" unicode="&#x15a;" horiz-adv-x="577" 
d="M45 515c0 61.333 22.335 109.5 67.002 144.5s109 52.5 193 52.5c34.667 0 68.667 -3 102 -9s64.333 -14.667 93 -26l-11 -126c-58.667 24.667 -116.334 37 -173.001 37c-40.667 0 -69.667 -6.33301 -87 -19s-26 -28.667 -26 -48c0 -21.333 8.66699 -40.166 26 -56.499
s50 -32.5 98 -48.5c73.333 -24.667 126.666 -54.334 159.999 -89.001s50 -78.667 50 -132c0 -66 -22.333 -117 -67 -153s-112.667 -54 -204 -54c-38 0 -76.167 4 -114.5 12s-72.833 19.667 -103.5 35l12 137c28 -19.333 59.167 -34.166 93.5 -44.499
s70.166 -15.5 107.499 -15.5c36 0 64.667 6.16699 86 18.5s32 31.5 32 57.5c0 12 -2 23 -6 33s-11.167 19.167 -21.5 27.5s-24.166 16.5 -41.499 24.5s-39 16.333 -65 25c-68.667 21.333 -119.167 49.666 -151.5 84.999s-48.5 79.333 -48.5 132zM323.002 924h140v-25
l-142 -145h-120z" />
    <glyph glyph-name="sacute" unicode="&#x15b;" horiz-adv-x="491" 
d="M233 -12c-35.333 0 -69.333 3.3291 -102 9.99609s-63 17 -91 31l7 120c25.333 -17.333 52.5 -30.666 81.5 -39.999s59.167 -14 90.5 -14c54 0 81 17.333 81 52c0 7.33301 -1.5 14 -4.5 20s-8.5 11.833 -16.5 17.5s-18.667 11.167 -32 16.5s-30 11 -50 17
c-54 15.333 -93.333 36.5 -118 63.5s-37 58.833 -37 95.5c0 50 18.167 88 54.5 114s88.833 39 157.5 39c31.333 0 61.5 -3 90.5 -9s56.167 -14.333 81.5 -25l-11 -110c-21.333 11.333 -44.666 20.333 -69.999 27s-51 10 -77 10c-27.333 0 -46.666 -3.66699 -57.999 -11
s-17 -17 -17 -29c0 -14.667 6.66699 -27.334 20 -38.001s39.333 -21.667 78 -33c30.667 -9.33301 56.167 -19.666 76.5 -30.999s36.666 -23.666 48.999 -36.999s21.166 -27.666 26.499 -42.999s8 -31.333 8 -48c0 -53.333 -18.167 -94.166 -54.5 -122.499
s-90.833 -42.5 -163.5 -42.5zM275 749.996h140v-25l-142 -145h-120z" />
    <glyph glyph-name="Scircumflex" unicode="&#x15c;" horiz-adv-x="577" 
d="M45 515c0 61.333 22.335 109.5 67.002 144.5s109 52.5 193 52.5c34.667 0 68.667 -3 102 -9s64.333 -14.667 93 -26l-11 -126c-58.667 24.667 -116.334 37 -173.001 37c-40.667 0 -69.667 -6.33301 -87 -19s-26 -28.667 -26 -48c0 -21.333 8.66699 -40.166 26 -56.499
s50 -32.5 98 -48.5c73.333 -24.667 126.666 -54.334 159.999 -89.001s50 -78.667 50 -132c0 -66 -22.333 -117 -67 -153s-112.667 -54 -204 -54c-38 0 -76.167 4 -114.5 12s-72.833 19.667 -103.5 35l12 137c28 -19.333 59.167 -34.166 93.5 -44.499
s70.166 -15.5 107.499 -15.5c36 0 64.667 6.16699 86 18.5s32 31.5 32 57.5c0 12 -2 23 -6 33s-11.167 19.167 -21.5 27.5s-24.166 16.5 -41.499 24.5s-39 16.333 -65 25c-68.667 21.333 -119.167 49.666 -151.5 84.999s-48.5 79.333 -48.5 132zM352.002 924l125 -170h-120
l-70 81l-70 -81h-120l125 170h130z" />
    <glyph glyph-name="scircumflex" unicode="&#x15d;" horiz-adv-x="491" 
d="M233 -12c-35.333 0 -69.333 3.3291 -102 9.99609s-63 17 -91 31l7 120c25.333 -17.333 52.5 -30.666 81.5 -39.999s59.167 -14 90.5 -14c54 0 81 17.333 81 52c0 7.33301 -1.5 14 -4.5 20s-8.5 11.833 -16.5 17.5s-18.667 11.167 -32 16.5s-30 11 -50 17
c-54 15.333 -93.333 36.5 -118 63.5s-37 58.833 -37 95.5c0 50 18.167 88 54.5 114s88.833 39 157.5 39c31.333 0 61.5 -3 90.5 -9s56.167 -14.333 81.5 -25l-11 -110c-21.333 11.333 -44.666 20.333 -69.999 27s-51 10 -77 10c-27.333 0 -46.666 -3.66699 -57.999 -11
s-17 -17 -17 -29c0 -14.667 6.66699 -27.334 20 -38.001s39.333 -21.667 78 -33c30.667 -9.33301 56.167 -19.666 76.5 -30.999s36.666 -23.666 48.999 -36.999s21.166 -27.666 26.499 -42.999s8 -31.333 8 -48c0 -53.333 -18.167 -94.166 -54.5 -122.499
s-90.833 -42.5 -163.5 -42.5zM303 749.996l125 -170h-120l-70 81l-70 -81h-120l125 170h130z" />
    <glyph glyph-name="Scedilla" unicode="&#x15e;" horiz-adv-x="577" 
d="M191 -155c8.66699 -3.33301 18.0029 -5.83203 28.0029 -7.49902s20.667 -2.5 32 -2.5c15.333 0 26.666 2.16699 33.999 6.5s11 12.166 11 23.499c0 14 -7.33301 24.5 -22 31.5s-39.667 10.5 -75 10.5l43 82c-34.667 1.33301 -68.834 5.83301 -102.501 13.5
s-64.167 18.5 -91.5 32.5l12 137c28 -19.333 59.167 -34.166 93.5 -44.499s70.166 -15.5 107.499 -15.5c36 0 64.667 6.16699 86 18.5s32 31.5 32 57.5c0 12 -2 23 -6 33s-11.167 19.167 -21.5 27.5s-24.166 16.5 -41.499 24.5s-39 16.333 -65 25
c-68.667 21.333 -119.167 49.666 -151.5 84.999s-48.5 79.333 -48.5 132c0 61.333 22.333 109.5 67 144.5s109 52.5 193 52.5c34.667 0 68.667 -3 102 -9s64.333 -14.667 93 -26l-11 -126c-58.667 24.667 -116.334 37 -173.001 37c-40.667 0 -69.667 -6.33301 -87 -19
s-26 -28.667 -26 -48c0 -21.333 8.66699 -40.166 26 -56.499s50 -32.5 98 -48.5c73.333 -24.667 126.666 -54.334 159.999 -89.001s50 -78.667 50 -132s-14.5 -96.833 -43.5 -130.5s-73.167 -56.167 -132.5 -67.5l-31 -55c22.667 -4.66699 40.834 -14 54.501 -28
s20.5 -31.333 20.5 -52c0 -32 -11.667 -56.667 -35 -74s-60 -26 -110 -26c-12 0 -24 0.5 -36 1.5s-23 2.83301 -33 5.5v76z" />
    <glyph glyph-name="scedilla" unicode="&#x15f;" horiz-adv-x="491" 
d="M145 -155c8.66699 -3.33301 18 -5.83496 28 -7.50195s20.667 -2.5 32 -2.5c15.333 0 26.666 2.16699 33.999 6.5s11 12.166 11 23.499c0 14 -7.33301 24.5 -22 31.5s-39.667 10.5 -75 10.5l43 82c-58.667 4 -110.667 17.333 -156 40l7 120
c25.333 -17.333 52.5 -30.666 81.5 -39.999s59.167 -14 90.5 -14c54 0 81 17.333 81 52c0 7.33301 -1.5 14 -4.5 20s-8.5 11.833 -16.5 17.5s-18.667 11.167 -32 16.5s-30 11 -50 17c-54 15.333 -93.333 36.5 -118 63.5s-37 58.833 -37 95.5c0 50 18.167 88 54.5 114
s88.833 39 157.5 39c31.333 0 61.5 -3 90.5 -9s56.167 -14.333 81.5 -25l-11 -110c-21.333 11.333 -44.666 20.333 -69.999 27s-51 10 -77 10c-27.333 0 -46.666 -3.66699 -57.999 -11s-17 -17 -17 -29c0 -14.667 6.66699 -27.334 20 -38.001s39.333 -21.667 78 -33
c30.667 -9.33301 56.167 -19.666 76.5 -30.999s36.666 -23.666 48.999 -36.999s21.166 -27.666 26.499 -42.999s8 -31.333 8 -48c0 -42 -11.333 -76.333 -34 -103s-57 -44.667 -103 -54l-30 -54c22.667 -4.66699 40.834 -14 54.501 -28s20.5 -31.333 20.5 -52
c0 -32 -11.667 -56.667 -35 -74s-60 -26 -110 -26c-12 0 -24 0.5 -36 1.5s-23 2.83301 -33 5.5v76z" />
    <glyph glyph-name="Scaron" unicode="&#x160;" horiz-adv-x="577" 
d="M45 515c0 61.333 22.335 109.5 67.002 144.5s109 52.5 193 52.5c34.667 0 68.667 -3 102 -9s64.333 -14.667 93 -26l-11 -126c-58.667 24.667 -116.334 37 -173.001 37c-40.667 0 -69.667 -6.33301 -87 -19s-26 -28.667 -26 -48c0 -21.333 8.66699 -40.166 26 -56.499
s50 -32.5 98 -48.5c73.333 -24.667 126.666 -54.334 159.999 -89.001s50 -78.667 50 -132c0 -66 -22.333 -117 -67 -153s-112.667 -54 -204 -54c-38 0 -76.167 4 -114.5 12s-72.833 19.667 -103.5 35l12 137c28 -19.333 59.167 -34.166 93.5 -44.499
s70.166 -15.5 107.499 -15.5c36 0 64.667 6.16699 86 18.5s32 31.5 32 57.5c0 12 -2 23 -6 33s-11.167 19.167 -21.5 27.5s-24.166 16.5 -41.499 24.5s-39 16.333 -65 25c-68.667 21.333 -119.167 49.666 -151.5 84.999s-48.5 79.333 -48.5 132zM222.002 754l-125 170h120
l70 -81l70 81h120l-125 -170h-130z" />
    <glyph glyph-name="scaron" unicode="&#x161;" horiz-adv-x="491" 
d="M233 -12c-35.333 0 -69.333 3.3291 -102 9.99609s-63 17 -91 31l7 120c25.333 -17.333 52.5 -30.666 81.5 -39.999s59.167 -14 90.5 -14c54 0 81 17.333 81 52c0 7.33301 -1.5 14 -4.5 20s-8.5 11.833 -16.5 17.5s-18.667 11.167 -32 16.5s-30 11 -50 17
c-54 15.333 -93.333 36.5 -118 63.5s-37 58.833 -37 95.5c0 50 18.167 88 54.5 114s88.833 39 157.5 39c31.333 0 61.5 -3 90.5 -9s56.167 -14.333 81.5 -25l-11 -110c-21.333 11.333 -44.666 20.333 -69.999 27s-51 10 -77 10c-27.333 0 -46.666 -3.66699 -57.999 -11
s-17 -17 -17 -29c0 -14.667 6.66699 -27.334 20 -38.001s39.333 -21.667 78 -33c30.667 -9.33301 56.167 -19.666 76.5 -30.999s36.666 -23.666 48.999 -36.999s21.166 -27.666 26.499 -42.999s8 -31.333 8 -48c0 -53.333 -18.167 -94.166 -54.5 -122.499
s-90.833 -42.5 -163.5 -42.5zM176 579.996l-125 170h120l70 -81l70 81h120l-125 -170h-130z" />
    <glyph glyph-name="Tcommaaccent" unicode="&#x162;" horiz-adv-x="578" 
d="M211 578l-201 0.000976562v122h558v-122h-201v-578h-14l-33 -58c22.667 -4.66699 40.834 -14 54.501 -28s20.5 -31.333 20.5 -52c0 -32 -11.667 -56.667 -35 -74s-60 -26 -110 -26c-12 0 -24 0.5 -36 1.5s-23 2.83301 -33 5.5v76c8.66699 -3.33301 18 -5.83301 28 -7.5
s20.667 -2.5 32 -2.5c15.333 0 26.666 2.16699 33.999 6.5s11 12.166 11 23.499c0 14 -7.33301 24.5 -22 31.5s-39.667 10.5 -75 10.5l49 93h-27v578z" />
    <glyph glyph-name="tcommaaccent" unicode="&#x163;" horiz-adv-x="425" 
d="M156 -155c8.66699 -3.33301 18.001 -5.83398 28.001 -7.50098s20.667 -2.5 32 -2.5c15.333 0 26.666 2.16699 33.999 6.5s11 12.166 11 23.499c0 14 -7.33301 24.5 -22 31.5s-39.667 10.5 -75 10.5l49 93c-24 7.33301 -43.5 18.166 -58.5 32.499s-26.667 32.5 -35 54.5
s-14 47.667 -17 77s-4.5 62.333 -4.5 99v150h-83v105h83v155h149v-155h150v-105h-150v-206c0 -23.333 1.5 -42.166 4.5 -56.499s7.66699 -25.666 14 -33.999s14.333 -14 24 -17s21.167 -4.5 34.5 -4.5c21.333 0 42.666 3 63.999 9l12 -106
c-13.333 -3.33301 -26.5 -5.66602 -39.5 -6.99902s-26.167 -2.33301 -39.5 -3l-26 -46c22.667 -4.66699 40.834 -14 54.501 -28s20.5 -31.333 20.5 -52c0 -32 -11.667 -56.667 -35 -74s-60 -26 -110 -26c-12 0 -24 0.5 -36 1.5s-23 2.83301 -33 5.5v76z" />
    <glyph glyph-name="Tcaron" unicode="&#x164;" horiz-adv-x="578" 
d="M211 578h-201v122h558v-122h-201v-578h-156v578zM224 754l-125 170h120l70 -81l70 81h120l-125 -170h-130z" />
    <glyph glyph-name="tcaron" unicode="&#x165;" horiz-adv-x="585" 
d="M15 518l82.999 -0.00292969v155h149v-155h150v-105h-150v-206c0 -23.333 1.5 -42.166 4.5 -56.499s7.66699 -25.666 14 -33.999s14.333 -14 24 -17s21.167 -4.5 34.5 -4.5c21.333 0 42.666 3 63.999 9l12 -106c-15.333 -3.33301 -31.166 -5.83301 -47.499 -7.5
s-32.166 -2.5 -47.499 -2.5c-44.667 0 -80.5 5.66699 -107.5 17s-47.833 28.333 -62.5 51s-24.5 51.334 -29.5 86.001s-7.5 75 -7.5 121v150h-83v105zM564.999 661.997c0 -52 -11 -96.499 -33 -133.499s-53.333 -66.167 -94 -87.5l-35 53c15.333 12 28 25.667 38 41
s16.667 31.666 20 48.999c-37.333 6.66699 -56 32.667 -56 78c0 54 26.667 81 80 81s80 -27 80 -81z" />
    <glyph glyph-name="Tbar" unicode="&#x166;" horiz-adv-x="578" 
d="M499 311h-132v-311h-156v311h-132v81h132v186h-201v122h558v-122h-201v-186h132v-81z" />
    <glyph glyph-name="tbar" unicode="&#x167;" horiz-adv-x="425" 
d="M36 331l61.999 -0.00195312v82h-83v105h83v155h149v-155h150v-105h-150v-82h125v-81h-125v-43c0 -23.333 1.5 -42.166 4.5 -56.499s7.66699 -25.666 14 -33.999s14.333 -14 24 -17s21.167 -4.5 34.5 -4.5c21.333 0 42.666 3 63.999 9l12 -106
c-15.333 -3.33301 -31.166 -5.83301 -47.499 -7.5s-32.166 -2.5 -47.499 -2.5c-43.333 0 -78.5 5.33301 -105.5 16s-48 27 -63 49s-25.167 49.333 -30.5 82s-8 71 -8 115h-62v81z" />
    <glyph glyph-name="Utilde" unicode="&#x168;" horiz-adv-x="748" 
d="M374 -12c-44.667 0 -85.334 6 -122.001 18s-68.167 30.167 -94.5 54.5s-46.666 54.833 -60.999 91.5s-21.5 79.667 -21.5 129v419h156v-415c0 -56.667 11.167 -99.667 33.5 -129s58.833 -44 109.5 -44s87.167 14.667 109.5 44s33.5 72.333 33.5 129v415h156v-419
c0 -49.333 -7.16699 -92.333 -21.5 -129s-34.666 -67.167 -60.999 -91.5s-57.833 -42.5 -94.5 -54.5s-77.334 -18 -122.001 -18zM546 911c0 -52 -9.83301 -89.332 -29.5 -111.999s-44.5 -34 -74.5 -34c-13.333 0 -26 2.5 -38 7.5s-23 10.333 -33 16s-18.833 11 -26.5 16
s-13.834 7.5 -18.501 7.5c-6.66699 0 -11.5 -2.83301 -14.5 -8.5s-4.5 -17.834 -4.5 -36.501h-104c0 52 9.66699 89.167 29 111.5s44 33.5 74 33.5c13.333 0 26 -2.5 38 -7.5s23 -10.333 33 -16s18.833 -11 26.5 -16s13.834 -7.5 18.501 -7.5
c6.66699 0 11.667 2.83301 15 8.5s5 18.167 5 37.5h104z" />
    <glyph glyph-name="utilde" unicode="&#x169;" horiz-adv-x="619" 
d="M311 95c19.333 0 37.167 3.66797 53.5 11.001s29.833 16.666 40.5 27.999v384h149v-518h-149v34c-16 -13.333 -35.333 -24.333 -58 -33s-48 -13 -76 -13c-66.667 0 -118.5 20.5 -155.5 61.5s-55.5 101.833 -55.5 182.5v286h149v-284c0 -49.333 8.5 -84.833 25.5 -106.5
s42.5 -32.5 76.5 -32.5zM479.001 736.001c0 -52 -9.83301 -89.332 -29.5 -111.999s-44.5 -34 -74.5 -34c-13.333 0 -26 2.5 -38 7.5s-23 10.333 -33 16s-18.833 11 -26.5 16s-13.834 7.5 -18.501 7.5c-6.66699 0 -11.5 -2.83301 -14.5 -8.5s-4.5 -17.834 -4.5 -36.501h-104
c0 52 9.66699 89.167 29 111.5s44 33.5 74 33.5c13.333 0 26 -2.5 38 -7.5s23 -10.333 33 -16s18.833 -11 26.5 -16s13.834 -7.5 18.501 -7.5c6.66699 0 11.667 2.83301 15 8.5s5 18.167 5 37.5h104z" />
    <glyph glyph-name="Umacron" unicode="&#x16a;" horiz-adv-x="748" 
d="M374 -12c-44.667 0 -85.334 6 -122.001 18s-68.167 30.167 -94.5 54.5s-46.666 54.833 -60.999 91.5s-21.5 79.667 -21.5 129v419h156v-415c0 -56.667 11.167 -99.667 33.5 -129s58.833 -44 109.5 -44s87.167 14.667 109.5 44s33.5 72.333 33.5 129v415h156v-419
c0 -49.333 -7.16699 -92.333 -21.5 -129s-34.666 -67.167 -60.999 -91.5s-57.833 -42.5 -94.5 -54.5s-77.334 -18 -122.001 -18zM218 888h312v-99h-312v99z" />
    <glyph glyph-name="umacron" unicode="&#x16b;" horiz-adv-x="619" 
d="M311 95c19.333 0 37.167 3.66797 53.5 11.001s29.833 16.666 40.5 27.999v384h149v-518h-149v34c-16 -13.333 -35.333 -24.333 -58 -33s-48 -13 -76 -13c-66.667 0 -118.5 20.5 -155.5 61.5s-55.5 101.833 -55.5 182.5v286h149v-284c0 -49.333 8.5 -84.833 25.5 -106.5
s42.5 -32.5 76.5 -32.5zM151.001 714.001h312v-99h-312v99z" />
    <glyph glyph-name="Ubreve" unicode="&#x16c;" horiz-adv-x="748" 
d="M374 -12c-44.667 0 -85.334 6 -122.001 18s-68.167 30.167 -94.5 54.5s-46.666 54.833 -60.999 91.5s-21.5 79.667 -21.5 129v419h156v-415c0 -56.667 11.167 -99.667 33.5 -129s58.833 -44 109.5 -44s87.167 14.667 109.5 44s33.5 72.333 33.5 129v415h156v-419
c0 -49.333 -7.16699 -92.333 -21.5 -129s-34.666 -67.167 -60.999 -91.5s-57.833 -42.5 -94.5 -54.5s-77.334 -18 -122.001 -18zM374 757c-25.333 0 -48.5 3.33301 -69.5 10s-39.333 16.834 -55 30.501s-28 30.834 -37 51.501s-13.833 44.667 -14.5 72h112
c1.33301 -24.667 7.5 -43 18.5 -55s26.167 -18 45.5 -18s34.5 6 45.5 18s17.167 30.333 18.5 55h112c-0.666992 -27.333 -5.5 -51.333 -14.5 -72s-21.333 -37.834 -37 -51.501s-34.167 -23.834 -55.5 -30.501s-44.333 -10 -69 -10z" />
    <glyph glyph-name="ubreve" unicode="&#x16d;" horiz-adv-x="619" 
d="M311 95c19.333 0 37.167 3.66797 53.5 11.001s29.833 16.666 40.5 27.999v384h149v-518h-149v34c-16 -13.333 -35.333 -24.333 -58 -33s-48 -13 -76 -13c-66.667 0 -118.5 20.5 -155.5 61.5s-55.5 101.833 -55.5 182.5v286h149v-284c0 -49.333 8.5 -84.833 25.5 -106.5
s42.5 -32.5 76.5 -32.5zM305.001 583.001c-25.333 0 -48.5 3.33301 -69.5 10s-39.333 16.834 -55 30.501s-28 30.834 -37 51.501s-13.833 44.667 -14.5 72h112c1.33301 -24.667 7.5 -43 18.5 -55s26.167 -18 45.5 -18s34.5 6 45.5 18s17.167 30.333 18.5 55h112
c-0.666992 -27.333 -5.5 -51.333 -14.5 -72s-21.333 -37.834 -37 -51.501s-34.167 -23.834 -55.5 -30.501s-44.333 -10 -69 -10z" />
    <glyph glyph-name="Uring" unicode="&#x16e;" horiz-adv-x="748" 
d="M374 -12c-44.667 0 -85.334 6 -122.001 18s-68.167 30.167 -94.5 54.5s-46.666 54.833 -60.999 91.5s-21.5 79.667 -21.5 129v419h156v-415c0 -56.667 11.167 -99.667 33.5 -129s58.833 -44 109.5 -44s87.167 14.667 109.5 44s33.5 72.333 33.5 129v415h156v-419
c0 -49.333 -7.16699 -92.333 -21.5 -129s-34.666 -67.167 -60.999 -91.5s-57.833 -42.5 -94.5 -54.5s-77.334 -18 -122.001 -18zM374 950c16.667 0 32 -2.83301 46 -8.5s26.167 -13.5 36.5 -23.5s18.5 -21.833 24.5 -35.5s9 -28.167 9 -43.5s-3 -29.833 -9 -43.5
s-14.167 -25.5 -24.5 -35.5s-22.5 -17.833 -36.5 -23.5s-29.333 -8.5 -46 -8.5s-32 2.83301 -46 8.5s-26.167 13.5 -36.5 23.5s-18.5 21.833 -24.5 35.5s-9 28.167 -9 43.5s3 29.833 9 43.5s14.167 25.5 24.5 35.5s22.5 17.833 36.5 23.5s29.333 8.5 46 8.5zM374 804
c9.33301 0 17.333 3 24 9s10 14.667 10 26s-3.33301 20 -10 26s-14.667 9 -24 9s-17.333 -3 -24 -9s-10 -14.667 -10 -26s3.33301 -20 10 -26s14.667 -9 24 -9z" />
    <glyph glyph-name="uring" unicode="&#x16f;" horiz-adv-x="619" 
d="M311 95c19.333 0 37.167 3.66797 53.5 11.001s29.833 16.666 40.5 27.999v384h149v-518h-149v34c-16 -13.333 -35.333 -24.333 -58 -33s-48 -13 -76 -13c-66.667 0 -118.5 20.5 -155.5 61.5s-55.5 101.833 -55.5 182.5v286h149v-284c0 -49.333 8.5 -84.833 25.5 -106.5
s42.5 -32.5 76.5 -32.5zM307.001 776.001c16.667 0 32 -2.83301 46 -8.5s26.167 -13.5 36.5 -23.5s18.5 -21.833 24.5 -35.5s9 -28.167 9 -43.5s-3 -29.833 -9 -43.5s-14.167 -25.5 -24.5 -35.5s-22.5 -17.833 -36.5 -23.5s-29.333 -8.5 -46 -8.5s-32 2.83301 -46 8.5
s-26.167 13.5 -36.5 23.5s-18.5 21.833 -24.5 35.5s-9 28.167 -9 43.5s3 29.833 9 43.5s14.167 25.5 24.5 35.5s22.5 17.833 36.5 23.5s29.333 8.5 46 8.5zM307.001 630.001c9.33301 0 17.333 3 24 9s10 14.667 10 26s-3.33301 20 -10 26s-14.667 9 -24 9s-17.333 -3 -24 -9
s-10 -14.667 -10 -26s3.33301 -20 10 -26s14.667 -9 24 -9z" />
    <glyph glyph-name="Uhungarumlaut" unicode="&#x170;" horiz-adv-x="748" 
d="M374 -12c-44.667 0 -85.334 6 -122.001 18s-68.167 30.167 -94.5 54.5s-46.666 54.833 -60.999 91.5s-21.5 79.667 -21.5 129v419h156v-415c0 -56.667 11.167 -99.667 33.5 -129s58.833 -44 109.5 -44s87.167 14.667 109.5 44s33.5 72.333 33.5 129v415h156v-419
c0 -49.333 -7.16699 -92.333 -21.5 -129s-34.666 -67.167 -60.999 -91.5s-57.833 -42.5 -94.5 -54.5s-77.334 -18 -122.001 -18zM515 924h140v-25l-142 -145h-120zM314 924h140v-25l-142 -145h-120z" />
    <glyph glyph-name="uhungarumlaut" unicode="&#x171;" horiz-adv-x="619" 
d="M311 95c19.333 0 37.167 3.66797 53.5 11.001s29.833 16.666 40.5 27.999v384h149v-518h-149v34c-16 -13.333 -35.333 -24.333 -58 -33s-48 -13 -76 -13c-66.667 0 -118.5 20.5 -155.5 61.5s-55.5 101.833 -55.5 182.5v286h149v-284c0 -49.333 8.5 -84.833 25.5 -106.5
s42.5 -32.5 76.5 -32.5zM452.001 749.001h140v-25l-142 -145h-120zM251.001 749.001h140v-25l-142 -145h-120z" />
    <glyph glyph-name="Uogonek" unicode="&#x172;" horiz-adv-x="748" 
d="M673 281c0 -83.333 -20.1699 -148.831 -60.5029 -196.498s-94.166 -77.5 -161.499 -89.5c-21.333 -19.333 -36.333 -36.5 -45 -51.5s-13 -29.5 -13 -43.5c0 -19.333 11.667 -29 35 -29c6.66699 0 13.834 0.666992 21.501 2s14.834 3.66602 21.501 6.99902v-92
c-9.33301 -2.66699 -20.333 -4.5 -33 -5.5s-25.667 -1.5 -39 -1.5c-40.667 0 -71.5 8.83301 -92.5 26.5s-31.5 41.5 -31.5 71.5c0 21.333 5 41.833 15 61.5s22.333 36.5 37 50.5c-38 4 -72.5 12.833 -103.5 26.5s-57.5 32.667 -79.5 57s-39 53.666 -51 87.999
s-18 73.833 -18 118.5v419h156v-415c0 -56.667 11.167 -99.667 33.5 -129s58.833 -44 109.5 -44s87.167 14.667 109.5 44s33.5 72.333 33.5 129v415h156v-419z" />
    <glyph glyph-name="uogonek" unicode="&#x173;" horiz-adv-x="619" 
d="M405 0v34.0039c-16 -13.333 -35.333 -24.333 -58 -33s-48 -13 -76 -13c-66.667 0 -118.5 20.5 -155.5 61.5s-55.5 101.833 -55.5 182.5v286h149v-284c0 -49.333 8.5 -84.833 25.5 -106.5s42.5 -32.5 76.5 -32.5c19.333 0 37.166 3.66699 53.499 11
s29.833 16.666 40.5 27.999v384h149v-518c-23.333 -20.667 -39.833 -38.834 -49.5 -54.501s-14.5 -30.834 -14.5 -45.501c0 -19.333 11.667 -29 35 -29c6.66699 0 13.834 0.666992 21.501 2s14.834 3.66602 21.501 6.99902v-92c-9.33301 -2.66699 -20.333 -4.5 -33 -5.5
s-25.667 -1.5 -39 -1.5c-40.667 0 -71.5 8.83301 -92.5 26.5s-31.5 41.5 -31.5 71.5c0 24 6.16699 46.667 18.5 68s27.166 39 44.499 53h-30z" />
    <glyph glyph-name="Wcircumflex" unicode="&#x174;" horiz-adv-x="1024" 
d="M403 0h-182l-204 700h160l135 -510l112 510h176l112 -510l135 510h160l-204 -700h-182l-109 490zM577 924l125 -170h-120l-70 81l-70 -81h-120l125 170h130z" />
    <glyph glyph-name="wcircumflex" unicode="&#x175;" horiz-adv-x="842" 
d="M488 518l94 -344l96 344h152l-169 -518h-152l-88 333l-88 -333h-152l-169 518h152l96 -344l94 344h134zM486 750l125 -170h-120l-70 81l-70 -81h-120l125 170h130z" />
    <glyph glyph-name="Ycircumflex" unicode="&#x176;" horiz-adv-x="714" 
d="M357 419l171 281h169l-262 -426v-274h-156v274l-262 426h169zM422 924l125 -170h-120l-70 81l-70 -81h-120l125 170h130z" />
    <glyph glyph-name="ycircumflex" unicode="&#x177;" horiz-adv-x="581" 
d="M220 1l-208 517h156l123 -344l122 344h156l-265 -711h-156zM345 750l125 -170h-120l-70 81l-70 -81h-120l125 170h130z" />
    <glyph glyph-name="Ydieresis" unicode="&#x178;" horiz-adv-x="714" 
d="M357 419l171 281h169l-262 -426v-274h-156v274l-262 426h169zM184 839c0 45.333 22.667 68 68 68s68 -22.667 68 -68s-22.667 -68 -68 -68s-68 22.667 -68 68zM394 839c0 45.333 22.667 68 68 68s68 -22.667 68 -68s-22.667 -68 -68 -68s-68 22.667 -68 68z" />
    <glyph glyph-name="Zacute" unicode="&#x179;" horiz-adv-x="590" 
d="M367 578h-324v122h509v-120l-339 -458h349v-122h-534v121zM333 924h140v-25l-142 -145h-120z" />
    <glyph glyph-name="zacute" unicode="&#x17a;" horiz-adv-x="496" 
d="M23 104l262 309h-249v105h427v-104l-262 -309h272v-105h-450v104zM284 750h140v-25l-142 -145h-120z" />
    <glyph glyph-name="Zdotaccent" unicode="&#x17b;" horiz-adv-x="590" 
d="M367 578h-324v122h509v-120l-339 -458h349v-122h-534v121zM362 838c0 -22.667 -5.66699 -40.167 -17 -52.5s-29 -18.5 -53 -18.5s-41.667 6.16699 -53 18.5s-17 29.833 -17 52.5s5.66699 40.167 17 52.5s29 18.5 53 18.5s41.667 -6.16699 53 -18.5s17 -29.833 17 -52.5z
" />
    <glyph glyph-name="zdotaccent" unicode="&#x17c;" horiz-adv-x="496" 
d="M23 104l262 309h-249v105h427v-104l-262 -309h272v-105h-450v104zM314 664c0 -22.667 -5.66699 -40.167 -17 -52.5s-29 -18.5 -53 -18.5s-41.667 6.16699 -53 18.5s-17 29.833 -17 52.5s5.66699 40.167 17 52.5s29 18.5 53 18.5s41.667 -6.16699 53 -18.5
s17 -29.833 17 -52.5z" />
    <glyph glyph-name="Zcaron" unicode="&#x17d;" horiz-adv-x="590" 
d="M367 578h-324v122h509v-120l-339 -458h349v-122h-534v121zM231 754l-125 170h120l70 -81l70 81h120l-125 -170h-130z" />
    <glyph glyph-name="zcaron" unicode="&#x17e;" horiz-adv-x="496" 
d="M23 104l262 309h-249v105h427v-104l-262 -309h272v-105h-450v104zM185 580l-125 170h120l70 -81l70 81h120l-125 -170h-130z" />
    <glyph glyph-name="longs" unicode="&#x17f;" horiz-adv-x="392" 
d="M10 518l95 -0.000976562v24c0 61.333 16 108 48 140s80.667 48 146 48c19.333 0 38 -1.16699 56 -3.5s33.667 -5.16602 47 -8.49902l-12 -103c-8.66699 3.33301 -18.5 6 -29.5 8s-22.167 3 -33.5 3c-24 0 -42.167 -6.33301 -54.5 -19s-18.5 -35 -18.5 -67v-540h-149v413
h-95v105z" />
    <glyph glyph-name="uni0191" unicode="&#x191;" horiz-adv-x="572" 
d="M75 700l475 0.000976562v-119h-319v-163h296v-119h-296v-311c0 -61.333 -16 -108 -48 -140s-80.667 -48 -146 -48c-19.333 0 -38 1.16699 -56 3.5s-33.667 5.16602 -47 8.49902l12 120c18 -7.33301 37.333 -11 58 -11c22.667 0 40.167 6 52.5 18s18.5 32.333 18.5 61v700
z" />
    <glyph glyph-name="florin" unicode="&#x192;" horiz-adv-x="392" 
d="M254 -12c0 -61.333 -16 -108 -48 -140s-80.667 -48 -146 -48c-19.333 0 -38 1.16699 -56 3.5s-33.667 5.16602 -47 8.49902l12 103c8.66699 -3.33301 18.5 -6 29.5 -8s22.167 -3 33.5 -3c24 0 42.167 6.33301 54.5 19s18.5 35 18.5 67v423h-95v105h95v24
c0 61.333 16 108 48 140s80.667 48 146 48c19.333 0 38 -1.16699 56 -3.5s33.667 -5.16602 47 -8.49902l-12 -103c-8.66699 3.33301 -18.5 6 -29.5 8s-22.167 3 -33.5 3c-24 0 -42.167 -6.33301 -54.5 -19s-18.5 -35 -18.5 -67v-22h133v-105h-133v-425z" />
    <glyph glyph-name="Aringacute" unicode="&#x1fa;" horiz-adv-x="690" 
d="M471 156h-252l-49 -156h-166l240 688c-10.667 18 -16 36.667 -16 56c0 15.333 3 29.833 9 43.5s14.167 25.5 24.5 35.5s22.5 17.833 36.5 23.5s29.333 8.5 46 8.5s32 -2.83301 46 -8.5s26.167 -13.5 36.5 -23.5s18.5 -21.833 24.5 -35.5s9 -28.167 9 -43.5
c0 -20 -4.66699 -38.333 -14 -55l240 -689h-166zM257 278h176l-88 283zM344 986h127v-19l-84 -94h-107zM344 709c9.33301 0 17.333 3 24 9s10 14.667 10 26s-3.33301 20 -10 26s-14.667 9 -24 9s-17.333 -3 -24 -9s-10 -14.667 -10 -26s3.33301 -20 10 -26s14.667 -9 24 -9z
" />
    <glyph glyph-name="aringacute" unicode="&#x1fb;" horiz-adv-x="574" 
d="M286 776c16.667 0 32 -2.83301 46 -8.5s26.167 -13.5 36.5 -23.5s18.5 -21.833 24.5 -35.5s9 -28.167 9 -43.5s-3 -29.833 -9 -43.5s-14.167 -25.5 -24.5 -35.5s-22.5 -17.833 -36.5 -23.5s-29.333 -8.5 -46 -8.5s-32 2.83301 -46 8.5s-26.167 13.5 -36.5 23.5
s-18.5 21.833 -24.5 35.5s-9 28.167 -9 43.5s3 29.833 9 43.5s14.167 25.5 24.5 35.5s22.5 17.833 36.5 23.5s29.333 8.5 46 8.5zM286 630c9.33301 0 17.333 3 24 9s10 14.667 10 26s-3.33301 20 -10 26s-14.667 9 -24 9s-17.333 -3 -24 -9s-10 -14.667 -10 -26
s3.33301 -20 10 -26s14.667 -9 24 -9zM286 907h127v-19l-84 -94h-107zM222 -12c-26.667 0 -51.668 3.66504 -75.001 10.998s-43.666 18 -60.999 32s-31 31.333 -41 52s-15 44.334 -15 71.001c0 54 20.333 97.167 61 129.5s100 48.5 178 48.5h96v24
c0 25.333 -7.5 43 -22.5 53s-40.5 15 -76.5 15c-32 0 -63.333 -4.16699 -94 -12.5s-58.667 -19.5 -84 -33.5l-14 106c26 13.333 57.5 24.333 94.5 33s74.5 13 112.5 13c80.667 0 139.667 -15.167 177 -45.5s56 -81.166 56 -152.499v-332h-149v34
c-22 -16.667 -43.5 -28.5 -64.5 -35.5s-47.167 -10.5 -78.5 -10.5zM257.999 90.998c20.667 0 40.667 3.50098 60 10.501s35 17.833 47 32.5v96h-91c-34 0 -58 -6.5 -72 -19.5s-21 -30.833 -21 -53.5s6.83301 -39.334 20.5 -50.001s32.5 -16 56.5 -16z" />
    <glyph glyph-name="AEacute" unicode="&#x1fc;" horiz-adv-x="903" 
d="M240 157l-69 -157h-167l316 700h535v-122h-273v-159h249v-122h-249v-175h281v-122h-434v157h-189zM293 279h136v308zM611 924h140v-25l-142 -145h-120z" />
    <glyph glyph-name="aeacute" unicode="&#x1fd;" horiz-adv-x="893" 
d="M506 219c4 -41.333 19.332 -70.833 45.999 -88.5s63 -26.5 109 -26.5c25.333 0 51 3.5 77 10.5s49.333 17.833 70 32.5l11 -112c-21.333 -11.333 -46.833 -20.166 -76.5 -26.499s-59.5 -9.5 -89.5 -9.5c-48 0 -90 7.66699 -126 23s-64.333 37.666 -85 66.999
c-23.333 -30 -52.5 -52.5 -87.5 -67.5s-73.5 -22.5 -115.5 -22.5c-65.333 0 -116.5 14.5 -153.5 43.5s-55.5 70.167 -55.5 123.5c0 54.667 20.667 97.834 62 129.501s101.333 47.5 180 47.5h93v17c0 12.667 -1.16699 23.667 -3.5 33s-7.16602 17.166 -14.499 23.499
s-17.833 11 -31.5 14s-31.834 4.5 -54.501 4.5c-27.333 0 -57 -4.33301 -89 -13s-60 -19.667 -84 -33l-14 106c28.667 14 60.334 25.167 95.001 33.5s69 12.5 103 12.5c44.667 0 80 -5.5 106 -16.5s46.333 -30.833 61 -59.5c20.667 28 45 47.667 73 59s61 17 99 17
c39.333 0 74.666 -6.83301 105.999 -20.5s57.833 -32.667 79.5 -57s38.167 -53.5 49.5 -87.5s17 -71.333 17 -112c0 -6.66699 -0.166992 -14 -0.5 -22s-1.16602 -15.667 -2.49902 -23h-354zM254.999 102c25.333 0 48.168 5.66699 68.501 17s34.166 28 41.499 50v72h-87
c-34.667 0 -59.5 -6 -74.5 -18s-22.5 -29.667 -22.5 -53s6.5 -40.5 19.5 -51.5s31.167 -16.5 54.5 -16.5zM716.001 321c-2.66699 36 -12.999 64.167 -30.999 84.5s-43 30.5 -75 30.5c-31.333 0 -55.833 -10.167 -73.5 -30.5s-27.834 -48.5 -30.501 -84.5h210zM472.002 750
h140v-25l-142 -145h-120z" />
    <glyph glyph-name="Oslashacute" unicode="&#x1fe;" horiz-adv-x="744" 
d="M75 -100l89.001 155.999c-40.667 32.667 -71.5 74.167 -92.5 124.5s-31.5 106.833 -31.5 169.5c0 51.333 7.33301 99 22 143s36 82.333 64 115s62.667 58.167 104 76.5s88.666 27.5 141.999 27.5c55.333 0 104.666 -10.333 147.999 -31l68 119h94
c-0.666992 -1.33301 -8.66699 -15.166 -24 -41.499l-70 -121.5c38 -33.333 66.833 -74.5 86.5 -123.5s29.5 -103.5 29.5 -163.5c0 -51.333 -7.33301 -99 -22 -143s-36 -82.333 -64 -115s-62.667 -58.167 -104 -76.5s-88.666 -27.5 -141.999 -27.5
c-51.333 0 -97.333 8.66699 -138 26l-32 -56l-33 -58h-94zM198.001 349.999c0 -68.667 12.999 -123.667 38.999 -165l217 381c-24 14.667 -51.333 22 -82 22c-53.333 0 -95.666 -20.667 -126.999 -62s-47 -100 -47 -176zM546 349.999c0 32 -2.83105 60.668 -8.49805 86.001
s-13.834 47.666 -24.501 66.999l-96 -167l-118 -208c20.667 -10.667 45 -16 73 -16c53.333 0 95.666 20.5 126.999 61.5s47 99.833 47 176.5zM402.002 924h140v-25l-142 -145h-120z" />
    <glyph glyph-name="oslashacute" unicode="&#x1ff;" horiz-adv-x="608" 
d="M135 40c-32 24 -56.668 54.666 -74.001 91.999s-26 79.666 -26 126.999c0 39.333 6.33301 75.5 19 108.5s30.667 61.5 54 85.5s51.5 42.833 84.5 56.5s70.167 20.5 111.5 20.5c19.333 0 37.5 -1.66699 54.5 -5s33.167 -7.66602 48.5 -12.999l67 116h90l-88 -153
c31.333 -24 55.333 -54.5 72 -91.5s25 -78.5 25 -124.5c0 -39.333 -6.33301 -75.666 -19 -108.999s-30.667 -62 -54 -86s-51.5 -42.667 -84.5 -56s-70.167 -20 -111.5 -20c-18.667 0 -36.167 1.33301 -52.5 4s-32.166 6.66699 -47.499 12l-66 -114h-90zM185.999 258.999
c0 -40 5.99902 -73 17.999 -99l146 253c-15.333 6.66699 -30.666 10 -45.999 10c-36.667 0 -65.5 -14.167 -86.5 -42.5s-31.5 -68.833 -31.5 -121.5zM303.998 94.999c36.667 0 65.501 14.167 86.501 42.5s31.5 68.833 31.5 121.5c0 36.667 -5.66699 68 -17 94l-144 -250
c11.333 -5.33301 25.666 -8 42.999 -8zM335.999 749.999h140v-25l-142 -145h-120z" />
    <glyph glyph-name="Scommaaccent" unicode="&#x218;" horiz-adv-x="577" 
d="M45 515c0 61.333 22.335 109.5 67.002 144.5s109 52.5 193 52.5c34.667 0 68.667 -3 102 -9s64.333 -14.667 93 -26l-11 -126c-58.667 24.667 -116.334 37 -173.001 37c-40.667 0 -69.667 -6.33301 -87 -19s-26 -28.667 -26 -48c0 -21.333 8.66699 -40.166 26 -56.499
s50 -32.5 98 -48.5c73.333 -24.667 126.666 -54.334 159.999 -89.001s50 -78.667 50 -132c0 -66 -22.333 -117 -67 -153s-112.667 -54 -204 -54c-38 0 -76.167 4 -114.5 12s-72.833 19.667 -103.5 35l12 137c28 -19.333 59.167 -34.166 93.5 -44.499
s70.166 -15.5 107.499 -15.5c36 0 64.667 6.16699 86 18.5s32 31.5 32 57.5c0 12 -2 23 -6 33s-11.167 19.167 -21.5 27.5s-24.166 16.5 -41.499 24.5s-39 16.333 -65 25c-68.667 21.333 -119.167 49.666 -151.5 84.999s-48.5 79.333 -48.5 132zM233.002 -103
c0 41.333 21.667 62.001 65 62.001c44 0 66 -22.667 66 -68c0 -69.333 -31 -123.666 -93 -162.999l-31 45c11.333 7.33301 20.5 16.666 27.5 27.999s11.167 23 12.5 35c-31.333 5.33301 -47 25.666 -47 60.999z" />
    <glyph glyph-name="scommaaccent" unicode="&#x219;" horiz-adv-x="491" 
d="M233 -12c-35.333 0 -69.333 3.3291 -102 9.99609s-63 17 -91 31l7 120c25.333 -17.333 52.5 -30.666 81.5 -39.999s59.167 -14 90.5 -14c54 0 81 17.333 81 52c0 7.33301 -1.5 14 -4.5 20s-8.5 11.833 -16.5 17.5s-18.667 11.167 -32 16.5s-30 11 -50 17
c-54 15.333 -93.333 36.5 -118 63.5s-37 58.833 -37 95.5c0 50 18.167 88 54.5 114s88.833 39 157.5 39c31.333 0 61.5 -3 90.5 -9s56.167 -14.333 81.5 -25l-11 -110c-21.333 11.333 -44.666 20.333 -69.999 27s-51 10 -77 10c-27.333 0 -46.666 -3.66699 -57.999 -11
s-17 -17 -17 -29c0 -14.667 6.66699 -27.334 20 -38.001s39.333 -21.667 78 -33c30.667 -9.33301 56.167 -19.666 76.5 -30.999s36.666 -23.666 48.999 -36.999s21.166 -27.666 26.499 -42.999s8 -31.333 8 -48c0 -53.333 -18.167 -94.166 -54.5 -122.499
s-90.833 -42.5 -163.5 -42.5zM187 -103.004c0 41.333 21.667 62.001 65 62.001c44 0 66 -22.667 66 -68c0 -69.333 -31 -123.666 -93 -162.999l-31 45c11.333 7.33301 20.5 16.666 27.5 27.999s11.167 23 12.5 35c-31.333 5.33301 -47 25.666 -47 60.999z" />
    <glyph glyph-name="uni021A" unicode="&#x21a;" horiz-adv-x="578" 
d="M211 578h-201v122h558v-122h-201v-578h-156v578zM223 -103c0 41.333 21.667 62.001 65 62.001c44 0 66 -22.667 66 -68c0 -69.333 -31 -123.666 -93 -162.999l-31 45c11.333 7.33301 20.5 16.666 27.5 27.999s11.167 23 12.5 35c-31.333 5.33301 -47 25.666 -47 60.999z
" />
    <glyph glyph-name="uni021B" unicode="&#x21b;" horiz-adv-x="425" 
d="M15 518l82.999 -0.00292969v155h149v-155h150v-105h-150v-206c0 -23.333 1.5 -42.166 4.5 -56.499s7.66699 -25.666 14 -33.999s14.333 -14 24 -17s21.167 -4.5 34.5 -4.5c21.333 0 42.666 3 63.999 9l12 -106c-15.333 -3.33301 -31.166 -5.83301 -47.499 -7.5
s-32.166 -2.5 -47.499 -2.5c-44.667 0 -80.5 5.66699 -107.5 17s-47.833 28.333 -62.5 51s-24.5 51.334 -29.5 86.001s-7.5 75 -7.5 121v150h-83v105zM178.999 -103.003c0 41.333 21.667 62.001 65 62.001c44 0 66 -22.667 66 -68c0 -69.333 -31 -123.666 -93 -162.999
l-31 45c11.333 7.33301 20.5 16.666 27.5 27.999s11.167 23 12.5 35c-31.333 5.33301 -47 25.666 -47 60.999z" />
    <glyph glyph-name="dotlessj" unicode="&#x237;" horiz-adv-x="296" 
d="M83 518l149 -0.00292969v-515c0 -31.333 -3.5 -59.666 -10.5 -84.999s-18.5 -46.666 -34.5 -63.999s-37 -30.666 -63 -39.999s-57.667 -14 -95 -14c-14.667 0 -29.667 1 -45 3s-30 5 -44 9l10 108c16 -8.66699 36 -13 60 -13c48.667 0 73 30.333 73 91v520z" />
    <glyph glyph-name="apostrophe" unicode="&#x2bc;" horiz-adv-x="440" 
d="M300 669c0 -52 -11 -96.499 -33 -133.499s-53.333 -66.167 -94 -87.5l-35 53c15.333 12 28 25.667 38 41s16.667 31.666 20 48.999c-37.333 6.66699 -56 32.667 -56 78c0 54 26.667 81 80 81s80 -27 80 -81z" />
    <glyph glyph-name="circumflex" unicode="&#x2c6;" horiz-adv-x="440" 
d="M285 730l125 -170h-120l-70 81l-70 -81h-120l125 170h130z" />
    <glyph glyph-name="caron" unicode="&#x2c7;" horiz-adv-x="440" 
d="M155 560l-125 170h120l70 -81l70 81h120l-125 -170h-130z" />
    <glyph glyph-name="uni02C9" unicode="&#x2c9;" horiz-adv-x="440" 
d="M64 694h312v-99h-312v99z" />
    <glyph glyph-name="breve" unicode="&#x2d8;" horiz-adv-x="440" 
d="M220 562c-25.333 0 -48.5 3.33301 -69.5 10s-39.333 16.834 -55 30.501s-28 30.834 -37 51.501s-13.833 44.667 -14.5 72h112c1.33301 -24.667 7.5 -43 18.5 -55s26.167 -18 45.5 -18s34.5 6 45.5 18s17.167 30.333 18.5 55h112
c-0.666992 -27.333 -5.5 -51.333 -14.5 -72s-21.333 -37.834 -37 -51.501s-34.167 -23.834 -55.5 -30.501s-44.333 -10 -69 -10z" />
    <glyph glyph-name="dotaccent" unicode="&#x2d9;" horiz-adv-x="440" 
d="M290 644c0 -22.667 -5.66699 -40.167 -17 -52.5s-29 -18.5 -53 -18.5s-41.667 6.16699 -53 18.5s-17 29.833 -17 52.5s5.66699 40.167 17 52.5s29 18.5 53 18.5s41.667 -6.16699 53 -18.5s17 -29.833 17 -52.5z" />
    <glyph glyph-name="ring" unicode="&#x2da;" horiz-adv-x="440" 
d="M220 761c16.667 0 32 -2.83301 46 -8.5s26.167 -13.5 36.5 -23.5s18.5 -21.833 24.5 -35.5s9 -28.167 9 -43.5s-3 -29.833 -9 -43.5s-14.167 -25.5 -24.5 -35.5s-22.5 -17.833 -36.5 -23.5s-29.333 -8.5 -46 -8.5s-32 2.83301 -46 8.5s-26.167 13.5 -36.5 23.5
s-18.5 21.833 -24.5 35.5s-9 28.167 -9 43.5s3 29.833 9 43.5s14.167 25.5 24.5 35.5s22.5 17.833 36.5 23.5s29.333 8.5 46 8.5zM220 615c9.33301 0 17.333 3 24 9s10 14.667 10 26s-3.33301 20 -10 26s-14.667 9 -24 9s-17.333 -3 -24 -9s-10 -14.667 -10 -26
s3.33301 -20 10 -26s14.667 -9 24 -9z" />
    <glyph glyph-name="ogonek" unicode="&#x2db;" horiz-adv-x="440" 
d="M306 0c-23.333 -20.667 -39.834 -38.8311 -49.501 -54.498s-14.5 -30.834 -14.5 -45.501c0 -19.333 11.667 -29 35 -29c6.66699 0 13.834 0.666992 21.501 2s14.834 3.66602 21.501 6.99902v-92c-9.33301 -2.66699 -20.333 -4.5 -33 -5.5s-25.667 -1.5 -39 -1.5
c-40.667 0 -71.5 8.83301 -92.5 26.5s-31.5 41.5 -31.5 71.5c0 24 6.16699 46.667 18.5 68s27.166 39 44.499 53h119z" />
    <glyph glyph-name="tilde" unicode="&#x2dc;" horiz-adv-x="440" 
d="M391 717c0 -52 -9.83301 -89.332 -29.5 -111.999s-44.5 -34 -74.5 -34c-13.333 0 -26 2.5 -38 7.5s-23 10.333 -33 16s-18.833 11 -26.5 16s-13.834 7.5 -18.501 7.5c-6.66699 0 -11.5 -2.83301 -14.5 -8.5s-4.5 -17.834 -4.5 -36.501h-104c0 52 9.66699 89.167 29 111.5
s44 33.5 74 33.5c13.333 0 26 -2.5 38 -7.5s23 -10.333 33 -16s18.833 -11 26.5 -16s13.834 -7.5 18.501 -7.5c6.66699 0 11.667 2.83301 15 8.5s5 18.167 5 37.5h104z" />
    <glyph glyph-name="hungarumlaut" unicode="&#x2dd;" horiz-adv-x="440" 
d="M305 730h140v-25l-142 -145h-120zM104 730h140v-25l-142 -145h-120z" />
    <glyph glyph-name="gravecomb" unicode="&#x300;" horiz-adv-x="0" 
d="M-153 560h-120l-142 145v25h140z" />
    <glyph glyph-name="acutecomb" unicode="&#x301;" horiz-adv-x="0" 
d="M-232 730h140v-25l-142 -145h-120z" />
    <glyph glyph-name="uni0302" unicode="&#x302;" horiz-adv-x="0" 
d="M-187 730l125 -170h-120l-70 81l-70 -81h-120l125 170h130z" />
    <glyph glyph-name="tildecomb" unicode="&#x303;" horiz-adv-x="0" 
d="M-84 717c0 -52 -9.83301 -89.332 -29.5 -111.999s-44.5 -34 -74.5 -34c-13.333 0 -26 2.5 -38 7.5s-23 10.333 -33 16s-18.833 11 -26.5 16s-13.834 7.5 -18.501 7.5c-6.66699 0 -11.5 -2.83301 -14.5 -8.5s-4.5 -17.834 -4.5 -36.501h-104c0 52 9.66699 89.167 29 111.5
s44 33.5 74 33.5c13.333 0 26 -2.5 38 -7.5s23 -10.333 33 -16s18.833 -11 26.5 -16s13.834 -7.5 18.501 -7.5c6.66699 0 11.667 2.83301 15 8.5s5 18.167 5 37.5h104z" />
    <glyph glyph-name="uni0304" unicode="&#x304;" horiz-adv-x="0" 
d="M-411 694h312v-99h-312v99z" />
    <glyph glyph-name="uni0306" unicode="&#x306;" horiz-adv-x="0" 
d="M-254 562c-25.333 0 -48.5 3.33301 -69.5 10s-39.333 16.834 -55 30.501s-28 30.834 -37 51.501s-13.833 44.667 -14.5 72h112c1.33301 -24.667 7.5 -43 18.5 -55s26.167 -18 45.5 -18s34.5 6 45.5 18s17.167 30.333 18.5 55h112
c-0.666992 -27.333 -5.5 -51.333 -14.5 -72s-21.333 -37.834 -37 -51.501s-34.167 -23.834 -55.5 -30.501s-44.333 -10 -69 -10z" />
    <glyph glyph-name="uni0307" unicode="&#x307;" horiz-adv-x="0" 
d="M-184 644c0 -22.667 -5.66699 -40.167 -17 -52.5s-29 -18.5 -53 -18.5s-41.667 6.16699 -53 18.5s-17 29.833 -17 52.5s5.66699 40.167 17 52.5s29 18.5 53 18.5s41.667 -6.16699 53 -18.5s17 -29.833 17 -52.5z" />
    <glyph glyph-name="uni0308" unicode="&#x308;" horiz-adv-x="0" 
d="M-426 645c0 45.333 22.667 68 68 68s68 -22.667 68 -68s-22.667 -68 -68 -68s-68 22.667 -68 68zM-216 645c0 45.333 22.667 68 68 68s68 -22.667 68 -68s-22.667 -68 -68 -68s-68 22.667 -68 68z" />
    <glyph glyph-name="uni030A" unicode="&#x30a;" horiz-adv-x="0" 
d="M-253 761c16.667 0 32 -2.83301 46 -8.5s26.167 -13.5 36.5 -23.5s18.5 -21.833 24.5 -35.5s9 -28.167 9 -43.5s-3 -29.833 -9 -43.5s-14.167 -25.5 -24.5 -35.5s-22.5 -17.833 -36.5 -23.5s-29.333 -8.5 -46 -8.5s-32 2.83301 -46 8.5s-26.167 13.5 -36.5 23.5
s-18.5 21.833 -24.5 35.5s-9 28.167 -9 43.5s3 29.833 9 43.5s14.167 25.5 24.5 35.5s22.5 17.833 36.5 23.5s29.333 8.5 46 8.5zM-253 615c9.33301 0 17.333 3 24 9s10 14.667 10 26s-3.33301 20 -10 26s-14.667 9 -24 9s-17.333 -3 -24 -9s-10 -14.667 -10 -26
s3.33301 -20 10 -26s14.667 -9 24 -9z" />
    <glyph glyph-name="uni030C" unicode="&#x30c;" horiz-adv-x="0" 
d="M-317 560l-125 170h120l70 -81l70 81h120l-125 -170h-130z" />
    <glyph glyph-name="uni0327" unicode="&#x327;" horiz-adv-x="0" 
d="M-357 -155c8.66699 -3.33301 18 -5.83203 28 -7.49902s20.667 -2.5 32 -2.5c15.333 0 26.666 2.16699 33.999 6.5s11 12.166 11 23.499c0 14 -7.33301 24.5 -22 31.5s-39.667 10.5 -75 10.5l49 93h115l-33 -58c22.667 -4.66699 40.834 -14 54.501 -28
s20.5 -31.333 20.5 -52c0 -32 -11.667 -56.667 -35 -74s-60 -26 -110 -26c-12 0 -24 0.5 -36 1.5s-23 2.83301 -33 5.5v76z" />
    <glyph glyph-name="tonos" unicode="&#x384;" horiz-adv-x="440" 
d="M203 730h134v-24l-96 -154h-113z" />
    <glyph glyph-name="dieresistonos" unicode="&#x385;" horiz-adv-x="440" 
d="M255 764h134v-25l-119 -115h-114zM45 552c0 45.333 22.667 68 68 68s68 -22.667 68 -68s-22.667 -68 -68 -68s-68 22.667 -68 68zM255 552c0 45.333 22.667 68 68 68s68 -22.667 68 -68s-22.667 -68 -68 -68s-68 22.667 -68 68z" />
    <glyph glyph-name="Alphatonos" unicode="&#x386;" horiz-adv-x="690" 
d="M471 156h-252l-49 -156h-166l244 700h194l244 -700h-166zM257 278h176l-88 283zM65 701h134v-24l-96 -154h-113z" />
    <glyph glyph-name="anoteleia" unicode="&#x387;" horiz-adv-x="300" 
d="M150 251c-53.333 0 -80 27 -80 81s26.667 81 80 81s80 -27 80 -81s-26.667 -81 -80 -81z" />
    <glyph glyph-name="Epsilontonos" unicode="&#x388;" horiz-adv-x="738" 
d="M214 700h475v-122h-319v-158h296v-122h-296v-176h328v-122h-484v700zM50 701h134v-24l-96 -154h-113z" />
    <glyph glyph-name="Etatonos" unicode="&#x389;" horiz-adv-x="877" 
d="M214 700h156v-267h276v267h156v-700h-156v311h-276v-311h-156v700zM50 701h134v-24l-96 -154h-113z" />
    <glyph glyph-name="Iotatonos" unicode="&#x38a;" horiz-adv-x="450" 
d="M370 700v-700h-156v700h156zM50 701h134v-24l-96 -154h-113z" />
    <glyph glyph-name="Omicrontonos" unicode="&#x38c;" horiz-adv-x="824" 
d="M784 350c0 -51.333 -7.33301 -99 -22 -143s-36 -82.333 -64 -115s-62.667 -58.167 -104 -76.5s-88.666 -27.5 -141.999 -27.5s-100.666 9.16699 -141.999 27.5s-76 43.833 -104 76.5s-49.333 71 -64 115s-22 91.667 -22 143s7.33301 99 22 143s36 82.333 64 115
s62.667 58.167 104 76.5s88.666 27.5 141.999 27.5s100.666 -9.16699 141.999 -27.5s76 -43.833 104 -76.5s49.333 -71 64 -115s22 -91.667 22 -143zM626 350c0 76 -15.667 134.667 -47 176s-73.666 62 -126.999 62s-95.666 -20.667 -126.999 -62s-47 -100 -47 -176
c0 -76.667 15.667 -135.5 47 -176.5s73.666 -61.5 126.999 -61.5s95.666 20.5 126.999 61.5s47 99.833 47 176.5zM50 701h134v-24l-96 -154h-113z" />
    <glyph glyph-name="Upsilontonos" unicode="&#x38e;" horiz-adv-x="894" 
d="M537 419l171 281h169l-262 -426v-274h-156v274l-262 426h169zM51 701h134v-24l-96 -154h-113z" />
    <glyph glyph-name="Omegatonos" unicode="&#x38f;" horiz-adv-x="830" 
d="M459 588c-26 0 -49.667 -5 -71 -15s-39.5 -24.5 -54.5 -43.5s-26.667 -42 -35 -69s-12.5 -57.833 -12.5 -92.5c0 -54.667 11 -102.834 33 -144.501s55.667 -79.5 101 -113.5v-110h-285v122h100c-32 29.333 -57.833 65.166 -77.5 107.499s-29.5 90.5 -29.5 144.5
c0 48.667 7.5 93.667 22.5 135s36.667 77 65 107s63 53.5 104 70.5s87.5 25.5 139.5 25.5s98.5 -8.5 139.5 -25.5s75.667 -40.5 104 -70.5s50 -65.667 65 -107s22.5 -86.333 22.5 -135c0 -54 -9.83301 -102.167 -29.5 -144.5s-45.5 -78.166 -77.5 -107.499h100v-122h-285
v110c45.333 34 79 71.833 101 113.5s33 89.834 33 144.501c0 34.667 -4.16699 65.5 -12.5 92.5s-20 50 -35 69s-33.167 33.5 -54.5 43.5s-45 15 -71 15zM51 701h134v-24l-96 -154h-113z" />
    <glyph glyph-name="iotadieresistonos" unicode="&#x390;" horiz-adv-x="365" 
d="M65 518l149 -0.000976562v-312c0 -22.667 1.33301 -41.167 4 -55.5s7 -25.666 13 -33.999s13.5 -14 22.5 -17s19.833 -4.5 32.5 -4.5c22 0 41.333 3.33301 58 10l13 -106c-30.667 -7.33301 -63.667 -11 -99 -11c-66.667 0 -115.5 15.667 -146.5 47
s-46.5 81.333 -46.5 150v333zM177 836.999h134v-25l-119 -115h-114zM-33 624.999c0 45.333 22.667 68 68 68s68 -22.667 68 -68s-22.667 -68 -68 -68s-68 22.667 -68 68zM177 624.999c0 45.333 22.667 68 68 68s68 -22.667 68 -68s-22.667 -68 -68 -68s-68 22.667 -68 68z
" />
    <glyph glyph-name="Alpha" unicode="&#x391;" horiz-adv-x="690" 
d="M471 156h-252l-49 -156h-166l244 700h194l244 -700h-166zM257 278h176l-88 283z" />
    <glyph glyph-name="Beta" unicode="&#x392;" horiz-adv-x="661" 
d="M75 700l262.999 0.000976562c82 0 145.167 -17.5 189.5 -52.5s66.5 -81.167 66.5 -138.5c0 -30 -6.66699 -56.833 -20 -80.5s-33 -42.5 -59 -56.5c36.667 -15.333 64.334 -37.333 83.001 -66s28 -61.334 28 -98.001c0 -68 -23.833 -119.667 -71.5 -155
s-115.5 -53 -203.5 -53h-276v700zM462.999 213.001c0 28 -10.333 49.833 -31 65.5s-55 23.5 -103 23.5h-98v-184h98c48 0 82.333 7.33301 103 22s31 39 31 73zM435.999 498.001c0 28 -9.33301 49.001 -28 63.001s-48.334 21 -89.001 21h-88v-162h88
c40.667 0 70.334 6.16699 89.001 18.5s28 32.166 28 59.499z" />
    <glyph glyph-name="Gamma" unicode="&#x393;" horiz-adv-x="557" 
d="M75 700h472v-122h-316v-578h-156v700z" />
    <glyph glyph-name="uni0394" unicode="&#x394;" horiz-adv-x="690" 
d="M248 700h194l244 -700h-682zM208 122h274l-137 439z" />
    <glyph glyph-name="Epsilon" unicode="&#x395;" horiz-adv-x="599" 
d="M75 700h475v-122h-319v-158h296v-122h-296v-176h328v-122h-484v700z" />
    <glyph glyph-name="Zeta" unicode="&#x396;" horiz-adv-x="590" 
d="M367 578h-324v122h509v-120l-339 -458h349v-122h-534v121z" />
    <glyph glyph-name="Eta" unicode="&#x397;" horiz-adv-x="738" 
d="M75 700h156v-267h276v267h156v-700h-156v311h-276v-311h-156v700z" />
    <glyph glyph-name="Theta" unicode="&#x398;" horiz-adv-x="744" 
d="M255 303v94h234v-94h-234zM704 350c0 -51.333 -7.33301 -99 -22 -143s-36 -82.333 -64 -115s-62.667 -58.167 -104 -76.5s-88.666 -27.5 -141.999 -27.5s-100.666 9.16699 -141.999 27.5s-76 43.833 -104 76.5s-49.333 71 -64 115s-22 91.667 -22 143s7.33301 99 22 143
s36 82.333 64 115s62.667 58.167 104 76.5s88.666 27.5 141.999 27.5s100.666 -9.16699 141.999 -27.5s76 -43.833 104 -76.5s49.333 -71 64 -115s22 -91.667 22 -143zM546 350c0 76 -15.667 134.667 -47 176s-73.666 62 -126.999 62s-95.666 -20.667 -126.999 -62
s-47 -100 -47 -176c0 -76.667 15.667 -135.5 47 -176.5s73.666 -61.5 126.999 -61.5s95.666 20.5 126.999 61.5s47 99.833 47 176.5z" />
    <glyph glyph-name="Iota" unicode="&#x399;" horiz-adv-x="316" 
d="M236 700v-700h-156v700h156z" />
    <glyph glyph-name="Kappa" unicode="&#x39a;" horiz-adv-x="678" 
d="M648 700l-257 -328l299 -372h-192l-267 348v-348h-156v700h156v-304l237 304h180z" />
    <glyph glyph-name="Lambda" unicode="&#x39b;" horiz-adv-x="690" 
d="M345 561l-175 -561h-166l244 700h194l244 -700h-166z" />
    <glyph glyph-name="Mu" unicode="&#x39c;" horiz-adv-x="889" 
d="M226 472v-472h-151v700h170l199 -328l200 328h170v-700h-151v472l-152 -254h-133z" />
    <glyph glyph-name="Nu" unicode="&#x39d;" horiz-adv-x="747" 
d="M75 700h176l270 -480v480h151v-700h-176l-270 480v-480h-151v700z" />
    <glyph glyph-name="Xi" unicode="&#x39e;" horiz-adv-x="591" 
d="M556 578h-521v122h521v-122zM506 292h-421v122h421v-122zM556 0h-521v122h521v-122z" />
    <glyph glyph-name="Omicron" unicode="&#x39f;" horiz-adv-x="744" 
d="M704 350c0 -51.333 -7.33301 -99 -22 -143s-36 -82.333 -64 -115s-62.667 -58.167 -104 -76.5s-88.666 -27.5 -141.999 -27.5s-100.666 9.16699 -141.999 27.5s-76 43.833 -104 76.5s-49.333 71 -64 115s-22 91.667 -22 143s7.33301 99 22 143s36 82.333 64 115
s62.667 58.167 104 76.5s88.666 27.5 141.999 27.5s100.666 -9.16699 141.999 -27.5s76 -43.833 104 -76.5s49.333 -71 64 -115s22 -91.667 22 -143zM546 350c0 76 -15.667 134.667 -47 176s-73.666 62 -126.999 62s-95.666 -20.667 -126.999 -62s-47 -100 -47 -176
c0 -76.667 15.667 -135.5 47 -176.5s73.666 -61.5 126.999 -61.5s95.666 20.5 126.999 61.5s47 99.833 47 176.5z" />
    <glyph glyph-name="Pi" unicode="&#x3a0;" horiz-adv-x="735" 
d="M75 700h585v-700h-156v578h-273v-578h-156v700z" />
    <glyph glyph-name="Rho" unicode="&#x3a1;" horiz-adv-x="629" 
d="M598 471c0 -38 -6.5 -71.334 -19.5 -100.001s-31.667 -52.667 -56 -72s-53.833 -33.833 -88.5 -43.5s-73.667 -14.5 -117 -14.5h-86v-241h-156v700h242c43.333 0 82.333 -4.83301 117 -14.5s64.167 -24.167 88.5 -43.5s43 -43.166 56 -71.499s19.5 -61.5 19.5 -99.5z
M440 470.999c0 40 -11 68.5 -33 85.5s-56.667 25.5 -104 25.5h-72v-223h72c47.333 0 82 8.66699 104 26s33 46 33 86z" />
    <glyph glyph-name="Sigma" unicode="&#x3a3;" horiz-adv-x="561" 
d="M215 370l-188 209v121h517v-122h-333l166 -186v-45l-171 -225h338v-122h-517v121z" />
    <glyph glyph-name="Tau" unicode="&#x3a4;" horiz-adv-x="578" 
d="M211 578h-201v122h558v-122h-201v-578h-156v578z" />
    <glyph glyph-name="Upsilon" unicode="&#x3a5;" horiz-adv-x="714" 
d="M357 419l171 281h169l-262 -426v-274h-156v274l-262 426h169z" />
    <glyph glyph-name="Phi" unicode="&#x3a6;" horiz-adv-x="754" 
d="M450 601c38.667 -4.66699 74.167 -13.667 106.5 -27s60.166 -30.833 83.499 -52.5s41.5 -46.834 54.5 -75.501s19.5 -60.667 19.5 -96s-6.5 -67.5 -19.5 -96.5s-31.167 -54.167 -54.5 -75.5s-51.166 -38.833 -83.499 -52.5s-67.833 -22.834 -106.5 -27.501v-98h-146v98
c-38.667 4.66699 -74.167 13.834 -106.5 27.501s-60.166 31.167 -83.499 52.5s-41.5 46.5 -54.5 75.5s-19.5 61.167 -19.5 96.5s6.5 67.333 19.5 96s31.167 53.834 54.5 75.501s51.166 39.167 83.499 52.5s67.833 22.333 106.5 27v99h146v-99zM450 218
c39.333 5.33301 69.833 19.167 91.5 41.5s32.5 52.5 32.5 90.5s-10.833 68 -32.5 90s-52.167 35.667 -91.5 41v-263zM304 481.001c-39.333 -5.33301 -69.833 -19.001 -91.5 -41.001s-32.5 -52 -32.5 -90s10.833 -68.167 32.5 -90.5s52.167 -36.166 91.5 -41.499v263z" />
    <glyph glyph-name="Chi" unicode="&#x3a7;" horiz-adv-x="706" 
d="M353 469l158 231h174l-238 -344l247 -356h-174l-167 243l-167 -243h-174l247 356l-238 344h174z" />
    <glyph glyph-name="Psi" unicode="&#x3a8;" horiz-adv-x="739" 
d="M298 152c-71.333 11.333 -128 40.834 -170 88.501s-63 114.167 -63 199.5v260h142v-261c0 -43.333 7 -78.666 21 -105.999s37.333 -45.666 70 -54.999v422h143v-422c32.667 9.33301 56 27.666 70 54.999s21 62.666 21 105.999v261h142v-260
c0 -42.667 -5.5 -80.667 -16.5 -114s-26.667 -61.833 -47 -85.5s-44.833 -42.834 -73.5 -57.501s-60.667 -25 -96 -31v-152h-143v152z" />
    <glyph glyph-name="uni03A9" unicode="&#x3a9;" horiz-adv-x="742" 
d="M371 588c-26 0 -49.667 -5 -71 -15s-39.5 -24.5 -54.5 -43.5s-26.667 -42 -35 -69s-12.5 -57.833 -12.5 -92.5c0 -54.667 11 -102.834 33 -144.501s55.667 -79.5 101 -113.5v-110h-285v122h100c-32 29.333 -57.833 65.166 -77.5 107.499s-29.5 90.5 -29.5 144.5
c0 48.667 7.5 93.667 22.5 135s36.667 77 65 107s63 53.5 104 70.5s87.5 25.5 139.5 25.5s98.5 -8.5 139.5 -25.5s75.667 -40.5 104 -70.5s50 -65.667 65 -107s22.5 -86.333 22.5 -135c0 -54 -9.83301 -102.167 -29.5 -144.5s-45.5 -78.166 -77.5 -107.499h100v-122h-285
v110c45.333 34 79 71.833 101 113.5s33 89.834 33 144.501c0 34.667 -4.16699 65.5 -12.5 92.5s-20 50 -35 69s-33.167 33.5 -54.5 43.5s-45 15 -71 15z" />
    <glyph glyph-name="Iotadieresis" unicode="&#x3aa;" horiz-adv-x="316" 
d="M236 700v-700h-156v700h156zM-14 839c0 45.333 22.667 68 68 68s68 -22.667 68 -68s-22.667 -68 -68 -68s-68 22.667 -68 68zM196 839c0 45.333 22.667 68 68 68s68 -22.667 68 -68s-22.667 -68 -68 -68s-68 22.667 -68 68z" />
    <glyph glyph-name="Upsilondieresis" unicode="&#x3ab;" horiz-adv-x="714" 
d="M357 419l171 281h169l-262 -426v-274h-156v274l-262 426h169zM184 839c0 45.333 22.667 68 68 68s68 -22.667 68 -68s-22.667 -68 -68 -68s-68 22.667 -68 68zM394 839c0 45.333 22.667 68 68 68s68 -22.667 68 -68s-22.667 -68 -68 -68s-68 22.667 -68 68z" />
    <glyph glyph-name="alphatonos" unicode="&#x3ac;" horiz-adv-x="656" 
d="M264 530c44.667 0 81.666 -10.335 110.999 -31.002s54 -49.334 74 -86.001l33 105h144l-106 -303c6 -22 11.667 -40.167 17 -54.5s10.833 -25.666 16.5 -33.999s11.667 -14.166 18 -17.499s13.5 -5 21.5 -5h32v-104h-56c-28 0 -52 8.5 -72 25.5s-36.667 37.5 -50 61.5
c-23.333 -33.333 -49.5 -58.166 -78.5 -74.499s-65.167 -24.5 -108.5 -24.5c-69.333 0 -124.166 23.5 -164.499 70.5s-60.5 113.833 -60.5 200.5c0 40 5.33301 76.5 16 109.5s25.834 61.5 45.501 85.5s43.667 42.667 72 56s60.166 20 95.499 20zM269.999 93.998
c12.667 0 24.666 2.49902 35.999 7.49902s22 13.5 32 25.5s19.833 27.833 29.5 47.5s19.167 44.167 28.5 73.5v2c-11.333 55.333 -26.833 98 -46.5 128s-44.5 45 -74.5 45c-27.333 0 -49.666 -14.5 -66.999 -43.5s-26 -69.167 -26 -120.5
c0 -57.333 8.5 -99.166 25.5 -125.499s37.833 -39.5 62.5 -39.5zM368.998 749.997h140v-25l-142 -145h-120z" />
    <glyph glyph-name="epsilontonos" unicode="&#x3ad;" horiz-adv-x="514" 
d="M301 426c-38.667 0 -64.999 -3.66699 -78.999 -11s-21 -18.333 -21 -33c0 -21.333 17 -36.833 51 -46.5s84 -14.5 150 -14.5v-102c-73.333 0 -126 -6.66699 -158 -20s-48 -31.333 -48 -54c0 -15.333 9.16699 -28 27.5 -38s48.5 -15 90.5 -15c28 0 56 2.83301 84 8.5
s54.333 14.167 79 25.5l11 -110c-28 -9.33301 -58.667 -16.333 -92 -21s-66.333 -7 -99 -7c-80.667 0 -142.834 13.333 -186.501 40s-65.5 65 -65.5 115c0 28 8.5 53 25.5 75s42.167 38.667 75.5 50c-28.667 8 -51.834 21.833 -69.501 41.5s-26.5 44.167 -26.5 73.5
c0 46 19.5 82 58.5 108s100.167 39 183.5 39c30.667 0 62.167 -2 94.5 -6s62.5 -10 90.5 -18l-10 -110c-25.333 10 -52.666 17.5 -81.999 22.5s-57.333 7.5 -84 7.5zM318.001 750h140v-25l-142 -145h-120z" />
    <glyph glyph-name="etatonos" unicode="&#x3ae;" horiz-adv-x="619" 
d="M308 423c-19.333 0 -37.167 -3.66797 -53.5 -11.001s-29.833 -16.666 -40.5 -27.999v-384h-149v518h149v-34c16 13.333 35.333 24.333 58 33s48 13 76 13c66.667 0 118.5 -20.5 155.5 -61.5s55.5 -101.833 55.5 -182.5v-479h-149v477c0 49.333 -8.5 84.833 -25.5 106.5
s-42.5 32.5 -76.5 32.5zM323.999 749.999h140v-25l-142 -145h-120z" />
    <glyph glyph-name="iotatonos" unicode="&#x3af;" horiz-adv-x="365" 
d="M65 518l149 -0.000976562v-312c0 -22.667 1.33301 -41.167 4 -55.5s7 -25.666 13 -33.999s13.5 -14 22.5 -17s19.833 -4.5 32.5 -4.5c22 0 41.333 3.33301 58 10l13 -106c-30.667 -7.33301 -63.667 -11 -99 -11c-66.667 0 -115.5 15.667 -146.5 47
s-46.5 81.333 -46.5 150v333zM189 749.999h140v-25l-142 -145h-120z" />
    <glyph glyph-name="upsilondieresistonos" unicode="&#x3b0;" horiz-adv-x="594" 
d="M78 355c0 23.333 -2.33008 39.167 -6.99707 47.5s-12.667 12.5 -24 12.5s-21.333 -1.66699 -30 -5l-9 104c11.333 3.33301 23.666 6 36.999 8s26.666 3 39.999 3c48.667 0 84.5 -12.667 107.5 -38s34.5 -66.666 34.5 -123.999v-133c0 -46 6.5 -80 19.5 -102
s35.833 -33 68.5 -33c32 0 55.167 11.167 69.5 33.5s21.5 55.833 21.5 100.5c0 46 -6 93.5 -18 142.5s-30.667 97.833 -56 146.5h159c21.333 -44 37.666 -90.833 48.999 -140.5s17 -98.834 17 -147.501c0 -78 -20.5 -137.833 -61.5 -179.5s-101.167 -62.5 -180.5 -62.5
c-76 0 -134.5 19.333 -175.5 58s-61.5 95 -61.5 169v140zM301.003 837.001h134v-25l-119 -115h-114zM91.0029 625.001c0 45.333 22.667 68 68 68s68 -22.667 68 -68s-22.667 -68 -68 -68s-68 22.667 -68 68zM301.003 625.001c0 45.333 22.667 68 68 68s68 -22.667 68 -68
s-22.667 -68 -68 -68s-68 22.667 -68 68z" />
    <glyph glyph-name="alpha" unicode="&#x3b1;" horiz-adv-x="656" 
d="M264 530c44.667 0 81.666 -10.335 110.999 -31.002s54 -49.334 74 -86.001l33 105h144l-106 -303c6 -22 11.667 -40.167 17 -54.5s10.833 -25.666 16.5 -33.999s11.667 -14.166 18 -17.499s13.5 -5 21.5 -5h32v-104h-56c-28 0 -52 8.5 -72 25.5s-36.667 37.5 -50 61.5
c-23.333 -33.333 -49.5 -58.166 -78.5 -74.499s-65.167 -24.5 -108.5 -24.5c-69.333 0 -124.166 23.5 -164.499 70.5s-60.5 113.833 -60.5 200.5c0 40 5.33301 76.5 16 109.5s25.834 61.5 45.501 85.5s43.667 42.667 72 56s60.166 20 95.499 20zM269.999 93.998
c12.667 0 24.666 2.49902 35.999 7.49902s22 13.5 32 25.5s19.833 27.833 29.5 47.5s19.167 44.167 28.5 73.5v2c-11.333 55.333 -26.833 98 -46.5 128s-44.5 45 -74.5 45c-27.333 0 -49.666 -14.5 -66.999 -43.5s-26 -69.167 -26 -120.5
c0 -57.333 8.5 -99.166 25.5 -125.499s37.833 -39.5 62.5 -39.5z" />
    <glyph glyph-name="beta" unicode="&#x3b2;" horiz-adv-x="602" 
d="M263 429c46 0 78.501 10.332 97.501 30.999s28.5 49 28.5 85c0 27.333 -7.83301 49.166 -23.5 65.499s-38.167 24.5 -67.5 24.5c-58.667 0 -88 -46.667 -88 -140v-688h-147v610c0 54 3.83301 101.333 11.5 142s20.667 74.5 39 101.5s42.666 47.333 72.999 61
s68.166 20.5 113.499 20.5c36.667 0 69.5 -5 98.5 -15s53.833 -23.667 74.5 -41s36.5 -37.833 47.5 -61.5s16.5 -49.167 16.5 -76.5c0 -81.333 -32 -137.333 -96 -168c40 -16 70.833 -41 92.5 -75s32.5 -73 32.5 -117c0 -29.333 -4.66699 -56.166 -14 -80.499
s-23 -45.333 -41 -63s-40.5 -31.5 -67.5 -41.5s-58.167 -15 -93.5 -15c-21.333 0 -43.166 2 -65.499 6s-42.833 10.667 -61.5 20l11 116c13.333 -11.333 28.666 -20.166 45.999 -26.499s34.333 -9.5 51 -9.5c28.667 0 50.167 7.66699 64.5 23s21.5 40 21.5 74
c0 18 -3.16699 35 -9.5 51s-16 30 -29 42s-29.167 21.667 -48.5 29s-41.666 11 -66.999 11v105z" />
    <glyph glyph-name="gamma" unicode="&#x3b3;" horiz-adv-x="603" 
d="M301 -200c-22 0 -42.167 3.33301 -60.5 10s-34.333 16 -48 28s-24.167 26.5 -31.5 43.5s-11 35.5 -11 55.5c0 12 1.16699 24.167 3.5 36.5s6.33301 26 12 41s13.167 31.833 22.5 50.5s21 40 35 64l-211 389h156l133 -272l133 272h156l-211 -389
c14 -24 25.667 -45.333 35 -64s16.833 -35.5 22.5 -50.5s9.66699 -28.667 12 -41s3.5 -24.5 3.5 -36.5c0 -20 -3.66699 -38.5 -11 -55.5s-17.833 -31.5 -31.5 -43.5s-29.667 -21.333 -48 -28s-38.5 -10 -60.5 -10zM301 -96c8 0 14.667 2.66699 20 8s8 14.666 8 27.999
c0 14 -2.16699 28 -6.5 42s-11.5 29.667 -21.5 47c-10 -17.333 -17.167 -33 -21.5 -47s-6.5 -28 -6.5 -42c0 -13.333 2.66699 -22.666 8 -27.999s12 -8 20 -8z" />
    <glyph glyph-name="delta" unicode="&#x3b4;" horiz-adv-x="612" 
d="M306 -12c-41.333 0 -78.498 6.66602 -111.498 19.999s-61.167 32 -84.5 56s-41.333 52.667 -54 86s-19 69.666 -19 108.999c0 34 4.66699 65.5 14 94.5s22.666 55 39.999 78s38.333 42.333 63 58s52.667 26.834 84 33.501l-154 113v94h428v-105h-221l185 -148
c31.333 -24.667 55.666 -55.5 72.999 -92.5s26 -78.833 26 -125.5c0 -39.333 -6.33301 -75.666 -19 -108.999s-30.667 -62 -54 -86s-51.5 -42.667 -84.5 -56s-70.167 -20 -111.5 -20zM424.002 258.999c0 52.667 -10.5 93.334 -31.5 122.001s-49.833 43 -86.5 43
s-65.5 -14.333 -86.5 -43s-31.5 -69.334 -31.5 -122.001s10.5 -93.334 31.5 -122.001s49.833 -43 86.5 -43s65.5 14.333 86.5 43s31.5 69.334 31.5 122.001z" />
    <glyph glyph-name="epsilon" unicode="&#x3b5;" horiz-adv-x="514" 
d="M301 426c-38.667 0 -64.999 -3.66699 -78.999 -11s-21 -18.333 -21 -33c0 -21.333 17 -36.833 51 -46.5s84 -14.5 150 -14.5v-102c-73.333 0 -126 -6.66699 -158 -20s-48 -31.333 -48 -54c0 -15.333 9.16699 -28 27.5 -38s48.5 -15 90.5 -15c28 0 56 2.83301 84 8.5
s54.333 14.167 79 25.5l11 -110c-28 -9.33301 -58.667 -16.333 -92 -21s-66.333 -7 -99 -7c-80.667 0 -142.834 13.333 -186.501 40s-65.5 65 -65.5 115c0 28 8.5 53 25.5 75s42.167 38.667 75.5 50c-28.667 8 -51.834 21.833 -69.501 41.5s-26.5 44.167 -26.5 73.5
c0 46 19.5 82 58.5 108s100.167 39 183.5 39c30.667 0 62.167 -2 94.5 -6s62.5 -10 90.5 -18l-10 -110c-25.333 10 -52.666 17.5 -81.999 22.5s-57.333 7.5 -84 7.5z" />
    <glyph glyph-name="zeta" unicode="&#x3b6;" horiz-adv-x="466" 
d="M448 624c-44 -28.667 -82.5 -59.835 -115.5 -93.502s-60.333 -67.834 -82 -102.501s-37.834 -69 -48.501 -103s-16 -66 -16 -96c0 -20.667 4.83301 -38.5 14.5 -53.5s23 -28 40 -39s36.5 -20.167 58.5 -27.5s45.667 -13.666 71 -18.999
c32.667 -7.33301 55.334 -16.666 68.001 -27.999s19 -27.666 19 -48.999c0 -7.33301 -1 -15.5 -3 -24.5s-5.66699 -18.5 -11 -28.5l-83 -153h-154l91 167c1.33301 2.66699 2 4.66699 2 6c0 2.66699 -2.66699 5 -8 7c-36 10 -69.667 21.5 -101 34.5s-58.5 28.833 -81.5 47.5
s-41 40.5 -54 65.5s-19.5 54.5 -19.5 88.5c0 75.333 20 147 60 215s96 130.333 168 187h-179v105h364v-106z" />
    <glyph glyph-name="eta" unicode="&#x3b7;" horiz-adv-x="619" 
d="M308 423c-19.333 0 -37.167 -3.66797 -53.5 -11.001s-29.833 -16.666 -40.5 -27.999v-384h-149v518h149v-34c16 13.333 35.333 24.333 58 33s48 13 76 13c66.667 0 118.5 -20.5 155.5 -61.5s55.5 -101.833 55.5 -182.5v-479h-149v477c0 49.333 -8.5 84.833 -25.5 106.5
s-42.5 32.5 -76.5 32.5z" />
    <glyph glyph-name="theta" unicode="&#x3b8;" horiz-adv-x="624" 
d="M312 742c44.667 0 84 -9 118 -27s62.5 -43.5 85.5 -76.5s40.167 -72.667 51.5 -119s17 -97.833 17 -154.5s-5.66699 -108.167 -17 -154.5s-28.5 -86 -51.5 -119s-51.5 -58.5 -85.5 -76.5s-73.333 -27 -118 -27c-45.333 0 -84.833 9 -118.5 27s-62 43.5 -85 76.5
s-40.167 72.667 -51.5 119s-17 97.833 -17 154.5s5.66699 108.167 17 154.5s28.5 86 51.5 119s51.333 58.5 85 76.5s73.167 27 118.5 27zM312 637c-16.667 0 -31.8311 -3.16699 -45.498 -9.5s-25.834 -17.833 -36.501 -34.5s-19.5 -39.167 -26.5 -67.5
s-11.833 -64.833 -14.5 -109.5h245c-2.66699 44.667 -7.5 81.167 -14.5 109.5s-15.667 50.833 -26 67.5s-22.333 28.167 -36 34.5s-28.834 9.5 -45.501 9.5zM312.003 93c16.667 0 31.8311 3.16699 45.498 9.5s25.667 17.666 36 33.999s19 38.833 26 67.5s11.833 65 14.5 109
h-245c2.66699 -44 7.5 -80.333 14.5 -109s15.833 -51.167 26.5 -67.5s22.834 -27.666 36.501 -33.999s28.834 -9.5 45.501 -9.5z" />
    <glyph glyph-name="iota" unicode="&#x3b9;" horiz-adv-x="365" 
d="M65 518l149 -0.000976562v-312c0 -22.667 1.33301 -41.167 4 -55.5s7 -25.666 13 -33.999s13.5 -14 22.5 -17s19.833 -4.5 32.5 -4.5c22 0 41.333 3.33301 58 10l13 -106c-30.667 -7.33301 -63.667 -11 -99 -11c-66.667 0 -115.5 15.667 -146.5 47
s-46.5 81.333 -46.5 150v333z" />
    <glyph glyph-name="kappa" unicode="&#x3ba;" horiz-adv-x="589" 
d="M361 270l216.002 -270h-177l-186 244v-244h-149v518h149v-225l134 168c18.667 23.333 37.667 39.833 57 49.5s43.333 14.5 72 14.5c14 0 28 -1.16699 42 -3.5s26.333 -6.16602 37 -11.499l-12 -111c-11.333 6 -23.333 9 -36 9c-6.66699 0 -12.334 -1.33301 -17.001 -4
s-9.33398 -6.33398 -14.001 -11.001z" />
    <glyph glyph-name="lambda" unicode="&#x3bb;" horiz-adv-x="565" 
d="M133 730h156l272 -730h-156l-122 344l-123 -344h-156l208 517z" />
    </font>
</defs>
</svg>
