<?xml version="1.0" standalone="no"?>
<!DOCTYPE svg PUBLIC "-//W3C//DTD SVG 1.1//EN" "http://www.w3.org/Graphics/SVG/1.1/DTD/svg11.dtd" >
<svg xmlns="http://www.w3.org/2000/svg" xmlns:xlink="http://www.w3.org/1999/xlink" version="1.1">
<metadata>
Created by FontForge 20170910 at Mon Aug  1 13:24:06 2016
 By Jimmy Wärting
Copyright (c) 2016 by Yana Kutyina &#38; Andrey Belonogov. All rights reserved.
</metadata>
<defs>
<font id="Vostok-BoldExtended" horiz-adv-x="895" >
  <font-face 
    font-family="Vostok"
    font-weight="400"
    font-stretch="normal"
    units-per-em="1000"
    panose-1="2 0 5 4 6 0 0 2 0 4"
    ascent="750"
    descent="-250"
    x-height="500"
    cap-height="700"
    bbox="-40 -170 1595 905"
    underline-thickness="50"
    underline-position="-100"
    unicode-range="U+0020-F4F6"
  />
<missing-glyph horiz-adv-x="330" 
 />
    <glyph glyph-name=".notdef" horiz-adv-x="330" 
 />
    <glyph glyph-name="slash" unicode="/" horiz-adv-x="480" 
d="M480 700l-355 -840h-165l355 840h165z" />
    <glyph glyph-name="uni0410" unicode="&#x410;" horiz-adv-x="950" 
d="M730 0l-83 160h-360l-77 -160h-225l360 700h240l380 -700h-235zM409 410l-46 -95h205l-49 95c-22 43 -39 81 -55 129c-16 -48 -34 -86 -55 -129z" />
    <glyph glyph-name="uni0411" unicode="&#x411;" horiz-adv-x="945" 
d="M305 540v-100h309c189 0 296 -71 296 -220s-107 -220 -296 -220h-524v700h776l-50 -160h-511zM305 155h263c86 0 112 26 112 67c0 42 -26 68 -112 68h-263v-135z" />
    <glyph glyph-name="uni0412" unicode="&#x412;" horiz-adv-x="950" 
d="M645 700c150 0 235 -58 235 -171c0 -83 -46 -135 -128 -156c102 -22 158 -80 158 -178c0 -130 -96 -195 -265 -195h-555v700h555zM547 305h-242v-165h242c106 0 138 32 138 82c0 51 -32 83 -138 83zM560 560h-255v-120h255c77 0 100 23 100 60s-23 60 -100 60z" />
    <glyph glyph-name="uni0413" unicode="&#x413;" horiz-adv-x="786" 
d="M305 540v-540h-215v700h716l-50 -160h-451z" />
    <glyph glyph-name="uni0414" unicode="&#x414;" horiz-adv-x="1040" 
d="M221 700h664v-530h140v-300h-190v130h-645v-130h-190v300h102c89 94 105 284 111 390zM326 170h339v365h-263c-2 -114 -26 -264 -76 -365z" />
    <glyph glyph-name="uni0415" unicode="&#x415;" horiz-adv-x="896" 
d="M305 540v-100h461v-150h-461v-130h531l50 -160h-796v700h215h561l-50 -160h-511z" />
    <glyph glyph-name="uni0416" unicode="&#x416;" horiz-adv-x="1345" 
d="M565 310h-30c-40 0 -61 -15 -79 -39l-211 -271h-260l249 302c32 39 59 70 99 92c-35 18 -62 43 -100 83l-213 223h245l191 -199c20 -21 42 -36 82 -36h27v235h215v-235h27c40 0 62 15 82 36l191 199h245l-213 -223c-38 -40 -65 -65 -100 -83c40 -22 67 -53 99 -92
l249 -302h-260l-211 271c-18 24 -39 39 -79 39h-30v-310h-215v310z" />
    <glyph glyph-name="uni0417" unicode="&#x417;" horiz-adv-x="942" 
d="M647 498c0 35 -26 62 -162 62c-134 0 -190 -43 -197 -132h-225c6 187 150 284 427 284c236 0 387 -56 387 -188c0 -72 -46 -120 -130 -144c101 -24 155 -78 155 -166c0 -143 -146 -226 -412 -226c-303 0 -448 100 -460 295h240c8 -96 67 -143 215 -143
c142 0 182 39 182 83s-26 72 -182 72h-101v145h101c136 0 162 23 162 58z" />
    <glyph glyph-name="uni0418" unicode="&#x418;" horiz-adv-x="1015" 
d="M705 0v380c0 43 2 86 5 119h-2c-20 -35 -41 -67 -64 -99l-294 -400h-260v700h220v-380c0 -43 -2 -86 -5 -119h2c20 35 41 67 64 99l294 400h260v-700h-220z" />
    <glyph glyph-name="uni0419" unicode="&#x419;" horiz-adv-x="1015" 
d="M508 735c-167 0 -260 70 -260 170h178c3 -43 32 -69 82 -69s79 25 82 69h178c0 -100 -93 -170 -260 -170zM705 0v380c0 43 2 86 5 119h-2c-20 -35 -41 -67 -64 -99l-294 -400h-260v700h220v-380c0 -43 -2 -86 -5 -119h2c20 35 41 67 64 99l294 400h260v-700h-220z" />
    <glyph glyph-name="uni041A" unicode="&#x41a;" horiz-adv-x="950" 
d="M950 700l-270 -226c-40 -33 -73 -57 -117 -79c46 -24 78 -54 117 -93l305 -302h-285l-273 273c-30 30 -56 37 -87 37h-30v-310h-220v700h220v-230h29c32 0 58 6 90 31l251 199h270z" />
    <glyph glyph-name="uni041B" unicode="&#x41b;" horiz-adv-x="973" 
d="M386 530l-3 -80c-12 -328 -77 -462 -267 -462c-38 0 -75 6 -106 15v181c15 -6 39 -11 63 -11c83 0 110 72 115 262l7 265h688v-700h-220v530h-277z" />
    <glyph glyph-name="uni041C" unicode="&#x41c;" horiz-adv-x="1230" 
d="M618 179c10 35 26 76 37 101l190 420h295v-700h-210v390c0 38 1 77 7 124h-3c-13 -41 -27 -79 -42 -114l-182 -400h-195l-182 400c-15 35 -29 73 -42 114h-3c6 -47 7 -86 7 -124v-390h-205v700h300l191 -420c11 -25 27 -66 37 -101z" />
    <glyph glyph-name="uni041D" unicode="&#x41d;" horiz-adv-x="995" 
d="M905 0h-220v305h-375v-305h-220v700h220v-225h375v225h220v-700z" />
    <glyph glyph-name="uni041E" unicode="&#x41e;" horiz-adv-x="1026" 
d="M280 350c0 -140 98 -200 233 -200s233 60 233 200s-98 200 -233 200s-233 -60 -233 -200zM971 350c0 -234 -186 -362 -458 -362s-458 128 -458 362s186 362 458 362s458 -128 458 -362z" />
    <glyph glyph-name="uni041F" unicode="&#x41f;" horiz-adv-x="990" 
d="M900 0h-220v530h-370v-530h-220v700h810v-700z" />
    <glyph glyph-name="uni0420" unicode="&#x420;" horiz-adv-x="950" 
d="M920 495c0 -139 -100 -205 -276 -205h-334v-290h-220v700h554c176 0 276 -66 276 -205zM590 555h-280v-120h280c77 0 100 23 100 60s-23 60 -100 60z" />
    <glyph glyph-name="uni0421" unicode="&#x421;" horiz-adv-x="998" 
d="M723 283h245c-32 -200 -232 -295 -455 -295c-272 0 -458 128 -458 362s186 362 458 362c213 0 415 -92 447 -284h-240c-24 81 -103 122 -207 122c-135 0 -233 -60 -233 -200s98 -200 233 -200c107 0 186 42 210 133z" />
    <glyph glyph-name="uni0422" unicode="&#x422;" horiz-adv-x="880" 
d="M15 530v170h850v-170h-315v-530h-220v530h-315z" />
    <glyph glyph-name="uni0423" unicode="&#x423;" horiz-adv-x="875" 
d="M935 700l-420 -557c-74 -98 -162 -155 -304 -155c-39 0 -77 4 -114 12v180c27 -11 52 -18 98 -18c51 0 101 18 137 67l17 23l-369 448h260l172 -211c22 -27 44 -56 60 -86c15 30 36 58 57 86l156 211h250z" />
    <glyph glyph-name="uni0424" unicode="&#x424;" horiz-adv-x="1210" 
d="M710 755v-140h150c210 0 330 -79 330 -245s-120 -245 -330 -245h-150v-135h-210v135h-150c-210 0 -330 79 -330 245s120 245 330 245h150v140h210zM813 470h-108v-200h108c119 0 157 38 157 100s-38 100 -157 100zM505 470h-108c-119 0 -157 -38 -157 -100
s38 -100 157 -100h108v200z" />
    <glyph glyph-name="uni0425" unicode="&#x425;" 
d="M294 700l101 -116c21 -25 40 -50 57 -77c17 27 36 52 57 77l102 116h250l-250 -279c-12 -13 -23 -24 -36 -36c13 -12 24 -23 36 -36l309 -349h-270l-144 164c-21 24 -51 63 -68 90c-17 -27 -46 -66 -68 -90l-145 -164h-250l304 339c12 13 23 24 36 36
c-13 12 -24 23 -36 36l-255 289h270z" />
    <glyph glyph-name="uni0426" unicode="&#x426;" horiz-adv-x="1045" 
d="M1030 -130h-190v130h-750v700h220v-530h360v530h220v-530h140v-300z" />
    <glyph glyph-name="uni0427" unicode="&#x427;" horiz-adv-x="930" 
d="M620 463v237h220v-700h-220v306c-64 -20 -142 -35 -228 -35c-220 0 -347 63 -347 274v155h220v-110c0 -117 54 -159 197 -159c39 0 114 8 158 32z" />
    <glyph glyph-name="uni0428" unicode="&#x428;" horiz-adv-x="1310" 
d="M765 700v-530h235v530h220v-700h-1130v700h220v-530h235v530h220z" />
    <glyph glyph-name="uni0429" unicode="&#x429;" horiz-adv-x="1375" 
d="M765 700v-530h235v530h220v-530h140v-300h-190v130h-1080v700h220v-530h235v530h220z" />
    <glyph glyph-name="uni042A" unicode="&#x42a;" horiz-adv-x="1170" 
d="M535 700v-260h309c189 0 296 -71 296 -220s-107 -220 -296 -220h-529v530h-295v170h295h220zM802 285h-267v-130h267c83 0 108 25 108 65s-25 65 -108 65z" />
    <glyph glyph-name="uni042B" unicode="&#x42b;" horiz-adv-x="1275" 
d="M310 700v-260h289c189 0 296 -71 296 -220s-107 -220 -296 -220h-509v700h220zM1185 700v-700h-220v700h220zM557 285h-247v-130h247c83 0 108 25 108 65s-25 65 -108 65z" />
    <glyph glyph-name="uni042C" unicode="&#x42c;" horiz-adv-x="945" 
d="M310 700v-260h309c189 0 296 -71 296 -220s-107 -220 -296 -220h-529v700h220zM577 285h-267v-130h267c83 0 108 25 108 65s-25 65 -108 65z" />
    <glyph glyph-name="uni042D" unicode="&#x42d;" horiz-adv-x="998" 
d="M30 283h240c24 -96 103 -138 215 -138c120 0 210 44 232 150h-338v145h327c-35 80 -119 115 -221 115c-109 0 -188 -41 -212 -127h-235c32 192 234 284 447 284c272 0 458 -128 458 -362s-186 -362 -458 -362c-223 0 -423 95 -455 295z" />
    <glyph glyph-name="uni042E" unicode="&#x42e;" horiz-adv-x="1356" 
d="M1301 350c0 -234 -186 -362 -448 -362c-238 0 -416 113 -436 322h-107v-310h-220v700h220v-230h124c53 157 214 242 419 242c262 0 448 -128 448 -362zM630 350c0 -140 98 -200 223 -200s223 60 223 200s-98 200 -223 200s-223 -60 -223 -200z" />
    <glyph glyph-name="uni042F" unicode="&#x42f;" horiz-adv-x="975" 
d="M500 224l-215 -224h-265l183 195c34 36 72 67 120 80c-171 2 -268 73 -268 210c0 144 100 215 276 215h554v-700h-220v270h-71c-41 0 -69 -20 -94 -46zM665 415v140h-280c-77 0 -100 -28 -100 -70s23 -70 100 -70h280z" />
    <glyph glyph-name="uni0401" unicode="&#x401;" horiz-adv-x="896" 
d="M305 540v-100h461v-150h-461v-130h531l50 -160h-796v700h215h561l-50 -160h-511zM725 770h-190v135h190v-135zM410 770h-190v135h190v-135z" />
    <glyph glyph-name="uni0451" unicode="&#x451;" horiz-adv-x="765" 
d="M719 210h-495c15 -66 69 -97 159 -97c66 0 110 16 138 50h204c-28 -103 -160 -175 -342 -175c-208 0 -343 92 -343 262s140 262 338 262c203 0 359 -97 341 -302zM610 569h-183v131h183v-131zM326 569h-182v131h182v-131zM378 387c-76 0 -132 -28 -151 -87h302
c-19 59 -75 87 -151 87z" />
    <glyph glyph-name="uni044F" unicode="&#x44f;" horiz-adv-x="760" 
d="M373 134l-133 -134h-215l95 98c35 36 69 63 109 78c-120 11 -179 66 -179 161c0 111 79 163 219 163h411v-500h-185v166h-49c-26 0 -49 -7 -73 -32zM495 385h-164c-66 0 -86 -20 -86 -52s20 -52 86 -52h164v104z" />
    <glyph glyph-name="uni0430" unicode="&#x430;" horiz-adv-x="764" 
d="M744 10c-76 -30 -202 -29 -249 58c-70 -63 -156 -80 -237 -80c-121 0 -218 41 -218 153c0 111 112 149 281 154l163 6c3 59 -50 89 -114 89c-58 0 -98 -23 -111 -61h-193c11 128 140 183 299 183c181 0 304 -60 304 -207v-161c0 -36 38 -40 75 -27v-107zM323 92
c87 0 162 45 162 119v5l-95 -4c-104 -3 -150 -23 -150 -68c0 -33 29 -52 83 -52z" />
    <glyph glyph-name="uni0431" unicode="&#x431;" horiz-adv-x="781" 
d="M45 319c0 223 119 331 353 331h122c76 0 133 6 171 22v-153c-33 -15 -116 -20 -189 -20h-83c-196 0 -241 -75 -250 -176c45 76 128 119 266 119c208 0 306 -78 306 -224c0 -153 -121 -230 -343 -230c-228 0 -353 107 -353 331zM551 218c0 71 -51 100 -153 100
s-153 -29 -153 -100s51 -100 153 -100s153 29 153 100z" />
    <glyph glyph-name="uni0432" unicode="&#x432;" horiz-adv-x="778" 
d="M545 500c106 0 166 -42 166 -122c0 -60 -34 -97 -94 -112c74 -15 116 -57 116 -128c0 -91 -68 -138 -187 -138h-456v500h455zM452 217h-182v-107h182c68 0 89 21 89 53c0 33 -21 54 -89 54zM458 390h-188v-78h188c50 0 65 15 65 39s-15 39 -65 39z" />
    <glyph glyph-name="uni0433" unicode="&#x433;" horiz-adv-x="610" 
d="M590 360h-325v-360h-185v500h550z" />
    <glyph glyph-name="uni0434" unicode="&#x434;" horiz-adv-x="806" 
d="M162 500h514v-360h110v-245h-160v105h-461v-105h-160v245h81c55 57 65 173 68 238zM271 140h220v220h-174c-1 -66 -16 -159 -46 -220z" />
    <glyph glyph-name="uni0435" unicode="&#x435;" horiz-adv-x="765" 
d="M719 210h-495c15 -66 69 -97 159 -97c66 0 110 16 138 50h204c-28 -103 -160 -175 -342 -175c-208 0 -343 92 -343 262s140 262 338 262c203 0 359 -97 341 -302zM378 387c-76 0 -132 -28 -151 -87h302c-19 59 -75 87 -151 87z" />
    <glyph glyph-name="uni0436" unicode="&#x436;" horiz-adv-x="1008" 
d="M414 215h-12c-31 0 -49 -14 -64 -34l-138 -181h-220l169 206c26 31 47 56 79 74c-28 14 -50 34 -80 66l-143 154h210l123 -133c14 -15 36 -32 67 -32h9v165h180v-165h9c31 0 53 17 67 32l123 133h210l-143 -154c-30 -32 -52 -52 -80 -66c32 -18 53 -43 79 -74l169 -206
h-220l-138 181c-15 20 -33 34 -64 34h-12v-215h-180v215z" />
    <glyph glyph-name="uni0437" unicode="&#x437;" horiz-adv-x="743" 
d="M680 371c0 -50 -35 -89 -100 -108c77 -19 118 -59 118 -116c0 -102 -112 -159 -316 -159c-230 0 -337 71 -352 223h184c6 -67 41 -100 153 -100c113 0 139 22 139 51s-26 43 -134 43h-71v100h71c98 0 120 16 120 42c0 24 -22 42 -119 42c-95 0 -132 -29 -142 -88h-181
c11 140 118 211 332 211c182 0 298 -45 298 -141z" />
    <glyph glyph-name="uni0438" unicode="&#x438;" horiz-adv-x="800" 
d="M535 0v210c0 35 2 93 8 138h-2c-22 -40 -42 -70 -63 -98l-188 -250h-210v500h185v-210c0 -35 -2 -93 -8 -138h2c22 40 42 70 63 98l188 250h210v-500h-185z" />
    <glyph glyph-name="uni0439" unicode="&#x439;" horiz-adv-x="800" 
d="M400 535c-167 0 -260 70 -260 170h178c3 -43 32 -69 82 -69s79 25 82 69h178c0 -100 -93 -170 -260 -170zM535 0v210c0 35 2 93 8 138h-2c-22 -40 -42 -70 -63 -98l-188 -250h-210v500h185v-210c0 -35 -2 -93 -8 -138h2c22 40 42 70 63 98l188 250h210v-500h-185z" />
    <glyph glyph-name="uni043A" unicode="&#x43a;" horiz-adv-x="744" 
d="M265 215v-215h-185v500h185v-160h21c26 0 47 5 73 26l165 134h225l-183 -155c-37 -32 -65 -50 -99 -64c40 -18 67 -45 99 -76l208 -205h-235l-188 185c-25 25 -45 30 -71 30h-15z" />
    <glyph glyph-name="uni043B" unicode="&#x43b;" horiz-adv-x="744" 
d="M479 360h-181l-1 -40c-10 -243 -66 -332 -210 -332c-35 0 -65 5 -87 13v150c10 -4 27 -8 45 -8c63 0 84 47 89 191l6 166h524v-500h-185v360z" />
    <glyph glyph-name="uni043C" unicode="&#x43c;" horiz-adv-x="989" 
d="M536 236l122 264h251v-500h-180v261c0 31 1 62 3 93h-2c-10 -30 -24 -62 -35 -88l-123 -266h-159l-124 266c-11 26 -25 58 -35 88h-2c2 -31 3 -62 3 -93v-261h-175v500h253l121 -264c15 -33 30 -64 41 -99c11 35 26 66 41 99z" />
    <glyph glyph-name="uni043D" unicode="&#x43d;" horiz-adv-x="780" 
d="M700 500v-500h-185v200h-250v-200h-185v500h185v-160h250v160h185z" />
    <glyph glyph-name="uni043E" unicode="&#x43e;" horiz-adv-x="766" 
d="M230 250c0 -84 57 -127 153 -127s153 43 153 127s-57 127 -153 127s-153 -43 -153 -127zM726 250c0 -170 -135 -262 -343 -262s-343 92 -343 262s135 262 343 262s343 -92 343 -262z" />
    <glyph glyph-name="uni043F" unicode="&#x43f;" horiz-adv-x="775" 
d="M695 500v-500h-185v360h-245v-360h-185v500h430h185z" />
    <glyph glyph-name="uni0440" unicode="&#x440;" horiz-adv-x="801" 
d="M259 250c0 -87 57 -132 155 -132c100 0 157 45 157 132s-57 132 -157 132c-98 0 -155 -45 -155 -132zM265 56v-196h-185v640h185v-56c53 47 118 68 203 68c176 0 293 -92 293 -262s-117 -262 -293 -262c-85 0 -150 21 -203 68z" />
    <glyph glyph-name="uni0441" unicode="&#x441;" horiz-adv-x="759" 
d="M527 211h197c-22 -152 -159 -223 -341 -223c-208 0 -343 92 -343 262s135 262 343 262c178 0 315 -66 335 -216h-193c-17 52 -67 81 -142 81c-96 0 -153 -43 -153 -127s57 -127 153 -127c79 0 128 31 144 88z" />
    <glyph glyph-name="uni0442" unicode="&#x442;" horiz-adv-x="675" 
d="M665 360h-235v-360h-185v360h-235v140h655v-140z" />
    <glyph glyph-name="uni0443" unicode="&#x443;" horiz-adv-x="676" 
d="M706 500l-256 -415c-89 -144 -172 -228 -292 -228c-20 0 -44 2 -80 14v160c25 -10 42 -14 67 -14c37 0 83 25 106 82l-266 401h210l117 -175c13 -20 35 -54 47 -87c13 33 29 65 41 87l96 175h210z" />
    <glyph glyph-name="uni0444" unicode="&#x444;" horiz-adv-x="1140" 
d="M486 250c0 83 -53 128 -129 128c-74 0 -132 -43 -132 -128s58 -128 132 -128c76 0 129 45 129 128zM654 250c0 -83 53 -128 129 -128c74 0 132 43 132 128s-58 128 -132 128c-76 0 -129 -45 -129 -128zM660 56v-196h-180v196c-53 -46 -114 -62 -175 -62
c-148 0 -265 92 -265 256s117 256 265 256c61 0 122 -16 175 -62v206h180v-206c53 46 114 62 175 62c148 0 265 -92 265 -256s-117 -256 -265 -256c-61 0 -122 16 -175 62z" />
    <glyph glyph-name="uni0445" unicode="&#x445;" horiz-adv-x="723" 
d="M498 0l-95 110c-17 20 -33 40 -48 62c-15 -22 -31 -42 -48 -62l-97 -110h-215l207 231c10 11 20 20 30 30c-10 10 -20 19 -30 30l-183 209h230l68 -77c17 -20 33 -40 48 -62c15 22 31 42 48 62l68 77h215l-179 -200c-10 -11 -19 -20 -30 -30c11 -10 20 -19 30 -30
l211 -240h-230z" />
    <glyph glyph-name="uni0446" unicode="&#x446;" horiz-adv-x="815" 
d="M795 -105h-160v105h-555v500h185v-360h235v360h185v-360h110v-245z" />
    <glyph glyph-name="uni0447" unicode="&#x447;" horiz-adv-x="714" 
d="M449 325v175h185v-500h-185v199c-57 -21 -106 -29 -169 -29c-163 0 -250 58 -250 198v132h185v-94c0 -67 33 -100 123 -100c40 0 71 4 111 19z" />
    <glyph glyph-name="uni0448" unicode="&#x448;" horiz-adv-x="1065" 
d="M985 500v-500h-905v500h185v-360h175v360h185v-360h175v360h185z" />
    <glyph glyph-name="uni0449" unicode="&#x449;" horiz-adv-x="1115" 
d="M1095 -105h-160v105h-855v500h185v-360h175v360h185v-360h175v360h185v-360h110v-245z" />
    <glyph glyph-name="uni044A" unicode="&#x44a;" horiz-adv-x="900" 
d="M415 500v-160h226c146 0 229 -54 229 -170c0 -115 -83 -170 -229 -170h-411v360h-220v140h405zM592 220h-177v-100h177c64 0 83 19 83 50s-19 50 -83 50z" />
    <glyph glyph-name="uni044B" unicode="&#x44b;" horiz-adv-x="1010" 
d="M265 500v-160h201c146 0 229 -54 229 -170c0 -115 -83 -170 -229 -170h-386v500h185zM930 500v-500h-185v500h185zM417 220h-152v-100h152c64 0 83 19 83 50s-19 50 -83 50z" />
    <glyph glyph-name="uni044C" unicode="&#x44c;" horiz-adv-x="750" 
d="M265 500v-160h226c146 0 229 -54 229 -170c0 -115 -83 -170 -229 -170h-411v500h185zM442 220h-177v-100h177c64 0 83 19 83 50s-19 50 -83 50z" />
    <glyph glyph-name="uni044D" unicode="&#x44d;" horiz-adv-x="769" 
d="M308 205v100h232c-20 53 -73 82 -156 82c-84 0 -137 -29 -158 -86h-185c23 144 157 211 340 211c213 0 348 -92 348 -262s-135 -262 -348 -262c-187 0 -326 73 -346 223h188c15 -64 70 -98 161 -98c88 0 142 32 159 92h-235z" />
    <glyph glyph-name="uni044E" unicode="&#x44e;" horiz-adv-x="1036" 
d="M996 250c0 -170 -145 -262 -333 -262c-160 0 -293 74 -319 212h-79v-200h-185v500h185v-160h90c42 112 164 172 308 172c188 0 333 -92 333 -262zM520 250c0 -84 62 -127 143 -127s143 43 143 127s-62 127 -143 127s-143 -43 -143 -127z" />
    <glyph glyph-name="zero" unicode="0" horiz-adv-x="956" 
d="M265 350c0 -140 78 -210 213 -210s213 70 213 210s-78 210 -213 210s-213 -70 -213 -210zM901 350c0 -234 -166 -362 -423 -362s-423 128 -423 362s166 362 423 362s423 -128 423 -362z" />
    <glyph glyph-name="one" unicode="1" horiz-adv-x="518" 
d="M40 412v140c104 15 193 68 238 154h150v-706h-210v463c-56 -35 -123 -49 -178 -51z" />
    <glyph glyph-name="two" unicode="2" horiz-adv-x="896" 
d="M841 0h-796c0 442 571 327 571 485c0 41 -47 75 -149 75c-117 0 -178 -44 -191 -122h-224c4 197 185 274 420 274c217 0 374 -80 374 -229c0 -260 -449 -211 -552 -323h547v-160z" />
    <glyph glyph-name="three" unicode="3" horiz-adv-x="912" 
d="M847 522c0 -75 -48 -127 -135 -151c103 -24 160 -76 160 -168c0 -136 -146 -215 -397 -215c-268 0 -417 71 -445 285h240c9 -97 57 -138 195 -138c102 0 172 28 172 77s-43 76 -175 76h-108v134h113c98 0 150 31 150 71s-46 72 -152 72c-108 0 -165 -33 -182 -127h-225
c18 203 164 274 417 274c201 0 372 -65 372 -190z" />
    <glyph glyph-name="four" unicode="4" horiz-adv-x="930" 
d="M30 260l460 440h280v-430h130v-150h-130v-126h-200v126h-540v140zM380 270h190v175c0 40 1 73 4 110c-24 -28 -50 -53 -76 -78l-149 -142c-26 -24 -52 -47 -79 -69c37 3 73 4 110 4z" />
    <glyph glyph-name="five" unicode="5" horiz-adv-x="914" 
d="M820 545h-533l-18 -121c72 42 152 56 242 56c172 0 353 -63 353 -235s-151 -257 -394 -257c-264 0 -401 71 -420 240h230c24 -61 81 -88 182 -88c115 0 172 41 172 105s-57 105 -172 105c-76 0 -125 -24 -153 -52h-228l49 402h690v-155z" />
    <glyph glyph-name="six" unicode="6" horiz-adv-x="945" 
d="M472 570c-108 0 -207 -55 -211 -185c68 63 188 79 271 79c204 0 363 -61 363 -227c0 -185 -203 -249 -411 -249c-240 0 -429 107 -429 354c0 255 184 370 447 370c228 0 371 -98 382 -218h-238c-25 37 -80 76 -174 76zM475 135c119 0 190 30 190 97s-71 97 -190 97
s-190 -30 -190 -97s71 -97 190 -97z" />
    <glyph glyph-name="seven" unicode="7" horiz-adv-x="825" 
d="M795 700v-60c0 -236 -369 -372 -394 -640h-260c13 283 336 417 428 540h-544v160h770z" />
    <glyph glyph-name="eight" unicode="8" horiz-adv-x="904" 
d="M452 -12c-276 0 -412 79 -412 215c0 92 56 144 159 168c-86 24 -134 76 -134 151c0 125 161 190 387 190s387 -65 387 -190c0 -75 -48 -127 -135 -151c103 -24 160 -76 160 -168c0 -136 -136 -215 -412 -215zM639 212c0 54 -60 82 -187 82s-187 -28 -187 -82
s60 -82 187 -82s187 28 187 82zM285 493c0 -45 36 -77 167 -77s167 32 167 77s-36 77 -167 77s-167 -32 -167 -77z" />
    <glyph glyph-name="nine" unicode="9" horiz-adv-x="945" 
d="M468 130c111 0 212 54 215 184c-67 -63 -187 -78 -270 -78c-204 0 -363 61 -363 227c0 185 203 249 411 249c240 0 429 -107 429 -354c0 -255 -180 -370 -447 -370c-232 0 -383 98 -392 218h238c25 -37 81 -76 179 -76zM470 565c-119 0 -190 -30 -190 -97s71 -97 190 -97
s190 30 190 97s-71 97 -190 97z" />
    <glyph glyph-name="exclam" unicode="!" horiz-adv-x="400" 
d="M330 700l-50 -440h-160l-50 440h260zM320 0h-240v200h240v-200z" />
    <glyph glyph-name="parenleft" unicode="(" horiz-adv-x="405" 
d="M265 280c0 -152 39 -302 115 -420h-145c-101 118 -155 268 -155 420s54 302 155 420h145c-76 -118 -115 -268 -115 -420z" />
    <glyph glyph-name="parenright" unicode=")" horiz-adv-x="405" 
d="M140 280c0 152 -39 302 -115 420h145c101 -118 155 -268 155 -420s-54 -302 -155 -420h-145c76 118 115 268 115 420z" />
    <glyph glyph-name="comma" unicode="," horiz-adv-x="425" 
d="M335 210v-180c0 -130 -90 -200 -210 -200v100c60 5 75 48 77 80h-112v200h245z" />
    <glyph glyph-name="hyphen" unicode="-" horiz-adv-x="630" 
d="M540 190h-450v160h450v-160z" />
    <glyph glyph-name="period" unicode="." horiz-adv-x="420" 
d="M330 0h-240v210h240v-210z" />
    <glyph glyph-name="colon" unicode=":" horiz-adv-x="420" 
d="M330 0h-240v200h240v-200zM330 300h-240v200h240v-200z" />
    <glyph glyph-name="semicolon" unicode=";" horiz-adv-x="420" 
d="M330 200v-170c0 -130 -89 -200 -205 -200v100c57 5 70 48 72 80h-107v190h240zM330 300h-240v200h240v-200z" />
    <glyph glyph-name="question" unicode="?" horiz-adv-x="743" 
d="M453 260h-180c-3 12 -5 24 -5 34c0 132 243 129 243 212c0 34 -37 64 -123 64c-104 0 -163 -44 -176 -122h-212c4 188 164 264 393 264c224 0 345 -83 345 -201c0 -158 -286 -185 -286 -245c0 -3 1 -6 1 -6zM483 0h-240v200h240v-200z" />
    <glyph glyph-name="endash" unicode="&#x2013;" horiz-adv-x="880" 
d="M790 210h-700v120h700v-120z" />
    <glyph glyph-name="emdash" unicode="&#x2014;" horiz-adv-x="1280" 
d="M1190 210h-1100v120h1100v-120z" />
    <glyph glyph-name="dollar" unicode="$" horiz-adv-x="969" 
d="M924 221c0 -139 -131 -218 -398 -224v-67h-79v67c-244 7 -381 90 -402 240h228c13 -56 56 -94 174 -100v158c-172 16 -365 42 -365 213c0 128 137 189 365 195v67h79v-67c222 -9 355 -93 374 -207h-230c-18 43 -64 62 -144 67v-128c178 -18 398 -43 398 -214zM704 211
c0 52 -78 66 -178 76v-151c128 3 178 23 178 75zM302 510c0 -40 61 -56 145 -66v119c-99 -2 -145 -14 -145 -53z" />
    <glyph glyph-name="sterling" unicode="&#xa3;" horiz-adv-x="920" 
d="M55 260v80h149c-58 29 -119 71 -119 163c0 129 147 209 374 209c253 0 409 -76 416 -265h-226c-17 79 -71 108 -180 108c-101 0 -152 -26 -152 -71c0 -57 110 -76 154 -134h259v-90h-242c-7 -33 -35 -73 -96 -100h483v-160h-820v140c164 0 291 54 249 120h-249z" />
    <glyph glyph-name="yen" unicode="&#xa5;" horiz-adv-x="945" 
d="M708 330h115v-85h-245v-60h245v-85h-245v-100h-210v100h-245v85h245v60h-245v85h112c33 0 77 -1 110 -2c-27 23 -53 48 -80 77l-275 295h275l212 -245l214 245h264l-277 -295c-27 -29 -53 -54 -80 -77c33 1 77 2 110 2z" />
    <glyph glyph-name="Euro" unicode="&#x20ac;" horiz-adv-x="1083" 
d="M30 380v85h147c51 160 215 247 431 247c203 0 400 -94 436 -279h-230c-32 88 -113 127 -206 127s-168 -29 -206 -95h268v-85h-294c-1 -10 -1 -20 -1 -30c0 -11 0 -21 1 -30h294v-85h-268c38 -67 113 -95 206 -95s180 39 209 138h236c-37 -198 -237 -290 -445 -290
c-216 0 -380 86 -431 247h-147v85h131c-1 9 -1 20 -1 30s0 20 1 30h-131z" />
    <glyph glyph-name="percent" unicode="%" horiz-adv-x="1455" 
d="M205 487c0 -69 49 -106 130 -106s130 37 130 106c0 68 -49 105 -130 105s-130 -37 -130 -105zM630 487c0 -147 -116 -226 -295 -226s-295 79 -295 226c0 146 116 225 295 225s295 -79 295 -225zM1054 700l-508 -700h-145l508 700h145zM990 214c0 -69 49 -106 130 -106
s130 37 130 106c0 68 -49 105 -130 105s-130 -37 -130 -105zM1415 214c0 -147 -116 -226 -295 -226s-295 79 -295 226c0 146 116 225 295 225s295 -79 295 -225z" />
    <glyph glyph-name="uni20BD" unicode="&#x20bd;" horiz-adv-x="1030" 
d="M40 130v115h150v65h-150v115h150v275h547c168 0 263 -63 263 -195s-95 -195 -263 -195h-337v-65h300v-115h-300v-130h-210v130h-150zM662 555h-262v-130h262c83 0 108 25 108 65s-25 65 -108 65z" />
    <glyph glyph-name="guillemotleft" unicode="&#xab;" horiz-adv-x="785" 
d="M326 231l44 -18v-175l-340 182v100l340 185v-175l-44 -18c-40 -16 -74 -31 -110 -41c36 -10 70 -24 110 -40zM701 231l44 -18v-175l-340 182v100l340 185v-175l-44 -18c-40 -16 -74 -31 -110 -41c36 -10 70 -24 110 -40z" />
    <glyph glyph-name="guillemotright" unicode="&#xbb;" horiz-adv-x="785" 
d="M459 312l-44 18v175l340 -182v-100l-340 -185v175l44 18c40 16 74 31 110 41c-36 10 -70 24 -110 40zM84 312l-44 18v175l340 -182v-100l-340 -185v175l44 18c40 16 74 31 110 41c-36 10 -70 24 -110 40z" />
    <glyph glyph-name="endash.cap" unicode="&#xf4f4;" horiz-adv-x="880" 
d="M790 320h-700v120h700v-120z" />
    <glyph glyph-name="emdash.cap" unicode="&#xf4f5;" horiz-adv-x="1280" 
d="M1190 320h-1100v120h1100v-120z" />
    <glyph glyph-name="hyphen.cap" unicode="&#xf4f6;" horiz-adv-x="630" 
d="M540 300h-450v160h450v-160z" />
    <glyph glyph-name="uni2116" unicode="&#x2116;" horiz-adv-x="1635" 
d="M1595 487c0 -147 -116 -226 -295 -226s-295 79 -295 226c0 146 116 225 295 225s295 -79 295 -225zM1030 60v140h540v-140h-540zM1170 487c0 -69 49 -106 130 -106s130 37 130 106c0 68 -49 105 -130 105s-130 -37 -130 -105zM639 325l-309 375h-240v-700h220v350
c0 42 -1 84 -6 123c21 -33 45 -65 72 -98l309 -375h240v700h-220v-350c0 -42 1 -84 6 -123c-21 33 -45 65 -72 98z" />
    <glyph glyph-name="quotedbl" unicode="&#x22;" 
d="M294 700l101 -116c21 -25 40 -50 57 -77c17 27 36 52 57 77l102 116h250l-250 -279c-12 -13 -23 -24 -36 -36c13 -12 24 -23 36 -36l309 -349h-270l-144 164c-21 24 -51 63 -68 90c-17 -27 -46 -66 -68 -90l-145 -164h-250l304 339c12 13 23 24 36 36
c-13 12 -24 23 -36 36l-255 289h270z" />
    <glyph glyph-name="numbersign" unicode="#" 
d="M294 700l101 -116c21 -25 40 -50 57 -77c17 27 36 52 57 77l102 116h250l-250 -279c-12 -13 -23 -24 -36 -36c13 -12 24 -23 36 -36l309 -349h-270l-144 164c-21 24 -51 63 -68 90c-17 -27 -46 -66 -68 -90l-145 -164h-250l304 339c12 13 23 24 36 36
c-13 12 -24 23 -36 36l-255 289h270z" />
    <glyph glyph-name="ampersand" unicode="&#x26;" 
d="M294 700l101 -116c21 -25 40 -50 57 -77c17 27 36 52 57 77l102 116h250l-250 -279c-12 -13 -23 -24 -36 -36c13 -12 24 -23 36 -36l309 -349h-270l-144 164c-21 24 -51 63 -68 90c-17 -27 -46 -66 -68 -90l-145 -164h-250l304 339c12 13 23 24 36 36
c-13 12 -24 23 -36 36l-255 289h270z" />
    <glyph glyph-name="quotesingle" unicode="'" 
d="M294 700l101 -116c21 -25 40 -50 57 -77c17 27 36 52 57 77l102 116h250l-250 -279c-12 -13 -23 -24 -36 -36c13 -12 24 -23 36 -36l309 -349h-270l-144 164c-21 24 -51 63 -68 90c-17 -27 -46 -66 -68 -90l-145 -164h-250l304 339c12 13 23 24 36 36
c-13 12 -24 23 -36 36l-255 289h270z" />
    <glyph glyph-name="asterisk" unicode="*" 
d="M294 700l101 -116c21 -25 40 -50 57 -77c17 27 36 52 57 77l102 116h250l-250 -279c-12 -13 -23 -24 -36 -36c13 -12 24 -23 36 -36l309 -349h-270l-144 164c-21 24 -51 63 -68 90c-17 -27 -46 -66 -68 -90l-145 -164h-250l304 339c12 13 23 24 36 36
c-13 12 -24 23 -36 36l-255 289h270z" />
    <glyph glyph-name="plus" unicode="+" 
d="M294 700l101 -116c21 -25 40 -50 57 -77c17 27 36 52 57 77l102 116h250l-250 -279c-12 -13 -23 -24 -36 -36c13 -12 24 -23 36 -36l309 -349h-270l-144 164c-21 24 -51 63 -68 90c-17 -27 -46 -66 -68 -90l-145 -164h-250l304 339c12 13 23 24 36 36
c-13 12 -24 23 -36 36l-255 289h270z" />
    <glyph glyph-name="less" unicode="&#x3c;" 
d="M294 700l101 -116c21 -25 40 -50 57 -77c17 27 36 52 57 77l102 116h250l-250 -279c-12 -13 -23 -24 -36 -36c13 -12 24 -23 36 -36l309 -349h-270l-144 164c-21 24 -51 63 -68 90c-17 -27 -46 -66 -68 -90l-145 -164h-250l304 339c12 13 23 24 36 36
c-13 12 -24 23 -36 36l-255 289h270z" />
    <glyph glyph-name="equal" unicode="=" 
d="M294 700l101 -116c21 -25 40 -50 57 -77c17 27 36 52 57 77l102 116h250l-250 -279c-12 -13 -23 -24 -36 -36c13 -12 24 -23 36 -36l309 -349h-270l-144 164c-21 24 -51 63 -68 90c-17 -27 -46 -66 -68 -90l-145 -164h-250l304 339c12 13 23 24 36 36
c-13 12 -24 23 -36 36l-255 289h270z" />
    <glyph glyph-name="greater" unicode="&#x3e;" 
d="M294 700l101 -116c21 -25 40 -50 57 -77c17 27 36 52 57 77l102 116h250l-250 -279c-12 -13 -23 -24 -36 -36c13 -12 24 -23 36 -36l309 -349h-270l-144 164c-21 24 -51 63 -68 90c-17 -27 -46 -66 -68 -90l-145 -164h-250l304 339c12 13 23 24 36 36
c-13 12 -24 23 -36 36l-255 289h270z" />
    <glyph glyph-name="at" unicode="@" 
d="M294 700l101 -116c21 -25 40 -50 57 -77c17 27 36 52 57 77l102 116h250l-250 -279c-12 -13 -23 -24 -36 -36c13 -12 24 -23 36 -36l309 -349h-270l-144 164c-21 24 -51 63 -68 90c-17 -27 -46 -66 -68 -90l-145 -164h-250l304 339c12 13 23 24 36 36
c-13 12 -24 23 -36 36l-255 289h270z" />
    <glyph glyph-name="A" unicode="A" 
d="M294 700l101 -116c21 -25 40 -50 57 -77c17 27 36 52 57 77l102 116h250l-250 -279c-12 -13 -23 -24 -36 -36c13 -12 24 -23 36 -36l309 -349h-270l-144 164c-21 24 -51 63 -68 90c-17 -27 -46 -66 -68 -90l-145 -164h-250l304 339c12 13 23 24 36 36
c-13 12 -24 23 -36 36l-255 289h270z" />
    <glyph glyph-name="B" unicode="B" 
d="M294 700l101 -116c21 -25 40 -50 57 -77c17 27 36 52 57 77l102 116h250l-250 -279c-12 -13 -23 -24 -36 -36c13 -12 24 -23 36 -36l309 -349h-270l-144 164c-21 24 -51 63 -68 90c-17 -27 -46 -66 -68 -90l-145 -164h-250l304 339c12 13 23 24 36 36
c-13 12 -24 23 -36 36l-255 289h270z" />
    <glyph glyph-name="C" unicode="C" 
d="M294 700l101 -116c21 -25 40 -50 57 -77c17 27 36 52 57 77l102 116h250l-250 -279c-12 -13 -23 -24 -36 -36c13 -12 24 -23 36 -36l309 -349h-270l-144 164c-21 24 -51 63 -68 90c-17 -27 -46 -66 -68 -90l-145 -164h-250l304 339c12 13 23 24 36 36
c-13 12 -24 23 -36 36l-255 289h270z" />
    <glyph glyph-name="D" unicode="D" 
d="M294 700l101 -116c21 -25 40 -50 57 -77c17 27 36 52 57 77l102 116h250l-250 -279c-12 -13 -23 -24 -36 -36c13 -12 24 -23 36 -36l309 -349h-270l-144 164c-21 24 -51 63 -68 90c-17 -27 -46 -66 -68 -90l-145 -164h-250l304 339c12 13 23 24 36 36
c-13 12 -24 23 -36 36l-255 289h270z" />
    <glyph glyph-name="E" unicode="E" 
d="M294 700l101 -116c21 -25 40 -50 57 -77c17 27 36 52 57 77l102 116h250l-250 -279c-12 -13 -23 -24 -36 -36c13 -12 24 -23 36 -36l309 -349h-270l-144 164c-21 24 -51 63 -68 90c-17 -27 -46 -66 -68 -90l-145 -164h-250l304 339c12 13 23 24 36 36
c-13 12 -24 23 -36 36l-255 289h270z" />
    <glyph glyph-name="F" unicode="F" 
d="M294 700l101 -116c21 -25 40 -50 57 -77c17 27 36 52 57 77l102 116h250l-250 -279c-12 -13 -23 -24 -36 -36c13 -12 24 -23 36 -36l309 -349h-270l-144 164c-21 24 -51 63 -68 90c-17 -27 -46 -66 -68 -90l-145 -164h-250l304 339c12 13 23 24 36 36
c-13 12 -24 23 -36 36l-255 289h270z" />
    <glyph glyph-name="G" unicode="G" 
d="M294 700l101 -116c21 -25 40 -50 57 -77c17 27 36 52 57 77l102 116h250l-250 -279c-12 -13 -23 -24 -36 -36c13 -12 24 -23 36 -36l309 -349h-270l-144 164c-21 24 -51 63 -68 90c-17 -27 -46 -66 -68 -90l-145 -164h-250l304 339c12 13 23 24 36 36
c-13 12 -24 23 -36 36l-255 289h270z" />
    <glyph glyph-name="H" unicode="H" 
d="M294 700l101 -116c21 -25 40 -50 57 -77c17 27 36 52 57 77l102 116h250l-250 -279c-12 -13 -23 -24 -36 -36c13 -12 24 -23 36 -36l309 -349h-270l-144 164c-21 24 -51 63 -68 90c-17 -27 -46 -66 -68 -90l-145 -164h-250l304 339c12 13 23 24 36 36
c-13 12 -24 23 -36 36l-255 289h270z" />
    <glyph glyph-name="I" unicode="I" 
d="M294 700l101 -116c21 -25 40 -50 57 -77c17 27 36 52 57 77l102 116h250l-250 -279c-12 -13 -23 -24 -36 -36c13 -12 24 -23 36 -36l309 -349h-270l-144 164c-21 24 -51 63 -68 90c-17 -27 -46 -66 -68 -90l-145 -164h-250l304 339c12 13 23 24 36 36
c-13 12 -24 23 -36 36l-255 289h270z" />
    <glyph glyph-name="J" unicode="J" 
d="M294 700l101 -116c21 -25 40 -50 57 -77c17 27 36 52 57 77l102 116h250l-250 -279c-12 -13 -23 -24 -36 -36c13 -12 24 -23 36 -36l309 -349h-270l-144 164c-21 24 -51 63 -68 90c-17 -27 -46 -66 -68 -90l-145 -164h-250l304 339c12 13 23 24 36 36
c-13 12 -24 23 -36 36l-255 289h270z" />
    <glyph glyph-name="K" unicode="K" 
d="M294 700l101 -116c21 -25 40 -50 57 -77c17 27 36 52 57 77l102 116h250l-250 -279c-12 -13 -23 -24 -36 -36c13 -12 24 -23 36 -36l309 -349h-270l-144 164c-21 24 -51 63 -68 90c-17 -27 -46 -66 -68 -90l-145 -164h-250l304 339c12 13 23 24 36 36
c-13 12 -24 23 -36 36l-255 289h270z" />
    <glyph glyph-name="L" unicode="L" 
d="M294 700l101 -116c21 -25 40 -50 57 -77c17 27 36 52 57 77l102 116h250l-250 -279c-12 -13 -23 -24 -36 -36c13 -12 24 -23 36 -36l309 -349h-270l-144 164c-21 24 -51 63 -68 90c-17 -27 -46 -66 -68 -90l-145 -164h-250l304 339c12 13 23 24 36 36
c-13 12 -24 23 -36 36l-255 289h270z" />
    <glyph glyph-name="M" unicode="M" 
d="M294 700l101 -116c21 -25 40 -50 57 -77c17 27 36 52 57 77l102 116h250l-250 -279c-12 -13 -23 -24 -36 -36c13 -12 24 -23 36 -36l309 -349h-270l-144 164c-21 24 -51 63 -68 90c-17 -27 -46 -66 -68 -90l-145 -164h-250l304 339c12 13 23 24 36 36
c-13 12 -24 23 -36 36l-255 289h270z" />
    <glyph glyph-name="N" unicode="N" 
d="M294 700l101 -116c21 -25 40 -50 57 -77c17 27 36 52 57 77l102 116h250l-250 -279c-12 -13 -23 -24 -36 -36c13 -12 24 -23 36 -36l309 -349h-270l-144 164c-21 24 -51 63 -68 90c-17 -27 -46 -66 -68 -90l-145 -164h-250l304 339c12 13 23 24 36 36
c-13 12 -24 23 -36 36l-255 289h270z" />
    <glyph glyph-name="O" unicode="O" 
d="M294 700l101 -116c21 -25 40 -50 57 -77c17 27 36 52 57 77l102 116h250l-250 -279c-12 -13 -23 -24 -36 -36c13 -12 24 -23 36 -36l309 -349h-270l-144 164c-21 24 -51 63 -68 90c-17 -27 -46 -66 -68 -90l-145 -164h-250l304 339c12 13 23 24 36 36
c-13 12 -24 23 -36 36l-255 289h270z" />
    <glyph glyph-name="P" unicode="P" 
d="M294 700l101 -116c21 -25 40 -50 57 -77c17 27 36 52 57 77l102 116h250l-250 -279c-12 -13 -23 -24 -36 -36c13 -12 24 -23 36 -36l309 -349h-270l-144 164c-21 24 -51 63 -68 90c-17 -27 -46 -66 -68 -90l-145 -164h-250l304 339c12 13 23 24 36 36
c-13 12 -24 23 -36 36l-255 289h270z" />
    <glyph glyph-name="Q" unicode="Q" 
d="M294 700l101 -116c21 -25 40 -50 57 -77c17 27 36 52 57 77l102 116h250l-250 -279c-12 -13 -23 -24 -36 -36c13 -12 24 -23 36 -36l309 -349h-270l-144 164c-21 24 -51 63 -68 90c-17 -27 -46 -66 -68 -90l-145 -164h-250l304 339c12 13 23 24 36 36
c-13 12 -24 23 -36 36l-255 289h270z" />
    <glyph glyph-name="R" unicode="R" 
d="M294 700l101 -116c21 -25 40 -50 57 -77c17 27 36 52 57 77l102 116h250l-250 -279c-12 -13 -23 -24 -36 -36c13 -12 24 -23 36 -36l309 -349h-270l-144 164c-21 24 -51 63 -68 90c-17 -27 -46 -66 -68 -90l-145 -164h-250l304 339c12 13 23 24 36 36
c-13 12 -24 23 -36 36l-255 289h270z" />
    <glyph glyph-name="S" unicode="S" 
d="M294 700l101 -116c21 -25 40 -50 57 -77c17 27 36 52 57 77l102 116h250l-250 -279c-12 -13 -23 -24 -36 -36c13 -12 24 -23 36 -36l309 -349h-270l-144 164c-21 24 -51 63 -68 90c-17 -27 -46 -66 -68 -90l-145 -164h-250l304 339c12 13 23 24 36 36
c-13 12 -24 23 -36 36l-255 289h270z" />
    <glyph glyph-name="T" unicode="T" 
d="M294 700l101 -116c21 -25 40 -50 57 -77c17 27 36 52 57 77l102 116h250l-250 -279c-12 -13 -23 -24 -36 -36c13 -12 24 -23 36 -36l309 -349h-270l-144 164c-21 24 -51 63 -68 90c-17 -27 -46 -66 -68 -90l-145 -164h-250l304 339c12 13 23 24 36 36
c-13 12 -24 23 -36 36l-255 289h270z" />
    <glyph glyph-name="U" unicode="U" 
d="M294 700l101 -116c21 -25 40 -50 57 -77c17 27 36 52 57 77l102 116h250l-250 -279c-12 -13 -23 -24 -36 -36c13 -12 24 -23 36 -36l309 -349h-270l-144 164c-21 24 -51 63 -68 90c-17 -27 -46 -66 -68 -90l-145 -164h-250l304 339c12 13 23 24 36 36
c-13 12 -24 23 -36 36l-255 289h270z" />
    <glyph glyph-name="V" unicode="V" 
d="M294 700l101 -116c21 -25 40 -50 57 -77c17 27 36 52 57 77l102 116h250l-250 -279c-12 -13 -23 -24 -36 -36c13 -12 24 -23 36 -36l309 -349h-270l-144 164c-21 24 -51 63 -68 90c-17 -27 -46 -66 -68 -90l-145 -164h-250l304 339c12 13 23 24 36 36
c-13 12 -24 23 -36 36l-255 289h270z" />
    <glyph glyph-name="W" unicode="W" 
d="M294 700l101 -116c21 -25 40 -50 57 -77c17 27 36 52 57 77l102 116h250l-250 -279c-12 -13 -23 -24 -36 -36c13 -12 24 -23 36 -36l309 -349h-270l-144 164c-21 24 -51 63 -68 90c-17 -27 -46 -66 -68 -90l-145 -164h-250l304 339c12 13 23 24 36 36
c-13 12 -24 23 -36 36l-255 289h270z" />
    <glyph glyph-name="X" unicode="X" 
d="M294 700l101 -116c21 -25 40 -50 57 -77c17 27 36 52 57 77l102 116h250l-250 -279c-12 -13 -23 -24 -36 -36c13 -12 24 -23 36 -36l309 -349h-270l-144 164c-21 24 -51 63 -68 90c-17 -27 -46 -66 -68 -90l-145 -164h-250l304 339c12 13 23 24 36 36
c-13 12 -24 23 -36 36l-255 289h270z" />
    <glyph glyph-name="Y" unicode="Y" 
d="M294 700l101 -116c21 -25 40 -50 57 -77c17 27 36 52 57 77l102 116h250l-250 -279c-12 -13 -23 -24 -36 -36c13 -12 24 -23 36 -36l309 -349h-270l-144 164c-21 24 -51 63 -68 90c-17 -27 -46 -66 -68 -90l-145 -164h-250l304 339c12 13 23 24 36 36
c-13 12 -24 23 -36 36l-255 289h270z" />
    <glyph glyph-name="Z" unicode="Z" 
d="M294 700l101 -116c21 -25 40 -50 57 -77c17 27 36 52 57 77l102 116h250l-250 -279c-12 -13 -23 -24 -36 -36c13 -12 24 -23 36 -36l309 -349h-270l-144 164c-21 24 -51 63 -68 90c-17 -27 -46 -66 -68 -90l-145 -164h-250l304 339c12 13 23 24 36 36
c-13 12 -24 23 -36 36l-255 289h270z" />
    <glyph glyph-name="bracketleft" unicode="[" 
d="M294 700l101 -116c21 -25 40 -50 57 -77c17 27 36 52 57 77l102 116h250l-250 -279c-12 -13 -23 -24 -36 -36c13 -12 24 -23 36 -36l309 -349h-270l-144 164c-21 24 -51 63 -68 90c-17 -27 -46 -66 -68 -90l-145 -164h-250l304 339c12 13 23 24 36 36
c-13 12 -24 23 -36 36l-255 289h270z" />
    <glyph glyph-name="backslash" unicode="\" 
d="M294 700l101 -116c21 -25 40 -50 57 -77c17 27 36 52 57 77l102 116h250l-250 -279c-12 -13 -23 -24 -36 -36c13 -12 24 -23 36 -36l309 -349h-270l-144 164c-21 24 -51 63 -68 90c-17 -27 -46 -66 -68 -90l-145 -164h-250l304 339c12 13 23 24 36 36
c-13 12 -24 23 -36 36l-255 289h270z" />
    <glyph glyph-name="bracketright" unicode="]" 
d="M294 700l101 -116c21 -25 40 -50 57 -77c17 27 36 52 57 77l102 116h250l-250 -279c-12 -13 -23 -24 -36 -36c13 -12 24 -23 36 -36l309 -349h-270l-144 164c-21 24 -51 63 -68 90c-17 -27 -46 -66 -68 -90l-145 -164h-250l304 339c12 13 23 24 36 36
c-13 12 -24 23 -36 36l-255 289h270z" />
    <glyph glyph-name="asciicircum" unicode="^" 
d="M294 700l101 -116c21 -25 40 -50 57 -77c17 27 36 52 57 77l102 116h250l-250 -279c-12 -13 -23 -24 -36 -36c13 -12 24 -23 36 -36l309 -349h-270l-144 164c-21 24 -51 63 -68 90c-17 -27 -46 -66 -68 -90l-145 -164h-250l304 339c12 13 23 24 36 36
c-13 12 -24 23 -36 36l-255 289h270z" />
    <glyph glyph-name="underscore" unicode="_" 
d="M294 700l101 -116c21 -25 40 -50 57 -77c17 27 36 52 57 77l102 116h250l-250 -279c-12 -13 -23 -24 -36 -36c13 -12 24 -23 36 -36l309 -349h-270l-144 164c-21 24 -51 63 -68 90c-17 -27 -46 -66 -68 -90l-145 -164h-250l304 339c12 13 23 24 36 36
c-13 12 -24 23 -36 36l-255 289h270z" />
    <glyph glyph-name="grave" unicode="`" 
d="M294 700l101 -116c21 -25 40 -50 57 -77c17 27 36 52 57 77l102 116h250l-250 -279c-12 -13 -23 -24 -36 -36c13 -12 24 -23 36 -36l309 -349h-270l-144 164c-21 24 -51 63 -68 90c-17 -27 -46 -66 -68 -90l-145 -164h-250l304 339c12 13 23 24 36 36
c-13 12 -24 23 -36 36l-255 289h270z" />
    <glyph glyph-name="a" unicode="a" 
d="M294 700l101 -116c21 -25 40 -50 57 -77c17 27 36 52 57 77l102 116h250l-250 -279c-12 -13 -23 -24 -36 -36c13 -12 24 -23 36 -36l309 -349h-270l-144 164c-21 24 -51 63 -68 90c-17 -27 -46 -66 -68 -90l-145 -164h-250l304 339c12 13 23 24 36 36
c-13 12 -24 23 -36 36l-255 289h270z" />
    <glyph glyph-name="b" unicode="b" 
d="M294 700l101 -116c21 -25 40 -50 57 -77c17 27 36 52 57 77l102 116h250l-250 -279c-12 -13 -23 -24 -36 -36c13 -12 24 -23 36 -36l309 -349h-270l-144 164c-21 24 -51 63 -68 90c-17 -27 -46 -66 -68 -90l-145 -164h-250l304 339c12 13 23 24 36 36
c-13 12 -24 23 -36 36l-255 289h270z" />
    <glyph glyph-name="c" unicode="c" 
d="M294 700l101 -116c21 -25 40 -50 57 -77c17 27 36 52 57 77l102 116h250l-250 -279c-12 -13 -23 -24 -36 -36c13 -12 24 -23 36 -36l309 -349h-270l-144 164c-21 24 -51 63 -68 90c-17 -27 -46 -66 -68 -90l-145 -164h-250l304 339c12 13 23 24 36 36
c-13 12 -24 23 -36 36l-255 289h270z" />
    <glyph glyph-name="d" unicode="d" 
d="M294 700l101 -116c21 -25 40 -50 57 -77c17 27 36 52 57 77l102 116h250l-250 -279c-12 -13 -23 -24 -36 -36c13 -12 24 -23 36 -36l309 -349h-270l-144 164c-21 24 -51 63 -68 90c-17 -27 -46 -66 -68 -90l-145 -164h-250l304 339c12 13 23 24 36 36
c-13 12 -24 23 -36 36l-255 289h270z" />
    <glyph glyph-name="e" unicode="e" 
d="M294 700l101 -116c21 -25 40 -50 57 -77c17 27 36 52 57 77l102 116h250l-250 -279c-12 -13 -23 -24 -36 -36c13 -12 24 -23 36 -36l309 -349h-270l-144 164c-21 24 -51 63 -68 90c-17 -27 -46 -66 -68 -90l-145 -164h-250l304 339c12 13 23 24 36 36
c-13 12 -24 23 -36 36l-255 289h270z" />
    <glyph glyph-name="f" unicode="f" 
d="M294 700l101 -116c21 -25 40 -50 57 -77c17 27 36 52 57 77l102 116h250l-250 -279c-12 -13 -23 -24 -36 -36c13 -12 24 -23 36 -36l309 -349h-270l-144 164c-21 24 -51 63 -68 90c-17 -27 -46 -66 -68 -90l-145 -164h-250l304 339c12 13 23 24 36 36
c-13 12 -24 23 -36 36l-255 289h270z" />
    <glyph glyph-name="g" unicode="g" 
d="M294 700l101 -116c21 -25 40 -50 57 -77c17 27 36 52 57 77l102 116h250l-250 -279c-12 -13 -23 -24 -36 -36c13 -12 24 -23 36 -36l309 -349h-270l-144 164c-21 24 -51 63 -68 90c-17 -27 -46 -66 -68 -90l-145 -164h-250l304 339c12 13 23 24 36 36
c-13 12 -24 23 -36 36l-255 289h270z" />
    <glyph glyph-name="h" unicode="h" 
d="M294 700l101 -116c21 -25 40 -50 57 -77c17 27 36 52 57 77l102 116h250l-250 -279c-12 -13 -23 -24 -36 -36c13 -12 24 -23 36 -36l309 -349h-270l-144 164c-21 24 -51 63 -68 90c-17 -27 -46 -66 -68 -90l-145 -164h-250l304 339c12 13 23 24 36 36
c-13 12 -24 23 -36 36l-255 289h270z" />
    <glyph glyph-name="i" unicode="i" 
d="M294 700l101 -116c21 -25 40 -50 57 -77c17 27 36 52 57 77l102 116h250l-250 -279c-12 -13 -23 -24 -36 -36c13 -12 24 -23 36 -36l309 -349h-270l-144 164c-21 24 -51 63 -68 90c-17 -27 -46 -66 -68 -90l-145 -164h-250l304 339c12 13 23 24 36 36
c-13 12 -24 23 -36 36l-255 289h270z" />
    <glyph glyph-name="j" unicode="j" 
d="M294 700l101 -116c21 -25 40 -50 57 -77c17 27 36 52 57 77l102 116h250l-250 -279c-12 -13 -23 -24 -36 -36c13 -12 24 -23 36 -36l309 -349h-270l-144 164c-21 24 -51 63 -68 90c-17 -27 -46 -66 -68 -90l-145 -164h-250l304 339c12 13 23 24 36 36
c-13 12 -24 23 -36 36l-255 289h270z" />
    <glyph glyph-name="k" unicode="k" 
d="M294 700l101 -116c21 -25 40 -50 57 -77c17 27 36 52 57 77l102 116h250l-250 -279c-12 -13 -23 -24 -36 -36c13 -12 24 -23 36 -36l309 -349h-270l-144 164c-21 24 -51 63 -68 90c-17 -27 -46 -66 -68 -90l-145 -164h-250l304 339c12 13 23 24 36 36
c-13 12 -24 23 -36 36l-255 289h270z" />
    <glyph glyph-name="l" unicode="l" 
d="M294 700l101 -116c21 -25 40 -50 57 -77c17 27 36 52 57 77l102 116h250l-250 -279c-12 -13 -23 -24 -36 -36c13 -12 24 -23 36 -36l309 -349h-270l-144 164c-21 24 -51 63 -68 90c-17 -27 -46 -66 -68 -90l-145 -164h-250l304 339c12 13 23 24 36 36
c-13 12 -24 23 -36 36l-255 289h270z" />
    <glyph glyph-name="m" unicode="m" 
d="M294 700l101 -116c21 -25 40 -50 57 -77c17 27 36 52 57 77l102 116h250l-250 -279c-12 -13 -23 -24 -36 -36c13 -12 24 -23 36 -36l309 -349h-270l-144 164c-21 24 -51 63 -68 90c-17 -27 -46 -66 -68 -90l-145 -164h-250l304 339c12 13 23 24 36 36
c-13 12 -24 23 -36 36l-255 289h270z" />
    <glyph glyph-name="n" unicode="n" 
d="M294 700l101 -116c21 -25 40 -50 57 -77c17 27 36 52 57 77l102 116h250l-250 -279c-12 -13 -23 -24 -36 -36c13 -12 24 -23 36 -36l309 -349h-270l-144 164c-21 24 -51 63 -68 90c-17 -27 -46 -66 -68 -90l-145 -164h-250l304 339c12 13 23 24 36 36
c-13 12 -24 23 -36 36l-255 289h270z" />
    <glyph glyph-name="o" unicode="o" 
d="M294 700l101 -116c21 -25 40 -50 57 -77c17 27 36 52 57 77l102 116h250l-250 -279c-12 -13 -23 -24 -36 -36c13 -12 24 -23 36 -36l309 -349h-270l-144 164c-21 24 -51 63 -68 90c-17 -27 -46 -66 -68 -90l-145 -164h-250l304 339c12 13 23 24 36 36
c-13 12 -24 23 -36 36l-255 289h270z" />
    <glyph glyph-name="p" unicode="p" 
d="M294 700l101 -116c21 -25 40 -50 57 -77c17 27 36 52 57 77l102 116h250l-250 -279c-12 -13 -23 -24 -36 -36c13 -12 24 -23 36 -36l309 -349h-270l-144 164c-21 24 -51 63 -68 90c-17 -27 -46 -66 -68 -90l-145 -164h-250l304 339c12 13 23 24 36 36
c-13 12 -24 23 -36 36l-255 289h270z" />
    <glyph glyph-name="q" unicode="q" 
d="M294 700l101 -116c21 -25 40 -50 57 -77c17 27 36 52 57 77l102 116h250l-250 -279c-12 -13 -23 -24 -36 -36c13 -12 24 -23 36 -36l309 -349h-270l-144 164c-21 24 -51 63 -68 90c-17 -27 -46 -66 -68 -90l-145 -164h-250l304 339c12 13 23 24 36 36
c-13 12 -24 23 -36 36l-255 289h270z" />
    <glyph glyph-name="r" unicode="r" 
d="M294 700l101 -116c21 -25 40 -50 57 -77c17 27 36 52 57 77l102 116h250l-250 -279c-12 -13 -23 -24 -36 -36c13 -12 24 -23 36 -36l309 -349h-270l-144 164c-21 24 -51 63 -68 90c-17 -27 -46 -66 -68 -90l-145 -164h-250l304 339c12 13 23 24 36 36
c-13 12 -24 23 -36 36l-255 289h270z" />
    <glyph glyph-name="s" unicode="s" 
d="M294 700l101 -116c21 -25 40 -50 57 -77c17 27 36 52 57 77l102 116h250l-250 -279c-12 -13 -23 -24 -36 -36c13 -12 24 -23 36 -36l309 -349h-270l-144 164c-21 24 -51 63 -68 90c-17 -27 -46 -66 -68 -90l-145 -164h-250l304 339c12 13 23 24 36 36
c-13 12 -24 23 -36 36l-255 289h270z" />
    <glyph glyph-name="t" unicode="t" 
d="M294 700l101 -116c21 -25 40 -50 57 -77c17 27 36 52 57 77l102 116h250l-250 -279c-12 -13 -23 -24 -36 -36c13 -12 24 -23 36 -36l309 -349h-270l-144 164c-21 24 -51 63 -68 90c-17 -27 -46 -66 -68 -90l-145 -164h-250l304 339c12 13 23 24 36 36
c-13 12 -24 23 -36 36l-255 289h270z" />
    <glyph glyph-name="u" unicode="u" 
d="M294 700l101 -116c21 -25 40 -50 57 -77c17 27 36 52 57 77l102 116h250l-250 -279c-12 -13 -23 -24 -36 -36c13 -12 24 -23 36 -36l309 -349h-270l-144 164c-21 24 -51 63 -68 90c-17 -27 -46 -66 -68 -90l-145 -164h-250l304 339c12 13 23 24 36 36
c-13 12 -24 23 -36 36l-255 289h270z" />
    <glyph glyph-name="v" unicode="v" 
d="M294 700l101 -116c21 -25 40 -50 57 -77c17 27 36 52 57 77l102 116h250l-250 -279c-12 -13 -23 -24 -36 -36c13 -12 24 -23 36 -36l309 -349h-270l-144 164c-21 24 -51 63 -68 90c-17 -27 -46 -66 -68 -90l-145 -164h-250l304 339c12 13 23 24 36 36
c-13 12 -24 23 -36 36l-255 289h270z" />
    <glyph glyph-name="w" unicode="w" 
d="M294 700l101 -116c21 -25 40 -50 57 -77c17 27 36 52 57 77l102 116h250l-250 -279c-12 -13 -23 -24 -36 -36c13 -12 24 -23 36 -36l309 -349h-270l-144 164c-21 24 -51 63 -68 90c-17 -27 -46 -66 -68 -90l-145 -164h-250l304 339c12 13 23 24 36 36
c-13 12 -24 23 -36 36l-255 289h270z" />
    <glyph glyph-name="x" unicode="x" 
d="M294 700l101 -116c21 -25 40 -50 57 -77c17 27 36 52 57 77l102 116h250l-250 -279c-12 -13 -23 -24 -36 -36c13 -12 24 -23 36 -36l309 -349h-270l-144 164c-21 24 -51 63 -68 90c-17 -27 -46 -66 -68 -90l-145 -164h-250l304 339c12 13 23 24 36 36
c-13 12 -24 23 -36 36l-255 289h270z" />
    <glyph glyph-name="y" unicode="y" 
d="M294 700l101 -116c21 -25 40 -50 57 -77c17 27 36 52 57 77l102 116h250l-250 -279c-12 -13 -23 -24 -36 -36c13 -12 24 -23 36 -36l309 -349h-270l-144 164c-21 24 -51 63 -68 90c-17 -27 -46 -66 -68 -90l-145 -164h-250l304 339c12 13 23 24 36 36
c-13 12 -24 23 -36 36l-255 289h270z" />
    <glyph glyph-name="z" unicode="z" 
d="M294 700l101 -116c21 -25 40 -50 57 -77c17 27 36 52 57 77l102 116h250l-250 -279c-12 -13 -23 -24 -36 -36c13 -12 24 -23 36 -36l309 -349h-270l-144 164c-21 24 -51 63 -68 90c-17 -27 -46 -66 -68 -90l-145 -164h-250l304 339c12 13 23 24 36 36
c-13 12 -24 23 -36 36l-255 289h270z" />
    <glyph glyph-name="braceleft" unicode="{" 
d="M294 700l101 -116c21 -25 40 -50 57 -77c17 27 36 52 57 77l102 116h250l-250 -279c-12 -13 -23 -24 -36 -36c13 -12 24 -23 36 -36l309 -349h-270l-144 164c-21 24 -51 63 -68 90c-17 -27 -46 -66 -68 -90l-145 -164h-250l304 339c12 13 23 24 36 36
c-13 12 -24 23 -36 36l-255 289h270z" />
    <glyph glyph-name="bar" unicode="|" 
d="M294 700l101 -116c21 -25 40 -50 57 -77c17 27 36 52 57 77l102 116h250l-250 -279c-12 -13 -23 -24 -36 -36c13 -12 24 -23 36 -36l309 -349h-270l-144 164c-21 24 -51 63 -68 90c-17 -27 -46 -66 -68 -90l-145 -164h-250l304 339c12 13 23 24 36 36
c-13 12 -24 23 -36 36l-255 289h270z" />
    <glyph glyph-name="braceright" unicode="}" 
d="M294 700l101 -116c21 -25 40 -50 57 -77c17 27 36 52 57 77l102 116h250l-250 -279c-12 -13 -23 -24 -36 -36c13 -12 24 -23 36 -36l309 -349h-270l-144 164c-21 24 -51 63 -68 90c-17 -27 -46 -66 -68 -90l-145 -164h-250l304 339c12 13 23 24 36 36
c-13 12 -24 23 -36 36l-255 289h270z" />
    <glyph glyph-name="asciitilde" unicode="~" 
d="M294 700l101 -116c21 -25 40 -50 57 -77c17 27 36 52 57 77l102 116h250l-250 -279c-12 -13 -23 -24 -36 -36c13 -12 24 -23 36 -36l309 -349h-270l-144 164c-21 24 -51 63 -68 90c-17 -27 -46 -66 -68 -90l-145 -164h-250l304 339c12 13 23 24 36 36
c-13 12 -24 23 -36 36l-255 289h270z" />
    <glyph glyph-name="dagger" unicode="&#x2020;" 
d="M294 700l101 -116c21 -25 40 -50 57 -77c17 27 36 52 57 77l102 116h250l-250 -279c-12 -13 -23 -24 -36 -36c13 -12 24 -23 36 -36l309 -349h-270l-144 164c-21 24 -51 63 -68 90c-17 -27 -46 -66 -68 -90l-145 -164h-250l304 339c12 13 23 24 36 36
c-13 12 -24 23 -36 36l-255 289h270z" />
    <glyph glyph-name="degree" unicode="&#xb0;" 
d="M294 700l101 -116c21 -25 40 -50 57 -77c17 27 36 52 57 77l102 116h250l-250 -279c-12 -13 -23 -24 -36 -36c13 -12 24 -23 36 -36l309 -349h-270l-144 164c-21 24 -51 63 -68 90c-17 -27 -46 -66 -68 -90l-145 -164h-250l304 339c12 13 23 24 36 36
c-13 12 -24 23 -36 36l-255 289h270z" />
    <glyph glyph-name="section" unicode="&#xa7;" 
d="M294 700l101 -116c21 -25 40 -50 57 -77c17 27 36 52 57 77l102 116h250l-250 -279c-12 -13 -23 -24 -36 -36c13 -12 24 -23 36 -36l309 -349h-270l-144 164c-21 24 -51 63 -68 90c-17 -27 -46 -66 -68 -90l-145 -164h-250l304 339c12 13 23 24 36 36
c-13 12 -24 23 -36 36l-255 289h270z" />
    <glyph glyph-name="bullet" unicode="&#x2022;" 
d="M294 700l101 -116c21 -25 40 -50 57 -77c17 27 36 52 57 77l102 116h250l-250 -279c-12 -13 -23 -24 -36 -36c13 -12 24 -23 36 -36l309 -349h-270l-144 164c-21 24 -51 63 -68 90c-17 -27 -46 -66 -68 -90l-145 -164h-250l304 339c12 13 23 24 36 36
c-13 12 -24 23 -36 36l-255 289h270z" />
    <glyph glyph-name="paragraph" unicode="&#xb6;" 
d="M294 700l101 -116c21 -25 40 -50 57 -77c17 27 36 52 57 77l102 116h250l-250 -279c-12 -13 -23 -24 -36 -36c13 -12 24 -23 36 -36l309 -349h-270l-144 164c-21 24 -51 63 -68 90c-17 -27 -46 -66 -68 -90l-145 -164h-250l304 339c12 13 23 24 36 36
c-13 12 -24 23 -36 36l-255 289h270z" />
    <glyph glyph-name="uni0406" unicode="&#x406;" 
d="M294 700l101 -116c21 -25 40 -50 57 -77c17 27 36 52 57 77l102 116h250l-250 -279c-12 -13 -23 -24 -36 -36c13 -12 24 -23 36 -36l309 -349h-270l-144 164c-21 24 -51 63 -68 90c-17 -27 -46 -66 -68 -90l-145 -164h-250l304 339c12 13 23 24 36 36
c-13 12 -24 23 -36 36l-255 289h270z" />
    <glyph glyph-name="registered" unicode="&#xae;" 
d="M294 700l101 -116c21 -25 40 -50 57 -77c17 27 36 52 57 77l102 116h250l-250 -279c-12 -13 -23 -24 -36 -36c13 -12 24 -23 36 -36l309 -349h-270l-144 164c-21 24 -51 63 -68 90c-17 -27 -46 -66 -68 -90l-145 -164h-250l304 339c12 13 23 24 36 36
c-13 12 -24 23 -36 36l-255 289h270z" />
    <glyph glyph-name="copyright" unicode="&#xa9;" 
d="M294 700l101 -116c21 -25 40 -50 57 -77c17 27 36 52 57 77l102 116h250l-250 -279c-12 -13 -23 -24 -36 -36c13 -12 24 -23 36 -36l309 -349h-270l-144 164c-21 24 -51 63 -68 90c-17 -27 -46 -66 -68 -90l-145 -164h-250l304 339c12 13 23 24 36 36
c-13 12 -24 23 -36 36l-255 289h270z" />
    <glyph glyph-name="trademark" unicode="&#x2122;" 
d="M294 700l101 -116c21 -25 40 -50 57 -77c17 27 36 52 57 77l102 116h250l-250 -279c-12 -13 -23 -24 -36 -36c13 -12 24 -23 36 -36l309 -349h-270l-144 164c-21 24 -51 63 -68 90c-17 -27 -46 -66 -68 -90l-145 -164h-250l304 339c12 13 23 24 36 36
c-13 12 -24 23 -36 36l-255 289h270z" />
    <glyph glyph-name="notequal" unicode="&#x2260;" 
d="M294 700l101 -116c21 -25 40 -50 57 -77c17 27 36 52 57 77l102 116h250l-250 -279c-12 -13 -23 -24 -36 -36c13 -12 24 -23 36 -36l309 -349h-270l-144 164c-21 24 -51 63 -68 90c-17 -27 -46 -66 -68 -90l-145 -164h-250l304 339c12 13 23 24 36 36
c-13 12 -24 23 -36 36l-255 289h270z" />
    <glyph glyph-name="infinity" unicode="&#x221e;" 
d="M294 700l101 -116c21 -25 40 -50 57 -77c17 27 36 52 57 77l102 116h250l-250 -279c-12 -13 -23 -24 -36 -36c13 -12 24 -23 36 -36l309 -349h-270l-144 164c-21 24 -51 63 -68 90c-17 -27 -46 -66 -68 -90l-145 -164h-250l304 339c12 13 23 24 36 36
c-13 12 -24 23 -36 36l-255 289h270z" />
    <glyph glyph-name="plusminus" unicode="&#xb1;" 
d="M294 700l101 -116c21 -25 40 -50 57 -77c17 27 36 52 57 77l102 116h250l-250 -279c-12 -13 -23 -24 -36 -36c13 -12 24 -23 36 -36l309 -349h-270l-144 164c-21 24 -51 63 -68 90c-17 -27 -46 -66 -68 -90l-145 -164h-250l304 339c12 13 23 24 36 36
c-13 12 -24 23 -36 36l-255 289h270z" />
    <glyph glyph-name="lessequal" unicode="&#x2264;" 
d="M294 700l101 -116c21 -25 40 -50 57 -77c17 27 36 52 57 77l102 116h250l-250 -279c-12 -13 -23 -24 -36 -36c13 -12 24 -23 36 -36l309 -349h-270l-144 164c-21 24 -51 63 -68 90c-17 -27 -46 -66 -68 -90l-145 -164h-250l304 339c12 13 23 24 36 36
c-13 12 -24 23 -36 36l-255 289h270z" />
    <glyph glyph-name="greaterequal" unicode="&#x2265;" 
d="M294 700l101 -116c21 -25 40 -50 57 -77c17 27 36 52 57 77l102 116h250l-250 -279c-12 -13 -23 -24 -36 -36c13 -12 24 -23 36 -36l309 -349h-270l-144 164c-21 24 -51 63 -68 90c-17 -27 -46 -66 -68 -90l-145 -164h-250l304 339c12 13 23 24 36 36
c-13 12 -24 23 -36 36l-255 289h270z" />
    <glyph glyph-name="approxequal" unicode="&#x2248;" 
d="M294 700l101 -116c21 -25 40 -50 57 -77c17 27 36 52 57 77l102 116h250l-250 -279c-12 -13 -23 -24 -36 -36c13 -12 24 -23 36 -36l309 -349h-270l-144 164c-21 24 -51 63 -68 90c-17 -27 -46 -66 -68 -90l-145 -164h-250l304 339c12 13 23 24 36 36
c-13 12 -24 23 -36 36l-255 289h270z" />
    <glyph glyph-name="ellipsis" unicode="&#x2026;" 
d="M294 700l101 -116c21 -25 40 -50 57 -77c17 27 36 52 57 77l102 116h250l-250 -279c-12 -13 -23 -24 -36 -36c13 -12 24 -23 36 -36l309 -349h-270l-144 164c-21 24 -51 63 -68 90c-17 -27 -46 -66 -68 -90l-145 -164h-250l304 339c12 13 23 24 36 36
c-13 12 -24 23 -36 36l-255 289h270z" />
    <glyph glyph-name="quotedblleft" unicode="&#x201c;" 
d="M294 700l101 -116c21 -25 40 -50 57 -77c17 27 36 52 57 77l102 116h250l-250 -279c-12 -13 -23 -24 -36 -36c13 -12 24 -23 36 -36l309 -349h-270l-144 164c-21 24 -51 63 -68 90c-17 -27 -46 -66 -68 -90l-145 -164h-250l304 339c12 13 23 24 36 36
c-13 12 -24 23 -36 36l-255 289h270z" />
    <glyph glyph-name="quotedblright" unicode="&#x201d;" 
d="M294 700l101 -116c21 -25 40 -50 57 -77c17 27 36 52 57 77l102 116h250l-250 -279c-12 -13 -23 -24 -36 -36c13 -12 24 -23 36 -36l309 -349h-270l-144 164c-21 24 -51 63 -68 90c-17 -27 -46 -66 -68 -90l-145 -164h-250l304 339c12 13 23 24 36 36
c-13 12 -24 23 -36 36l-255 289h270z" />
    <glyph glyph-name="quoteleft" unicode="&#x2018;" 
d="M294 700l101 -116c21 -25 40 -50 57 -77c17 27 36 52 57 77l102 116h250l-250 -279c-12 -13 -23 -24 -36 -36c13 -12 24 -23 36 -36l309 -349h-270l-144 164c-21 24 -51 63 -68 90c-17 -27 -46 -66 -68 -90l-145 -164h-250l304 339c12 13 23 24 36 36
c-13 12 -24 23 -36 36l-255 289h270z" />
    <glyph glyph-name="quoteright" unicode="&#x2019;" 
d="M294 700l101 -116c21 -25 40 -50 57 -77c17 27 36 52 57 77l102 116h250l-250 -279c-12 -13 -23 -24 -36 -36c13 -12 24 -23 36 -36l309 -349h-270l-144 164c-21 24 -51 63 -68 90c-17 -27 -46 -66 -68 -90l-145 -164h-250l304 339c12 13 23 24 36 36
c-13 12 -24 23 -36 36l-255 289h270z" />
    <glyph glyph-name="divide" unicode="&#xf7;" 
d="M294 700l101 -116c21 -25 40 -50 57 -77c17 27 36 52 57 77l102 116h250l-250 -279c-12 -13 -23 -24 -36 -36c13 -12 24 -23 36 -36l309 -349h-270l-144 164c-21 24 -51 63 -68 90c-17 -27 -46 -66 -68 -90l-145 -164h-250l304 339c12 13 23 24 36 36
c-13 12 -24 23 -36 36l-255 289h270z" />
    <glyph glyph-name="cent" unicode="&#xa2;" 
d="M294 700l101 -116c21 -25 40 -50 57 -77c17 27 36 52 57 77l102 116h250l-250 -279c-12 -13 -23 -24 -36 -36c13 -12 24 -23 36 -36l309 -349h-270l-144 164c-21 24 -51 63 -68 90c-17 -27 -46 -66 -68 -90l-145 -164h-250l304 339c12 13 23 24 36 36
c-13 12 -24 23 -36 36l-255 289h270z" />
    <glyph glyph-name="quotesinglbase" unicode="&#x201a;" 
d="M294 700l101 -116c21 -25 40 -50 57 -77c17 27 36 52 57 77l102 116h250l-250 -279c-12 -13 -23 -24 -36 -36c13 -12 24 -23 36 -36l309 -349h-270l-144 164c-21 24 -51 63 -68 90c-17 -27 -46 -66 -68 -90l-145 -164h-250l304 339c12 13 23 24 36 36
c-13 12 -24 23 -36 36l-255 289h270z" />
    <glyph glyph-name="space" unicode=" " horiz-adv-x="330" 
 />
    </font>
</defs>
</svg>
