<svg xmlns="http://www.w3.org/2000/svg" viewBox="0 0 25.75 14.69"><g data-name="Слой 2"><path d="M25.62 13.27l-.09-.17a13.52 13.52 0 0 0-2.56-3c-.64-.56-.97-.93-1.16-1.1a1 1 0 0 1-.18-1.09 10 10 0 0 1 1.2-1.76q.55-.7.87-1.14c1.55-2 2.22-3.37 2-3.94l-.06-.14a.8.8 0 0 0-.42-.22 2.13 2.13 0 0 0-.86 0L20.5.7a.5.5 0 0 0-.27 0h-.17L20 .78a.48.48 0 0 0-.15.14.92.92 0 0 0-.13.24 21.48 21.48 0 0 1-1.44 3c-.33.56-.63 1-.91 1.44a6.63 6.63 0 0 1-.7.9 4 4 0 0 1-.57.5c-.15.12-.26.17-.35.15h-.22a.9.9 0 0 1-.31-.33 1.69 1.69 0 0 1-.15-.52c0-.21 0-.39-.05-.55s0-.36 0-.64v-.56-1.11-.94-.74a2.52 2.52 0 0 0 0-.61 1.66 1.66 0 0 0-.14-.43.66.66 0 0 0-.27-.32 1.32 1.32 0 0 0-.41-.22A8.74 8.74 0 0 0 12.39 0a8.88 8.88 0 0 0-3.21.32 1.92 1.92 0 0 0-.5.41c-.17.19-.19.3-.07.32a1.68 1.68 0 0 1 1.14.57l.08.17a3 3 0 0 1 .17.61 6.91 6.91 0 0 1 .12 1 11.7 11.7 0 0 1 0 1.68c-.05.46-.09.82-.13 1.08a2.16 2.16 0 0 1-.18.63l-.16.3s-.05.06-.07.06a.92.92 0 0 1-.36.07.82.82 0 0 1-.44-.22 2.82 2.82 0 0 1-.55-.51 6.4 6.4 0 0 1-.65-.92 14.29 14.29 0 0 1-.76-1.39l-.21-.38c-.13-.25-.32-.62-.55-1.1s-.44-.94-.62-1.38a.79.79 0 0 0-.32-.43h-.06a.86.86 0 0 0-.22-.16 1.09 1.09 0 0 0-.31-.08L.86.67a1 1 0 0 0-.77.26L0 1a.37.37 0 0 0 0 .21 1.13 1.13 0 0 0 .08.36C.62 2.84 1.2 4.06 1.83 5.23S3 7.34 3.47 8.06s.94 1.39 1.42 2 .81 1.05 1 1.22l.37.41.34.32a8.48 8.48 0 0 0 .94.77c.42.3.88.59 1.38.88a7.52 7.52 0 0 0 1.77.71 6 6 0 0 0 1.95.23h1.55a1.09 1.09 0 0 0 .71-.3l.05-.07A.69.69 0 0 0 15 14a1.5 1.5 0 0 0 .05-.37 4.78 4.78 0 0 1 .08-1 3.16 3.16 0 0 1 .23-.7 1.72 1.72 0 0 1 .29-.39 1 1 0 0 1 .23-.2l.11-.05a.85.85 0 0 1 .75.21 4.28 4.28 0 0 1 .82.78c.26.31.56.66.92 1a6.74 6.74 0 0 0 .94.86l.27.16a3.25 3.25 0 0 0 .69.29 1.45 1.45 0 0 0 .75.07l3.44-.05a1.57 1.57 0 0 0 .79-.17.63.63 0 0 0 .33-.37 1 1 0 0 0 0-.46 1.68 1.68 0 0 0-.07-.34z" fill="#fff" data-name="Layer 1"/></g></svg>