<svg xmlns="http://www.w3.org/2000/svg" viewBox="0 0 512 416.08"><g data-name="Слой 2"><path d="M512 49.26a210.17 210.17 0 0 1-60.33 16.53 105.4 105.4 0 0 0 46.18-58.1 210.21 210.21 0 0 1-66.7 25.48 105.13 105.13 0 0 0-179 95.82A298.19 298.19 0 0 1 35.66 19.22a105.16 105.16 0 0 0 32.51 140.24 104.68 104.68 0 0 1-47.58-13.14v1.33a105.13 105.13 0 0 0 84.25 103 105.62 105.62 0 0 1-47.44 1.79 105.19 105.19 0 0 0 98.13 73 210.85 210.85 0 0 1-130.46 45A211.6 211.6 0 0 1 0 368.89a297.32 297.32 0 0 0 161 47.19c193.22 0 298.87-160.06 298.87-298.85q0-6.83-.31-13.6A213.25 213.25 0 0 0 512 49.26z" fill="#fff" data-name="Layer 1"/></g></svg>