<?xml version="1.0" encoding="UTF-8"?>
<svg width="18px" height="17px" viewBox="0 0 18 17" version="1.1" xmlns="http://www.w3.org/2000/svg" xmlns:xlink="http://www.w3.org/1999/xlink">
    <!-- Generator: Sketch 50.2 (55047) - http://www.bohemiancoding.com/sketch -->
    <title>logo-tg</title>
    <desc>Created with Sketch.</desc>
    <defs></defs>
    <g id="Page-1" stroke="none" stroke-width="1" fill="none" fill-rule="evenodd">
        <g id="logo-tg" fill="#FFFFFF" fill-rule="nonzero">
            <path d="M17.764,0.94 C17.584,0.802 17.359,0.756 17.179,0.848 C14.031,1.994 4.362,5.707 0.405,7.173 C0.135,7.265 0,7.54 0,7.815 C0,8.09 0.18,8.319 0.45,8.411 L4.542,9.694 C4.542,9.694 5.622,13.041 6.206,14.737 C6.27976358,14.9494023 6.44493033,15.1175054 6.656,15.195 C6.881,15.241 7.106,15.195 7.286,15.057 C8.185,14.187 9.624,12.811 9.624,12.811 C9.624,12.811 12.322,14.828 13.806,15.928 C14.031,16.112 14.346,16.158 14.616,16.02 C14.8950161,15.9139313 15.0992985,15.6710623 15.156,15.378 C15.785,12.261 17.404,4.378 17.989,1.535 C18.034,1.26 17.944,1.077 17.764,0.939 L17.764,0.94 Z M14.706,3.78 C12.1601365,6.12069055 9.6118017,8.45869186 7.061,10.794 L6.791,13.452 L5.531,9.235 C5.531,9.235 11.243,5.522 14.436,3.414 C14.526,3.368 14.661,3.368 14.706,3.459 C14.796,3.597 14.796,3.689 14.706,3.78 Z" id="Shape"></path>
        </g>
    </g>
</svg>