<?xml version="1.0" encoding="utf-8"?>
<!-- Generator: Adobe Illustrator 22.0.1, SVG Export Plug-In . SVG Version: 6.00 Build 0)  -->
<svg version="1.1" id="Слой_1" xmlns="http://www.w3.org/2000/svg" xmlns:xlink="http://www.w3.org/1999/xlink" x="0px" y="0px"
	 viewBox="0 0 40 40" style="enable-background:new 0 0 40 40;" xml:space="preserve">
<style type="text/css">
	.st0{display:none;fill:#7F7F7F;}
	.st1{fill:#7F7F7F;}
</style>
<path class="st0" d="M15,13.3h-5V20h5v20h8.3V20h6.1l0.6-6.7h-6.7v-2.8c0-1.6,0.3-2.2,1.9-2.2H30V0h-6.3c-6,0-8.7,2.6-8.7,7.7V13.3z
	"/>
<path class="st1" d="M21.9,30.7c1,0,1.4-0.7,1.4-1.5c-0.1-3.2,1.2-4.9,3.4-2.7c2.5,2.5,3,4.2,6,4.2h5.3c1.3,0,1.9-0.4,1.9-1.1
	c0-1.4-2.4-4-4.4-5.8c-2.8-2.6-2.9-2.7-0.5-5.8C38.1,14,42,9,38.6,9h-6.6c-1.3,0-1.4,0.7-1.8,1.8c-1.7,3.9-4.8,9-6,8.2
	c-1.3-0.8-0.7-4-0.6-8.8c0-1.3,0-2.1-1.9-2.6c-1-0.2-2.1-0.3-3-0.3c-3.8,0-6.4,1.6-4.9,1.9c2.6,0.5,2.4,6.2,1.8,8.6
	c-1.1,4.3-5.1-3.4-6.7-7.2C8.3,9.7,8.2,9,6.7,9H1.3C0.5,9,0,9.3,0,9.9c0,1,4.9,11.2,9.6,16.3C14.2,31.1,18.8,30.7,21.9,30.7z"/>
</svg>
