<?xml version="1.0" encoding="utf-8"?>
<!-- Generator: Adobe Illustrator 22.0.1, SVG Export Plug-In . SVG Version: 6.00 Build 0)  -->
<svg version="1.1" id="Слой_1" xmlns="http://www.w3.org/2000/svg" xmlns:xlink="http://www.w3.org/1999/xlink" x="0px" y="0px"
	 viewBox="0 0 40 40" style="enable-background:new 0 0 40 40;" xml:space="preserve">
<style type="text/css">
	.st0{display:none;fill:#7F7F7F;}
	.st1{fill:#7F7F7F;}
</style>
<path class="st0" d="M15,13.3h-5V20h5v20h8.3V20h6.1l0.6-6.7h-6.7v-2.8c0-1.6,0.3-2.2,1.9-2.2H30V0h-6.3c-6,0-8.7,2.6-8.7,7.7V13.3z
	"/>
<path class="st0" d="M21.9,30.7c1,0,1.4-0.7,1.4-1.5c-0.1-3.2,1.2-4.9,3.4-2.7c2.5,2.5,3,4.2,6,4.2h5.3c1.3,0,1.9-0.4,1.9-1.1
	c0-1.4-2.4-4-4.4-5.8c-2.8-2.6-2.9-2.7-0.5-5.8C38.1,14,42,9,38.6,9h-6.6c-1.3,0-1.4,0.7-1.8,1.8c-1.7,3.9-4.8,9-6,8.2
	c-1.3-0.8-0.7-4-0.6-8.8c0-1.3,0-2.1-1.9-2.6c-1-0.2-2.1-0.3-3-0.3c-3.8,0-6.4,1.6-4.9,1.9c2.6,0.5,2.4,6.2,1.8,8.6
	c-1.1,4.3-5.1-3.4-6.7-7.2C8.3,9.7,8.2,9,6.7,9H1.3C0.5,9,0,9.3,0,9.9c0,1,4.9,11.2,9.6,16.3C14.2,31.1,18.8,30.7,21.9,30.7z"/>
<path class="st0" d="M40,7.4c-1.5,0.7-3.1,1.1-4.7,1.3c1.7-1,3-2.7,3.6-4.6c-1.6,1-3.3,1.6-5.2,2c-1.5-1.6-3.6-2.6-6-2.6
	c-5.3,0-9.2,5-8,10.2C12.9,13.4,6.8,10.1,2.8,5c-2.2,3.7-1.1,8.6,2.5,11.1c-1.3,0-2.6-0.4-3.7-1c-0.1,3.9,2.6,7.5,6.6,8.3
	c-1.2,0.3-2.4,0.4-3.7,0.1c1,3.3,4.1,5.7,7.7,5.8c-3.5,2.7-7.8,4-12.2,3.5c3.6,2.4,7.9,3.7,12.6,3.7c15.2,0,23.8-13.1,23.3-24.8
	C37.5,10.5,38.9,9.1,40,7.4z"/>
<path class="st0" d="M39.5,3.7c-0.4-0.3-0.9-0.4-1.3-0.2C31.2,6,9.7,14.1,0.9,17.3C0.3,17.5,0,18.1,0,18.7c0,0.6,0.4,1.1,1,1.3
	c3.9,1.2,9.1,2.8,9.1,2.8s2.4,7.3,3.7,11c0.2,0.5,0.5,0.8,1,1c0.5,0.1,1,0,1.4-0.3c2-1.9,5.2-4.9,5.2-4.9s6,4.4,9.3,6.8
	c0.5,0.4,1.2,0.5,1.8,0.2c0.6-0.2,1.1-0.8,1.2-1.4c1.4-6.8,5-24,6.3-30.2C40.1,4.4,39.9,4,39.5,3.7z M32.7,9.9
	c-6.2,5.6-17,15.3-17,15.3l-0.6,5.8l-2.8-9.2c0,0,12.7-8.1,19.8-12.7c0.2-0.1,0.5-0.1,0.6,0.1C32.9,9.5,32.9,9.7,32.7,9.9z"/>
<path class="st0" d="M0,40l2.8-10.3c-1.7-3-2.7-6.4-2.7-9.9C0.2,8.9,9.1,0,20.1,0c5.3,0,10.3,2.1,14.1,5.8c3.8,3.7,5.8,8.7,5.8,14
	c0,10.9-8.9,19.8-19.9,19.8c-3.3,0-6.6-0.8-9.5-2.4C10.6,37.2,0,40,0,40z M11,33.7c2.8,1.7,5.5,2.7,9,2.7c9.1,0,16.6-7.4,16.6-16.5
	c0-9.1-7.4-16.5-16.5-16.5C11,3.3,3.5,10.7,3.5,19.8c0,3.7,1.1,6.5,2.9,9.4l-1.7,6.1C4.8,35.3,11,33.7,11,33.7z M30.1,24.5
	c-0.1-0.2-0.5-0.3-1-0.6c-0.5-0.2-2.9-1.4-3.4-1.6c-0.5-0.2-0.8-0.2-1.1,0.2c-0.3,0.5-1.3,1.6-1.6,1.9c-0.3,0.3-0.6,0.4-1.1,0.1
	c-0.5-0.2-2.1-0.8-4-2.5c-1.5-1.3-2.5-2.9-2.8-3.4c-0.3-0.5,0-0.8,0.2-1c0.2-0.2,0.5-0.6,0.7-0.9c0.3-0.3,0.3-0.5,0.5-0.8
	c0.2-0.3,0.1-0.6,0-0.9c-0.1-0.2-1.1-2.7-1.5-3.7c-0.4-1-0.8-0.8-1.1-0.9l-1,0c-0.3,0-0.9,0.1-1.3,0.6C11.3,11.8,10,13,10,15.4
	s1.8,4.8,2,5.1c0.2,0.3,3.5,5.3,8.5,7.5c1.2,0.5,2.1,0.8,2.8,1c1.2,0.4,2.3,0.3,3.1,0.2c1-0.1,2.9-1.2,3.4-2.4
	C30.2,25.7,30.2,24.8,30.1,24.5z"/>
<g>
	<path class="st1" d="M11.7,18.3v4h6.6c-0.3,1.7-2,5-6.6,5c-4,0-7.2-3.3-7.2-7.4c0-4.1,3.2-7.4,7.2-7.4c2.3,0,3.8,1,4.7,1.8l3.2-3.1
		c-2-1.9-4.7-3.1-7.8-3.1C5.2,8.3,0,13.6,0,20s5.2,11.7,11.7,11.7c6.7,0,11.2-4.7,11.2-11.4c0-0.8-0.1-1.4-0.2-1.9
		C22.7,18.3,11.7,18.3,11.7,18.3z"/>
	<rect x="31.7" y="13.3" class="st1" width="3.3" height="13.3"/>
	
		<rect x="31.7" y="13.3" transform="matrix(6.123234e-17 -1 1 6.123234e-17 13.3333 53.3333)" class="st1" width="3.3" height="13.3"/>
</g>
</svg>
