<?xml version="1.0" encoding="utf-8"?>
<!-- Generator: Adobe Illustrator 21.0.0, SVG Export Plug-In . SVG Version: 6.00 Build 0)  -->
<svg version="1.1" id="Layer_1" xmlns="http://www.w3.org/2000/svg" xmlns:xlink="http://www.w3.org/1999/xlink" x="0px" y="0px"
	 viewBox="0 0 100 100" style="enable-background:new 0 0 100 100;" xml:space="preserve">
<style type="text/css">
	.st0{fill:#FFFFFF;}
</style>
<path class="st0" d="M83,5H17C10.4,5,5,10.4,5,17v66c0,6.6,5.4,12,12,12h66c6.6,0,12-5.4,12-12V17C95,10.4,89.6,5,83,5z M76.3,63.5
	c-0.3,2.7-2.8,5.1-5.5,5.2c-13.9,0.8-27.8,0.8-41.6,0c-2.7-0.2-5.2-2.5-5.5-5.2c-0.9-9-0.9-18,0-26.9c0.3-2.7,2.8-5.1,5.5-5.2
	c13.9-0.8,27.8-0.8,41.6,0c2.7,0.2,5.2,2.5,5.5,5.2C77.2,45.5,77.2,54.5,76.3,63.5z"/>
<polygon class="st0" points="42,39.8 60.3,49.4 42,59 "/>
</svg>
