<svg xmlns="http://www.w3.org/2000/svg" width="18" height="18" viewBox="0 0 18 18">
    <path fill="#FFF" fill-rule="nonzero" d="M9 0h.817c1.713.003 2.053.016 2.894.054.958.044 1.612.196 2.184.419.592.23 1.094.537 1.594 1.038.5.5.808 1.002 1.038 1.594.223.572.375 1.226.419 2.184C17.99 6.25 18 6.556 18 9s-.01 2.75-.054 3.71c-.044.959-.196 1.613-.419 2.185a4.412 4.412 0 0 1-1.038 1.594c-.5.5-1.002.809-1.594 1.039-.572.222-1.226.374-2.184.418C11.75 17.99 11.444 18 9 18s-2.75-.01-3.71-.054c-.959-.044-1.613-.196-2.185-.418a4.412 4.412 0 0 1-1.594-1.039c-.5-.5-.809-1.002-1.039-1.594-.222-.572-.374-1.226-.418-2.184C.01 11.75 0 11.444 0 9s.01-2.75.054-3.71C.098 4.33.25 3.676.472 3.104A4.412 4.412 0 0 1 1.511 1.51c.5-.5 1.002-.808 1.594-1.038C3.677.25 4.33.098 5.289.054 6.25.01 6.556 0 9 0zm0 13a4 4 0 1 0 0-8 4 4 0 0 0 0 8zm5-8a1 1 0 1 0 0-2 1 1 0 0 0 0 2z"/>
</svg>
