<svg xmlns="http://www.w3.org/2000/svg" width="12" height="20" viewBox="0 0 12 20">
    <g fill="#000" fill-rule="evenodd">
        <path d="M5.016 14.045c-1.549-.163-2.946-.548-4.142-1.49-.148-.118-.301-.231-.437-.362-.523-.507-.576-1.087-.162-1.685.355-.512.95-.65 1.568-.355.12.057.233.128.343.204 2.229 1.544 5.29 1.586 7.528.07.221-.172.458-.311.733-.383.534-.138 1.032.06 1.318.53.328.538.323 1.063-.08 1.48-.619.64-1.363 1.104-2.19 1.427-.781.306-1.637.46-2.485.562.128.14.188.209.268.29 1.15 1.165 2.307 2.326 3.454 3.495.39.398.472.892.257 1.355-.235.507-.762.84-1.278.804-.327-.023-.583-.187-.81-.417-.868-.88-1.752-1.745-2.603-2.643-.248-.26-.367-.211-.585.015-.874.907-1.762 1.8-2.655 2.687-.4.399-.878.47-1.343.243-.495-.242-.81-.75-.785-1.262.017-.346.186-.61.421-.847 1.139-1.146 2.274-2.295 3.41-3.443.076-.077.146-.158.255-.275z"/>
        <path fill-rule="nonzero" d="M5.963 10C3.227 9.99.984 7.726 1 4.989A5.011 5.011 0 0 1 6.023 0C8.792.007 11.013 2.27 11 5.065c-.014 2.73-2.273 4.944-5.037 4.935zM8.45 4.996a2.437 2.437 0 0 0-2.446-2.442 2.44 2.44 0 0 0-2.452 2.47 2.437 2.437 0 0 0 2.464 2.424A2.432 2.432 0 0 0 8.45 4.996z"/>
    </g>
</svg>
