<svg xmlns="http://www.w3.org/2000/svg" width="20" height="17" viewBox="0 0 20 17">
    <path fill="#FFF" fill-rule="nonzero" d="M20 8.718a3.088 3.088 0 0 1-1.351 2.574C18.333 14.476 14.603 17 10.054 17c-4.52 0-8.231-2.49-8.588-5.646A3.072 3.072 0 0 1 0 8.718c0-1.688 1.31-3.06 2.922-3.06.585 0 1.128.182 1.585.492-.027.019-.05.04-.077.06 1.36-.838 3.09-1.375 4.99-1.474L10.941.312l3.26.79A2.264 2.264 0 0 1 16.134 0c1.256 0 2.28 1.036 2.28 2.31 0 1.273-1.025 2.309-2.28 2.309-1.257 0-2.28-1.036-2.28-2.31 0-.078.015-.151.023-.228l-2.28-.553-1.1 3.202c1.91.07 3.657.576 5.044 1.392a2.81 2.81 0 0 1 1.537-.464c1.611 0 2.922 1.373 2.922 3.06zM16.133 1.03c-.698 0-1.265.574-1.265 1.282 0 .706.566 1.28 1.265 1.28.696 0 1.264-.574 1.264-1.28 0-.707-.568-1.282-1.264-1.282zm-3.316 10.16c.744 0 1.348-.611 1.348-1.366 0-.754-.604-1.365-1.348-1.365-.744 0-1.348.611-1.348 1.365 0 .755.604 1.366 1.348 1.366zm-5.795 0c.744 0 1.348-.611 1.348-1.366 0-.754-.604-1.365-1.348-1.365-.744 0-1.348.611-1.348 1.365 0 .755.604 1.366 1.348 1.366zm5.578 1.67c-2.855 1.91-5.158.11-5.261.03a.502.502 0 0 0-.712.077.52.52 0 0 0 .076.723c.02.016 1.335 1.064 3.246 1.064.95 0 2.049-.26 3.209-1.036a.518.518 0 0 0 .145-.71.503.503 0 0 0-.703-.148z"/>
</svg>
