<svg xmlns="http://www.w3.org/2000/svg" width="19" height="16" viewBox="0 0 19 16">
    <path fill="#FFF" fill-rule="nonzero" d="M19 1.895a8.082 8.082 0 0 1-2.272.631c.826-.526 1.446-1.263 1.756-2.21-.826.42-1.55.842-2.479.947C15.283.421 14.25 0 13.115 0 10.944 0 9.19 1.79 9.19 4c0 .316 0 .632.103.947-3.304-.105-6.195-1.79-8.157-4.21-.31.631-.516 1.263-.516 2 0 1.368.722 2.631 1.755 3.368-.62 0-1.24-.21-1.755-.526 0 2 1.342 3.579 3.2 4-.31.105-.619.105-1.032.105-.31 0-.516 0-.723-.105a4.155 4.155 0 0 0 3.718 2.842c-1.343 1.053-3.098 1.79-4.854 1.79H0C1.755 15.368 3.82 16 6.092 16c7.229 0 11.256-6.21 11.256-11.474V4c.413-.526 1.136-1.263 1.652-2.105z"/>
</svg>
