<svg xmlns="http://www.w3.org/2000/svg" width="20" height="12" viewBox="0 0 20 12">
    <path fill="#FFF" fill-rule="evenodd" d="M11.21 11.21c-.024-1.643.572-2.527 1.648-1.374 1.19 1.275 1.436 2.159 2.882 2.159h2.56c.646 0 .9-.223.9-.573 0-.74-1.136-2.045-2.1-3.003-1.348-1.342-1.411-1.373-.25-2.988C18.291 3.426 20.176.857 18.51.857h-3.185c-.618 0-.662.373-.882.928-.796 2.012-2.31 4.618-2.884 4.22-.6-.416-.325-2.063-.28-4.51.012-.646.01-1.09-.912-1.32A6.045 6.045 0 0 0 8.918 0C7.1 0 5.846.817 6.558.96c1.257.25 1.136 3.164.844 4.422-.51 2.19-2.43-1.735-3.228-3.69-.193-.47-.252-.835-.94-.835H.63C.236.857 0 .994 0 1.3c0 .516 2.368 5.76 4.629 8.375 2.205 2.55 4.384 2.32 5.9 2.32.488 0 .687-.347.681-.783z"/>
</svg>
