<?xml version="1.0" encoding="UTF-8"?>
<svg width="88px" height="42px" viewBox="0 0 88 42" version="1.1" xmlns="http://www.w3.org/2000/svg" xmlns:xlink="http://www.w3.org/1999/xlink">
    <!-- Generator: Sketch 46.2 (44496) - http://www.bohemiancoding.com/sketch -->
    <title>DH basement</title>
    <desc>Created with Sketch.</desc>
    <defs></defs>
    <g id="Page-1" stroke="none" stroke-width="1" fill="none" fill-rule="evenodd">
        <g id="Hiring-Desktop-v.1" transform="translate(-41.000000, -2063.000000)" fill="#FFFFFF">
            <g id="Basement" transform="translate(41.000000, 2063.000000)">
                <path d="M0,0 L19.28125,0 C26.1771178,0 31.5208144,1.78030098 35.3125,5.34095634 C39.1041856,8.9016117 41,14.0193706 41,20.6943867 C41,27.408211 39.0885608,32.6375419 35.265625,36.3825364 C31.4426892,40.1275309 26.1146175,42 19.28125,42 L0,42 L0,0 Z M13,10 L13,32 L17.0833333,32 C23.6944775,32 27,28.233241 27,20.6996099 C27,17.2474903 26.1352426,14.6012229 24.4057018,12.7607282 C22.6761609,10.9202335 20.2353959,10 17.0833333,10 L13,10 Z M88,42 L74.5545723,42 L74.5545723,25.7588358 L58.4454277,25.7588358 L58.4454277,42 L45,42 L45,0 L58.4454277,0 L58.4454277,15.950104 L74.5545723,15.950104 L74.5545723,0 L88,0 L88,42 Z" id="DH-basement"></path>
            </g>
        </g>
    </g>
</svg>