<?xml version="1.0" encoding="UTF-8"?>
<svg width="1544px" height="623px" viewBox="0 0 1544 623" version="1.1" xmlns="http://www.w3.org/2000/svg" xmlns:xlink="http://www.w3.org/1999/xlink">
    <!-- Generator: Sketch 46.2 (44496) - http://www.bohemiancoding.com/sketch -->
    <title>Group 6</title>
    <desc>Created with Sketch.</desc>
    <defs>
        <filter x="-1.4%" y="-1.3%" width="102.8%" height="102.5%" filterUnits="objectBoundingBox" id="filter-1">
            <feGaussianBlur stdDeviation="2.46651786 0" in="SourceGraphic"></feGaussianBlur>
        </filter>
        <filter x="-5.9%" y="-13.2%" width="111.8%" height="126.4%" filterUnits="objectBoundingBox" id="filter-2">
            <feGaussianBlur stdDeviation="25.9095982 0" in="SourceGraphic"></feGaussianBlur>
        </filter>
    </defs>
    <g id="Page-1" stroke="none" stroke-width="1" fill="none" fill-rule="evenodd">
        <g id="Hiring-Desktop-v.1" transform="translate(-188.000000, -204.000000)">
            <g id="Group-6" transform="translate(269.000000, 208.000000)">
                <path d="M667.256538,8.71505221 C677.426097,7.39042724 687.671628,4.95832893 697.971426,6.48924795 C713.003271,8.48704299 728.360715,10.3002591 742.470027,16.1742108 C746.626848,19.1600458 750.794521,22.3956052 754.278436,26.1414709 C762.971943,42.8947195 771.502651,59.9628379 776.831629,78.1384297 C778.427067,75.1851675 780.065918,72.2536204 781.596236,69.2677855 C794.055844,74.0234063 805.734013,80.5488129 817.119143,87.4325197 C825.139744,85.5107277 833.833252,83.9580935 841.87556,86.4661949 C848.235604,89.267451 850.015548,96.846043 851.795492,102.915431 C852.587784,107.117315 854.042128,111.427775 852.848263,115.71652 C857.927616,121.243029 863.158915,126.660962 867.641335,132.708635 C870.181011,108.984819 866.08931,85.0547093 859.38196,62.3297907 C861.444091,57.3461607 866.67539,55.4895143 870.484904,52.1670943 C875.15183,48.4538013 879.916437,44.8382266 884.648483,41.2009367 C913.85476,83.4586448 933.151958,133.012648 937.319632,184.390724 C937.894857,188.7229 937.330485,193.304799 939.240669,197.365535 C942.529224,205.117848 944.797567,213.261034 946.425565,221.501939 C947.45663,226.539857 947.727963,231.773211 949.692413,236.572262 C957.799841,258.830305 957.864961,282.944994 956.009044,306.267079 C955.889657,337.20033 950.007159,367.731849 943.592849,397.872496 C941.910585,407.633462 941.389626,417.665868 938.404963,427.155394 C929.700603,447.426499 920.421017,467.480453 909.958419,486.915524 C908.145915,490.541956 905.237226,493.951237 905.475999,498.250839 C904.75968,506.513459 905.888425,516.372143 899.039982,522.495819 C876.519348,544.840722 849.548855,561.973986 822.762868,578.672947 C820.711591,580.421018 817.813755,579.932427 815.415172,579.432978 C808.523316,576.327709 801.967912,572.527556 795.173736,569.226851 C795.347389,560.399637 794.837283,551.550708 795.499335,542.745209 C782.464501,558.749285 766.672924,572.646989 748.699831,582.874831 C736.978248,589.953974 723.053442,591.506609 709.823249,593.819274 C701.987154,595.328477 694.009966,594.926747 686.076191,594.970177 C677.675723,595.252474 669.405495,593.471831 661.156974,592.114633 C651.964214,590.301417 642.467562,588.640207 634.262454,583.862871 C615.518775,573.493881 598.956613,559.227018 585.617886,542.495485 C586.171405,551.344414 586.225672,560.204201 586.182259,569.063987 C580.060988,572.353835 573.809477,575.415673 567.633939,578.629517 C565.430716,579.986714 562.815067,579.769563 560.34051,579.932427 C534.976308,564.058642 509.449306,547.978564 487.384512,527.620598 C483.954864,523.798729 479.092577,520.823752 477.681646,515.601255 C474.84893,508.532969 477.2041,500.574362 474.794664,493.440931 C462.899428,472.094925 452.545363,449.923743 442.907618,427.491979 C439.34773,416.721258 439.21749,405.223079 436.818907,394.191776 C431.305422,368.405019 426.529962,342.346823 425.31439,315.9629 C425.260124,302.542929 423.404207,289.177246 424.196499,275.757275 C424.858551,262.022434 427.116041,248.265878 431.891501,235.334498 C433.465232,231.197759 433.704005,226.746151 434.57227,222.457406 C436.113441,214.292505 438.316665,206.247036 441.399007,198.527296 C442.408365,196.214631 442.506045,193.684814 442.614578,191.209286 C445.642654,137.431684 465.243745,85.2827185 495.806686,41.1792216 C502.16673,46.0542757 508.363974,51.1790543 514.897671,55.8260993 C517.654414,57.1181515 519.423504,59.6153953 520.964675,62.1452119 C515.84191,79.7236367 512.466528,97.8775133 511.815329,116.205111 C511.543996,121.970487 512.390555,127.70329 512.911514,133.436093 C517.589294,127.192984 522.918272,121.471038 528.301518,115.835953 C527.107653,109.972859 529.072103,104.066335 530.645834,98.4746803 C532.338952,93.3064714 535.073988,87.3239439 540.902219,85.9233158 C548.011142,84.4575423 555.413104,85.4130095 562.435201,87.0199316 C564.074051,87.7473896 565.560956,86.5530556 566.917621,85.8038824 C577.315098,79.4521971 588.081589,73.5239575 599.575252,69.408934 C601.159836,72.2970508 602.733567,75.1960251 604.220472,78.1384297 C609.733957,60.1799896 617.939065,43.166159 626.654279,26.5757741 C629.942834,22.6236144 634.262454,19.518346 638.354155,16.4239352 C647.416675,12.1351904 657.4777,10.5608411 667.256538,8.71505221 L667.256538,8.71505221 Z M683.222344,11.5213519 C668.960092,13.4400143 654.448196,15.2278589 641,20.6349985 C648.478456,54.6476507 656.336805,88.6057955 662.77327,122.847379 C681.062384,120.263726 699.720535,120.209218 717.998794,123 C724.83686,88.8129239 732.239338,54.7348627 740,20.7440134 C726.985966,15.3041693 712.810547,13.6035367 698.949896,11.6848743 C693.750795,10.8890654 688.432299,10.725543 683.222344,11.5213519 L683.222344,11.5213519 Z M631,29.5345455 C638.523664,61.3345455 646.61374,93.0254545 653.50687,125 C655.323664,124.596364 657.161832,124.236364 659,123.898182 C652.662595,90.1127273 645.256489,56.5454545 637.807634,23 C635.648855,25.2690909 632.474809,26.7636364 631,29.5345455 L631,29.5345455 Z M743.785526,23 C736.046363,56.4844084 728.646061,90.0668518 722,123.780009 C723.901998,124.172149 725.803995,124.575182 727.705993,125 C734.84395,92.9098676 742.779872,60.9940196 751,29.165314 C748.704485,26.975865 746.245006,24.9824861 743.785526,23 L743.785526,23 Z M607.935379,80.5042652 C607.115621,83.0421643 606.743997,85.7319035 607.192132,88.3782598 C612.373002,129.266634 617.630384,170.144163 623.040787,211 C628.746302,194.774799 634.255076,178.473678 639.873151,162.21594 C641.556388,157.378747 641.108253,152.161955 642.048242,147.194614 C644.769839,140.350963 648.048871,133.71338 651,126.956495 C643.392646,95.6232025 635.69785,64.322447 628.090496,33 C620.33012,48.3575433 612.996018,64.0296125 607.935379,80.5042652 L607.935379,80.5042652 Z M731,126.901072 C733.564484,132.387671 735.954365,137.950171 738.475198,143.458455 C741.607143,149.302875 739.839286,156.307505 742.196429,162.37963 C747.707341,178.579191 753.469246,194.713694 758.729167,211 C764.56746,169.395102 769.630952,127.692617 775,86.0335039 C774.628968,80.3192008 772.042659,74.9844055 770.30754,69.5737086 C765.53869,57.0824805 760.082341,44.8298002 753.840278,33 C746.266865,64.3039717 738.507937,95.5754142 731,126.901072 L731,126.901072 Z M482.975643,72.004883 C464.930442,111.245488 453.995589,154.376466 455.072914,197.822586 C455.55771,223.892431 460.944338,249.84274 470.661813,274 C474.367813,261.209584 479.679027,248.897314 486.304578,237.367466 C470.5864,176.849347 479.097271,110.897745 507,55.2697592 C503.606425,52.4552157 500.051251,49.8580114 496.689996,47 C491.411101,54.9220164 486.983293,63.376514 482.975643,72.004883 L482.975643,72.004883 Z M874,54.6670998 C882.821945,72.1328617 889.831462,90.5121505 894.64641,109.478707 C905.095174,151.000674 906.197917,195.339348 894.941202,236.817814 C901.459397,248.236899 907.060459,260.297628 910.499708,273 C914.517623,261.765796 918.557376,250.48809 920.926636,238.764496 C931.047853,193.50142 925.293935,145.900149 910.150324,102.420625 C903.326418,83.160435 895.290586,64.1395024 884.022953,47 C880.638296,49.5013233 877.330066,52.1113998 874,54.6670998 L874,54.6670998 Z M865.546023,60.3128588 C875.228972,82.4623143 882.255148,105.803766 885.427906,129.752052 C891.213523,172.804785 884.604526,218.404056 862,256.103643 C870.771742,257.078912 879.620332,257.02473 888.392074,258 C891.114718,253.481251 893.672685,248.875811 896.065976,244.183681 C894.704654,241.56129 893.22257,238.99308 891.71853,236.435706 C894.18867,228.471005 895.879343,220.300413 897.152838,212.064803 C905.265875,159.064321 895.857386,103.744863 871.26577,56 C869.322593,57.3978864 867.412351,58.8391181 865.546023,60.3128588 L865.546023,60.3128588 Z M489.090673,237.687725 C487.478548,240.313779 486.018921,243.015794 484.591972,245.750363 C486.781413,250.275423 489.384777,254.572603 491.737608,259 C500.473584,258.153586 509.264024,258.099328 518,257.155251 C500.658761,227.476497 492.467422,192.882031 492.979381,158.645662 C492.924917,125.038678 501.334111,91.833199 514.547002,61.047596 C512.771486,59.6803116 510.985077,58.3455815 509.20956,57 C481.476649,112.320763 473.023884,177.700833 489.090673,237.687725 L489.090673,237.687725 Z M566,92.8743719 C568.364425,111.604493 570.989154,130.302247 573.559653,149 C583.91757,143.130653 594.806941,138.21076 606,134.143216 C603.548807,114.711794 600.381779,95.3774756 597.529284,76 C586.498915,80.5746379 576.065076,86.4763523 566,92.8743719 L566,92.8743719 Z M783.733531,76 C780.496101,95.5001477 778.086851,115.142393 775,134.675332 C786.185803,138.99291 797.134983,144.020975 807.57865,150 C809.7943,131.079173 812.450928,112.202068 815,93.3249631 C805.201667,86.5042836 794.639688,80.7985229 783.733531,76 L783.733531,76 Z M538.561484,93.2030315 C535.60081,97.7018349 534.368113,103.063273 533.333528,108.271839 C532.177874,112.857998 534.324088,117.280365 535.237605,121.713652 C538.561484,135.493967 542.56775,149.132329 545.528424,163 C547.4325,154.05699 558.020488,151.425409 566,152.015058 C563.116369,131.552054 560.034627,111.11089 557.029928,90.6697248 C552.627438,90.1019146 548.169917,89.7306542 543.756422,90.2438672 C541.742283,90.5059334 539.607075,91.3576486 538.561484,93.2030315 L538.561484,93.2030315 Z M823.943415,90.9388202 C820.973197,111.329434 818.046658,131.730975 815,152.110662 C822.829583,151.651709 832.177035,153.9574 835.387492,162 C839.580741,145.215443 844.232627,128.518306 848,111.657257 C846.62409,104.740184 845.968895,96.5555273 840.454335,91.5289023 C835.398412,89.0265172 829.316016,90.173899 823.943415,90.9388202 L823.943415,90.9388202 Z M461.316183,120 C444.465757,170.610631 442.568187,225.925942 455.211428,277.699161 C464.569161,311.077404 482.146085,341.467687 501.436245,370 C504.656693,369.293755 507.844611,368.467991 511,367.522709 C509.948204,358.439306 509.286765,349.301578 508.657856,340.18558 C489.172518,318.270242 473.525694,292.769351 463.76676,265.051936 C452.912657,234.444348 449.43197,201.402929 452.511456,169.132948 C453.801804,152.498153 457.41261,136.178452 461.316183,120 L461.316183,120 Z M514.812916,138.978418 C512.954612,141.556126 512.600138,144.811028 511.912674,147.836557 C508.110134,166.284643 508.367933,185.377155 510.752577,204 C519.528494,191.275299 530.377548,180.167127 542,170.129359 C537.885953,153.756547 533.718198,137.394657 529.690083,121 C524.544839,126.810765 519.23847,132.545072 514.812916,138.978418 L514.812916,138.978418 Z M851.436857,122 C847.470686,138.383125 843.108997,154.668147 839,171.007671 C846.932342,177.733145 854.644951,184.785628 861.357778,192.742834 C864.049501,196.034719 867.433381,198.966895 869.015454,203 C871.399552,202.662091 870.751341,200.209528 870.861207,198.487283 C872.904719,180.828825 872.300455,162.788857 868.213431,145.446508 C867.53226,142.786839 867.004902,139.963666 865.247043,137.750908 C860.984233,132.213565 856.325905,126.992329 851.436857,122 L851.436857,122 Z M927.779217,219.988864 C922.523599,264.606166 902.120076,306.722378 872.345482,340.095642 C871.585372,349.186567 870.922991,358.277491 870,367.346668 C873.333625,368.26011 876.678109,369.173552 880.04431,370 C886.005744,361.724648 891.467677,353.068696 896.701578,344.314875 C907.060791,326.5245 916.77934,308.157787 923.001383,288.464407 C938.344746,233.962355 937.910397,174.816971 919.960943,121 C928.235283,153.187964 932.187855,186.876583 927.779217,219.988864 L927.779217,219.988864 Z M663,124.994941 C664.330262,131.974951 665.736231,138.95496 666.742039,146 C682.12117,143.583009 697.824755,143.517978 713.203885,145.989161 C714.490887,139.030829 715.777889,132.072497 717,125.103327 C699.144202,122.36118 680.855798,122.274472 663,124.994941 L663,124.994941 Z M659.748767,126 C657.836218,126.404372 655.912549,126.754098 654,127.103825 C656.335089,136.688525 658.080846,146.415301 660.449294,156 C661.750272,153.47541 664.663574,151.234973 663.862972,148.131148 C662.550874,140.743169 661.249896,133.355191 659.748767,126 L659.748767,126 Z M717.110507,147.901306 C716.388811,151.090711 719.388361,153.365747 720.707711,156 C722.557058,146.268505 724.823635,136.613208 727,126.936139 C725.049165,126.620464 723.109606,126.315675 721.170048,126 C719.749209,133.293179 718.271987,140.564586 717.110507,147.901306 L717.110507,147.901306 Z M650.863264,131 C648.778815,136.285186 646.186754,141.342001 644.091505,146.616312 C642.817075,152.108121 643.43269,157.969676 641.413042,163.298362 C635.77531,179.512792 630.450786,195.835971 624.845455,212.061276 C624.154238,213.942628 623.765429,215.943604 624.154238,217.955455 C626.951504,240.999303 630.537188,263.945277 633.096848,287 C633.356054,284.553154 633.701662,282.117184 634.209274,279.713838 C641.283439,243.576647 648.346805,207.439456 655.42097,171.31314 C656.058185,167.332938 657.667423,163.309237 656.6954,159.25291 C654.837757,149.813524 652.85051,140.406762 650.863264,131 L650.863264,131 Z M724.151725,160.731278 C723.676939,163.235079 724.432281,165.728041 724.831533,168.188485 C732.568392,207.111205 740.024696,246.098958 747.83709,285 C751.031108,262.790963 753.836663,240.527731 756.847241,218.286177 C757.408352,215.673986 756.29692,213.159347 755.563159,210.709741 C749.887304,194.310389 744.427261,177.824324 738.816149,161.392455 C737.229931,156.449887 738.395316,151.019566 736.474589,146.152872 C734.435166,141.069398 731.759097,136.246059 730.097345,131 C728.414012,140.961008 725.813477,150.759431 724.151725,160.731278 L724.151725,160.731278 Z M574,152.278344 C577.960263,181.167516 582.030229,210.04586 585.46392,239 C596.401268,231.138854 607.645783,223.710828 619,216.445223 C614.886153,189.992357 611.046563,163.48535 607.075329,137 C595.688201,141.266242 584.531448,146.21465 574,152.278344 L574,152.278344 Z M774.972569,137 L774.519961,137.422562 C770.651237,163.762269 766.685525,190.091141 763,216.463352 C774.175116,223.549395 785.253245,230.86297 795.71712,239 C799.187117,209.929892 803.282145,180.946463 807,151.908859 C796.654666,146.263862 786.093804,140.900574 774.972569,137 L774.972569,137 Z M669.040456,150.80969 C666.749132,155.007833 662.94467,158.596919 662.469113,163.589012 C653.703718,208.767992 644.722162,253.903468 636,299.082448 C643.144175,307.032818 650.266733,314.983187 657.237977,323.085821 C668.197422,323.87977 679.178483,324.249555 690.148736,325 C701.183837,324.314811 712.262172,323.912398 723.297273,323.096697 C730.94943,315.516112 737.564006,306.902305 745,299.1042 C736.191373,253.511931 727.123352,207.974042 718.293109,162.381773 C717.558156,157.85735 713.969856,154.60542 711.883887,150.690054 C697.714427,148.525726 683.177491,148.308206 669.040456,150.80969 L669.040456,150.80969 Z M554.262187,156.639091 C549.144706,158.744944 545.797423,164.856258 547.406694,170.337988 C554.669869,198.712723 561.868674,227.109169 569.947213,255.266806 C571.663769,260.650841 572.854629,266.273685 575.461648,271.321218 C576.255555,272.547823 577.017276,274.360593 578.787474,273.937251 C582.381512,267.597984 580.729327,260.086386 579.817407,253.269502 C575.16125,220.509383 570.451451,187.749264 565.709467,155 C561.847217,155.010855 557.834768,154.913161 554.262187,156.639091 L554.262187,156.639091 Z M815.276489,155.022849 C810.386537,188.90297 805.485838,222.783092 800.69261,256.663213 C799.822091,262.782722 799.155768,269.554398 802.691579,275 C806.936703,271.043515 807.957682,264.989223 809.77395,259.706663 C818.328679,230.3265 825.851683,200.652861 833.439169,171.000962 C835.104977,166.098833 832.944801,160.174975 828.484734,157.577173 C824.572772,155.033718 819.768797,154.925023 815.276489,155.022849 L815.276489,155.022849 Z M512,207.076899 C516.548387,232.019672 527.268817,255.608037 542.129032,276 C549.430108,268.393646 557.053763,261.134021 565,254.221124 C557.043011,227.349674 550.193548,200.164002 543.290323,173 C531.580645,183.065958 520.903226,194.399642 512,207.076899 L512,207.076899 Z M837.967105,173 C830.78639,200.312507 823.758224,227.668643 816,254.828444 C823.823602,261.580218 831.560033,268.441067 838.620888,276 C853.734169,255.613788 864.096628,231.835328 869,206.944297 C860.729646,193.964312 849.506373,183.078577 837.967105,173 L837.967105,173 Z M914,328.728261 C919.254065,330.065217 924.551021,331.26087 929.708583,333 C940.248882,303.706522 945.567283,272.282609 943.594328,241.086957 C942.950973,229.880435 940.570559,218.891304 937.986417,208 C938.254482,249.347826 929.419074,290.532609 914,328.728261 L914,328.728261 Z M451.611996,333 C456.657423,331.313876 461.834184,330.139029 467,328.920669 C453.505399,296.405678 445.132837,261.715044 442.900153,226.589281 C442.757874,221.063147 442.123092,215.515256 442.768819,210 C431.725792,250.543115 437.559224,293.936323 451.611996,333 L451.611996,333 Z M762,222 C762.085686,222.556675 762.257059,223.670025 762.332035,224.237615 C773.599805,231.605374 784.289192,239.835432 795,248 C794.903603,247.235936 794.700097,245.718724 794.6037,244.95466 C784.117819,236.757347 773.12853,229.247691 762,222 L762,222 Z M588.503735,242.697008 C586.919372,244.099452 584.198637,245.206068 585.225742,248 C596.064973,239.82638 606.980691,231.740413 618.289768,224.213232 C618.464594,223.654446 618.825174,222.54783 619,222 C608.510421,228.376738 598.468835,235.520438 588.503735,242.697008 L588.503735,242.697008 Z M589.371061,250.917307 C588.333886,251.866738 586.335959,252.619736 586.816335,254.398555 C587.405887,261.688441 587.66791,269.589456 583.999585,276.202736 C582.613046,278.789118 579.512438,280.371503 576.6411,279.334768 C572.35047,277.086689 570.647319,272.197664 568.976921,267.985244 C563.048646,273.278051 557.393311,278.865509 552,284.714879 C577.820205,291.906548 604.371891,296.228097 631,299 C627.702875,275.351522 624.471255,251.69213 621.436153,228 C610.343836,235.0498 599.85199,242.994467 589.371061,250.917307 L589.371061,250.917307 Z M760.523507,228 C757.363385,251.663037 754.25719,275.347853 751,299 C777.284015,296.146933 803.492533,291.856442 829,284.734663 C823.715155,278.843405 817.955752,273.431288 812.282633,267.932055 C810.85896,271.61273 809.467644,275.620092 806.404591,278.255368 C803.772954,280.651074 799.21073,279.747239 797.646847,276.567485 C793.580752,269.532822 793.925885,260.97362 794.691648,253.154908 C783.722898,244.203681 772.182522,236.003834 760.523507,228 L760.523507,228 Z M897.346781,248 C894.999828,252.647581 892.458197,257.186575 889.808412,261.660415 C880.582833,260.911155 871.346438,260.411649 862.110043,259.825271 C856.896996,267.915104 851.456824,275.896347 845,283.05232 C846.860258,285.528134 848.947639,287.917078 850.148155,290.816387 C855.523433,303.401777 861.060944,315.911155 866.457854,328.485686 C867.550215,331.124383 868.934592,333.632774 870.524464,336 C886.012189,318.430405 898.969099,298.406713 908,276.743337 C905.999142,266.709773 901.532361,257.295163 897.346781,248 L897.346781,248 Z M473.227607,276.39427 C472.382844,278.708049 474.104861,280.770805 474.884642,282.833561 C483.938769,302.46794 495.949567,320.639836 509.99646,337 C511.870102,334.162347 513.938688,331.42292 515.324966,328.290587 C520.696792,315.892224 526.09028,303.493861 531.440446,291.084584 C532.512645,288.48704 534.277983,286.282401 536,284.110505 C529.664277,276.863574 523.978372,269.060027 518.942285,260.841746 L518.140843,260.361528 C509.065055,260.710778 500.010928,261.529332 490.93514,262.00955 C488.35753,257.763984 485.996526,253.387449 483.668012,249 C479.541669,257.851296 475.805217,266.942701 473.227607,276.39427 L473.227607,276.39427 Z M949.05993,268.536627 C947.429167,291.999659 942.175703,315.157411 934,337.203066 C936.407838,341.117206 938.739062,345.08586 941.1469,349 C951.314541,318.253833 955.188971,284.989097 949.081819,253 C949.530553,258.178876 949.333548,263.357751 949.05993,268.536627 L949.05993,268.536627 Z M431.436525,255 C426.01259,286.423882 429.964314,318.880014 440.11482,349 C441.852693,345.186106 444.287929,341.76338 446.435364,338.177667 C447.53122,337.123685 446.756372,335.732863 446.402156,334.581089 C436.971152,309.111663 431.80181,282.099295 431.436525,255 L431.436525,255 Z M538.042304,288.561983 C535.655266,291.526371 534.434743,295.193989 532.922592,298.645229 C528.288929,309.301878 523.644464,319.947708 519,330.604358 C520.317732,331.080391 521.646265,331.545605 522.963996,332 C527.50045,320.164087 532.706571,308.598648 537.480648,296.860105 C538.841584,293.084298 541.585059,290.109091 543.982898,286.9716 C550.787579,278.219083 559.007201,270.721563 567,263.094215 C566.870387,262.326071 566.611161,260.778963 566.481548,260 C556.19892,268.665965 546.305131,277.905334 538.042304,288.561983 L538.042304,288.561983 Z M814.228313,260 C814.173952,260.852774 814.05436,262.569115 814,263.421889 C824.339298,273.18021 835.080861,282.927736 842.658664,295.06087 C847.866365,307.334333 853.248018,319.564618 858.075198,332 C859.379841,331.492654 860.684485,330.974513 862,330.467166 C856.672707,318.128936 851.160589,305.866267 845.822424,293.528036 C844.159003,289.436882 840.940883,286.295652 838.201133,282.916942 C830.797282,274.691454 822.675878,267.146027 814.228313,260 L814.228313,260 Z M540.854764,298.605108 C538.613159,304.040275 536.393211,309.486248 534,314.856582 C561.029211,322.25835 588.708163,327.11002 616.441259,331 C619.451724,328.860511 622.375557,326.602161 625.342706,324.408644 C626.414778,323.706287 627.530167,322.625737 628.937938,322.960707 C636.940577,323.965619 644.997361,324.473477 653,325.478389 C645.495495,317.925344 638.738193,309.659136 631.493584,301.857564 C603.663027,298.972495 575.962417,294.369352 548.944035,287 C545.987715,290.663065 542.630722,294.174853 540.854764,298.605108 L540.854764,298.605108 Z M748.693384,301.931049 C741.296438,309.744313 734.721374,318.350857 727,325.816381 C735.467557,324.577561 744.032443,323.947284 752.554071,323.154004 C756.490458,325.359974 759.70229,328.663496 763.562977,330.999868 C766.428753,331.010735 769.251272,330.347857 772.106234,330.032719 C796.957379,326.261922 821.754453,321.741313 846,314.993001 C843.696565,309.440041 841.339059,303.908816 839.07888,298.334123 C837.326972,293.987383 833.996183,290.58606 831.08715,287 C804.127226,294.400324 776.475191,299.018734 748.693384,301.931049 L748.693384,301.931049 Z M533.352854,318 C531.941705,321.588076 530.38944,325.132527 529,328.731509 C560.772581,340.215532 594.195122,346.333801 627.661083,350.18362 C655.102519,352.964652 682.706781,354.895014 710.289333,353.575388 C758.561512,351.067007 807.246181,345.07961 853,328.720603 C851.45859,325.165245 850.00402,321.588076 848.527741,318.021812 C820.662959,325.350647 792.320557,330.74912 763.771911,334.468067 C760.070356,331.697942 756.368802,328.938723 752.678102,326.179504 C727.776735,328.949629 702.734254,331.447104 677.648352,330.367409 C661.441839,329.440399 645.246181,328.077148 629.126508,326.201316 C625.414098,329.015065 621.745109,331.883344 617.913294,334.511691 C589.440633,330.618248 561.141651,325.350647 533.352854,318 L533.352854,318 Z M526,334.494791 C562.474563,347.654012 601.074279,353.982003 639.619781,357.504691 C663.538594,359.389168 687.587518,360.877477 711.582229,359.399875 C759.799345,356.947913 808.385111,350.769825 854,334.505499 C853.739777,333.87377 853.208489,332.631728 852.948266,332 C801.001289,350.127389 745.530462,355.523848 690.775247,357.054986 C635.467059,355.759407 579.497471,350.159511 526.964993,332.085658 C526.726455,332.685265 526.238538,333.895185 526,334.494791 L526,334.494791 Z M454,337.655593 C461.763761,352.733559 470.056624,367.529492 478.900184,382 C484.072426,379.646102 489.590203,378.214237 495,376.543729 C485.227811,362.995254 476.405847,348.752542 468.555702,334 C463.653411,335.019661 458.815907,336.310508 454,337.655593 L454,337.655593 Z M886,376.594448 C891.385914,378.176032 896.858349,379.605958 901.973886,382 C911.134265,367.711578 919.321287,352.827353 927,337.693974 C922.219731,336.361544 917.407017,335.191605 912.605117,334 C904.656027,348.743399 895.84173,363.042654 886,376.594448 L886,376.594448 Z M513.055246,341.691051 C513.934349,350.554801 514.579767,359.45098 515.392103,368.32554 C519.030922,372.141277 524.005088,374.530166 528,378 C527.387966,364.942182 526.186154,351.862745 527.165408,338.783308 C523.660124,337.56184 520.177095,336.297134 516.716321,335 C515.325335,337.097034 512.576747,338.902212 513.055246,341.691051 L513.055246,341.691051 Z M853.979266,339.699623 C854.409713,352.788931 854.495803,365.96478 853,379 C856.734126,376.100881 860.554341,373.288302 864.449884,370.605535 C865.569046,361.259119 866.010254,351.836981 866.946475,342.468931 C867.409206,339.818616 864.751197,338.098616 863.610513,336 C860.392923,337.22239 857.186095,338.44478 853.979266,339.699623 L853.979266,339.699623 Z M442,353.60464 C450.139535,371.998067 460.753928,389.182536 471.808297,406 C471.676304,403.06396 471.478316,400.117126 471.786298,397.202674 C473.095223,392.982117 475.537084,389.214919 477,385.059127 C467.738529,369.979539 458.543055,354.813598 450.612508,339 C447.719673,343.857419 444.551854,348.563718 442,353.60464 L442,353.60464 Z M904,385.297631 C907.195747,391.777994 911.059099,398.486693 909.614447,406 C920.493121,388.983609 931.415572,371.782376 939,353.015417 C936.09975,348.361733 933.440275,343.577572 930.419637,339 C922.353659,354.831224 913.543465,370.303635 904,385.297631 L904,385.297631 Z M442,363 C442.284056,371.260352 441.97815,379.520705 442.152953,387.781057 C442.185729,391.165207 443.999317,394.116878 445.528849,397.0253 C450.609082,406.658774 455.809491,416.238188 461.807443,425.341875 C465.019461,429.742351 462.572209,435.570008 464.210994,440.467834 C466.986002,448.176776 470.853534,455.442426 474,463 C472.831,449.852633 472.601571,436.640394 471.913281,423.46059 C471.443496,419.222294 472.732673,414.378527 470.012291,410.691642 C459.556845,395.479187 449.822465,379.704509 442,363 L442,363 Z M930.46511,379.698627 C924.349011,391.102303 917.093533,401.83326 910.25726,412.781222 C909.246867,428.80713 908.741671,444.930691 908,461 C910.837698,454.294508 913.976364,447.730071 916.55609,440.926926 C918.189916,436.51085 916.674327,431.541408 917.96419,427.125332 C925.19817,415.439548 932.012946,403.460806 937.89257,391.0155 C939.160935,388.248671 938.881465,385.091231 938.988953,382.129097 C938.881465,375.749114 939.268424,369.347431 938.558999,363 C936.656452,368.924269 933.292059,374.20837 930.46511,379.698627 L930.46511,379.698627 Z M496,381.068856 C509.266593,399.129815 522.783911,417.006811 536.148613,434.99202 C539.353526,439.515376 546.853457,438.227626 549.480613,443.367804 C556.566303,454.7303 563.880916,465.952119 570.955706,477.325437 C571.9259,478.591544 572.74348,481.069651 575,479.489722 C560.806817,452.241373 546.450117,425.090416 532.137022,397.906994 C531.134124,396.067352 529.902304,394.346745 528.408859,392.86421 C522.991031,387.39939 517.431489,382.08607 511.664827,377 C506.46502,378.460892 501.210708,379.683714 496,381.068856 L496,381.068856 Z M851.275045,394.374539 C849.141381,396.673792 847.93303,399.623776 846.463415,402.35685 C832.942952,428.104138 819.400717,453.829736 806,479.631252 C806.57696,479.728862 807.719994,479.913236 808.296955,480 C816.831611,467.299884 824.821965,454.220175 832.97561,441.259766 C836.622434,439.426872 840.878876,438.613457 844.133802,436.12983 C857.795783,417.855112 871.348905,399.504475 885,381.218911 C879.66584,379.711383 874.27725,378.464147 868.932203,377 C862.999311,382.748131 857.033761,388.463725 851.275045,394.374539 L851.275045,394.374539 Z M482.679282,385.505008 C481.659636,387.859766 480.770158,390.268781 480,392.732053 C505.41521,423.658598 530.537544,454.856427 555.692419,486 C560.49777,484.502504 565.227191,482.766277 570,481.18197 C562.092323,468.572621 554.032783,456.060935 546.255273,443.386477 C542.632277,441.563439 538.390985,440.771285 535.180186,438.297162 C521.317344,419.524207 507.367723,400.805509 493.54827,382 C489.849343,382.944073 486.204652,384.050918 482.679282,385.505008 L482.679282,385.505008 Z M847.093411,436.777963 C844.410572,441.140234 838.393193,440.771285 834.743664,443.853088 C826.716872,456.245409 819.005069,468.854758 811,481.268781 C815.735699,482.86394 820.482259,484.459098 825.239681,486 C850.438812,454.823873 875.790007,423.767112 901,392.590985 C900.250543,390.225376 899.609703,387.783806 898.251991,385.689482 C894.97176,383.866444 891.235337,383.106845 887.683563,382 C874.171615,400.262938 860.61622,418.504174 847.093411,436.777963 L847.093411,436.777963 Z M539,387 C539.749904,389.808722 539.641222,393.33318 542.488684,395.014075 C551.118016,401.705122 560.040788,408.049146 569.387418,413.709968 C585.657077,423.394093 603.241785,432.470928 622.424115,434 C623.065337,431.104522 623.358778,428.143978 624,425.2485 C607.415164,424.760498 591.612837,418.709275 576.984273,411.302492 C563.65989,404.307799 550.835443,396.293724 539,387 L539,387 Z M843,387 C832.910817,394.853219 822.101758,401.773598 810.93276,407.999769 C794.593738,416.850912 776.869498,424.432956 758,425.062082 C758.490825,428.045003 759.036186,431.017078 759.548826,434 C772.124856,432.709208 784.199153,428.468036 795.477223,422.925225 C811.434492,415.213016 826.202874,405.277175 840.185936,394.473575 C842.781856,392.889915 842.465546,389.59243 843,387 L843,387 Z M441,394 C442.460256,406.737796 442.808974,420.124926 448.748077,431.791319 C456.866667,450.156687 465.617308,468.240678 475,486 C474.378846,480.502294 474.10641,474.982943 473.779487,469.463593 C473.714103,467.807787 472.809615,466.357605 472.144872,464.8966 C468.439744,457.494177 464.996154,449.961887 461.901282,442.288907 C460.005128,437.895071 460.680769,432.970945 460.528205,428.317374 C453.379487,417.246206 446.971795,405.731326 441,394 L441,394 Z M939,395 C933.137,406.538462 926.9,417.924528 919.717,428.701016 C919.64,432.434688 919.651,436.179245 919.288,439.902032 C916.098,449.383164 911.412,458.298258 907.199,467.365747 C905.989,473.134978 906.55,479.143687 906,485 C916.318,465.591437 925.855,445.758345 934.501,425.566038 C937.185,415.616836 938.659,405.297533 939,395 L939,395 Z M476.917078,397 C476.458539,398.462784 476.152846,399.947239 476,401.475035 C476.960749,432.323524 478.783988,463.161177 480.356122,493.987995 C482.583312,492.200148 484.886925,490.50982 487.146868,488.754479 C488.325968,484.106076 483.827918,481.798128 481.240447,478.840054 L480.661814,479.436003 C480.552638,478.23327 480.465298,477.041372 480.388874,475.849474 C482.397713,474.64674 484.341045,473.357323 486.229789,471.992058 C486.066025,468.503047 485.956849,465.024872 485.760333,461.557532 C483.576813,459.368774 481.382376,457.201687 479.209774,455.012929 C481.207694,453.474297 483.205615,451.9465 485.192618,450.407868 C484.777749,439.030659 483.926176,427.675122 483.827918,416.287078 C503.031973,440.482608 522.170522,464.72148 541.527424,488.77615 C544.442423,492.427692 548.230829,496.09007 548.329088,501.063535 C549.835716,521.076587 551.13491,541.111309 551.396933,561.178538 C531.843514,548.089331 512.333767,534.664225 495.280478,518.400234 C492.747596,515.767223 489.472316,513.383427 488.653496,509.634366 C487.987523,507.434772 488.555238,505.007634 487.703665,502.894724 C485.662074,500.478421 483.172862,498.473866 480.847414,496.328449 C481.295035,503.913255 479.63556,513.145047 486.033273,518.811981 C507.901222,540.309487 534.125292,556.736009 560,573 C559.465038,547.94847 558.373278,522.89694 556.124253,497.932094 C555.851313,492.341008 551.342345,488.342732 548.143488,484.171089 C524.40863,455.099612 500.673772,426.038971 476.917078,397 L476.917078,397 Z M832.921951,485.146477 C830.269941,488.499168 827.260722,491.775908 825.886006,495.909808 C823.666978,521.548671 822.292262,547.263486 822,573 C834.339965,565.578509 846.366018,557.647062 858.164756,549.390112 C871.478928,539.831145 884.652382,529.903274 896.09391,518.098329 C898.507781,515.830652 899.503638,512.45626 899.806724,509.244621 C900.748459,499.110597 900.780932,488.922323 901.733491,478.788299 C901.159791,478.115591 900.596915,477.453733 900.055689,476.802725 C899.200551,479.905863 895.357842,481.055977 894.275389,484.039763 C894.048074,485.862586 894.004776,487.717958 893.874882,489.562481 C896.137209,491.396153 898.442834,493.175575 900.683511,495.041798 C898.345413,497.309475 895.779999,499.3493 893.604268,501.76888 C892.283676,505.295173 893.734163,509.602676 891.352766,512.857715 C888.267775,516.763763 884.511663,520.083904 880.885445,523.469145 C865.146578,537.422415 848.032996,549.737316 830.453958,561.227606 C830.562204,542.424326 832.023515,523.664447 832.683811,504.872018 C832.737934,500.911719 832.857004,496.582516 835.573961,493.425128 C856.357059,467.807965 877.237579,442.255903 897.446977,416.183034 C897.219662,427.922878 896.461945,439.641021 896.072261,451.370014 C897.587696,452.62863 899.113954,453.898095 900.640213,455.167561 C898.994885,456.838481 897.165539,458.335799 895.790824,460.245423 C894.957335,464.411873 895.087229,468.675976 895.000633,472.907527 C897.111416,474.600148 899.352094,476.130017 901.776789,477.366932 C902.415436,460.429875 903.660257,443.514518 904.16901,426.555761 C904.515395,416.725541 905.727743,406.78682 904.374676,397 C880.398341,426.251957 856.768392,455.786018 832.921951,485.146477 L832.921951,485.146477 Z M586.563798,484.143345 C588.576657,495.308122 587.815035,506.864265 589.131553,518.137754 C594.952522,526.671688 602.655786,533.770617 610,541 C599.282888,504.700885 593.50544,467.118963 589.969337,429.493555 C573.833828,421.492312 557.981207,412.458301 544,401 C558.481701,428.558627 572.789318,456.225967 586.563798,484.143345 L586.563798,484.143345 Z M657.616482,401 C656.959113,403.979167 656.56038,407 656,410 C678.663074,409.9375 701.326149,410.020833 724,409.958333 C723.536609,406.979167 722.965452,404.010417 722.566719,401.03125 C700.91664,401.010417 679.266561,401.072917 657.616482,401 L657.616482,401 Z M791.656208,428.582558 C788.217457,466.178334 782.066756,503.589284 772,540 C779.647697,532.715682 787.241155,525.126946 793.261682,516.429253 C793.673899,508.514353 794.227136,500.599452 794.45494,492.662808 C794.6502,489.031521 794.487483,485.204537 796.255674,481.888541 C809.641856,454.827845 823.364319,427.930231 837,401 C822.821929,411.632929 807.808578,421.233007 791.656208,428.582558 L791.656208,428.582558 Z M627.812403,422.928547 C627.226357,426.615385 626.705426,430.324103 626,434 C634.128682,426.155897 642.962791,419.044786 652.252713,412.644786 C652.914729,409.111111 653.316279,405.533675 654,402 C644.927132,408.520342 636.017054,415.303248 627.812403,422.928547 L627.812403,422.928547 Z M727,402 C727.53323,405.405059 727.92499,408.853084 728.75204,412.204435 C737.980179,418.509702 746.696852,425.545392 755,433 C754.151185,429.380111 753.705014,425.685031 753.095608,422.032918 C744.650991,415.040194 736.260785,407.929314 727,402 L727,402 Z M651.659813,417.271257 C642.975517,423.577876 634.71511,430.458808 626.791641,437.697332 C615.509664,437.719005 604.325508,434.858271 594,430.4263 C597.358507,468.200993 603.651633,505.834817 614.455376,542.233324 C615.14012,545.364961 618.302986,546.817001 620.531122,548.734993 C629.595832,555.334186 639.008348,562.030905 649.985994,565 C653.572749,558.411643 657.10516,551.790777 660.583226,545.137403 C680.799485,545.115731 701.015743,545.126567 721.232002,545.137403 C724.623116,551.812449 728.307692,558.324954 731.731414,564.989164 C740.448316,562.811105 748.078324,557.913181 755.436607,552.961077 C759.316824,550.002818 763.783965,547.510512 766.827273,543.674528 C778.261415,506.929265 784.076307,468.666946 788,430.469644 C777.576671,434.641548 766.501205,437.81653 755.175752,437.708169 C745.350216,429.50523 736.068127,420.218681 724.677461,414.204637 C702.874335,413.792865 681.016864,414.150457 659.202869,414.031259 C656.289988,413.803701 653.942294,415.78671 651.659813,417.271257 L651.659813,417.271257 Z M893,428 C889.821542,432.612717 886.336853,436.982659 883,441.473988 C886.093981,443.901734 889.071806,446.483973 892.112988,449 C892.567054,442.003678 892.894403,435.007357 893,428 L893,428 Z M488,428 C488.330396,434.662996 488.770925,441.325991 488.92511,448 C491.788546,445.290749 495.015419,443.011013 498,440.444934 C494.585903,436.359031 491.535242,431.975771 488,428 L488,428 Z M485,455.440351 C504.473713,474.145106 523.925583,492.915111 544,511 C543.322843,505.845317 545.048501,499.733647 541.378749,495.416329 C527.365976,478.255803 513.22214,461.204025 499.274898,444 C494.556646,447.8497 489.707331,451.558026 485,455.440351 L485,455.440351 Z M838.106753,496.19337 C835.279556,500.570036 836.644033,506.100747 836,511 C856.139685,492.970751 875.591674,474.20117 895,455.38804 C890.360777,451.479526 885.590564,447.734319 880.809436,444 C866.586124,461.408677 852.297317,478.762918 838.106753,496.19337 L838.106753,496.19337 Z M888,467.617264 C889.059459,468.403909 890.118919,469.201954 891.178378,470 C891.264865,467.640065 891.308108,465.257329 892,463 C890.735135,464.596091 889.372973,466.112378 888,467.617264 L888,467.617264 Z M490.348711,466.140991 C489.732841,467.319964 489.935067,468.272967 490.937006,469 C492.747849,468.813329 492.040058,465.256762 490.348711,466.140991 L490.348711,466.140991 Z M485,477.282236 C504.411492,495.136159 523.976089,512.827773 544,530 C543.518814,525.596032 544.612419,520.748422 542.414272,516.701533 C534.737164,506.670875 524.938462,498.577096 515.763114,489.953111 C508.6,483.439134 501.84152,476.492335 494.656534,470 C491.474143,472.477908 488.237071,474.880072 485,477.282236 L485,477.282236 Z M860.79726,493.240123 C852.637104,500.600758 844.389557,507.972217 837.649509,516.68591 C835.563044,520.788382 836.491576,525.572795 836,530 C856.110905,512.908172 875.642844,495.156053 895,477.230741 C891.788373,474.806062 888.587669,472.392206 885.354194,470 C877.150343,477.728667 868.990187,485.500631 860.79726,493.240123 L860.79726,493.240123 Z M557,489.498812 C557.395219,490.118765 558.174975,491.380048 558.570193,492 C565.021872,489.894299 571.559003,488.066508 578,485.918052 C577.455239,484.934679 576.92116,483.961995 576.376399,483 C569.892675,485.084323 563.473042,487.382423 557,489.498812 L557,489.498812 Z M803.568598,483 C803.17378,483.72476 802.394817,485.174279 802,485.899038 C808.519817,487.90024 815.039634,489.933894 821.54878,492 C822.028963,491.167067 822.509146,490.344952 823,489.533654 C816.512195,487.38101 810.16311,484.752404 803.568598,483 L803.568598,483 Z M802.405845,490 C801.260726,515.219474 799.730334,540.449768 800.040693,565.712519 C805.530841,568.319938 810.828351,571.295209 816.27569,574 C816.318498,547.795981 818.00942,521.63524 820,495.517774 C814.113877,493.743431 808.238457,491.94745 802.405845,490 L802.405845,490 Z M887.571667,490 C871.927313,504.429952 855.878175,518.439614 839.829038,532.427722 C834.862229,536.070234 836.557945,542.762542 836,548 C856.096978,531.005203 875.581309,513.320699 895,495.571535 C892.582236,493.631735 890.164472,491.691936 887.571667,490 L887.571667,490 Z M485,495.514578 C504.302132,513.404643 523.877665,531.01467 544,548 C543.300093,542.733148 545.126413,536.044568 540.095829,532.371773 C524.085449,518.42377 507.965709,504.561931 492.513068,490 C489.975904,491.787929 487.482484,493.640483 485,495.514578 L485,495.514578 Z M561,495.453982 C563.546125,521.563702 564.542435,547.792694 565.228782,574 C570.752768,571.050729 576.531365,568.578547 582,565.510004 C581.723247,540.332774 580.826568,515.144701 579.210332,490 C573.166052,491.897509 567.077491,493.664903 561,495.453982 L561,495.453982 Z M492,507 C492.80299,509.001076 493.540873,511.120495 495.146853,512.658956 C507.701712,525.698225 522.56788,536.176977 537,547 C521.819146,533.874664 507.104895,520.200646 492,507 L492,507 Z M839,551 C855.934321,539.120516 873.076626,527.219512 887.537025,512.42396 C889.594977,510.885222 889.64971,508.281205 890,506 C873.186091,521.204448 856.306504,536.333572 839,551 L839,551 Z M784.102162,533.4598 C787.234288,530.128723 790.377251,526.765094 793,523 C792.609839,527.763332 792.403921,532.537515 792.154651,537.322548 C792.165489,538.993512 790.77825,540.143656 789.878712,541.391454 C776.80832,556.592886 761.527015,570.134204 743.796366,579.639168 C735.451256,584.315697 725.838124,585.6937 716.582638,587.494869 C699.599798,590.825946 681.988365,590.825946 665.005525,587.549121 C656.692929,585.95411 648.174414,584.66291 640.414546,581.169076 C621.047389,571.262647 604.075386,556.885847 590.376401,540.035152 C589.216756,534.978859 589.8887,529.477698 589,524.280349 C598.537268,535.499678 608.930723,546.24159 621.264145,554.390251 C630.584657,561.063257 640.522924,567.4216 651.935133,569.667636 C655.40323,562.864426 659.228975,556.245673 662.567019,549.37736 C681.229719,549.149501 699.903257,549.333958 718.565957,549.290556 C722.044892,556.104617 725.773097,562.810174 729.273708,569.624235 C741.672156,567.378199 752.173989,559.978215 762.198959,552.79524 C770.370664,547.424285 777.274345,540.414917 784.102162,533.4598 Z M727,414 L720,548 L727,414 Z M656,413 L663,548 L656,413 Z" id="Shape" fill="#949494" fill-rule="nonzero" filter="url(#filter-1)"></path>
                <path d="M0,0 L279.813262,0 C379.887441,0 457.436209,25.7295879 512.46189,77.1895357 C567.487572,128.649483 595,202.613285 595,299.08316 C595,396.113906 567.260821,471.690189 511.781631,525.814276 C456.302441,579.938363 378.980425,607 279.813262,607 L0,607 L0,0 Z M187,142 L187,461 L245.333333,461 C339.77825,461 387,406.381994 387,297.144343 C387,247.08861 374.646322,208.717732 349.938596,182.030559 C325.230871,155.343386 290.362798,142 245.333333,142 L187,142 Z M1382,615 L1187.82301,615 L1187.82301,380.276507 L955.176991,380.276507 L955.176991,615 L761,615 L761,8 L955.176991,8 L955.176991,238.516979 L1187.82301,238.516979 L1187.82301,8 L1382,8 L1382,615 Z" id="DH-Head" stroke="#959595" stroke-width="7" opacity="0.699999988" filter="url(#filter-2)"></path>
            </g>
        </g>
    </g>
</svg>