<?xml version="1.0" encoding="UTF-8"?>
<svg width="247px" height="54px" viewBox="0 0 247 54" version="1.1" xmlns="http://www.w3.org/2000/svg" xmlns:xlink="http://www.w3.org/1999/xlink">
    <!-- Generator: Sketch 46.2 (44496) - http://www.bohemiancoding.com/sketch -->
    <title>iOs dev</title>
    <desc>Created with Sketch.</desc>
    <defs></defs>
    <g id="Page-1" stroke="none" stroke-width="1" fill="none" fill-rule="evenodd">
        <g id="Hiring-Desktop-v.1" transform="translate(-91.000000, -86.000000)" fill="#29292C">
            <path d="M91.8311834,104.837209 L102.220976,104.837209 L102.220976,138.744186 L91.8311834,138.744186 L91.8311834,104.837209 Z M91,94.1627907 C91,92.4883637 91.588749,91.0581455 92.7662647,89.872093 C93.9437804,88.6860406 95.3637045,88.0930233 97.0260796,88.0930233 C98.6884548,88.0930233 100.108379,88.6860406 101.285895,89.872093 C102.46341,91.0581455 103.052159,92.4883637 103.052159,94.1627907 C103.052159,95.8372177 102.46341,97.2674359 101.285895,98.4534884 C100.108379,99.6395408 98.6884548,100.232558 97.0260796,100.232558 C95.3637045,100.232558 93.9437804,99.6395408 92.7662647,98.4534884 C91.588749,97.2674359 91,95.8372177 91,94.1627907 Z M108.385586,114.046512 C108.385586,110.093003 109.0436,106.511644 110.359647,103.302326 C111.675694,100.093007 113.511205,97.3604764 115.866237,95.1046512 C118.221268,92.8488259 121.01494,91.1162851 124.247336,89.9069767 C127.479732,88.6976684 131.012226,88.0930233 134.844924,88.0930233 C138.677622,88.0930233 142.210117,88.6976684 145.442513,89.9069767 C148.674909,91.1162851 151.46858,92.8488259 153.823612,95.1046512 C156.178643,97.3604764 158.014155,100.093007 159.330202,103.302326 C160.646249,106.511644 161.304262,110.093003 161.304262,114.046512 C161.304262,118.00002 160.646249,121.581379 159.330202,124.790698 C158.014155,128.000016 156.178643,130.732547 153.823612,132.988372 C151.46858,135.244197 148.674909,136.976738 145.442513,138.186047 C142.210117,139.395355 138.677622,140 134.844924,140 C131.012226,140 127.479732,139.395355 124.247336,138.186047 C121.01494,136.976738 118.221268,135.244197 115.866237,132.988372 C113.511205,130.732547 111.675694,128.000016 110.359647,124.790698 C109.0436,121.581379 108.385586,118.00002 108.385586,114.046512 Z M119.606562,114.046512 C119.606562,116.372105 119.964429,118.49999 120.680174,120.430233 C121.395919,122.360475 122.423343,124.034877 123.762479,125.453488 C125.101614,126.8721 126.706244,127.97674 128.576416,128.767442 C130.446588,129.558143 132.53607,129.953488 134.844924,129.953488 C137.153779,129.953488 139.24326,129.558143 141.113432,128.767442 C142.983604,127.97674 144.588234,126.8721 145.92737,125.453488 C147.266505,124.034877 148.29393,122.360475 149.009675,120.430233 C149.72542,118.49999 150.083287,116.372105 150.083287,114.046512 C150.083287,111.76743 149.72542,109.651173 149.009675,107.697674 C148.29393,105.744176 147.266505,104.058147 145.92737,102.639535 C144.588234,101.220923 142.983604,100.116283 141.113432,99.3255814 C139.24326,98.5348798 137.153779,98.1395349 134.844924,98.1395349 C132.53607,98.1395349 130.446588,98.5348798 128.576416,99.3255814 C126.706244,100.116283 125.101614,101.220923 123.762479,102.639535 C122.423343,104.058147 121.395919,105.744176 120.680174,107.697674 C119.964429,109.651173 119.606562,111.76743 119.606562,114.046512 Z M186.378295,114.813953 C184.854451,112.906967 182.845778,111.953488 180.352215,111.953488 C179.474851,111.953488 178.620587,112.162789 177.7894,112.581395 C176.958212,113.000002 176.542625,113.720925 176.542625,114.744186 C176.542625,115.5814 176.969756,116.197672 177.824033,116.593023 C178.678309,116.988374 179.763454,117.337208 181.079501,117.639535 C182.395548,117.941862 183.803928,118.26744 185.304683,118.616279 C186.805438,118.965118 188.213818,119.511624 189.529865,120.255814 C190.845912,121.000004 191.931058,122.011622 192.785334,123.290698 C193.63961,124.569774 194.066741,126.279059 194.066741,128.418605 C194.066741,130.604662 193.593433,132.40697 192.646803,133.825581 C191.700173,135.244193 190.488043,136.383717 189.010376,137.244186 C187.532709,138.104655 185.870359,138.709301 184.023275,139.05814 C182.176192,139.406978 180.352224,139.581395 178.551318,139.581395 C176.196287,139.581395 173.818202,139.244189 171.416994,138.569767 C169.015785,137.895345 166.984024,136.697683 165.321649,134.976744 L171.62479,127.930233 C172.594508,129.139541 173.66811,130.058136 174.845625,130.686047 C176.023141,131.313957 177.396889,131.627907 178.96691,131.627907 C180.167514,131.627907 181.252659,131.45349 182.222378,131.104651 C183.192097,130.755812 183.676949,130.116284 183.676949,129.186047 C183.676949,128.302321 183.249817,127.639537 182.395541,127.197674 C181.541265,126.755812 180.45612,126.383722 179.140073,126.081395 C177.824026,125.779068 176.415646,125.45349 174.914891,125.104651 C173.414135,124.755812 172.005755,124.232562 170.689708,123.534884 C169.373661,122.837206 168.288516,121.848844 167.43424,120.569767 C166.579964,119.290691 166.152832,117.581406 166.152832,115.44186 C166.152832,113.44185 166.556876,111.720937 167.364975,110.27907 C168.173074,108.837202 169.235131,107.651167 170.551178,106.72093 C171.867225,105.790693 173.379502,105.104653 175.088054,104.662791 C176.796606,104.220928 178.528221,104 180.28295,104 C182.49945,104 184.739005,104.325578 187.001683,104.976744 C189.26436,105.62791 191.18068,106.790689 192.750701,108.465116 L186.378295,114.813953 Z M255.227987,138.744186 L245.669377,138.744186 L245.669377,134.27907 L245.530847,134.27907 C245.115253,134.883724 244.57268,135.499997 243.903113,136.127907 C243.233545,136.755817 242.448546,137.325579 241.548093,137.837209 C240.64764,138.34884 239.654847,138.76744 238.569686,139.093023 C237.484524,139.418606 236.364747,139.581395 235.21032,139.581395 C232.716757,139.581395 230.454114,139.151167 228.422322,138.290698 C226.39053,137.430228 224.647371,136.220938 223.192793,134.662791 C221.738215,133.104643 220.618437,131.255825 219.833427,129.116279 C219.048416,126.976733 218.655917,124.62792 218.655917,122.069767 C218.655917,119.697663 219.013784,117.430243 219.729529,115.267442 C220.445274,113.10464 221.461154,111.186055 222.777201,109.511628 C224.093248,107.837201 225.697878,106.500005 227.591139,105.5 C229.484399,104.499995 231.631601,104 234.03281,104 C236.203133,104 238.22335,104.337206 240.093522,105.011628 C241.963694,105.68605 243.499059,106.837201 244.699663,108.465116 L244.838194,108.465116 L244.838194,86 L255.227987,86 L255.227987,138.744186 Z M245.669377,121.790698 C245.669377,119.232545 244.942099,117.162799 243.487521,115.581395 C242.032943,113.999992 239.989637,113.209302 237.357543,113.209302 C234.72545,113.209302 232.682144,113.999992 231.227566,115.581395 C229.772988,117.162799 229.045709,119.232545 229.045709,121.790698 C229.045709,124.34885 229.772988,126.418597 231.227566,128 C232.682144,129.581403 234.72545,130.372093 237.357543,130.372093 C239.989637,130.372093 242.032943,129.581403 243.487521,128 C244.942099,126.418597 245.669377,124.34885 245.669377,121.790698 Z M295.401851,132.883721 C293.739476,135.023267 291.63845,136.674413 289.09871,137.837209 C286.55897,139.000006 283.926916,139.581395 281.202468,139.581395 C278.616551,139.581395 276.180746,139.162795 273.89498,138.325581 C271.609215,137.488368 269.62363,136.290705 267.938166,134.732558 C266.252702,133.174411 264.925131,131.302337 263.955412,129.116279 C262.985693,126.930222 262.500841,124.488386 262.500841,121.790698 C262.500841,119.09301 262.985693,116.651174 263.955412,114.465116 C264.925131,112.279059 266.252702,110.406985 267.938166,108.848837 C269.62363,107.29069 271.609215,106.093027 273.89498,105.255814 C276.180746,104.4186 278.616551,104 281.202468,104 C283.603676,104 285.785511,104.4186 287.748037,105.255814 C289.710563,106.093027 291.372913,107.29069 292.735137,108.848837 C294.097361,110.406985 295.147874,112.279059 295.886708,114.465116 C296.625541,116.651174 296.994952,119.09301 296.994952,121.790698 L296.994952,125.069767 L272.890634,125.069767 C273.306228,127.069777 274.206667,128.662785 275.59198,129.848837 C276.977292,131.03489 278.685819,131.627907 280.717611,131.627907 C282.426163,131.627907 283.869175,131.24419 285.046691,130.476744 C286.224207,129.709298 287.251631,128.720936 288.128996,127.511628 L295.401851,132.883721 Z M286.60516,117.953488 C286.651337,116.186038 286.074132,114.674425 284.873528,113.418605 C283.672924,112.162784 282.126014,111.534884 280.232754,111.534884 C279.078327,111.534884 278.062446,111.720928 277.185081,112.093023 C276.307717,112.465118 275.55735,112.941858 274.93396,113.523256 C274.310569,114.104654 273.825717,114.779066 273.479389,115.546512 C273.133061,116.313957 272.936811,117.116275 272.890634,117.953488 L286.60516,117.953488 Z M299.765564,104.837209 L310.98654,104.837209 L319.506169,127.860465 L319.6447,127.860465 L327.540942,104.837209 L338,104.837209 L324.701066,138.744186 L313.687886,138.744186 L299.765564,104.837209 Z" id="iOs-dev"></path>
        </g>
    </g>
</svg>