<svg xmlns="http://www.w3.org/2000/svg" width="120" height="35" viewBox="0 0 120 35">
    <g fill="none" fill-rule="evenodd">
        <path fill="#A6A6A6" d="M114.88 35H4.173C1.87 34.995.003 33.143 0 30.858V4.135C.004 1.852 1.87.002 4.173 0H114.88c2.315-.003 4.203 1.84 4.238 4.135v26.723c-.034 2.297-1.921 4.141-4.238 4.142z"/>
        <path fill="#000" d="M118.264 30.86c0 .889-.356 1.742-.99 2.37a3.394 3.394 0 0 1-2.393.98H4.173c-1.868.003-3.385-1.498-3.387-3.35V4.133C.788 2.281 2.304.78 4.173.78H114.88c.898 0 1.758.353 2.393.983.634.63.99 1.483.99 2.372V30.86h.001z"/>
        <path fill="#FFF" d="M26.584 17.31a5.064 5.064 0 0 1 2.436-4.256 5.248 5.248 0 0 0-4.126-2.211c-1.736-.181-3.419 1.03-4.303 1.03-.902 0-2.264-1.012-3.73-.982a5.5 5.5 0 0 0-4.624 2.796c-2 3.432-.508 8.477 1.407 11.251.958 1.359 2.078 2.877 3.543 2.823 1.434-.06 1.97-.907 3.7-.907 1.715 0 2.217.907 3.712.873 1.539-.025 2.508-1.365 3.433-2.737a11.199 11.199 0 0 0 1.57-3.17 4.901 4.901 0 0 1-3.018-4.51zM23.76 9.018a4.967 4.967 0 0 0 1.152-3.578 5.139 5.139 0 0 0-3.315 1.701 4.728 4.728 0 0 0-1.183 3.446 4.251 4.251 0 0 0 3.346-1.57z"/>
        <path fill="#FFF" fill-rule="nonzero" d="M47.334 27.566h-2.003l-1.098-3.42h-3.815l-1.046 3.42h-1.95l3.78-11.644h2.334l3.798 11.644zm-3.432-4.855l-.993-3.04c-.105-.312-.302-1.043-.592-2.195h-.035a84.964 84.964 0 0 1-.558 2.194l-.975 3.04h3.153zM57.055 23.264a4.748 4.748 0 0 1-1.167 3.386 3.427 3.427 0 0 1-2.596 1.106 2.602 2.602 0 0 1-2.404-1.192h-.035v4.422h-1.881v-9.052c0-.898-.023-1.82-.07-2.764h1.655l.105 1.33h.035a3.353 3.353 0 0 1 2.595-1.497 3.36 3.36 0 0 1 2.762 1.168 4.607 4.607 0 0 1 1.001 3.093zm-1.916.069a3.438 3.438 0 0 0-.558-2.021 1.931 1.931 0 0 0-1.637-.83c-.463 0-.91.162-1.263.458a2.12 2.12 0 0 0-.74 1.202c-.052.185-.081.376-.088.569v1.4c-.015.567.187 1.12.566 1.546.372.418.912.65 1.473.63a1.932 1.932 0 0 0 1.654-.811c.422-.634.63-1.385.593-2.143zM66.794 23.264a4.745 4.745 0 0 1-1.169 3.386 3.424 3.424 0 0 1-2.595 1.106 2.6 2.6 0 0 1-2.404-1.192h-.034v4.422h-1.881v-9.052c0-.898-.024-1.82-.07-2.764h1.655l.104 1.33h.035a3.354 3.354 0 0 1 2.596-1.497 3.361 3.361 0 0 1 2.762 1.168 4.611 4.611 0 0 1 1 3.093zm-1.917.069a3.435 3.435 0 0 0-.558-2.021 1.93 1.93 0 0 0-1.637-.83c-.462 0-.91.162-1.263.458-.377.306-.638.73-.74 1.202a2.45 2.45 0 0 0-.087.569v1.4c-.016.567.186 1.12.565 1.546.371.418.912.65 1.473.63a1.931 1.931 0 0 0 1.655-.811c.422-.634.63-1.385.592-2.143z"/>
        <path fill="#FFF" d="M77.682 24.3a3.09 3.09 0 0 1-1.043 2.42 4.647 4.647 0 0 1-3.198 1.019 5.64 5.64 0 0 1-3.044-.726l.436-1.555c.82.494 1.761.751 2.72.743a2.586 2.586 0 0 0 1.656-.476c.39-.307.609-.779.591-1.272.01-.448-.166-.88-.488-1.194a4.556 4.556 0 0 0-1.62-.9c-2.056-.76-3.083-1.874-3.083-3.34a2.948 2.948 0 0 1 1.08-2.353 4.287 4.287 0 0 1 2.875-.917 5.739 5.739 0 0 1 2.665.553l-.47 1.52a4.656 4.656 0 0 0-2.248-.536 2.284 2.284 0 0 0-1.55.484 1.376 1.376 0 0 0-.47 1.054c-.009.443.19.864.54 1.14a6.112 6.112 0 0 0 1.707.9c.844.294 1.607.779 2.23 1.415.484.563.738 1.283.714 2.022zM83.902 20.57h-2.074v4.076c0 1.037.366 1.555 1.098 1.555.281.006.562-.023.836-.086l.052 1.417a4.287 4.287 0 0 1-1.463.207 2.267 2.267 0 0 1-1.743-.674 3.29 3.29 0 0 1-.627-2.263v-4.233h-1.236v-1.4h1.236v-1.537l1.847-.553v2.09h2.074v1.4z"/>
        <path fill="#FFF" fill-rule="nonzero" d="M93.258 23.299a4.583 4.583 0 0 1-1.115 3.178 3.999 3.999 0 0 1-3.102 1.279 3.8 3.8 0 0 1-2.97-1.227 4.443 4.443 0 0 1-1.106-3.092 4.538 4.538 0 0 1 1.14-3.196 3.966 3.966 0 0 1 3.075-1.244 3.883 3.883 0 0 1 2.997 1.227 4.4 4.4 0 0 1 1.08 3.075zm-1.953.06a3.757 3.757 0 0 0-.505-1.992 1.862 1.862 0 0 0-1.689-1.005 1.888 1.888 0 0 0-1.725 1.005 3.826 3.826 0 0 0-.505 2.027c-.02.698.154 1.387.505 1.992a1.925 1.925 0 0 0 1.704 1.005 1.924 1.924 0 0 0 1.693-1.022 3.76 3.76 0 0 0 .522-2.01z"/>
        <path fill="#FFF" d="M99.372 20.81a3.282 3.282 0 0 0-.593-.051 1.784 1.784 0 0 0-1.534.743 2.775 2.775 0 0 0-.47 1.658v4.406h-1.88l.017-5.753c0-.968-.024-1.849-.07-2.643h1.638l.07 1.606h.05c.179-.524.505-.986.942-1.33.392-.29.87-.448 1.36-.449.157 0 .314.01.47.034v1.78z"/>
        <path fill="#FFF" fill-rule="nonzero" d="M107.785 22.97a4.35 4.35 0 0 1-.069.846h-5.644c-.025.723.275 1.42.82 1.902a2.81 2.81 0 0 0 1.845.587c.78.01 1.554-.125 2.283-.398l.295 1.296c-.9.364-1.866.54-2.838.518a4.128 4.128 0 0 1-3.094-1.149 4.224 4.224 0 0 1-1.123-3.084 4.784 4.784 0 0 1 1.046-3.161 3.617 3.617 0 0 1 2.96-1.347 3.163 3.163 0 0 1 2.771 1.347c.519.783.78 1.707.748 2.643zm-1.794-.483a2.52 2.52 0 0 0-.365-1.434 1.647 1.647 0 0 0-1.5-.778 1.79 1.79 0 0 0-1.497.76c-.32.422-.514.925-.557 1.452h3.92z"/>
        <path fill="#FFF" d="M38.316 6.364a3.33 3.33 0 0 1 .68-.301c.29-.087.592-.129.895-.123.47-.026.932.112 1.309.39.571.497.641 1.354.159 1.936a1.561 1.561 0 0 1-.818.475v.025c.178.028.352.078.518.149.159.068.304.164.428.284a1.277 1.277 0 0 1 .398.942c.01.279-.057.554-.193.798a1.596 1.596 0 0 1-.505.527 2.154 2.154 0 0 1-.697.292 3.407 3.407 0 0 1-.77.09c-.274 0-.546-.029-.814-.085a2.555 2.555 0 0 1-.744-.28l.23-.705c.185.087.377.158.575.212.23.067.47.102.71.102.325.02.648-.072.911-.263.34-.303.42-.8.193-1.192a.931.931 0 0 0-.334-.302 1.48 1.48 0 0 0-.458-.153 3.034 3.034 0 0 0-.5-.042h-.385v-.696h.385c.166.001.332-.022.492-.068.141-.04.274-.105.394-.19a.915.915 0 0 0 .26-.294.782.782 0 0 0 .095-.382.72.72 0 0 0-.274-.598 1.155 1.155 0 0 0-.736-.217c-.216.001-.43.035-.634.102a4.546 4.546 0 0 0-.565.22l-.205-.653z"/>
        <path fill="#FFF" fill-rule="nonzero" d="M45.667 11.754l-.068-.475h-.026c-.282.38-.74.594-1.215.569-.176.002-.35-.03-.514-.094a1.273 1.273 0 0 1-.402-.255 1.116 1.116 0 0 1-.265-.382 1.217 1.217 0 0 1-.094-.483 1.27 1.27 0 0 1 .633-1.159 3.472 3.472 0 0 1 1.798-.386v-.077c0-.543-.288-.814-.863-.814-.384-.008-.762.099-1.085.305l-.188-.602c.432-.251.927-.375 1.427-.357 1.089 0 1.633.569 1.632 1.706v1.52c-.006.329.014.658.06.984h-.83zM45.539 9.7a2.622 2.622 0 0 0-1.153.195.664.664 0 0 0-.379.637.62.62 0 0 0 .179.484.65.65 0 0 0 .451.16.928.928 0 0 0 .625-.237.866.866 0 0 0 .2-.267.757.757 0 0 0 .077-.336V9.7z"/>
        <path fill="#FFF" d="M50.897 7.629v.755h-1.73v3.37h-.923V7.629z"/>
        <path fill="#FFF" fill-rule="nonzero" d="M56.186 9.64c.004.306-.042.61-.137.9-.081.254-.21.49-.38.696a1.697 1.697 0 0 1-1.331.611 1.278 1.278 0 0 1-1.181-.585h-.018v2.172h-.924V8.987a25.845 25.845 0 0 0-.034-1.358h.813l.051.654h.018c.293-.485.834-.77 1.403-.739.236-.002.469.05.68.153.21.103.395.249.544.428.161.197.285.422.364.663.09.275.136.563.132.852zm-.94.035c0-.191-.024-.38-.074-.565a1.277 1.277 0 0 0-.214-.441 1.05 1.05 0 0 0-.342-.289.954.954 0 0 0-.835-.021 1.066 1.066 0 0 0-.555.577 1.091 1.091 0 0 0-.087.433v.688c-.001.144.024.288.074.424.045.125.114.24.205.34a.928.928 0 0 0 .317.224.996.996 0 0 0 .406.08.953.953 0 0 0 .813-.394c.208-.312.31-.682.291-1.056z"/>
        <path fill="#FFF" d="M61.152 7.629l-1.054 2.86c-.203.573-.448 1.13-.731 1.668a3.728 3.728 0 0 1-.68.947 2.06 2.06 0 0 1-1.02.517l-.222-.772c.253-.07.487-.194.685-.365.221-.187.399-.419.522-.68a.523.523 0 0 0 .068-.186.762.762 0 0 0-.05-.195l-1.507-3.794h1.018l.788 2.3c.04.108.08.23.12.365.04.136.082.286.128.45h.017c.028-.09.06-.205.094-.344.034-.138.08-.298.137-.48l.702-2.291h.985zM62.753 9.343h.427c.254.015.507-.043.727-.17a.493.493 0 0 0 .257-.415.472.472 0 0 0-.219-.407 1.037 1.037 0 0 0-.603-.153c-.17 0-.339.027-.5.08a2.585 2.585 0 0 0-.467.2l-.24-.594c.224-.125.465-.215.716-.267a3.55 3.55 0 0 1 .713-.073c.192 0 .383.019.57.055.18.033.352.096.51.187.145.085.27.203.363.344.099.157.148.34.141.526a.732.732 0 0 1-.077.344.88.88 0 0 1-.206.263 1.11 1.11 0 0 1-.286.186c-.102.048-.21.083-.32.107v.025c.136.017.27.052.398.102.125.05.241.117.346.2a.994.994 0 0 1 .248.297.824.824 0 0 1 .093.394c.009.218-.054.432-.179.611-.12.165-.276.298-.458.39a2.226 2.226 0 0 1-.612.209 3.48 3.48 0 0 1-1.411-.017 2.375 2.375 0 0 1-.678-.25l.242-.603c.161.084.332.151.508.2.19.053.388.08.586.08.255.016.508-.048.724-.183.155-.1.25-.27.251-.454a.516.516 0 0 0-.084-.301.625.625 0 0 0-.24-.2 1.189 1.189 0 0 0-.36-.105 3.067 3.067 0 0 0-.444-.03h-.436v-.578zM67.69 7.629v1.46c0 .334-.005.634-.017.9a64.14 64.14 0 0 1-.043.84l.017.017a277.77 277.77 0 0 1 .643-1.265l1.027-1.952h1.198v4.125h-.874v-1.46c0-.305.008-.61.022-.916.014-.306.03-.615.047-.926h-.043a6.025 6.025 0 0 1-.292.662c-.096.187-.193.38-.29.578-.177.339-.352.678-.526 1.018-.174.34-.358.687-.552 1.044H66.81V7.629h.881zM75.393 7.629v.755h-1.266v3.37h-.908v-3.37H71.96V7.63z"/>
        <path fill="#FFF" fill-rule="nonzero" d="M80.108 9.496c0 .08-.003.155-.008.225a1.41 1.41 0 0 1-.026.191h-2.773c-.01.34.126.668.372.904.26.22.596.334.938.318.383.004.763-.062 1.122-.195l.144.637a3.51 3.51 0 0 1-1.395.254 2.409 2.409 0 0 1-.872-.148 1.804 1.804 0 0 1-.652-.42 1.854 1.854 0 0 1-.407-.654 2.482 2.482 0 0 1-.14-.857 2.667 2.667 0 0 1 .14-.878 2.16 2.16 0 0 1 .399-.7c.17-.198.382-.357.62-.468.254-.115.53-.173.81-.17.246-.003.49.045.715.14.21.091.397.227.546.4.157.18.275.391.347.619.083.26.124.53.12.802zm-.882-.237c.013-.28-.07-.557-.234-.785a.813.813 0 0 0-.681-.302.895.895 0 0 0-.684.306 1.29 1.29 0 0 0-.326.78h1.925zM83.833 7.663c.165-.028.375-.05.632-.068.257-.017.519-.025.788-.025.17 0 .363.01.577.03.209.018.415.064.612.135.186.066.353.175.487.319.139.16.21.366.199.576a.803.803 0 0 1-.254.595 1.03 1.03 0 0 1-.265.182c-.1.048-.204.084-.312.106l.009.026c.27.037.526.148.735.322a.855.855 0 0 1 .283.68.967.967 0 0 1-.24.687 1.494 1.494 0 0 1-.59.382c-.24.086-.489.14-.742.161a8.232 8.232 0 0 1-.696.034c-.23 0-.453-.006-.672-.017-.22-.011-.403-.023-.551-.034v-4.09zm.889 1.647h.47c.136 0 .272-.01.407-.03a1.34 1.34 0 0 0 .338-.093.563.563 0 0 0 .227-.17.416.416 0 0 0 .081-.26.436.436 0 0 0-.236-.41 1.58 1.58 0 0 0-.74-.132c-.096 0-.18.003-.252.008l-.295.026v1.06zm0 1.824c.114.012.21.02.286.026a3.594 3.594 0 0 0 .655-.017c.124-.015.245-.048.36-.097a.67.67 0 0 0 .26-.194.503.503 0 0 0 .1-.325.49.49 0 0 0-.317-.488 2.235 2.235 0 0 0-.856-.135h-.488v1.23z"/>
    </g>
</svg>
