<svg xmlns="http://www.w3.org/2000/svg" width="119" height="35" viewBox="0 0 119 35">
    <defs>
        <linearGradient id="a" x1="91.503%" x2="-38.297%" y1="4.963%" y2="71.904%">
            <stop offset="0%" stop-color="#00A0FF"/>
            <stop offset=".657%" stop-color="#00A1FF"/>
            <stop offset="26.01%" stop-color="#00BEFF"/>
            <stop offset="51.22%" stop-color="#00D2FF"/>
            <stop offset="76.04%" stop-color="#00DFFF"/>
            <stop offset="100%" stop-color="#00E3FF"/>
        </linearGradient>
        <linearGradient id="b" x1="107.59%" x2="-130.463%" y1="50%" y2="50%">
            <stop offset="0%" stop-color="#FFE000"/>
            <stop offset="40.87%" stop-color="#FFBD00"/>
            <stop offset="77.54%" stop-color="#FFA500"/>
            <stop offset="100%" stop-color="#FF9C00"/>
        </linearGradient>
        <linearGradient id="c" x1="86.247%" x2="-50.141%" y1="17.833%" y2="194.671%">
            <stop offset="0%" stop-color="#FF3A44"/>
            <stop offset="100%" stop-color="#C31162"/>
        </linearGradient>
        <linearGradient id="d" x1="-18.806%" x2="42.097%" y1="-54.042%" y2="24.922%">
            <stop offset="0%" stop-color="#32A071"/>
            <stop offset="6.85%" stop-color="#2DA771"/>
            <stop offset="47.62%" stop-color="#15CF74"/>
            <stop offset="80.09%" stop-color="#06E775"/>
            <stop offset="100%" stop-color="#00F076"/>
        </linearGradient>
    </defs>
    <g fill="none" fill-rule="evenodd">
        <rect width="119" height="35" fill="#000" rx="4.396"/>
        <path fill="#A6A6A6" fill-rule="nonzero" d="M114.593.7c2.043.002 3.7 1.646 3.702 3.675v26.25c-.002 2.029-1.659 3.673-3.702 3.675H4.407c-2.043-.002-3.7-1.646-3.702-3.675V4.375C.707 2.346 2.364.702 4.407.7h110.186zm0-.7H4.407C1.977.007.007 1.962 0 4.375v26.25C.007 33.038 1.976 34.993 4.407 35h110.186c2.43-.007 4.4-1.962 4.407-4.375V4.375c-.007-2.413-1.976-4.368-4.407-4.375z"/>
        <path fill="#FFF" fill-rule="nonzero" d="M60.06 19.033c-2.068.007-3.74 1.677-3.734 3.73.005 2.054 1.685 3.715 3.754 3.713 2.068-.003 3.744-1.668 3.744-3.722a3.654 3.654 0 0 0-1.087-2.653 3.71 3.71 0 0 0-2.676-1.068zm0 5.977a2.28 2.28 0 0 1-2.216-1.28 2.248 2.248 0 0 1 .387-2.517 2.29 2.29 0 0 1 2.502-.563 2.261 2.261 0 0 1 1.443 2.104c.028.58-.18 1.146-.579 1.57a2.176 2.176 0 0 1-1.536.686zm-8.21-5.977c-2.068.007-3.74 1.677-3.734 3.73.005 2.054 1.685 3.715 3.754 3.713 2.069-.003 3.744-1.668 3.744-3.722a3.654 3.654 0 0 0-1.087-2.652 3.71 3.71 0 0 0-2.676-1.07zm0 5.977a2.28 2.28 0 0 1-2.216-1.28 2.248 2.248 0 0 1 .388-2.517 2.29 2.29 0 0 1 2.501-.563 2.261 2.261 0 0 1 1.444 2.104c.028.58-.181 1.146-.58 1.57a2.176 2.176 0 0 1-1.536.686zm-9.765-4.835v1.578h3.806c-.055.74-.36 1.441-.866 1.988-.771.78-1.84 1.2-2.94 1.156-2.315-.031-4.175-1.903-4.175-4.201 0-2.298 1.86-4.17 4.175-4.2a4.073 4.073 0 0 1 2.869 1.127l1.122-1.114a5.57 5.57 0 0 0-3.99-1.593 5.832 5.832 0 0 0-5.114 2.866 5.744 5.744 0 0 0 0 5.828 5.832 5.832 0 0 0 5.113 2.866 5.344 5.344 0 0 0 4.062-1.621 5.194 5.194 0 0 0 1.377-3.694 5.1 5.1 0 0 0-.085-.986h-5.354zM82.024 21.4a3.481 3.481 0 0 0-3.21-2.368 3.575 3.575 0 0 0-2.57 1.11 3.522 3.522 0 0 0-.966 2.611 3.628 3.628 0 0 0 1.064 2.646 3.683 3.683 0 0 0 2.657 1.076 3.737 3.737 0 0 0 3.124-1.65l-1.278-.845a2.145 2.145 0 0 1-1.846 1.029 1.908 1.908 0 0 1-1.818-1.128l5.013-2.058-.17-.423zm-5.113 1.24a2.032 2.032 0 0 1 .52-1.494 2.062 2.062 0 0 1 1.44-.676 1.454 1.454 0 0 1 1.392.789l-3.352 1.381zm-4.076 3.61h1.648V15.31h-1.648v10.94zm-2.698-6.387h-.056a2.607 2.607 0 0 0-1.974-.831c-2.009.085-3.593 1.726-3.593 3.721 0 1.996 1.584 3.637 3.593 3.722.75.02 1.473-.29 1.974-.846h.056v.536c0 1.423-.767 2.185-2.002 2.185a2.074 2.074 0 0 1-1.889-1.326l-1.434.593a3.573 3.573 0 0 0 3.323 2.199c1.931 0 3.564-1.128 3.564-3.877v-6.682h-1.562v.606zM68.25 25.01a2.27 2.27 0 0 1-2.088-2.256 2.27 2.27 0 0 1 2.088-2.255 2.119 2.119 0 0 1 1.486.713c.377.428.564.99.516 1.556a2.07 2.07 0 0 1-.521 1.543 2.101 2.101 0 0 1-1.481.699zM89.74 15.31h-3.941v10.94h1.644v-4.145h2.297a3.434 3.434 0 0 0 3.124-1.643 3.38 3.38 0 0 0 0-3.51 3.434 3.434 0 0 0-3.124-1.642zm.043 5.272h-2.34v-3.75h2.34a1.892 1.892 0 0 1 1.668.927 1.863 1.863 0 0 1 0 1.897c-.346.586-.984.94-1.668.926zm10.164-1.57a3.092 3.092 0 0 0-2.934 1.674l1.46.605c.296-.54.886-.855 1.503-.802a1.58 1.58 0 0 1 1.73 1.407v.113a3.66 3.66 0 0 0-1.716-.422c-1.574 0-3.176.858-3.176 2.463.031.683.34 1.324.855 1.778.516.453 1.195.68 1.881.628.844.05 1.648-.36 2.099-1.07h.056v.845h1.588v-4.194c0-1.942-1.46-3.025-3.346-3.025zm-.198 5.994c-.539 0-1.29-.267-1.29-.928 0-.845.936-1.168 1.744-1.168a2.948 2.948 0 0 1 1.502.366 1.989 1.989 0 0 1-1.956 1.73zm9.329-5.755l-1.886 4.742h-.057l-1.956-4.742h-1.772l2.934 6.628-1.673 3.687h1.716l4.522-10.315h-1.828zM94.262 26.25h1.645V15.311h-1.645v10.94z"/>
        <path fill="url(#a)" d="M9.199 6.596c-.29.343-.435.783-.408 1.229v19.352c-.027.446.118.886.408 1.229l.065.063 10.92-10.84v-.256L9.265 6.533l-.065.063z"/>
        <path fill="url(#b)" d="M23.825 21.244l-3.64-3.615v-.256l3.64-3.614.082.046 4.313 2.433c1.232.695 1.232 1.831 0 2.527l-4.313 2.432-.082.047z"/>
        <path fill="url(#c)" d="M23.907 21.197L20.185 17.5 9.199 28.406a1.442 1.442 0 0 0 1.831.054l12.877-7.263"/>
        <path fill="url(#d)" d="M23.907 13.805L11.03 6.542a1.442 1.442 0 0 0-1.831.054L20.185 17.5l3.722-3.696z"/>
        <path fill="#000" d="M23.825 21.115L11.03 28.332a1.477 1.477 0 0 1-1.766.01l-.065.064.065.063a1.476 1.476 0 0 0 1.766-.01l12.877-7.262-.082-.082z" opacity=".2"/>
        <path fill="#000" d="M9.199 28.279a1.744 1.744 0 0 1-.408-1.23v.128c-.027.446.119.886.408 1.23l.065-.066-.065-.062zM28.22 18.636l-4.395 2.48.082.08 4.313-2.432c.517-.222.871-.706.924-1.263-.11.502-.453.923-.924 1.135z" opacity=".12"/>
        <path fill="#FFF" d="M11.03 6.67l17.19 9.695c.472.213.814.634.924 1.136a1.535 1.535 0 0 0-.924-1.264L11.03 6.542c-1.232-.694-2.24-.117-2.24 1.283v.128c0-1.4 1.008-1.977 2.24-1.283z" opacity=".25"/>
        <path fill="#FFF" fill-rule="nonzero" stroke="#FFF" stroke-width=".5" d="M37.123 12.49h-.65v-1.76h.517a2.49 2.49 0 0 0 .672-2.01V6.126h3.531v4.605h.59v1.76h-.649v-1.115h-4.011v1.114zM38.34 8.72a3.442 3.442 0 0 1-.501 2.009h2.673V6.77h-2.172v1.951zM47.084 10.697a2.76 2.76 0 0 1-3.878 0 2.821 2.821 0 0 1 0-3.894 2.747 2.747 0 0 1 3.874.004 2.813 2.813 0 0 1 .004 3.89zm-3.376-.44c.794.787 2.08.787 2.873 0a2.225 2.225 0 0 0 0-3.014 2.044 2.044 0 0 0-2.873 0 2.228 2.228 0 0 0 0 3.014z"/>
        <path fill="#FFF" stroke="#FFF" stroke-width=".5" d="M51.284 11.492a2.71 2.71 0 0 1-1.963-.79 2.67 2.67 0 0 1-.785-1.952 2.67 2.67 0 0 1 .785-1.953 2.711 2.711 0 0 1 1.963-.79 2.454 2.454 0 0 1 1.943.858l-.474.455c-.354-.442-.9-.69-1.47-.667a2.01 2.01 0 0 0-1.458.58 2.233 2.233 0 0 0 0 3.035 2.01 2.01 0 0 0 1.459.579 2.09 2.09 0 0 0 1.625-.762l.473.469a2.573 2.573 0 0 1-.91.685c-.372.17-.778.257-1.188.253zM56.13 11.375h-.68V6.77h-1.477v-.645h3.634v.645H56.13zM62.274 6.125l-2.002 4.429a1.327 1.327 0 0 1-1.233.938 1.37 1.37 0 0 1-.525-.117l.177-.623c.108.062.23.095.355.095a.626.626 0 0 0 .366-.091.824.824 0 0 0 .24-.334l.192-.418-1.78-3.879h.798l1.307 3.014h.03l1.277-3.014h.798zM63.043 11.375v-5.25h3.827v5.25h-.68V6.77h-2.468v4.605zM68.08 11.375v-5.25h.68v2.25h2.644v-2.25h.68v5.25h-.68V9.006H68.76v2.369z"/>
        <path fill="#FFF" fill-rule="nonzero" stroke="#FFF" stroke-width=".5" d="M77.621 10.697a2.76 2.76 0 0 1-3.878 0 2.821 2.821 0 0 1 0-3.894 2.747 2.747 0 0 1 3.875.004 2.813 2.813 0 0 1 .003 3.89zm-3.376-.44c.794.787 2.08.787 2.873 0a2.225 2.225 0 0 0 0-3.014 2.044 2.044 0 0 0-2.873 0 2.228 2.228 0 0 0 0 3.014zM81.179 11.375v-5.25h1.913a1.56 1.56 0 0 1 1.075.407c.296.257.463.632.454 1.023.005.234-.064.465-.196.66-.13.19-.31.34-.52.432v.03c.255.084.479.242.642.454.167.214.256.478.252.748.009.41-.166.802-.477 1.07-.307.28-.71.432-1.127.426h-2.016zm.68-3h1.233a.796.796 0 0 0 .617-.252.779.779 0 0 0 .007-1.103.761.761 0 0 0-.594-.25h-1.264v1.606zm0 2.355h1.366a.814.814 0 0 0 .635-.272.868.868 0 0 0 .244-.594.888.888 0 0 0-.909-.858h-1.337v1.724z"/>
    </g>
</svg>
