<svg xmlns="http://www.w3.org/2000/svg" width="28" height="18" viewBox="0 0 28 18">
    <g fill="#FFF" fill-rule="nonzero">
        <path d="M9.537 17.786v-2.532H2.712V.671H.175v17.085l9.362.03zM9.508 5.492H7v8.023h2.508V5.492zM7.233 3.05c.263.305.613.427 1.021.427.409 0 .758-.153 1.021-.427.262-.305.408-.64.408-1.068 0-.427-.146-.793-.408-1.068C8.983.61 8.662.488 8.255.488c-.41 0-.73.153-1.022.427-.262.305-.408.64-.408 1.068-.03.427.117.793.408 1.068zM17.88 7.719V5.492h-2.887V3.66c0-.397.087-.732.233-.976.146-.275.467-.397.933-.397h1.721V0h-2.07c-.467 0-.876.061-1.284.214-.408.122-.73.335-1.02.61-.293.274-.526.64-.7 1.068-.176.427-.263.915-.263 1.494v2.136h-1.4v2.197h1.4v10.067h2.479V7.72h2.858zM27.883 12.447v-2.41a5.31 5.31 0 0 0-.408-1.983c-.233-.58-.554-1.068-.992-1.464a4.028 4.028 0 0 0-1.458-.915c-.583-.214-1.108-.336-1.808-.336-.671 0-1.313.122-1.867.336a4.215 4.215 0 0 0-2.48 2.47c-.233.61-.35 1.252-.35 2.014v3.234c0 .763.147 1.434.38 1.983.263.55.613 1.038 1.08 1.404.466.366.99.64 1.574.823a6.293 6.293 0 0 0 1.867.275c.729 0 1.429-.122 2.158-.336.73-.213 1.4-.67 2.042-1.342l-.7-.915c-.233-.275-.467-.58-.73-.916-.495.489-.991.794-1.487.916-.496.122-.933.213-1.283.213-.321 0-.642-.03-.933-.122a2.491 2.491 0 0 1-.788-.427c-.233-.183-.408-.427-.554-.732-.146-.305-.204-.671-.204-1.098v-.61h6.941v-.062zm-2.362-2.135h-4.55v-.153c0-.823.233-1.403.67-1.83.467-.397.992-.61 1.605-.61.612 0 1.137.183 1.604.58.438.396.67 1.006.67 1.86v.153z"/>
    </g>
</svg>
