<svg xmlns="http://www.w3.org/2000/svg" width="21" height="13" viewBox="0 0 21 13">
    <g fill="#000" fill-rule="nonzero">
        <path d="M7.153 12.846v-1.83H2.034V.486H.131v12.339l7.022.022zm-.022-8.88H5.25v5.795h1.881V3.966zM5.425 2.203c.197.22.46.309.766.309s.568-.11.765-.309c.197-.22.306-.462.306-.77 0-.31-.109-.574-.306-.772a1.002 1.002 0 0 0-.765-.308c-.307 0-.547.11-.766.308-.197.22-.306.463-.306.771a.918.918 0 0 0 .306.771zm7.984 3.372V3.966h-2.165V2.644c0-.286.065-.529.175-.705.11-.198.35-.286.7-.286h1.29V0h-1.553c-.35 0-.656.044-.962.154a1.895 1.895 0 0 0-.766.44 2.183 2.183 0 0 0-.525.772 2.716 2.716 0 0 0-.197 1.08v1.542h-1.05v1.587h1.05v7.27h1.86v-7.27h2.143zM20.913 8.99V7.25c0-.53-.132-1.014-.307-1.433a2.806 2.806 0 0 0-.744-1.058 3.04 3.04 0 0 0-1.093-.66 3.811 3.811 0 0 0-1.356-.243 4.06 4.06 0 0 0-1.4.242c-.438.155-.81.397-1.116.683a2.969 2.969 0 0 0-.744 1.102c-.175.44-.262.903-.262 1.454v2.336c0 .55.109 1.035.284 1.432.197.397.46.75.81 1.014.35.264.743.462 1.18.595.438.132.92.198 1.4.198.547 0 1.072-.088 1.62-.243.546-.154 1.05-.484 1.53-.969l-.524-.661c-.175-.198-.35-.419-.547-.661-.372.353-.744.573-1.116.661-.372.088-.7.154-.962.154-.241 0-.482-.022-.7-.088a1.892 1.892 0 0 1-.591-.308 1.44 1.44 0 0 1-.416-.53c-.109-.22-.153-.484-.153-.792v-.441h5.207V8.99zM19.14 7.447h-3.413v-.11c0-.595.175-1.013.503-1.322.35-.286.744-.44 1.203-.44.46 0 .854.132 1.203.418.329.287.504.727.504 1.344v.11z"/>
    </g>
</svg>
