<svg id="d81c29d5-7fdc-47b3-9718-f4ff9e679c3f" data-name="Layer 1" xmlns="http://www.w3.org/2000/svg" width="268.22894mm" height="268.22809mm" viewBox="0 0 760.33401 760.3316">
  <defs>
    <style>
      .\36 d2d10a6-c2b7-41f4-bfa1-7d680ff413f3 {
        fill: #040403;
      }
    </style>
  </defs>
  <title>search</title>
  <path class="6d2d10a6-c2b7-41f4-bfa1-7d680ff413f3" d="M577.16209,529.1601a321.10327,321.10327,0,0,0,71.9942-202.8672c0-177.9169-144.7442-322.6665-322.66409-322.6665-177.9194,0-322.666,144.7496-322.666,322.6665s144.74663,322.667,322.666,322.667a321.087,321.087,0,0,0,202.86419-71.9941L716.35448,763.958l47.8057-47.8008ZM326.49219,581.3525c-140.6411,0-255.06009-114.4209-255.06009-255.0596S185.8511,71.2324,326.49219,71.2324c140.6416,0,255.05759,114.4219,255.05759,255.0605S467.13379,581.3525,326.49219,581.3525Z" transform="translate(-3.82617 -3.6264)"/>
</svg>
