<svg xmlns="http://www.w3.org/2000/svg" width="82" height="17" viewBox="0 0 82 17">
    <g fill="none" fill-rule="evenodd">
        <path d="M0 .275H24.4v16.188H0z"/>
        <path fill="#FFF" stroke="#FFF" stroke-width=".5" d="M24.399.275h-5.462s2.496.702 1.93 2.465c-.33 1.028-3.285 9.135-3.285 9.135L12.828.582 9.39 11.918S5.243 2.17 5.062 1.758C4.463.394 6.647.275 6.647.275H0s1.503.283 2.43 2.143l6.142 14.045L11.94 5.422c-.051 0 4.67 11.017 4.67 11.017s4.25-12.088 4.82-13.698C22.138.737 24.399.275 24.399.275M53.152 8.428c-.163-2.547-2.123-3.43-4.053-3.33-1.45.073-2.622.766-3.203 1.546-.874-1.15-2.068-1.571-3.346-1.571-1.474 0-2.939.416-3.88 1.727l-.002-1.838-1.383 1.034c-1.549.862-2.949.359-2.949.359l2.38 1.184c.048 6.726.048 6.724 0 7.685-.05.96-1.888 1.145-1.888 1.145h6.134s-1.728-.144-1.728-1.112c0-.968.046-8.542.046-8.542.551-.787 1.312-1.033 2.062-1.033 1.634-.002 2.365 1.565 2.377 2.267 0 0 .01 6.396 0 7.308-.012.912-1.734 1.112-1.734 1.112h5.92s-1.746-.28-1.746-1.112c0-.832-.012-8.31-.012-8.31.172-.209 1.023-1.34 2.241-1.25 1.815.136 2.318 1.798 2.254 2.252 0 0 .023 6.42 0 7.308-.022.889-1.689 1.112-1.689 1.112h6.054s-1.855-.122-1.855-1.112v-6.83z"/>
        <path d="M67.549 4.944h14.257v11.425H67.55z"/>
        <path fill="#FFF" stroke="#FFF" stroke-width=".5" d="M79.913 8.428c-.107-2.187-1.795-3.39-3.983-3.346-1.454.028-2.934.4-3.876 1.71v.145l-.007-1.993-1.33 1.024c-1.37.828-3.168.389-3.168.389l.99.43 1.61.758s.06 6.63 0 7.727c-.062 1.097-1.837 1.097-1.837 1.097h6.047s-1.785-.013-1.785-1.112l.002-8.519c.828-.89 1.713-1.075 2.424-1.056 1.47.038 2.52 1.321 2.494 2.213 0 0-.012 6.51-.003 7.362.01.852-1.733 1.112-1.733 1.112h6.048c-.086-.047-1.893-.346-1.893-1.136V8.428zM31.08 6.156c-.885-.684-2.453-1.293-3.962-1.19 0 0-3.19-.113-4.702 2.12.802-.874 3.613-2.213 6.006-1.199 2.279 1.215 2.333 3.717 2.333 5.053 0 2.354-.739 5.214-3.43 5.214-2.852 0-3.634-2.842-3.634-5.297 0-.62-.194-3.18 1.445-4.31-1.297.126-3.74 1.839-3.918 4.374-.222 3.149 2.072 5.725 6.027 5.725 3.767 0 6.08-2.628 6.08-5.776 0-1.294-.235-2.239-.898-3.248-.52-.836-1.058-1.24-1.348-1.466z"/>
        <path d="M55.235 3.876H68.81v12.816H55.235z"/>
        <path fill="#FFF" stroke="#FFF" stroke-linecap="round" stroke-width=".5" d="M66.807 16.369s-1.403.034-1.403-1.112V8.933c0-1.654-1.138-3.857-4.758-3.857-3.425 0-4.538 1.89-4.538 2.849 0 .63.448 1.118 1.17 1.159 1.016.057 1.356-.867 1.103-1.469-.63-1.492.93-2.356 1.9-2.331 2.067.057 2.676 1.807 2.676 3.168v.678c-.038.547-1.07.83-1.598.803-3.112-.16-6.307.678-6.116 3.856.108 1.812 1.536 2.793 3.259 2.857 2.135.08 3.384-1.233 3.819-3.127l-.067.007c-.348 1.213-1.465 2.109-2.4 2.011-1.927-.201-2.265-1.784-2.228-2.65.099-2.277 2.085-2.815 4.112-2.602.33.036 1.253.166 1.219.349v3.748s.006.328.053.674c.203 1.034 1.01 1.366 1.98 1.565.984.202 2.223-.076 2.613-.227l-.796-.025z"/>
    </g>
</svg>
