<svg xmlns="http://www.w3.org/2000/svg" width="68" height="14" viewBox="0 0 68 14">
    <g fill="none" fill-rule="evenodd">
        <path d="M0 .23h20.233v13.49H0z"/>
        <path fill="#000" stroke="#000" stroke-width=".2" d="M20.233.23h-4.529s2.07.584 1.6 2.053c-.274.857-2.724 7.613-2.724 7.613L10.638.485 7.786 9.932S4.348 1.808 4.198 1.465C3.7.328 5.512.23 5.512.23H0s1.246.235 2.015 1.785L7.108 13.72l2.794-9.2c-.043 0 3.871 9.18 3.871 9.18S17.3 3.627 17.771 2.285C18.359.614 20.233.23 20.233.23M44.077 7.023c-.135-2.122-1.76-2.858-3.36-2.775-1.203.06-2.175.639-2.657 1.289-.725-.958-1.715-1.31-2.774-1.31-1.223 0-2.438.347-3.219 1.44l-.001-1.532-1.146.862c-1.285.718-2.446.299-2.446.299l1.973.987c.04 5.604.04 5.603 0 6.404-.04.8-1.565.954-1.565.954h5.086s-1.432-.12-1.432-.927.038-7.119.038-7.119c.457-.655 1.088-.86 1.71-.86 1.355-.001 1.96 1.304 1.97 1.89 0 0 .01 5.329 0 6.089-.01.76-1.437.927-1.437.927h4.909s-1.448-.234-1.448-.927c0-.693-.01-6.925-.01-6.925.143-.174.848-1.117 1.859-1.04 1.504.112 1.922 1.496 1.869 1.875 0 0 .019 5.35 0 6.09-.018.741-1.4.927-1.4.927h5.02s-1.54-.102-1.54-.927V7.023z"/>
        <path d="M56.016 4.12h11.823v9.52H56.016z"/>
        <path fill="#000" stroke="#000" stroke-width=".2" d="M66.27 7.023c-.09-1.822-1.49-2.825-3.304-2.788-1.205.023-2.432.333-3.214 1.425v.12l-.006-1.66-1.103.854c-1.136.69-2.627.323-2.627.323l.821.36 1.336.63s.048 5.525 0 6.44c-.052.914-1.524.914-1.524.914h5.015s-1.48-.011-1.48-.927l.001-7.099c.687-.742 1.42-.896 2.01-.88 1.219.032 2.09 1.101 2.068 1.844 0 0-.01 5.426-.002 6.135.008.71-1.437.927-1.437.927h5.015c-.071-.04-1.57-.289-1.57-.947V7.023zM25.773 5.13c-.733-.57-2.033-1.078-3.285-.992 0 0-2.645-.094-3.899 1.766.665-.728 2.996-1.844 4.98-.998 1.89 1.012 1.935 3.097 1.935 4.21 0 1.962-.612 4.345-2.844 4.345-2.366 0-3.014-2.368-3.014-4.413 0-.517-.16-2.65 1.199-3.592-1.076.105-3.101 1.532-3.25 3.645-.183 2.624 1.72 4.77 4.998 4.77 3.124 0 5.043-2.19 5.043-4.813 0-1.078-.196-1.865-.746-2.706-.43-.697-.876-1.033-1.117-1.222z"/>
        <path d="M45.805 3.23H57.06v10.68H45.805z"/>
        <path fill="#000" stroke="#000" stroke-linecap="round" stroke-width=".2" d="M55.4 13.64s-1.163.03-1.163-.926v-5.27c0-1.379-.943-3.214-3.945-3.214-2.84 0-3.763 1.575-3.763 2.374 0 .525.37.932.97.966.842.048 1.125-.722.914-1.224-.521-1.243.772-1.963 1.577-1.943 1.713.048 2.218 1.506 2.218 2.64v.565c-.031.456-.887.692-1.325.67-2.58-.134-5.23.565-5.071 3.213.089 1.51 1.273 2.328 2.702 2.381 1.77.066 2.806-1.028 3.167-2.606l-.056.006c-.288 1.01-1.214 1.757-1.99 1.676-1.598-.168-1.878-1.487-1.847-2.209.081-1.897 1.729-2.346 3.409-2.168.274.03 1.04.138 1.011.29v3.124s.005.273.044.562c.169.862.838 1.138 1.642 1.304.816.168 1.844-.063 2.167-.189l-.66-.021z"/>
    </g>
</svg>
