<?xml version="1.0" encoding="iso-8859-1"?>
<!-- Generator: Adobe Illustrator 16.0.0, SVG Export Plug-In . SVG Version: 6.00 Build 0)  -->
<!DOCTYPE svg PUBLIC "-//W3C//DTD SVG 1.1//EN" "http://www.w3.org/Graphics/SVG/1.1/DTD/svg11.dtd">
<svg version="1.1" id="Capa_1" xmlns="http://www.w3.org/2000/svg" xmlns:xlink="http://www.w3.org/1999/xlink" x="0px" y="0px"
	 width="611.996px" height="611.996px" viewBox="0 0 611.996 611.996" style="enable-background:new 0 0 611.996 611.996;"
	 xml:space="preserve">
<g>
	<path d="M563.109,310.872c3.575-14.145,5.381-28.477,5.381-42.696c0-96.263-78.299-174.579-174.542-174.579
		c-66.171,0-126.481,37.535-156.017,96.341c-15.04-7.362-31.557-11.217-48.248-11.217c-60.799,0-110.262,49.459-110.262,110.254
		c0,4.278,0.268,8.638,0.805,13.035C33.301,315.273,0,358.718,0,408.128c0,60.803,49.464,110.271,110.262,110.271
		c3.726,0,7.602-0.699,11.758-1.191c1.029,0.472,2.176,0.276,3.384,0.276h363.083c0.744,0,1.464,0.358,2.151,0.171
		c2.262,0.158,4.742,0.513,7.312,0.513c62.885,0,114.045-51.046,114.045-113.935C612,366.656,593.837,332.261,563.109,310.872z
		 M497.955,502.13c-3.083,0-6.161-0.231-8.765-0.451c-0.235-0.021-0.468-0.488-0.699-0.488c-0.947,0-1.883,0.029-2.766,0.029
		h-355.95c-1.655,0-3.644-1.033-5.621-0.725c-5.12,0.793-9.663,1.407-13.893,1.407c-51.827,0-93.994-42.054-93.994-93.888
		c0-44.344,31.455-82.993,74.793-91.973c4.352-0.899,7.174-5.097,6.345-9.456c-1.139-5.975-1.716-11.892-1.716-17.623
		c0-51.822,42.167-93.981,93.994-93.981c16.732,0,33.26,4.559,47.792,13.177c2.001,1.188,4.421,1.468,6.633,0.752
		c2.217-0.708,4.018-2.331,4.962-4.458c25.346-57.459,82.212-94.588,144.877-94.588c87.271,0,158.274,71.019,158.274,158.311
		c0,14.646-2.123,29.446-6.316,43.998c-1.009,3.498,0.427,7.235,3.518,9.159c28.994,18.033,46.304,49.065,46.304,83.017
		C595.731,458.267,551.864,502.13,497.955,502.13z"/>
</g>
<g>
</g>
<g>
</g>
<g>
</g>
<g>
</g>
<g>
</g>
<g>
</g>
<g>
</g>
<g>
</g>
<g>
</g>
<g>
</g>
<g>
</g>
<g>
</g>
<g>
</g>
<g>
</g>
<g>
</g>
</svg>
