<?xml version="1.0" ?><!DOCTYPE svg  PUBLIC '-//W3C//DTD SVG 1.1//EN'  'http://www.w3.org/Graphics/SVG/1.1/DTD/svg11.dtd'><svg enable-background="new 0 0 64 64" height="64px" id="Layer_1" version="1.1" viewBox="0 0 64 64" width="64px" xml:space="preserve" xmlns="http://www.w3.org/2000/svg" xmlns:xlink="http://www.w3.org/1999/xlink"><path d="  M43.851,25.393c-0.757-7.94-7.812-14.166-16.401-14.166c-9.096,0-16.468,6.976-16.468,15.581c0,0.836,0.07,1.654,0.204,2.453l0,0  c-5.72,0.675-10.161,5.665-10.161,11.719c0,6.514,5.143,11.794,11.487,11.794h42.107c4.616,0,8.357-3.339,8.357-7.462  c0-3.727-3.059-6.814-7.057-7.371l0,0C55.919,31.425,50.193,25.393,43.851,25.393C43.646,25.393,44.05,25.382,43.851,25.393  c-3.36,0.18-6.337,1.841-8.325,4.361" fill="none" stroke="#231F20" stroke-linecap="round" stroke-linejoin="round" stroke-miterlimit="10" stroke-width="2"/></svg>