<svg height="2263" viewBox="0 0 95 86" width="2500" xmlns="http://www.w3.org/2000/svg"><g fill-rule="evenodd"><path d="m19.131 0 28.1 55-47.231-55z" fill="#ea6c00" transform="translate(.17 30.901)"/><path d="m19.131 0 28.1 55-47.231-55z" fill="#ea6c00" transform="matrix(-1 0 0 1 94.64 30.901)"/><path d="m0 0h56.2l-28.1 55z" fill="#fdad00" transform="translate(19.3 30.901)"/><path d="m28.1 0-26.621 2.814-1.479 27.667z" fill="#fdd231" transform="translate(19.3 .42)"/><path d="m28.1 0-26.621 2.814-1.479 27.667z" fill="#fdd231" transform="matrix(-1 0 0 1 75.5 .42)"/><path d="m0 27.667 20.61-27.667-1.479 27.667z" fill="#fdad00" transform="matrix(-1 0 0 1 94.64 3.234)"/><path d="m0 27.667 20.61-27.667-1.479 27.667z" fill="#fdad00" transform="translate(.17 3.234)"/><path d="m28.1 0-28.1 30.481h56.2z" fill="#feeeb7" transform="translate(19.3 .42)"/></g></svg>